0
SECTION
2
HEADER
0
ENDSEC
0
SECTION
2
BLOCKS
0
BLOCK
2
Wall1
70
64
10
0.0
20
0.0
30
0.0
3
Wall1
0
POLYLINE
66
1
70
64
0
VERTEX
10
1.096400
20
-0.012316
30
-1.615785
70
192
0
VERTEX
10
1.046401
20
-0.012316
30
-1.615785
70
192
0
VERTEX
10
1.096401
20
-0.003634
30
-1.566545
70
192
0
VERTEX
10
1.046401
20
-0.003634
30
-1.566545
70
192
0
VERTEX
10
1.096401
20
-1.046364
30
-1.433455
70
192
0
VERTEX
10
1.046401
20
-1.046364
30
-1.433454
70
192
0
VERTEX
10
1.096401
20
-1.037682
30
-1.384214
70
192
0
VERTEX
10
1.046401
20
-1.037682
30
-1.384214
70
192
0
VERTEX
10
2.500001
20
-0.012316
30
-1.615786
70
192
0
VERTEX
10
-2.500002
20
-0.012317
30
-1.615786
70
192
0
VERTEX
10
2.500001
20
-0.003634
30
-1.566545
70
192
0
VERTEX
10
-2.500002
20
-0.003636
30
-1.566546
70
192
0
VERTEX
10
2.500000
20
-0.061556
30
-1.607103
70
192
0
VERTEX
10
-2.500001
20
-0.061558
30
-1.607104
70
192
0
VERTEX
10
2.500001
20
-0.052873
30
-1.557864
70
192
0
VERTEX
10
-2.500000
20
-0.052876
30
-1.557864
70
192
0
VERTEX
10
2.525001
20
-0.012315
30
-1.615785
70
192
0
VERTEX
10
2.475000
20
-0.012316
30
-1.615784
70
192
0
VERTEX
10
2.525001
20
-0.003634
30
-1.566545
70
192
0
VERTEX
10
2.475000
20
-0.003634
30
-1.566545
70
192
0
VERTEX
10
2.525002
20
-1.046364
30
-1.433454
70
192
0
VERTEX
10
2.474999
20
-1.046364
30
-1.433454
70
192
0
VERTEX
10
2.525002
20
-1.037682
30
-1.384213
70
192
0
VERTEX
10
2.475001
20
-1.037682
30
-1.384213
70
192
0
VERTEX
10
2.500001
20
-0.337303
30
-1.558481
70
192
0
VERTEX
10
-2.500002
20
-0.337305
30
-1.558482
70
192
0
VERTEX
10
2.500001
20
-0.328620
30
-1.509241
70
192
0
VERTEX
10
-2.500002
20
-0.328622
30
-1.509241
70
192
0
VERTEX
10
2.500001
20
-0.386543
30
-1.549799
70
192
0
VERTEX
10
-2.500001
20
-0.386545
30
-1.549799
70
192
0
VERTEX
10
2.500001
20
-0.377861
30
-1.500558
70
192
0
VERTEX
10
-2.500001
20
-0.377863
30
-1.500558
70
192
0
VERTEX
10
2.500002
20
-0.662289
30
-1.501178
70
192
0
VERTEX
10
-2.500001
20
-0.662291
30
-1.501178
70
192
0
VERTEX
10
2.500000
20
-0.653607
30
-1.451939
70
192
0
VERTEX
10
-2.500000
20
-0.653609
30
-1.451937
70
192
0
VERTEX
10
2.500001
20
-0.711530
30
-1.492495
70
192
0
VERTEX
10
-2.500000
20
-0.711533
30
-1.492496
70
192
0
VERTEX
10
2.500001
20
-0.702847
30
-1.443255
70
192
0
VERTEX
10
-2.500002
20
-0.702850
30
-1.443255
70
192
0
VERTEX
10
2.500000
20
-0.997123
30
-1.442136
70
192
0
VERTEX
10
-2.500000
20
-0.997126
30
-1.442138
70
192
0
VERTEX
10
2.500002
20
-0.988442
30
-1.392897
70
192
0
VERTEX
10
-2.500000
20
-0.988445
30
-1.392897
70
192
0
VERTEX
10
2.500001
20
-1.046365
30
-1.433455
70
192
0
VERTEX
10
-2.500000
20
-1.046366
30
-1.433455
70
192
0
VERTEX
10
2.500002
20
-1.037682
30
-1.384215
70
192
0
VERTEX
10
-2.500000
20
-1.037684
30
-1.384215
70
192
0
VERTEX
10
-2.450001
20
-0.012318
30
-1.615786
70
192
0
VERTEX
10
-2.450001
20
-0.003637
30
-1.566546
70
192
0
VERTEX
10
-2.450001
20
-1.046368
30
-1.433455
70
192
0
VERTEX
10
-2.450001
20
-1.037684
30
-1.384215
70
192
0
VERTEX
10
-1.760701
20
-0.012318
30
-1.615786
70
192
0
VERTEX
10
-1.810701
20
-0.012318
30
-1.615786
70
192
0
VERTEX
10
-1.760701
20
-0.003636
30
-1.566546
70
192
0
VERTEX
10
-1.810702
20
-0.003636
30
-1.566546
70
192
0
VERTEX
10
-1.760701
20
-1.046366
30
-1.433455
70
192
0
VERTEX
10
-1.810701
20
-1.046366
30
-1.433455
70
192
0
VERTEX
10
-1.760701
20
-1.037684
30
-1.384214
70
192
0
VERTEX
10
-1.810701
20
-1.037684
30
-1.384215
70
192
0
VERTEX
10
-1.046401
20
-0.012318
30
-1.615786
70
192
0
VERTEX
10
-1.096401
20
-0.012318
30
-1.615785
70
192
0
VERTEX
10
-1.046401
20
-0.003636
30
-1.566545
70
192
0
VERTEX
10
-1.096401
20
-0.003635
30
-1.566545
70
192
0
VERTEX
10
-1.046401
20
-1.046365
30
-1.433455
70
192
0
VERTEX
10
-1.096401
20
-1.046366
30
-1.433455
70
192
0
VERTEX
10
-1.046401
20
-1.037684
30
-1.384215
70
192
0
VERTEX
10
-1.096401
20
-1.037684
30
-1.384215
70
192
0
VERTEX
10
-0.332100
20
-0.012317
30
-1.615786
70
192
0
VERTEX
10
-0.382100
20
-0.012317
30
-1.615786
70
192
0
VERTEX
10
-0.332100
20
-0.003634
30
-1.566545
70
192
0
VERTEX
10
-0.382100
20
-0.003634
30
-1.566545
70
192
0
VERTEX
10
-0.332100
20
-1.046365
30
-1.433455
70
192
0
VERTEX
10
-0.382100
20
-1.046365
30
-1.433455
70
192
0
VERTEX
10
-0.332100
20
-1.037683
30
-1.384215
70
192
0
VERTEX
10
-0.382100
20
-1.037683
30
-1.384215
70
192
0
VERTEX
10
0.382100
20
-0.012317
30
-1.615786
70
192
0
VERTEX
10
0.332100
20
-0.012317
30
-1.615786
70
192
0
VERTEX
10
0.382100
20
-0.003634
30
-1.566545
70
192
0
VERTEX
10
0.332100
20
-0.003634
30
-1.566545
70
192
0
VERTEX
10
0.382101
20
-1.046365
30
-1.433455
70
192
0
VERTEX
10
0.332100
20
-1.046365
30
-1.433455
70
192
0
VERTEX
10
0.382100
20
-1.037683
30
-1.384215
70
192
0
VERTEX
10
0.332100
20
-1.037683
30
-1.384215
70
192
0
VERTEX
10
1.810700
20
-0.012316
30
-1.615785
70
192
0
VERTEX
10
1.760701
20
-0.012316
30
-1.615785
70
192
0
VERTEX
10
1.810700
20
-0.003634
30
-1.566545
70
192
0
VERTEX
10
1.760701
20
-0.003634
30
-1.566545
70
192
0
VERTEX
10
1.810702
20
-1.046364
30
-1.433454
70
192
0
VERTEX
10
1.760701
20
-1.046364
30
-1.433454
70
192
0
VERTEX
10
1.810701
20
-1.037682
30
-1.384215
70
192
0
VERTEX
10
1.760701
20
-1.037682
30
-1.384214
70
192
0
VERTEX
10
0.250000
20
-0.406240
30
-1.546326
70
192
0
VERTEX
10
-0.250000
20
-0.406240
30
-1.546326
70
192
0
VERTEX
10
0.250000
20
-0.397558
30
-1.497086
70
192
0
VERTEX
10
-0.250000
20
-0.397558
30
-1.497086
70
192
0
VERTEX
10
0.250000
20
-0.603202
30
-1.511596
70
192
0
VERTEX
10
-0.250000
20
-0.603202
30
-1.511596
70
192
0
VERTEX
10
0.250000
20
-0.594519
30
-1.462356
70
192
0
VERTEX
10
-0.250000
20
-0.594519
30
-1.462356
70
192
0
VERTEX
10
2.375000
20
-0.406239
30
-1.546326
70
192
0
VERTEX
10
1.875000
20
-0.406239
30
-1.546326
70
192
0
VERTEX
10
2.375001
20
-0.397556
30
-1.497085
70
192
0
VERTEX
10
1.875001
20
-0.397557
30
-1.497085
70
192
0
VERTEX
10
2.375000
20
-0.603200
30
-1.511596
70
192
0
VERTEX
10
1.875000
20
-0.603201
30
-1.511595
70
192
0
VERTEX
10
2.375000
20
-0.594517
30
-1.462355
70
192
0
VERTEX
10
1.875000
20
-0.594518
30
-1.462356
70
192
0
VERTEX
10
1.650001
20
-0.406239
30
-1.546326
70
192
0
VERTEX
10
1.150001
20
-0.406239
30
-1.546326
70
192
0
VERTEX
10
1.650001
20
-0.397557
30
-1.497086
70
192
0
VERTEX
10
1.150001
20
-0.397557
30
-1.497086
70
192
0
VERTEX
10
1.650002
20
-0.603201
30
-1.511597
70
192
0
VERTEX
10
1.150001
20
-0.603201
30
-1.511597
70
192
0
VERTEX
10
1.650001
20
-0.594518
30
-1.462356
70
192
0
VERTEX
10
1.150001
20
-0.594518
30
-1.462356
70
192
0
VERTEX
10
0.950001
20
-0.406239
30
-1.546326
70
192
0
VERTEX
10
0.450001
20
-0.406240
30
-1.546326
70
192
0
VERTEX
10
0.950001
20
-0.397557
30
-1.497086
70
192
0
VERTEX
10
0.450000
20
-0.397558
30
-1.497086
70
192
0
VERTEX
10
0.950001
20
-0.603201
30
-1.511597
70
192
0
VERTEX
10
0.450000
20
-0.603202
30
-1.511597
70
192
0
VERTEX
10
0.950001
20
-0.594518
30
-1.462356
70
192
0
VERTEX
10
0.450001
20
-0.594519
30
-1.462356
70
192
0
VERTEX
10
-1.875000
20
-0.406241
30
-1.546326
70
192
0
VERTEX
10
-2.375000
20
-0.406241
30
-1.546327
70
192
0
VERTEX
10
-1.875000
20
-0.397559
30
-1.497086
70
192
0
VERTEX
10
-2.375001
20
-0.397559
30
-1.497087
70
192
0
VERTEX
10
-1.875000
20
-0.603203
30
-1.511597
70
192
0
VERTEX
10
-2.375000
20
-0.603203
30
-1.511597
70
192
0
VERTEX
10
-1.875000
20
-0.594521
30
-1.462356
70
192
0
VERTEX
10
-2.375000
20
-0.594521
30
-1.462356
70
192
0
VERTEX
10
-1.175000
20
-0.406241
30
-1.546326
70
192
0
VERTEX
10
-1.675001
20
-0.406241
30
-1.546327
70
192
0
VERTEX
10
-1.175000
20
-0.397559
30
-1.497086
70
192
0
VERTEX
10
-1.675000
20
-0.397559
30
-1.497086
70
192
0
VERTEX
10
-1.175000
20
-0.603203
30
-1.511597
70
192
0
VERTEX
10
-1.675000
20
-0.603203
30
-1.511597
70
192
0
VERTEX
10
-1.175000
20
-0.594519
30
-1.462356
70
192
0
VERTEX
10
-1.675001
20
-0.594520
30
-1.462356
70
192
0
VERTEX
10
-0.475000
20
-0.406240
30
-1.546326
70
192
0
VERTEX
10
-0.975001
20
-0.406240
30
-1.546326
70
192
0
VERTEX
10
-0.475000
20
-0.397557
30
-1.497086
70
192
0
VERTEX
10
-0.975000
20
-0.397558
30
-1.497085
70
192
0
VERTEX
10
-0.475000
20
-0.603201
30
-1.511596
70
192
0
VERTEX
10
-0.975000
20
-0.603202
30
-1.511596
70
192
0
VERTEX
10
-0.475000
20
-0.594519
30
-1.462356
70
192
0
VERTEX
10
-0.975000
20
-0.594520
30
-1.462356
70
192
0
VERTEX
10
2.375001
20
-0.071404
30
-1.605366
70
192
0
VERTEX
10
1.875001
20
-0.071404
30
-1.605366
70
192
0
VERTEX
10
2.375001
20
-0.062722
30
-1.556126
70
192
0
VERTEX
10
1.875001
20
-0.062722
30
-1.556126
70
192
0
VERTEX
10
2.375001
20
-0.268366
30
-1.570637
70
192
0
VERTEX
10
1.875001
20
-0.268366
30
-1.570637
70
192
0
VERTEX
10
2.375001
20
-0.259683
30
-1.521396
70
192
0
VERTEX
10
1.875001
20
-0.259684
30
-1.521396
70
192
0
VERTEX
10
0.250000
20
-0.071406
30
-1.605366
70
192
0
VERTEX
10
-0.250000
20
-0.071406
30
-1.605366
70
192
0
VERTEX
10
0.250000
20
-0.062723
30
-1.556126
70
192
0
VERTEX
10
-0.250000
20
-0.062723
30
-1.556127
70
192
0
VERTEX
10
0.250000
20
-0.268367
30
-1.570637
70
192
0
VERTEX
10
-0.250000
20
-0.268367
30
-1.570637
70
192
0
VERTEX
10
0.250000
20
-0.259685
30
-1.521396
70
192
0
VERTEX
10
-0.250000
20
-0.259685
30
-1.521396
70
192
0
VERTEX
10
-0.475000
20
-0.071405
30
-1.605366
70
192
0
VERTEX
10
-0.975001
20
-0.071405
30
-1.605366
70
192
0
VERTEX
10
-0.475000
20
-0.062723
30
-1.556126
70
192
0
VERTEX
10
-0.975001
20
-0.062723
30
-1.556127
70
192
0
VERTEX
10
-0.475000
20
-0.268367
30
-1.570637
70
192
0
VERTEX
10
-0.975000
20
-0.268368
30
-1.570637
70
192
0
VERTEX
10
-0.475000
20
-0.259684
30
-1.521396
70
192
0
VERTEX
10
-0.975001
20
-0.259686
30
-1.521396
70
192
0
VERTEX
10
-1.175000
20
-0.071407
30
-1.605366
70
192
0
VERTEX
10
-1.675001
20
-0.071407
30
-1.605366
70
192
0
VERTEX
10
-1.175000
20
-0.062724
30
-1.556127
70
192
0
VERTEX
10
-1.675001
20
-0.062724
30
-1.556126
70
192
0
VERTEX
10
-1.175000
20
-0.268368
30
-1.570637
70
192
0
VERTEX
10
-1.675000
20
-0.268368
30
-1.570637
70
192
0
VERTEX
10
-1.175000
20
-0.259686
30
-1.521396
70
192
0
VERTEX
10
-1.675001
20
-0.259686
30
-1.521396
70
192
0
VERTEX
10
-1.875001
20
-0.071407
30
-1.605367
70
192
0
VERTEX
10
-2.375000
20
-0.071407
30
-1.605367
70
192
0
VERTEX
10
-1.875001
20
-0.062724
30
-1.556127
70
192
0
VERTEX
10
-2.375000
20
-0.062724
30
-1.556127
70
192
0
VERTEX
10
-1.875001
20
-0.268368
30
-1.570637
70
192
0
VERTEX
10
-2.375000
20
-0.268368
30
-1.570637
70
192
0
VERTEX
10
-1.875001
20
-0.259686
30
-1.521397
70
192
0
VERTEX
10
-2.375000
20
-0.259686
30
-1.521397
70
192
0
VERTEX
10
1.650001
20
-0.071404
30
-1.605367
70
192
0
VERTEX
10
1.150001
20
-0.071404
30
-1.605367
70
192
0
VERTEX
10
1.650001
20
-0.062722
30
-1.556126
70
192
0
VERTEX
10
1.150001
20
-0.062722
30
-1.556126
70
192
0
VERTEX
10
1.650001
20
-0.268366
30
-1.570637
70
192
0
VERTEX
10
1.150001
20
-0.268366
30
-1.570637
70
192
0
VERTEX
10
1.650001
20
-0.259683
30
-1.521397
70
192
0
VERTEX
10
1.150001
20
-0.259683
30
-1.521397
70
192
0
VERTEX
10
2.375001
20
-0.721378
30
-1.490757
70
192
0
VERTEX
10
1.875001
20
-0.721378
30
-1.490759
70
192
0
VERTEX
10
2.375001
20
-0.712696
30
-1.441517
70
192
0
VERTEX
10
1.875001
20
-0.712696
30
-1.441518
70
192
0
VERTEX
10
2.375001
20
-0.918340
30
-1.456028
70
192
0
VERTEX
10
1.875001
20
-0.918340
30
-1.456029
70
192
0
VERTEX
10
2.375001
20
-0.909657
30
-1.406788
70
192
0
VERTEX
10
1.875001
20
-0.909657
30
-1.406788
70
192
0
VERTEX
10
-0.475000
20
-0.721379
30
-1.490758
70
192
0
VERTEX
10
-0.975000
20
-0.721380
30
-1.490758
70
192
0
VERTEX
10
-0.475000
20
-0.712697
30
-1.441518
70
192
0
VERTEX
10
-0.975000
20
-0.712697
30
-1.441518
70
192
0
VERTEX
10
-0.475000
20
-0.918341
30
-1.456029
70
192
0
VERTEX
10
-0.975000
20
-0.918342
30
-1.456029
70
192
0
VERTEX
10
-0.475000
20
-0.909658
30
-1.406788
70
192
0
VERTEX
10
-0.975000
20
-0.909659
30
-1.406788
70
192
0
VERTEX
10
-1.175000
20
-0.721380
30
-1.490758
70
192
0
VERTEX
10
-1.675000
20
-0.721380
30
-1.490758
70
192
0
VERTEX
10
-1.175000
20
-0.712698
30
-1.441518
70
192
0
VERTEX
10
-1.675000
20
-0.712698
30
-1.441518
70
192
0
VERTEX
10
-1.175000
20
-0.918342
30
-1.456029
70
192
0
VERTEX
10
-1.675000
20
-0.918342
30
-1.456029
70
192
0
VERTEX
10
-1.175000
20
-0.909658
30
-1.406788
70
192
0
VERTEX
10
-1.675000
20
-0.909659
30
-1.406788
70
192
0
VERTEX
10
-1.875001
20
-0.721380
30
-1.490759
70
192
0
VERTEX
10
-2.375000
20
-0.721380
30
-1.490759
70
192
0
VERTEX
10
-1.875001
20
-0.712698
30
-1.441519
70
192
0
VERTEX
10
-2.375000
20
-0.712698
30
-1.441518
70
192
0
VERTEX
10
-1.875001
20
-0.918342
30
-1.456029
70
192
0
VERTEX
10
-2.375000
20
-0.918342
30
-1.456029
70
192
0
VERTEX
10
-1.875001
20
-0.909659
30
-1.406789
70
192
0
VERTEX
10
-2.375000
20
-0.909659
30
-1.406789
70
192
0
VERTEX
10
0.950000
20
-0.721378
30
-1.490758
70
192
0
VERTEX
10
0.450000
20
-0.721379
30
-1.490758
70
192
0
VERTEX
10
0.950000
20
-0.712696
30
-1.441518
70
192
0
VERTEX
10
0.450000
20
-0.712697
30
-1.441518
70
192
0
VERTEX
10
0.950000
20
-0.918340
30
-1.456028
70
192
0
VERTEX
10
0.450000
20
-0.918341
30
-1.456028
70
192
0
VERTEX
10
0.950000
20
-0.909657
30
-1.406788
70
192
0
VERTEX
10
0.450000
20
-0.909658
30
-1.406788
70
192
0
VERTEX
10
1.650002
20
-0.721378
30
-1.490757
70
192
0
VERTEX
10
1.150001
20
-0.721378
30
-1.490757
70
192
0
VERTEX
10
1.650001
20
-0.712696
30
-1.441517
70
192
0
VERTEX
10
1.150001
20
-0.712696
30
-1.441517
70
192
0
VERTEX
10
1.650002
20
-0.918340
30
-1.456028
70
192
0
VERTEX
10
1.150001
20
-0.918340
30
-1.456028
70
192
0
VERTEX
10
1.650002
20
-0.909657
30
-1.406787
70
192
0
VERTEX
10
1.150001
20
-0.909657
30
-1.406787
70
192
0
VERTEX
10
0.0
20
0.0
30
0.0
70
128
71
1
72
2
73
3
0
VERTEX
10
0.0
20
0.0
30
0.0
70
128
71
3
72
2
73
4
0
VERTEX
10
0.0
20
0.0
30
0.0
70
128
71
2
72
1
73
5
0
VERTEX
10
0.0
20
0.0
30
0.0
70
128
71
2
72
5
73
6
0
VERTEX
10
0.0
20
0.0
30
0.0
70
128
71
3
72
4
73
7
0
VERTEX
10
0.0
20
0.0
30
0.0
70
128
71
7
72
4
73
8
0
VERTEX
10
0.0
20
0.0
30
0.0
70
128
71
7
72
8
73
5
0
VERTEX
10
0.0
20
0.0
30
0.0
70
128
71
5
72
8
73
6
0
VERTEX
10
0.0
20
0.0
30
0.0
70
128
71
4
72
2
73
8
0
VERTEX
10
0.0
20
0.0
30
0.0
70
128
71
8
72
2
73
6
0
VERTEX
10
0.0
20
0.0
30
0.0
70
128
71
1
72
3
73
7
0
VERTEX
10
0.0
20
0.0
30
0.0
70
128
71
1
72
7
73
5
0
VERTEX
10
0.0
20
0.0
30
0.0
70
128
71
9
72
10
73
11
0
VERTEX
10
0.0
20
0.0
30
0.0
70
128
71
11
72
10
73
12
0
VERTEX
10
0.0
20
0.0
30
0.0
70
128
71
10
72
9
73
13
0
VERTEX
10
0.0
20
0.0
30
0.0
70
128
71
10
72
13
73
14
0
VERTEX
10
0.0
20
0.0
30
0.0
70
128
71
11
72
12
73
15
0
VERTEX
10
0.0
20
0.0
30
0.0
70
128
71
15
72
12
73
16
0
VERTEX
10
0.0
20
0.0
30
0.0
70
128
71
15
72
16
73
13
0
VERTEX
10
0.0
20
0.0
30
0.0
70
128
71
13
72
16
73
14
0
VERTEX
10
0.0
20
0.0
30
0.0
70
128
71
12
72
10
73
16
0
VERTEX
10
0.0
20
0.0
30
0.0
70
128
71
16
72
10
73
14
0
VERTEX
10
0.0
20
0.0
30
0.0
70
128
71
9
72
11
73
15
0
VERTEX
10
0.0
20
0.0
30
0.0
70
128
71
9
72
15
73
13
0
VERTEX
10
0.0
20
0.0
30
0.0
70
128
71
17
72
18
73
19
0
VERTEX
10
0.0
20
0.0
30
0.0
70
128
71
19
72
18
73
20
0
VERTEX
10
0.0
20
0.0
30
0.0
70
128
71
18
72
17
73
21
0
VERTEX
10
0.0
20
0.0
30
0.0
70
128
71
18
72
21
73
22
0
VERTEX
10
0.0
20
0.0
30
0.0
70
128
71
19
72
20
73
23
0
VERTEX
10
0.0
20
0.0
30
0.0
70
128
71
23
72
20
73
24
0
VERTEX
10
0.0
20
0.0
30
0.0
70
128
71
23
72
24
73
21
0
VERTEX
10
0.0
20
0.0
30
0.0
70
128
71
21
72
24
73
22
0
VERTEX
10
0.0
20
0.0
30
0.0
70
128
71
20
72
18
73
24
0
VERTEX
10
0.0
20
0.0
30
0.0
70
128
71
24
72
18
73
22
0
VERTEX
10
0.0
20
0.0
30
0.0
70
128
71
17
72
19
73
23
0
VERTEX
10
0.0
20
0.0
30
0.0
70
128
71
17
72
23
73
21
0
VERTEX
10
0.0
20
0.0
30
0.0
70
128
71
25
72
26
73
27
0
VERTEX
10
0.0
20
0.0
30
0.0
70
128
71
27
72
26
73
28
0
VERTEX
10
0.0
20
0.0
30
0.0
70
128
71
26
72
25
73
29
0
VERTEX
10
0.0
20
0.0
30
0.0
70
128
71
26
72
29
73
30
0
VERTEX
10
0.0
20
0.0
30
0.0
70
128
71
27
72
28
73
31
0
VERTEX
10
0.0
20
0.0
30
0.0
70
128
71
31
72
28
73
32
0
VERTEX
10
0.0
20
0.0
30
0.0
70
128
71
31
72
32
73
29
0
VERTEX
10
0.0
20
0.0
30
0.0
70
128
71
29
72
32
73
30
0
VERTEX
10
0.0
20
0.0
30
0.0
70
128
71
28
72
26
73
32
0
VERTEX
10
0.0
20
0.0
30
0.0
70
128
71
32
72
26
73
30
0
VERTEX
10
0.0
20
0.0
30
0.0
70
128
71
25
72
27
73
31
0
VERTEX
10
0.0
20
0.0
30
0.0
70
128
71
25
72
31
73
29
0
VERTEX
10
0.0
20
0.0
30
0.0
70
128
71
33
72
34
73
35
0
VERTEX
10
0.0
20
0.0
30
0.0
70
128
71
35
72
34
73
36
0
VERTEX
10
0.0
20
0.0
30
0.0
70
128
71
34
72
33
73
37
0
VERTEX
10
0.0
20
0.0
30
0.0
70
128
71
34
72
37
73
38
0
VERTEX
10
0.0
20
0.0
30
0.0
70
128
71
35
72
36
73
39
0
VERTEX
10
0.0
20
0.0
30
0.0
70
128
71
39
72
36
73
40
0
VERTEX
10
0.0
20
0.0
30
0.0
70
128
71
39
72
40
73
37
0
VERTEX
10
0.0
20
0.0
30
0.0
70
128
71
37
72
40
73
38
0
VERTEX
10
0.0
20
0.0
30
0.0
70
128
71
36
72
34
73
40
0
VERTEX
10
0.0
20
0.0
30
0.0
70
128
71
40
72
34
73
38
0
VERTEX
10
0.0
20
0.0
30
0.0
70
128
71
33
72
35
73
39
0
VERTEX
10
0.0
20
0.0
30
0.0
70
128
71
33
72
39
73
37
0
VERTEX
10
0.0
20
0.0
30
0.0
70
128
71
41
72
42
73
43
0
VERTEX
10
0.0
20
0.0
30
0.0
70
128
71
43
72
42
73
44
0
VERTEX
10
0.0
20
0.0
30
0.0
70
128
71
42
72
41
73
45
0
VERTEX
10
0.0
20
0.0
30
0.0
70
128
71
42
72
45
73
46
0
VERTEX
10
0.0
20
0.0
30
0.0
70
128
71
43
72
44
73
47
0
VERTEX
10
0.0
20
0.0
30
0.0
70
128
71
47
72
44
73
48
0
VERTEX
10
0.0
20
0.0
30
0.0
70
128
71
47
72
48
73
45
0
VERTEX
10
0.0
20
0.0
30
0.0
70
128
71
45
72
48
73
46
0
VERTEX
10
0.0
20
0.0
30
0.0
70
128
71
44
72
42
73
48
0
VERTEX
10
0.0
20
0.0
30
0.0
70
128
71
48
72
42
73
46
0
VERTEX
10
0.0
20
0.0
30
0.0
70
128
71
41
72
43
73
47
0
VERTEX
10
0.0
20
0.0
30
0.0
70
128
71
41
72
47
73
45
0
VERTEX
10
0.0
20
0.0
30
0.0
70
128
71
49
72
10
73
50
0
VERTEX
10
0.0
20
0.0
30
0.0
70
128
71
50
72
10
73
12
0
VERTEX
10
0.0
20
0.0
30
0.0
70
128
71
10
72
49
73
51
0
VERTEX
10
0.0
20
0.0
30
0.0
70
128
71
10
72
51
73
46
0
VERTEX
10
0.0
20
0.0
30
0.0
70
128
71
50
72
12
73
52
0
VERTEX
10
0.0
20
0.0
30
0.0
70
128
71
52
72
12
73
48
0
VERTEX
10
0.0
20
0.0
30
0.0
70
128
71
52
72
48
73
51
0
VERTEX
10
0.0
20
0.0
30
0.0
70
128
71
51
72
48
73
46
0
VERTEX
10
0.0
20
0.0
30
0.0
70
128
71
12
72
10
73
48
0
VERTEX
10
0.0
20
0.0
30
0.0
70
128
71
48
72
10
73
46
0
VERTEX
10
0.0
20
0.0
30
0.0
70
128
71
49
72
50
73
52
0
VERTEX
10
0.0
20
0.0
30
0.0
70
128
71
49
72
52
73
51
0
VERTEX
10
0.0
20
0.0
30
0.0
70
128
71
53
72
54
73
55
0
VERTEX
10
0.0
20
0.0
30
0.0
70
128
71
55
72
54
73
56
0
VERTEX
10
0.0
20
0.0
30
0.0
70
128
71
54
72
53
73
57
0
VERTEX
10
0.0
20
0.0
30
0.0
70
128
71
54
72
57
73
58
0
VERTEX
10
0.0
20
0.0
30
0.0
70
128
71
55
72
56
73
59
0
VERTEX
10
0.0
20
0.0
30
0.0
70
128
71
59
72
56
73
60
0
VERTEX
10
0.0
20
0.0
30
0.0
70
128
71
59
72
60
73
57
0
VERTEX
10
0.0
20
0.0
30
0.0
70
128
71
57
72
60
73
58
0
VERTEX
10
0.0
20
0.0
30
0.0
70
128
71
56
72
54
73
60
0
VERTEX
10
0.0
20
0.0
30
0.0
70
128
71
60
72
54
73
58
0
VERTEX
10
0.0
20
0.0
30
0.0
70
128
71
53
72
55
73
59
0
VERTEX
10
0.0
20
0.0
30
0.0
70
128
71
53
72
59
73
57
0
VERTEX
10
0.0
20
0.0
30
0.0
70
128
71
61
72
62
73
63
0
VERTEX
10
0.0
20
0.0
30
0.0
70
128
71
63
72
62
73
64
0
VERTEX
10
0.0
20
0.0
30
0.0
70
128
71
62
72
61
73
65
0
VERTEX
10
0.0
20
0.0
30
0.0
70
128
71
62
72
65
73
66
0
VERTEX
10
0.0
20
0.0
30
0.0
70
128
71
63
72
64
73
67
0
VERTEX
10
0.0
20
0.0
30
0.0
70
128
71
67
72
64
73
68
0
VERTEX
10
0.0
20
0.0
30
0.0
70
128
71
67
72
68
73
65
0
VERTEX
10
0.0
20
0.0
30
0.0
70
128
71
65
72
68
73
66
0
VERTEX
10
0.0
20
0.0
30
0.0
70
128
71
64
72
62
73
68
0
VERTEX
10
0.0
20
0.0
30
0.0
70
128
71
68
72
62
73
66
0
VERTEX
10
0.0
20
0.0
30
0.0
70
128
71
61
72
63
73
67
0
VERTEX
10
0.0
20
0.0
30
0.0
70
128
71
61
72
67
73
65
0
VERTEX
10
0.0
20
0.0
30
0.0
70
128
71
69
72
70
73
71
0
VERTEX
10
0.0
20
0.0
30
0.0
70
128
71
71
72
70
73
72
0
VERTEX
10
0.0
20
0.0
30
0.0
70
128
71
70
72
69
73
73
0
VERTEX
10
0.0
20
0.0
30
0.0
70
128
71
70
72
73
73
74
0
VERTEX
10
0.0
20
0.0
30
0.0
70
128
71
71
72
72
73
75
0
VERTEX
10
0.0
20
0.0
30
0.0
70
128
71
75
72
72
73
76
0
VERTEX
10
0.0
20
0.0
30
0.0
70
128
71
75
72
76
73
73
0
VERTEX
10
0.0
20
0.0
30
0.0
70
128
71
73
72
76
73
74
0
VERTEX
10
0.0
20
0.0
30
0.0
70
128
71
72
72
70
73
76
0
VERTEX
10
0.0
20
0.0
30
0.0
70
128
71
76
72
70
73
74
0
VERTEX
10
0.0
20
0.0
30
0.0
70
128
71
69
72
71
73
75
0
VERTEX
10
0.0
20
0.0
30
0.0
70
128
71
69
72
75
73
73
0
VERTEX
10
0.0
20
0.0
30
0.0
70
128
71
77
72
78
73
79
0
VERTEX
10
0.0
20
0.0
30
0.0
70
128
71
79
72
78
73
80
0
VERTEX
10
0.0
20
0.0
30
0.0
70
128
71
78
72
77
73
81
0
VERTEX
10
0.0
20
0.0
30
0.0
70
128
71
78
72
81
73
82
0
VERTEX
10
0.0
20
0.0
30
0.0
70
128
71
79
72
80
73
83
0
VERTEX
10
0.0
20
0.0
30
0.0
70
128
71
83
72
80
73
84
0
VERTEX
10
0.0
20
0.0
30
0.0
70
128
71
83
72
84
73
81
0
VERTEX
10
0.0
20
0.0
30
0.0
70
128
71
81
72
84
73
82
0
VERTEX
10
0.0
20
0.0
30
0.0
70
128
71
80
72
78
73
84
0
VERTEX
10
0.0
20
0.0
30
0.0
70
128
71
84
72
78
73
82
0
VERTEX
10
0.0
20
0.0
30
0.0
70
128
71
77
72
79
73
83
0
VERTEX
10
0.0
20
0.0
30
0.0
70
128
71
77
72
83
73
81
0
VERTEX
10
0.0
20
0.0
30
0.0
70
128
71
85
72
86
73
87
0
VERTEX
10
0.0
20
0.0
30
0.0
70
128
71
87
72
86
73
88
0
VERTEX
10
0.0
20
0.0
30
0.0
70
128
71
86
72
85
73
89
0
VERTEX
10
0.0
20
0.0
30
0.0
70
128
71
86
72
89
73
90
0
VERTEX
10
0.0
20
0.0
30
0.0
70
128
71
87
72
88
73
91
0
VERTEX
10
0.0
20
0.0
30
0.0
70
128
71
91
72
88
73
92
0
VERTEX
10
0.0
20
0.0
30
0.0
70
128
71
91
72
92
73
89
0
VERTEX
10
0.0
20
0.0
30
0.0
70
128
71
89
72
92
73
90
0
VERTEX
10
0.0
20
0.0
30
0.0
70
128
71
88
72
86
73
92
0
VERTEX
10
0.0
20
0.0
30
0.0
70
128
71
92
72
86
73
90
0
VERTEX
10
0.0
20
0.0
30
0.0
70
128
71
85
72
87
73
91
0
VERTEX
10
0.0
20
0.0
30
0.0
70
128
71
85
72
91
73
89
0
VERTEX
10
0.0
20
0.0
30
0.0
70
128
71
93
72
94
73
95
0
VERTEX
10
0.0
20
0.0
30
0.0
70
128
71
95
72
94
73
96
0
VERTEX
10
0.0
20
0.0
30
0.0
70
128
71
94
72
93
73
97
0
VERTEX
10
0.0
20
0.0
30
0.0
70
128
71
94
72
97
73
98
0
VERTEX
10
0.0
20
0.0
30
0.0
70
128
71
95
72
96
73
99
0
VERTEX
10
0.0
20
0.0
30
0.0
70
128
71
99
72
96
73
100
0
VERTEX
10
0.0
20
0.0
30
0.0
70
128
71
99
72
100
73
97
0
VERTEX
10
0.0
20
0.0
30
0.0
70
128
71
97
72
100
73
98
0
VERTEX
10
0.0
20
0.0
30
0.0
70
128
71
96
72
94
73
100
0
VERTEX
10
0.0
20
0.0
30
0.0
70
128
71
100
72
94
73
98
0
VERTEX
10
0.0
20
0.0
30
0.0
70
128
71
93
72
95
73
99
0
VERTEX
10
0.0
20
0.0
30
0.0
70
128
71
93
72
99
73
97
0
VERTEX
10
0.0
20
0.0
30
0.0
70
128
71
101
72
102
73
103
0
VERTEX
10
0.0
20
0.0
30
0.0
70
128
71
103
72
102
73
104
0
VERTEX
10
0.0
20
0.0
30
0.0
70
128
71
102
72
101
73
105
0
VERTEX
10
0.0
20
0.0
30
0.0
70
128
71
102
72
105
73
106
0
VERTEX
10
0.0
20
0.0
30
0.0
70
128
71
103
72
104
73
107
0
VERTEX
10
0.0
20
0.0
30
0.0
70
128
71
107
72
104
73
108
0
VERTEX
10
0.0
20
0.0
30
0.0
70
128
71
107
72
108
73
105
0
VERTEX
10
0.0
20
0.0
30
0.0
70
128
71
105
72
108
73
106
0
VERTEX
10
0.0
20
0.0
30
0.0
70
128
71
104
72
102
73
108
0
VERTEX
10
0.0
20
0.0
30
0.0
70
128
71
108
72
102
73
106
0
VERTEX
10
0.0
20
0.0
30
0.0
70
128
71
101
72
103
73
107
0
VERTEX
10
0.0
20
0.0
30
0.0
70
128
71
101
72
107
73
105
0
VERTEX
10
0.0
20
0.0
30
0.0
70
128
71
109
72
110
73
111
0
VERTEX
10
0.0
20
0.0
30
0.0
70
128
71
111
72
110
73
112
0
VERTEX
10
0.0
20
0.0
30
0.0
70
128
71
110
72
109
73
113
0
VERTEX
10
0.0
20
0.0
30
0.0
70
128
71
110
72
113
73
114
0
VERTEX
10
0.0
20
0.0
30
0.0
70
128
71
111
72
112
73
115
0
VERTEX
10
0.0
20
0.0
30
0.0
70
128
71
115
72
112
73
116
0
VERTEX
10
0.0
20
0.0
30
0.0
70
128
71
115
72
116
73
113
0
VERTEX
10
0.0
20
0.0
30
0.0
70
128
71
113
72
116
73
114
0
VERTEX
10
0.0
20
0.0
30
0.0
70
128
71
112
72
110
73
116
0
VERTEX
10
0.0
20
0.0
30
0.0
70
128
71
116
72
110
73
114
0
VERTEX
10
0.0
20
0.0
30
0.0
70
128
71
109
72
111
73
115
0
VERTEX
10
0.0
20
0.0
30
0.0
70
128
71
109
72
115
73
113
0
VERTEX
10
0.0
20
0.0
30
0.0
70
128
71
117
72
118
73
119
0
VERTEX
10
0.0
20
0.0
30
0.0
70
128
71
119
72
118
73
120
0
VERTEX
10
0.0
20
0.0
30
0.0
70
128
71
118
72
117
73
121
0
VERTEX
10
0.0
20
0.0
30
0.0
70
128
71
118
72
121
73
122
0
VERTEX
10
0.0
20
0.0
30
0.0
70
128
71
119
72
120
73
123
0
VERTEX
10
0.0
20
0.0
30
0.0
70
128
71
123
72
120
73
124
0
VERTEX
10
0.0
20
0.0
30
0.0
70
128
71
123
72
124
73
121
0
VERTEX
10
0.0
20
0.0
30
0.0
70
128
71
121
72
124
73
122
0
VERTEX
10
0.0
20
0.0
30
0.0
70
128
71
120
72
118
73
124
0
VERTEX
10
0.0
20
0.0
30
0.0
70
128
71
124
72
118
73
122
0
VERTEX
10
0.0
20
0.0
30
0.0
70
128
71
117
72
119
73
123
0
VERTEX
10
0.0
20
0.0
30
0.0
70
128
71
117
72
123
73
121
0
VERTEX
10
0.0
20
0.0
30
0.0
70
128
71
125
72
126
73
127
0
VERTEX
10
0.0
20
0.0
30
0.0
70
128
71
127
72
126
73
128
0
VERTEX
10
0.0
20
0.0
30
0.0
70
128
71
126
72
125
73
129
0
VERTEX
10
0.0
20
0.0
30
0.0
70
128
71
126
72
129
73
130
0
VERTEX
10
0.0
20
0.0
30
0.0
70
128
71
127
72
128
73
131
0
VERTEX
10
0.0
20
0.0
30
0.0
70
128
71
131
72
128
73
132
0
VERTEX
10
0.0
20
0.0
30
0.0
70
128
71
131
72
132
73
129
0
VERTEX
10
0.0
20
0.0
30
0.0
70
128
71
129
72
132
73
130
0
VERTEX
10
0.0
20
0.0
30
0.0
70
128
71
128
72
126
73
132
0
VERTEX
10
0.0
20
0.0
30
0.0
70
128
71
132
72
126
73
130
0
VERTEX
10
0.0
20
0.0
30
0.0
70
128
71
125
72
127
73
131
0
VERTEX
10
0.0
20
0.0
30
0.0
70
128
71
125
72
131
73
129
0
VERTEX
10
0.0
20
0.0
30
0.0
70
128
71
133
72
134
73
135
0
VERTEX
10
0.0
20
0.0
30
0.0
70
128
71
135
72
134
73
136
0
VERTEX
10
0.0
20
0.0
30
0.0
70
128
71
134
72
133
73
137
0
VERTEX
10
0.0
20
0.0
30
0.0
70
128
71
134
72
137
73
138
0
VERTEX
10
0.0
20
0.0
30
0.0
70
128
71
135
72
136
73
139
0
VERTEX
10
0.0
20
0.0
30
0.0
70
128
71
139
72
136
73
140
0
VERTEX
10
0.0
20
0.0
30
0.0
70
128
71
139
72
140
73
137
0
VERTEX
10
0.0
20
0.0
30
0.0
70
128
71
137
72
140
73
138
0
VERTEX
10
0.0
20
0.0
30
0.0
70
128
71
136
72
134
73
140
0
VERTEX
10
0.0
20
0.0
30
0.0
70
128
71
140
72
134
73
138
0
VERTEX
10
0.0
20
0.0
30
0.0
70
128
71
133
72
135
73
139
0
VERTEX
10
0.0
20
0.0
30
0.0
70
128
71
133
72
139
73
137
0
VERTEX
10
0.0
20
0.0
30
0.0
70
128
71
141
72
142
73
143
0
VERTEX
10
0.0
20
0.0
30
0.0
70
128
71
143
72
142
73
144
0
VERTEX
10
0.0
20
0.0
30
0.0
70
128
71
142
72
141
73
145
0
VERTEX
10
0.0
20
0.0
30
0.0
70
128
71
142
72
145
73
146
0
VERTEX
10
0.0
20
0.0
30
0.0
70
128
71
143
72
144
73
147
0
VERTEX
10
0.0
20
0.0
30
0.0
70
128
71
147
72
144
73
148
0
VERTEX
10
0.0
20
0.0
30
0.0
70
128
71
147
72
148
73
145
0
VERTEX
10
0.0
20
0.0
30
0.0
70
128
71
145
72
148
73
146
0
VERTEX
10
0.0
20
0.0
30
0.0
70
128
71
144
72
142
73
148
0
VERTEX
10
0.0
20
0.0
30
0.0
70
128
71
148
72
142
73
146
0
VERTEX
10
0.0
20
0.0
30
0.0
70
128
71
141
72
143
73
147
0
VERTEX
10
0.0
20
0.0
30
0.0
70
128
71
141
72
147
73
145
0
VERTEX
10
0.0
20
0.0
30
0.0
70
128
71
149
72
150
73
151
0
VERTEX
10
0.0
20
0.0
30
0.0
70
128
71
151
72
150
73
152
0
VERTEX
10
0.0
20
0.0
30
0.0
70
128
71
150
72
149
73
153
0
VERTEX
10
0.0
20
0.0
30
0.0
70
128
71
150
72
153
73
154
0
VERTEX
10
0.0
20
0.0
30
0.0
70
128
71
151
72
152
73
155
0
VERTEX
10
0.0
20
0.0
30
0.0
70
128
71
155
72
152
73
156
0
VERTEX
10
0.0
20
0.0
30
0.0
70
128
71
155
72
156
73
153
0
VERTEX
10
0.0
20
0.0
30
0.0
70
128
71
153
72
156
73
154
0
VERTEX
10
0.0
20
0.0
30
0.0
70
128
71
152
72
150
73
156
0
VERTEX
10
0.0
20
0.0
30
0.0
70
128
71
156
72
150
73
154
0
VERTEX
10
0.0
20
0.0
30
0.0
70
128
71
149
72
151
73
155
0
VERTEX
10
0.0
20
0.0
30
0.0
70
128
71
149
72
155
73
153
0
VERTEX
10
0.0
20
0.0
30
0.0
70
128
71
157
72
158
73
159
0
VERTEX
10
0.0
20
0.0
30
0.0
70
128
71
159
72
158
73
160
0
VERTEX
10
0.0
20
0.0
30
0.0
70
128
71
158
72
157
73
161
0
VERTEX
10
0.0
20
0.0
30
0.0
70
128
71
158
72
161
73
162
0
VERTEX
10
0.0
20
0.0
30
0.0
70
128
71
159
72
160
73
163
0
VERTEX
10
0.0
20
0.0
30
0.0
70
128
71
163
72
160
73
164
0
VERTEX
10
0.0
20
0.0
30
0.0
70
128
71
163
72
164
73
161
0
VERTEX
10
0.0
20
0.0
30
0.0
70
128
71
161
72
164
73
162
0
VERTEX
10
0.0
20
0.0
30
0.0
70
128
71
160
72
158
73
164
0
VERTEX
10
0.0
20
0.0
30
0.0
70
128
71
164
72
158
73
162
0
VERTEX
10
0.0
20
0.0
30
0.0
70
128
71
157
72
159
73
163
0
VERTEX
10
0.0
20
0.0
30
0.0
70
128
71
157
72
163
73
161
0
VERTEX
10
0.0
20
0.0
30
0.0
70
128
71
165
72
166
73
167
0
VERTEX
10
0.0
20
0.0
30
0.0
70
128
71
167
72
166
73
168
0
VERTEX
10
0.0
20
0.0
30
0.0
70
128
71
166
72
165
73
169
0
VERTEX
10
0.0
20
0.0
30
0.0
70
128
71
166
72
169
73
170
0
VERTEX
10
0.0
20
0.0
30
0.0
70
128
71
167
72
168
73
171
0
VERTEX
10
0.0
20
0.0
30
0.0
70
128
71
171
72
168
73
172
0
VERTEX
10
0.0
20
0.0
30
0.0
70
128
71
171
72
172
73
169
0
VERTEX
10
0.0
20
0.0
30
0.0
70
128
71
169
72
172
73
170
0
VERTEX
10
0.0
20
0.0
30
0.0
70
128
71
168
72
166
73
172
0
VERTEX
10
0.0
20
0.0
30
0.0
70
128
71
172
72
166
73
170
0
VERTEX
10
0.0
20
0.0
30
0.0
70
128
71
165
72
167
73
171
0
VERTEX
10
0.0
20
0.0
30
0.0
70
128
71
165
72
171
73
169
0
VERTEX
10
0.0
20
0.0
30
0.0
70
128
71
173
72
174
73
175
0
VERTEX
10
0.0
20
0.0
30
0.0
70
128
71
175
72
174
73
176
0
VERTEX
10
0.0
20
0.0
30
0.0
70
128
71
174
72
173
73
177
0
VERTEX
10
0.0
20
0.0
30
0.0
70
128
71
174
72
177
73
178
0
VERTEX
10
0.0
20
0.0
30
0.0
70
128
71
175
72
176
73
179
0
VERTEX
10
0.0
20
0.0
30
0.0
70
128
71
179
72
176
73
180
0
VERTEX
10
0.0
20
0.0
30
0.0
70
128
71
179
72
180
73
177
0
VERTEX
10
0.0
20
0.0
30
0.0
70
128
71
177
72
180
73
178
0
VERTEX
10
0.0
20
0.0
30
0.0
70
128
71
176
72
174
73
180
0
VERTEX
10
0.0
20
0.0
30
0.0
70
128
71
180
72
174
73
178
0
VERTEX
10
0.0
20
0.0
30
0.0
70
128
71
173
72
175
73
179
0
VERTEX
10
0.0
20
0.0
30
0.0
70
128
71
173
72
179
73
177
0
VERTEX
10
0.0
20
0.0
30
0.0
70
128
71
181
72
182
73
183
0
VERTEX
10
0.0
20
0.0
30
0.0
70
128
71
183
72
182
73
184
0
VERTEX
10
0.0
20
0.0
30
0.0
70
128
71
182
72
181
73
185
0
VERTEX
10
0.0
20
0.0
30
0.0
70
128
71
182
72
185
73
186
0
VERTEX
10
0.0
20
0.0
30
0.0
70
128
71
183
72
184
73
187
0
VERTEX
10
0.0
20
0.0
30
0.0
70
128
71
187
72
184
73
188
0
VERTEX
10
0.0
20
0.0
30
0.0
70
128
71
187
72
188
73
185
0
VERTEX
10
0.0
20
0.0
30
0.0
70
128
71
185
72
188
73
186
0
VERTEX
10
0.0
20
0.0
30
0.0
70
128
71
184
72
182
73
188
0
VERTEX
10
0.0
20
0.0
30
0.0
70
128
71
188
72
182
73
186
0
VERTEX
10
0.0
20
0.0
30
0.0
70
128
71
181
72
183
73
187
0
VERTEX
10
0.0
20
0.0
30
0.0
70
128
71
181
72
187
73
185
0
VERTEX
10
0.0
20
0.0
30
0.0
70
128
71
189
72
190
73
191
0
VERTEX
10
0.0
20
0.0
30
0.0
70
128
71
191
72
190
73
192
0
VERTEX
10
0.0
20
0.0
30
0.0
70
128
71
190
72
189
73
193
0
VERTEX
10
0.0
20
0.0
30
0.0
70
128
71
190
72
193
73
194
0
VERTEX
10
0.0
20
0.0
30
0.0
70
128
71
191
72
192
73
195
0
VERTEX
10
0.0
20
0.0
30
0.0
70
128
71
195
72
192
73
196
0
VERTEX
10
0.0
20
0.0
30
0.0
70
128
71
195
72
196
73
193
0
VERTEX
10
0.0
20
0.0
30
0.0
70
128
71
193
72
196
73
194
0
VERTEX
10
0.0
20
0.0
30
0.0
70
128
71
192
72
190
73
196
0
VERTEX
10
0.0
20
0.0
30
0.0
70
128
71
196
72
190
73
194
0
VERTEX
10
0.0
20
0.0
30
0.0
70
128
71
189
72
191
73
195
0
VERTEX
10
0.0
20
0.0
30
0.0
70
128
71
189
72
195
73
193
0
VERTEX
10
0.0
20
0.0
30
0.0
70
128
71
197
72
198
73
199
0
VERTEX
10
0.0
20
0.0
30
0.0
70
128
71
199
72
198
73
200
0
VERTEX
10
0.0
20
0.0
30
0.0
70
128
71
198
72
197
73
201
0
VERTEX
10
0.0
20
0.0
30
0.0
70
128
71
198
72
201
73
202
0
VERTEX
10
0.0
20
0.0
30
0.0
70
128
71
199
72
200
73
203
0
VERTEX
10
0.0
20
0.0
30
0.0
70
128
71
203
72
200
73
204
0
VERTEX
10
0.0
20
0.0
30
0.0
70
128
71
203
72
204
73
201
0
VERTEX
10
0.0
20
0.0
30
0.0
70
128
71
201
72
204
73
202
0
VERTEX
10
0.0
20
0.0
30
0.0
70
128
71
200
72
198
73
204
0
VERTEX
10
0.0
20
0.0
30
0.0
70
128
71
204
72
198
73
202
0
VERTEX
10
0.0
20
0.0
30
0.0
70
128
71
197
72
199
73
203
0
VERTEX
10
0.0
20
0.0
30
0.0
70
128
71
197
72
203
73
201
0
VERTEX
10
0.0
20
0.0
30
0.0
70
128
71
205
72
206
73
207
0
VERTEX
10
0.0
20
0.0
30
0.0
70
128
71
207
72
206
73
208
0
VERTEX
10
0.0
20
0.0
30
0.0
70
128
71
206
72
205
73
209
0
VERTEX
10
0.0
20
0.0
30
0.0
70
128
71
206
72
209
73
210
0
VERTEX
10
0.0
20
0.0
30
0.0
70
128
71
207
72
208
73
211
0
VERTEX
10
0.0
20
0.0
30
0.0
70
128
71
211
72
208
73
212
0
VERTEX
10
0.0
20
0.0
30
0.0
70
128
71
211
72
212
73
209
0
VERTEX
10
0.0
20
0.0
30
0.0
70
128
71
209
72
212
73
210
0
VERTEX
10
0.0
20
0.0
30
0.0
70
128
71
208
72
206
73
212
0
VERTEX
10
0.0
20
0.0
30
0.0
70
128
71
212
72
206
73
210
0
VERTEX
10
0.0
20
0.0
30
0.0
70
128
71
205
72
207
73
211
0
VERTEX
10
0.0
20
0.0
30
0.0
70
128
71
205
72
211
73
209
0
VERTEX
10
0.0
20
0.0
30
0.0
70
128
71
213
72
214
73
215
0
VERTEX
10
0.0
20
0.0
30
0.0
70
128
71
215
72
214
73
216
0
VERTEX
10
0.0
20
0.0
30
0.0
70
128
71
214
72
213
73
217
0
VERTEX
10
0.0
20
0.0
30
0.0
70
128
71
214
72
217
73
218
0
VERTEX
10
0.0
20
0.0
30
0.0
70
128
71
215
72
216
73
219
0
VERTEX
10
0.0
20
0.0
30
0.0
70
128
71
219
72
216
73
220
0
VERTEX
10
0.0
20
0.0
30
0.0
70
128
71
219
72
220
73
217
0
VERTEX
10
0.0
20
0.0
30
0.0
70
128
71
217
72
220
73
218
0
VERTEX
10
0.0
20
0.0
30
0.0
70
128
71
216
72
214
73
220
0
VERTEX
10
0.0
20
0.0
30
0.0
70
128
71
220
72
214
73
218
0
VERTEX
10
0.0
20
0.0
30
0.0
70
128
71
213
72
215
73
219
0
VERTEX
10
0.0
20
0.0
30
0.0
70
128
71
213
72
219
73
217
0
VERTEX
10
0.0
20
0.0
30
0.0
70
128
71
221
72
222
73
223
0
VERTEX
10
0.0
20
0.0
30
0.0
70
128
71
223
72
222
73
224
0
VERTEX
10
0.0
20
0.0
30
0.0
70
128
71
222
72
221
73
225
0
VERTEX
10
0.0
20
0.0
30
0.0
70
128
71
222
72
225
73
226
0
VERTEX
10
0.0
20
0.0
30
0.0
70
128
71
223
72
224
73
227
0
VERTEX
10
0.0
20
0.0
30
0.0
70
128
71
227
72
224
73
228
0
VERTEX
10
0.0
20
0.0
30
0.0
70
128
71
227
72
228
73
225
0
VERTEX
10
0.0
20
0.0
30
0.0
70
128
71
225
72
228
73
226
0
VERTEX
10
0.0
20
0.0
30
0.0
70
128
71
224
72
222
73
228
0
VERTEX
10
0.0
20
0.0
30
0.0
70
128
71
228
72
222
73
226
0
VERTEX
10
0.0
20
0.0
30
0.0
70
128
71
221
72
223
73
227
0
VERTEX
10
0.0
20
0.0
30
0.0
70
128
71
221
72
227
73
225
0
VERTEX
10
0.0
20
0.0
30
0.0
70
128
71
229
72
230
73
231
0
VERTEX
10
0.0
20
0.0
30
0.0
70
128
71
231
72
230
73
232
0
VERTEX
10
0.0
20
0.0
30
0.0
70
128
71
230
72
229
73
233
0
VERTEX
10
0.0
20
0.0
30
0.0
70
128
71
230
72
233
73
234
0
VERTEX
10
0.0
20
0.0
30
0.0
70
128
71
231
72
232
73
235
0
VERTEX
10
0.0
20
0.0
30
0.0
70
128
71
235
72
232
73
236
0
VERTEX
10
0.0
20
0.0
30
0.0
70
128
71
235
72
236
73
233
0
VERTEX
10
0.0
20
0.0
30
0.0
70
128
71
233
72
236
73
234
0
VERTEX
10
0.0
20
0.0
30
0.0
70
128
71
232
72
230
73
236
0
VERTEX
10
0.0
20
0.0
30
0.0
70
128
71
236
72
230
73
234
0
VERTEX
10
0.0
20
0.0
30
0.0
70
128
71
229
72
231
73
235
0
VERTEX
10
0.0
20
0.0
30
0.0
70
128
71
229
72
235
73
233
0
VERTEX
10
0.0
20
0.0
30
0.0
70
128
71
237
72
238
73
239
0
VERTEX
10
0.0
20
0.0
30
0.0
70
128
71
239
72
238
73
240
0
VERTEX
10
0.0
20
0.0
30
0.0
70
128
71
238
72
237
73
241
0
VERTEX
10
0.0
20
0.0
30
0.0
70
128
71
238
72
241
73
242
0
VERTEX
10
0.0
20
0.0
30
0.0
70
128
71
239
72
240
73
243
0
VERTEX
10
0.0
20
0.0
30
0.0
70
128
71
243
72
240
73
244
0
VERTEX
10
0.0
20
0.0
30
0.0
70
128
71
243
72
244
73
241
0
VERTEX
10
0.0
20
0.0
30
0.0
70
128
71
241
72
244
73
242
0
VERTEX
10
0.0
20
0.0
30
0.0
70
128
71
240
72
238
73
244
0
VERTEX
10
0.0
20
0.0
30
0.0
70
128
71
244
72
238
73
242
0
VERTEX
10
0.0
20
0.0
30
0.0
70
128
71
237
72
239
73
243
0
VERTEX
10
0.0
20
0.0
30
0.0
70
128
71
237
72
243
73
241
0
SEQEND
0
ENDBLK
0
BLOCK
2
Wall2
70
64
10
0.0
20
0.0
30
0.0
3
Wall2
0
POLYLINE
66
1
70
64
0
VERTEX
10
1.096401
20
-0.003634
30
-0.433455
70
192
0
VERTEX
10
1.046401
20
-0.003635
30
-0.433454
70
192
0
VERTEX
10
1.096401
20
-0.012317
30
-0.384214
70
192
0
VERTEX
10
1.046402
20
-0.012317
30
-0.384214
70
192
0
VERTEX
10
1.096401
20
-1.037683
30
-0.615784
70
192
0
VERTEX
10
1.046401
20
-1.037684
30
-0.615785
70
192
0
VERTEX
10
1.096401
20
-1.046366
30
-0.566544
70
192
0
VERTEX
10
1.046401
20
-1.046366
30
-0.566544
70
192
0
VERTEX
10
2.500003
20
-0.003633
30
-0.433454
70
192
0
VERTEX
10
-2.500003
20
-0.003635
30
-0.433456
70
192
0
VERTEX
10
2.500003
20
-0.012317
30
-0.384213
70
192
0
VERTEX
10
-2.500001
20
-0.012318
30
-0.384215
70
192
0
VERTEX
10
2.500003
20
-0.052874
30
-0.442136
70
192
0
VERTEX
10
-2.500002
20
-0.052876
30
-0.442138
70
192
0
VERTEX
10
2.500003
20
-0.061556
30
-0.392896
70
192
0
VERTEX
10
-2.500003
20
-0.061558
30
-0.392898
70
192
0
VERTEX
10
2.525002
20
-0.003634
30
-0.433454
70
192
0
VERTEX
10
2.475002
20
-0.003635
30
-0.433454
70
192
0
VERTEX
10
2.525002
20
-0.012316
30
-0.384213
70
192
0
VERTEX
10
2.475002
20
-0.012316
30
-0.384213
70
192
0
VERTEX
10
2.525002
20
-1.037684
30
-0.615784
70
192
0
VERTEX
10
2.475003
20
-1.037684
30
-0.615784
70
192
0
VERTEX
10
2.525003
20
-1.046365
30
-0.566544
70
192
0
VERTEX
10
2.475003
20
-1.046365
30
-0.566544
70
192
0
VERTEX
10
2.500003
20
-0.328620
30
-0.490758
70
192
0
VERTEX
10
-2.500002
20
-0.328622
30
-0.490760
70
192
0
VERTEX
10
2.500003
20
-0.337302
30
-0.441517
70
192
0
VERTEX
10
-2.500004
20
-0.337304
30
-0.441519
70
192
0
VERTEX
10
2.500003
20
-0.377861
30
-0.499440
70
192
0
VERTEX
10
-2.500002
20
-0.377862
30
-0.499442
70
192
0
VERTEX
10
2.500001
20
-0.386544
30
-0.450200
70
192
0
VERTEX
10
-2.500002
20
-0.386545
30
-0.450202
70
192
0
VERTEX
10
2.500005
20
-0.653608
30
-0.548062
70
192
0
VERTEX
10
-2.500002
20
-0.653609
30
-0.548064
70
192
0
VERTEX
10
2.500004
20
-0.662289
30
-0.498821
70
192
0
VERTEX
10
-2.500003
20
-0.662291
30
-0.498823
70
192
0
VERTEX
10
2.500004
20
-0.702849
30
-0.556744
70
192
0
VERTEX
10
-2.500002
20
-0.702849
30
-0.556746
70
192
0
VERTEX
10
2.500004
20
-0.711531
30
-0.507504
70
192
0
VERTEX
10
-2.500002
20
-0.711532
30
-0.507506
70
192
0
VERTEX
10
2.500004
20
-0.988443
30
-0.607102
70
192
0
VERTEX
10
-2.500002
20
-0.988444
30
-0.607104
70
192
0
VERTEX
10
2.500004
20
-0.997125
30
-0.557862
70
192
0
VERTEX
10
-2.500002
20
-0.997127
30
-0.557864
70
192
0
VERTEX
10
2.500003
20
-1.037684
30
-0.615784
70
192
0
VERTEX
10
-2.500002
20
-1.037684
30
-0.615786
70
192
0
VERTEX
10
2.500005
20
-1.046365
30
-0.566544
70
192
0
VERTEX
10
-2.500002
20
-1.046367
30
-0.566546
70
192
0
VERTEX
10
-2.450002
20
-0.003635
30
-0.433456
70
192
0
VERTEX
10
-2.450002
20
-0.012318
30
-0.384216
70
192
0
VERTEX
10
-2.450002
20
-1.037684
30
-0.615787
70
192
0
VERTEX
10
-2.450002
20
-1.046366
30
-0.566546
70
192
0
VERTEX
10
-1.760701
20
-0.003635
30
-0.433456
70
192
0
VERTEX
10
-1.810702
20
-0.003634
30
-0.433456
70
192
0
VERTEX
10
-1.760701
20
-0.012317
30
-0.384216
70
192
0
VERTEX
10
-1.810701
20
-0.012317
30
-0.384215
70
192
0
VERTEX
10
-1.760701
20
-1.037683
30
-0.615787
70
192
0
VERTEX
10
-1.810701
20
-1.037684
30
-0.615786
70
192
0
VERTEX
10
-1.760701
20
-1.046366
30
-0.566545
70
192
0
VERTEX
10
-1.810701
20
-1.046366
30
-0.566545
70
192
0
VERTEX
10
-1.046401
20
-0.003634
30
-0.433456
70
192
0
VERTEX
10
-1.096401
20
-0.003634
30
-0.433456
70
192
0
VERTEX
10
-1.046401
20
-0.012317
30
-0.384215
70
192
0
VERTEX
10
-1.096401
20
-0.012317
30
-0.384215
70
192
0
VERTEX
10
-1.046401
20
-1.037683
30
-0.615785
70
192
0
VERTEX
10
-1.096401
20
-1.037683
30
-0.615785
70
192
0
VERTEX
10
-1.046401
20
-1.046366
30
-0.566545
70
192
0
VERTEX
10
-1.096401
20
-1.046366
30
-0.566545
70
192
0
VERTEX
10
-0.332100
20
-0.003634
30
-0.433455
70
192
0
VERTEX
10
-0.382100
20
-0.003634
30
-0.433455
70
192
0
VERTEX
10
-0.332100
20
-0.012316
30
-0.384214
70
192
0
VERTEX
10
-0.382100
20
-0.012316
30
-0.384214
70
192
0
VERTEX
10
-0.332100
20
-1.037684
30
-0.615786
70
192
0
VERTEX
10
-0.382100
20
-1.037683
30
-0.615786
70
192
0
VERTEX
10
-0.332100
20
-1.046365
30
-0.566545
70
192
0
VERTEX
10
-0.382100
20
-1.046365
30
-0.566545
70
192
0
VERTEX
10
0.382101
20
-0.003634
30
-0.433455
70
192
0
VERTEX
10
0.332100
20
-0.003634
30
-0.433455
70
192
0
VERTEX
10
0.382100
20
-0.012316
30
-0.384214
70
192
0
VERTEX
10
0.332101
20
-0.012316
30
-0.384214
70
192
0
VERTEX
10
0.382101
20
-1.037683
30
-0.615785
70
192
0
VERTEX
10
0.332101
20
-1.037683
30
-0.615785
70
192
0
VERTEX
10
0.382101
20
-1.046366
30
-0.566545
70
192
0
VERTEX
10
0.332100
20
-1.046365
30
-0.566545
70
192
0
VERTEX
10
1.810703
20
-0.003633
30
-0.433454
70
192
0
VERTEX
10
1.760702
20
-0.003633
30
-0.433455
70
192
0
VERTEX
10
1.810702
20
-0.012317
30
-0.384214
70
192
0
VERTEX
10
1.760702
20
-0.012316
30
-0.384213
70
192
0
VERTEX
10
1.810702
20
-1.037683
30
-0.615785
70
192
0
VERTEX
10
1.760702
20
-1.037683
30
-0.615786
70
192
0
VERTEX
10
1.810702
20
-1.046366
30
-0.566544
70
192
0
VERTEX
10
1.760702
20
-1.046366
30
-0.566544
70
192
0
VERTEX
10
2.375002
20
-0.712696
30
-0.558481
70
192
0
VERTEX
10
1.875000
20
-0.712696
30
-0.558481
70
192
0
VERTEX
10
2.375001
20
-0.721379
30
-0.509240
70
192
0
VERTEX
10
1.875000
20
-0.721379
30
-0.509240
70
192
0
VERTEX
10
2.375002
20
-0.909658
30
-0.593210
70
192
0
VERTEX
10
1.875000
20
-0.909658
30
-0.593210
70
192
0
VERTEX
10
2.375002
20
-0.918341
30
-0.543970
70
192
0
VERTEX
10
1.875000
20
-0.918341
30
-0.543970
70
192
0
VERTEX
10
0.250000
20
-0.712697
30
-0.558482
70
192
0
VERTEX
10
-0.250000
20
-0.712697
30
-0.558482
70
192
0
VERTEX
10
0.250000
20
-0.721379
30
-0.509241
70
192
0
VERTEX
10
-0.250000
20
-0.721379
30
-0.509241
70
192
0
VERTEX
10
0.250000
20
-0.909658
30
-0.593211
70
192
0
VERTEX
10
-0.250000
20
-0.909659
30
-0.593211
70
192
0
VERTEX
10
0.250000
20
-0.918341
30
-0.543971
70
192
0
VERTEX
10
-0.250000
20
-0.918341
30
-0.543971
70
192
0
VERTEX
10
-1.175001
20
-0.712697
30
-0.558482
70
192
0
VERTEX
10
-1.675001
20
-0.712698
30
-0.558483
70
192
0
VERTEX
10
-1.175001
20
-0.721379
30
-0.509241
70
192
0
VERTEX
10
-1.675002
20
-0.721379
30
-0.509242
70
192
0
VERTEX
10
-1.175001
20
-0.909658
30
-0.593211
70
192
0
VERTEX
10
-1.675001
20
-0.909659
30
-0.593211
70
192
0
VERTEX
10
-1.175001
20
-0.918341
30
-0.543971
70
192
0
VERTEX
10
-1.675001
20
-0.918342
30
-0.543972
70
192
0
VERTEX
10
-1.875002
20
-0.712698
30
-0.558483
70
192
0
VERTEX
10
-2.375002
20
-0.712698
30
-0.558483
70
192
0
VERTEX
10
-1.875002
20
-0.721380
30
-0.509242
70
192
0
VERTEX
10
-2.375002
20
-0.721380
30
-0.509241
70
192
0
VERTEX
10
-1.875002
20
-0.909659
30
-0.593211
70
192
0
VERTEX
10
-2.375002
20
-0.909660
30
-0.593212
70
192
0
VERTEX
10
-1.875002
20
-0.918342
30
-0.543972
70
192
0
VERTEX
10
-2.375002
20
-0.918342
30
-0.543972
70
192
0
VERTEX
10
0.950000
20
-0.712697
30
-0.558481
70
192
0
VERTEX
10
0.450000
20
-0.712697
30
-0.558481
70
192
0
VERTEX
10
0.950000
20
-0.721379
30
-0.509241
70
192
0
VERTEX
10
0.450000
20
-0.721379
30
-0.509241
70
192
0
VERTEX
10
0.950001
20
-0.909658
30
-0.593211
70
192
0
VERTEX
10
0.450000
20
-0.909658
30
-0.593211
70
192
0
VERTEX
10
0.950001
20
-0.918341
30
-0.543970
70
192
0
VERTEX
10
0.450000
20
-0.918341
30
-0.543970
70
192
0
VERTEX
10
1.650003
20
-0.712696
30
-0.558480
70
192
0
VERTEX
10
1.150002
20
-0.712696
30
-0.558481
70
192
0
VERTEX
10
1.650002
20
-0.721379
30
-0.509240
70
192
0
VERTEX
10
1.150002
20
-0.721379
30
-0.509240
70
192
0
VERTEX
10
1.650003
20
-0.909658
30
-0.593210
70
192
0
VERTEX
10
1.150002
20
-0.909658
30
-0.593210
70
192
0
VERTEX
10
1.650003
20
-0.918340
30
-0.543970
70
192
0
VERTEX
10
1.150002
20
-0.918340
30
-0.543970
70
192
0
VERTEX
10
0.250000
20
-0.397557
30
-0.502914
70
192
0
VERTEX
10
-0.250000
20
-0.397557
30
-0.502914
70
192
0
VERTEX
10
0.250000
20
-0.406240
30
-0.453674
70
192
0
VERTEX
10
-0.250000
20
-0.406240
30
-0.453674
70
192
0
VERTEX
10
0.250000
20
-0.594519
30
-0.537644
70
192
0
VERTEX
10
-0.250000
20
-0.594519
30
-0.537644
70
192
0
VERTEX
10
0.250000
20
-0.603202
30
-0.488403
70
192
0
VERTEX
10
-0.250000
20
-0.603202
30
-0.488403
70
192
0
VERTEX
10
-0.475000
20
-0.397558
30
-0.502914
70
192
0
VERTEX
10
-0.975001
20
-0.397558
30
-0.502914
70
192
0
VERTEX
10
-0.475000
20
-0.406240
30
-0.453674
70
192
0
VERTEX
10
-0.975001
20
-0.406240
30
-0.453674
70
192
0
VERTEX
10
-0.475000
20
-0.594519
30
-0.537644
70
192
0
VERTEX
10
-0.975001
20
-0.594519
30
-0.537644
70
192
0
VERTEX
10
-0.475000
20
-0.603202
30
-0.488403
70
192
0
VERTEX
10
-0.975001
20
-0.603202
30
-0.488403
70
192
0
VERTEX
10
-1.175001
20
-0.397558
30
-0.502914
70
192
0
VERTEX
10
-1.675001
20
-0.397559
30
-0.502915
70
192
0
VERTEX
10
-1.175002
20
-0.406240
30
-0.453675
70
192
0
VERTEX
10
-1.675002
20
-0.406240
30
-0.453675
70
192
0
VERTEX
10
-1.175001
20
-0.594519
30
-0.537644
70
192
0
VERTEX
10
-1.675001
20
-0.594519
30
-0.537645
70
192
0
VERTEX
10
-1.175001
20
-0.603202
30
-0.488403
70
192
0
VERTEX
10
-1.675001
20
-0.603202
30
-0.488403
70
192
0
VERTEX
10
-1.875002
20
-0.397558
30
-0.502915
70
192
0
VERTEX
10
-2.375002
20
-0.397557
30
-0.502915
70
192
0
VERTEX
10
-1.875002
20
-0.406240
30
-0.453674
70
192
0
VERTEX
10
-2.375002
20
-0.406241
30
-0.453674
70
192
0
VERTEX
10
-1.875001
20
-0.594520
30
-0.537643
70
192
0
VERTEX
10
-2.375002
20
-0.594520
30
-0.537644
70
192
0
VERTEX
10
-1.875002
20
-0.603202
30
-0.488404
70
192
0
VERTEX
10
-2.375002
20
-0.603202
30
-0.488404
70
192
0
VERTEX
10
1.650002
20
-0.397558
30
-0.502913
70
192
0
VERTEX
10
1.150001
20
-0.397558
30
-0.502914
70
192
0
VERTEX
10
1.650003
20
-0.406240
30
-0.453674
70
192
0
VERTEX
10
1.150001
20
-0.406240
30
-0.453673
70
192
0
VERTEX
10
1.650002
20
-0.594520
30
-0.537644
70
192
0
VERTEX
10
1.150002
20
-0.594520
30
-0.537644
70
192
0
VERTEX
10
1.650003
20
-0.603202
30
-0.488402
70
192
0
VERTEX
10
1.150001
20
-0.603202
30
-0.488403
70
192
0
VERTEX
10
2.375003
20
-0.397559
30
-0.502913
70
192
0
VERTEX
10
1.875001
20
-0.397558
30
-0.502914
70
192
0
VERTEX
10
2.375002
20
-0.406240
30
-0.453672
70
192
0
VERTEX
10
1.875001
20
-0.406241
30
-0.453672
70
192
0
VERTEX
10
2.375003
20
-0.594519
30
-0.537642
70
192
0
VERTEX
10
1.875002
20
-0.594520
30
-0.537642
70
192
0
VERTEX
10
2.375002
20
-0.603202
30
-0.488402
70
192
0
VERTEX
10
1.875002
20
-0.603203
30
-0.488402
70
192
0
VERTEX
10
0.250000
20
-0.062723
30
-0.443874
70
192
0
VERTEX
10
-0.250000
20
-0.062723
30
-0.443874
70
192
0
VERTEX
10
0.250000
20
-0.071405
30
-0.394633
70
192
0
VERTEX
10
-0.250000
20
-0.071405
30
-0.394633
70
192
0
VERTEX
10
0.250000
20
-0.259685
30
-0.478603
70
192
0
VERTEX
10
-0.250000
20
-0.259685
30
-0.478603
70
192
0
VERTEX
10
0.250000
20
-0.268367
30
-0.429363
70
192
0
VERTEX
10
-0.250000
20
-0.268367
30
-0.429363
70
192
0
VERTEX
10
2.375002
20
-0.062722
30
-0.443873
70
192
0
VERTEX
10
1.875002
20
-0.062723
30
-0.443873
70
192
0
VERTEX
10
2.375002
20
-0.071405
30
-0.394632
70
192
0
VERTEX
10
1.875003
20
-0.071405
30
-0.394632
70
192
0
VERTEX
10
2.375003
20
-0.259684
30
-0.478602
70
192
0
VERTEX
10
1.875002
20
-0.259684
30
-0.478602
70
192
0
VERTEX
10
2.375002
20
-0.268366
30
-0.429362
70
192
0
VERTEX
10
1.875002
20
-0.268367
30
-0.429363
70
192
0
VERTEX
10
1.650002
20
-0.062723
30
-0.443874
70
192
0
VERTEX
10
1.150002
20
-0.062723
30
-0.443874
70
192
0
VERTEX
10
1.650002
20
-0.071405
30
-0.394633
70
192
0
VERTEX
10
1.150002
20
-0.071405
30
-0.394633
70
192
0
VERTEX
10
1.650002
20
-0.259684
30
-0.478603
70
192
0
VERTEX
10
1.150002
20
-0.259684
30
-0.478603
70
192
0
VERTEX
10
1.650002
20
-0.268367
30
-0.429363
70
192
0
VERTEX
10
1.150002
20
-0.268367
30
-0.429363
70
192
0
VERTEX
10
0.950001
20
-0.062723
30
-0.443873
70
192
0
VERTEX
10
0.450001
20
-0.062723
30
-0.443873
70
192
0
VERTEX
10
0.950001
20
-0.071405
30
-0.394633
70
192
0
VERTEX
10
0.450001
20
-0.071405
30
-0.394633
70
192
0
VERTEX
10
0.950001
20
-0.259685
30
-0.478603
70
192
0
VERTEX
10
0.450001
20
-0.259685
30
-0.478603
70
192
0
VERTEX
10
0.950001
20
-0.268367
30
-0.429363
70
192
0
VERTEX
10
0.450001
20
-0.268367
30
-0.429363
70
192
0
VERTEX
10
-1.875002
20
-0.062722
30
-0.443874
70
192
0
VERTEX
10
-2.375002
20
-0.062723
30
-0.443874
70
192
0
VERTEX
10
-1.875001
20
-0.071406
30
-0.394634
70
192
0
VERTEX
10
-2.375003
20
-0.071406
30
-0.394634
70
192
0
VERTEX
10
-1.875001
20
-0.259685
30
-0.478604
70
192
0
VERTEX
10
-2.375003
20
-0.259685
30
-0.478604
70
192
0
VERTEX
10
-1.875002
20
-0.268366
30
-0.429364
70
192
0
VERTEX
10
-2.375002
20
-0.268366
30
-0.429364
70
192
0
VERTEX
10
-1.175002
20
-0.062723
30
-0.443874
70
192
0
VERTEX
10
-1.675002
20
-0.062723
30
-0.443875
70
192
0
VERTEX
10
-1.175001
20
-0.071405
30
-0.394634
70
192
0
VERTEX
10
-1.675002
20
-0.071405
30
-0.394635
70
192
0
VERTEX
10
-1.175002
20
-0.259685
30
-0.478603
70
192
0
VERTEX
10
-1.675001
20
-0.259685
30
-0.478605
70
192
0
VERTEX
10
-1.175001
20
-0.268367
30
-0.429363
70
192
0
VERTEX
10
-1.675002
20
-0.268367
30
-0.429364
70
192
0
VERTEX
10
-0.475000
20
-0.062723
30
-0.443873
70
192
0
VERTEX
10
-0.975001
20
-0.062723
30
-0.443875
70
192
0
VERTEX
10
-0.475000
20
-0.071405
30
-0.394633
70
192
0
VERTEX
10
-0.975001
20
-0.071405
30
-0.394634
70
192
0
VERTEX
10
-0.475000
20
-0.259685
30
-0.478603
70
192
0
VERTEX
10
-0.975001
20
-0.259685
30
-0.478604
70
192
0
VERTEX
10
-0.475000
20
-0.268367
30
-0.429363
70
192
0
VERTEX
10
-0.975001
20
-0.268367
30
-0.429364
70
192
0
VERTEX
10
0.0
20
0.0
30
0.0
70
128
71
1
72
2
73
3
0
VERTEX
10
0.0
20
0.0
30
0.0
70
128
71
3
72
2
73
4
0
VERTEX
10
0.0
20
0.0
30
0.0
70
128
71
2
72
1
73
5
0
VERTEX
10
0.0
20
0.0
30
0.0
70
128
71
2
72
5
73
6
0
VERTEX
10
0.0
20
0.0
30
0.0
70
128
71
3
72
4
73
7
0
VERTEX
10
0.0
20
0.0
30
0.0
70
128
71
7
72
4
73
8
0
VERTEX
10
0.0
20
0.0
30
0.0
70
128
71
7
72
8
73
5
0
VERTEX
10
0.0
20
0.0
30
0.0
70
128
71
5
72
8
73
6
0
VERTEX
10
0.0
20
0.0
30
0.0
70
128
71
4
72
2
73
8
0
VERTEX
10
0.0
20
0.0
30
0.0
70
128
71
8
72
2
73
6
0
VERTEX
10
0.0
20
0.0
30
0.0
70
128
71
1
72
3
73
7
0
VERTEX
10
0.0
20
0.0
30
0.0
70
128
71
1
72
7
73
5
0
VERTEX
10
0.0
20
0.0
30
0.0
70
128
71
9
72
10
73
11
0
VERTEX
10
0.0
20
0.0
30
0.0
70
128
71
11
72
10
73
12
0
VERTEX
10
0.0
20
0.0
30
0.0
70
128
71
10
72
9
73
13
0
VERTEX
10
0.0
20
0.0
30
0.0
70
128
71
10
72
13
73
14
0
VERTEX
10
0.0
20
0.0
30
0.0
70
128
71
11
72
12
73
15
0
VERTEX
10
0.0
20
0.0
30
0.0
70
128
71
15
72
12
73
16
0
VERTEX
10
0.0
20
0.0
30
0.0
70
128
71
15
72
16
73
13
0
VERTEX
10
0.0
20
0.0
30
0.0
70
128
71
13
72
16
73
14
0
VERTEX
10
0.0
20
0.0
30
0.0
70
128
71
12
72
10
73
16
0
VERTEX
10
0.0
20
0.0
30
0.0
70
128
71
16
72
10
73
14
0
VERTEX
10
0.0
20
0.0
30
0.0
70
128
71
9
72
11
73
15
0
VERTEX
10
0.0
20
0.0
30
0.0
70
128
71
9
72
15
73
13
0
VERTEX
10
0.0
20
0.0
30
0.0
70
128
71
17
72
18
73
19
0
VERTEX
10
0.0
20
0.0
30
0.0
70
128
71
19
72
18
73
20
0
VERTEX
10
0.0
20
0.0
30
0.0
70
128
71
18
72
17
73
21
0
VERTEX
10
0.0
20
0.0
30
0.0
70
128
71
18
72
21
73
22
0
VERTEX
10
0.0
20
0.0
30
0.0
70
128
71
19
72
20
73
23
0
VERTEX
10
0.0
20
0.0
30
0.0
70
128
71
23
72
20
73
24
0
VERTEX
10
0.0
20
0.0
30
0.0
70
128
71
23
72
24
73
21
0
VERTEX
10
0.0
20
0.0
30
0.0
70
128
71
21
72
24
73
22
0
VERTEX
10
0.0
20
0.0
30
0.0
70
128
71
20
72
18
73
24
0
VERTEX
10
0.0
20
0.0
30
0.0
70
128
71
24
72
18
73
22
0
VERTEX
10
0.0
20
0.0
30
0.0
70
128
71
17
72
19
73
23
0
VERTEX
10
0.0
20
0.0
30
0.0
70
128
71
17
72
23
73
21
0
VERTEX
10
0.0
20
0.0
30
0.0
70
128
71
25
72
26
73
27
0
VERTEX
10
0.0
20
0.0
30
0.0
70
128
71
27
72
26
73
28
0
VERTEX
10
0.0
20
0.0
30
0.0
70
128
71
26
72
25
73
29
0
VERTEX
10
0.0
20
0.0
30
0.0
70
128
71
26
72
29
73
30
0
VERTEX
10
0.0
20
0.0
30
0.0
70
128
71
27
72
28
73
31
0
VERTEX
10
0.0
20
0.0
30
0.0
70
128
71
31
72
28
73
32
0
VERTEX
10
0.0
20
0.0
30
0.0
70
128
71
31
72
32
73
29
0
VERTEX
10
0.0
20
0.0
30
0.0
70
128
71
29
72
32
73
30
0
VERTEX
10
0.0
20
0.0
30
0.0
70
128
71
28
72
26
73
32
0
VERTEX
10
0.0
20
0.0
30
0.0
70
128
71
32
72
26
73
30
0
VERTEX
10
0.0
20
0.0
30
0.0
70
128
71
25
72
27
73
31
0
VERTEX
10
0.0
20
0.0
30
0.0
70
128
71
25
72
31
73
29
0
VERTEX
10
0.0
20
0.0
30
0.0
70
128
71
33
72
34
73
35
0
VERTEX
10
0.0
20
0.0
30
0.0
70
128
71
35
72
34
73
36
0
VERTEX
10
0.0
20
0.0
30
0.0
70
128
71
34
72
33
73
37
0
VERTEX
10
0.0
20
0.0
30
0.0
70
128
71
34
72
37
73
38
0
VERTEX
10
0.0
20
0.0
30
0.0
70
128
71
35
72
36
73
39
0
VERTEX
10
0.0
20
0.0
30
0.0
70
128
71
39
72
36
73
40
0
VERTEX
10
0.0
20
0.0
30
0.0
70
128
71
39
72
40
73
37
0
VERTEX
10
0.0
20
0.0
30
0.0
70
128
71
37
72
40
73
38
0
VERTEX
10
0.0
20
0.0
30
0.0
70
128
71
36
72
34
73
40
0
VERTEX
10
0.0
20
0.0
30
0.0
70
128
71
40
72
34
73
38
0
VERTEX
10
0.0
20
0.0
30
0.0
70
128
71
33
72
35
73
39
0
VERTEX
10
0.0
20
0.0
30
0.0
70
128
71
33
72
39
73
37
0
VERTEX
10
0.0
20
0.0
30
0.0
70
128
71
41
72
42
73
43
0
VERTEX
10
0.0
20
0.0
30
0.0
70
128
71
43
72
42
73
44
0
VERTEX
10
0.0
20
0.0
30
0.0
70
128
71
42
72
41
73
45
0
VERTEX
10
0.0
20
0.0
30
0.0
70
128
71
42
72
45
73
46
0
VERTEX
10
0.0
20
0.0
30
0.0
70
128
71
43
72
44
73
47
0
VERTEX
10
0.0
20
0.0
30
0.0
70
128
71
47
72
44
73
48
0
VERTEX
10
0.0
20
0.0
30
0.0
70
128
71
47
72
48
73
45
0
VERTEX
10
0.0
20
0.0
30
0.0
70
128
71
45
72
48
73
46
0
VERTEX
10
0.0
20
0.0
30
0.0
70
128
71
44
72
42
73
48
0
VERTEX
10
0.0
20
0.0
30
0.0
70
128
71
48
72
42
73
46
0
VERTEX
10
0.0
20
0.0
30
0.0
70
128
71
41
72
43
73
47
0
VERTEX
10
0.0
20
0.0
30
0.0
70
128
71
41
72
47
73
45
0
VERTEX
10
0.0
20
0.0
30
0.0
70
128
71
49
72
10
73
50
0
VERTEX
10
0.0
20
0.0
30
0.0
70
128
71
50
72
10
73
12
0
VERTEX
10
0.0
20
0.0
30
0.0
70
128
71
10
72
49
73
51
0
VERTEX
10
0.0
20
0.0
30
0.0
70
128
71
10
72
51
73
46
0
VERTEX
10
0.0
20
0.0
30
0.0
70
128
71
50
72
12
73
52
0
VERTEX
10
0.0
20
0.0
30
0.0
70
128
71
52
72
12
73
48
0
VERTEX
10
0.0
20
0.0
30
0.0
70
128
71
52
72
48
73
51
0
VERTEX
10
0.0
20
0.0
30
0.0
70
128
71
51
72
48
73
46
0
VERTEX
10
0.0
20
0.0
30
0.0
70
128
71
12
72
10
73
48
0
VERTEX
10
0.0
20
0.0
30
0.0
70
128
71
48
72
10
73
46
0
VERTEX
10
0.0
20
0.0
30
0.0
70
128
71
49
72
50
73
52
0
VERTEX
10
0.0
20
0.0
30
0.0
70
128
71
49
72
52
73
51
0
VERTEX
10
0.0
20
0.0
30
0.0
70
128
71
53
72
54
73
55
0
VERTEX
10
0.0
20
0.0
30
0.0
70
128
71
55
72
54
73
56
0
VERTEX
10
0.0
20
0.0
30
0.0
70
128
71
54
72
53
73
57
0
VERTEX
10
0.0
20
0.0
30
0.0
70
128
71
54
72
57
73
58
0
VERTEX
10
0.0
20
0.0
30
0.0
70
128
71
55
72
56
73
59
0
VERTEX
10
0.0
20
0.0
30
0.0
70
128
71
59
72
56
73
60
0
VERTEX
10
0.0
20
0.0
30
0.0
70
128
71
59
72
60
73
57
0
VERTEX
10
0.0
20
0.0
30
0.0
70
128
71
57
72
60
73
58
0
VERTEX
10
0.0
20
0.0
30
0.0
70
128
71
56
72
54
73
60
0
VERTEX
10
0.0
20
0.0
30
0.0
70
128
71
60
72
54
73
58
0
VERTEX
10
0.0
20
0.0
30
0.0
70
128
71
53
72
55
73
59
0
VERTEX
10
0.0
20
0.0
30
0.0
70
128
71
53
72
59
73
57
0
VERTEX
10
0.0
20
0.0
30
0.0
70
128
71
61
72
62
73
63
0
VERTEX
10
0.0
20
0.0
30
0.0
70
128
71
63
72
62
73
64
0
VERTEX
10
0.0
20
0.0
30
0.0
70
128
71
62
72
61
73
65
0
VERTEX
10
0.0
20
0.0
30
0.0
70
128
71
62
72
65
73
66
0
VERTEX
10
0.0
20
0.0
30
0.0
70
128
71
63
72
64
73
67
0
VERTEX
10
0.0
20
0.0
30
0.0
70
128
71
67
72
64
73
68
0
VERTEX
10
0.0
20
0.0
30
0.0
70
128
71
67
72
68
73
65
0
VERTEX
10
0.0
20
0.0
30
0.0
70
128
71
65
72
68
73
66
0
VERTEX
10
0.0
20
0.0
30
0.0
70
128
71
64
72
62
73
68
0
VERTEX
10
0.0
20
0.0
30
0.0
70
128
71
68
72
62
73
66
0
VERTEX
10
0.0
20
0.0
30
0.0
70
128
71
61
72
63
73
67
0
VERTEX
10
0.0
20
0.0
30
0.0
70
128
71
61
72
67
73
65
0
VERTEX
10
0.0
20
0.0
30
0.0
70
128
71
69
72
70
73
71
0
VERTEX
10
0.0
20
0.0
30
0.0
70
128
71
71
72
70
73
72
0
VERTEX
10
0.0
20
0.0
30
0.0
70
128
71
70
72
69
73
73
0
VERTEX
10
0.0
20
0.0
30
0.0
70
128
71
70
72
73
73
74
0
VERTEX
10
0.0
20
0.0
30
0.0
70
128
71
71
72
72
73
75
0
VERTEX
10
0.0
20
0.0
30
0.0
70
128
71
75
72
72
73
76
0
VERTEX
10
0.0
20
0.0
30
0.0
70
128
71
75
72
76
73
73
0
VERTEX
10
0.0
20
0.0
30
0.0
70
128
71
73
72
76
73
74
0
VERTEX
10
0.0
20
0.0
30
0.0
70
128
71
72
72
70
73
76
0
VERTEX
10
0.0
20
0.0
30
0.0
70
128
71
76
72
70
73
74
0
VERTEX
10
0.0
20
0.0
30
0.0
70
128
71
69
72
71
73
75
0
VERTEX
10
0.0
20
0.0
30
0.0
70
128
71
69
72
75
73
73
0
VERTEX
10
0.0
20
0.0
30
0.0
70
128
71
77
72
78
73
79
0
VERTEX
10
0.0
20
0.0
30
0.0
70
128
71
79
72
78
73
80
0
VERTEX
10
0.0
20
0.0
30
0.0
70
128
71
78
72
77
73
81
0
VERTEX
10
0.0
20
0.0
30
0.0
70
128
71
78
72
81
73
82
0
VERTEX
10
0.0
20
0.0
30
0.0
70
128
71
79
72
80
73
83
0
VERTEX
10
0.0
20
0.0
30
0.0
70
128
71
83
72
80
73
84
0
VERTEX
10
0.0
20
0.0
30
0.0
70
128
71
83
72
84
73
81
0
VERTEX
10
0.0
20
0.0
30
0.0
70
128
71
81
72
84
73
82
0
VERTEX
10
0.0
20
0.0
30
0.0
70
128
71
80
72
78
73
84
0
VERTEX
10
0.0
20
0.0
30
0.0
70
128
71
84
72
78
73
82
0
VERTEX
10
0.0
20
0.0
30
0.0
70
128
71
77
72
79
73
83
0
VERTEX
10
0.0
20
0.0
30
0.0
70
128
71
77
72
83
73
81
0
VERTEX
10
0.0
20
0.0
30
0.0
70
128
71
85
72
86
73
87
0
VERTEX
10
0.0
20
0.0
30
0.0
70
128
71
87
72
86
73
88
0
VERTEX
10
0.0
20
0.0
30
0.0
70
128
71
86
72
85
73
89
0
VERTEX
10
0.0
20
0.0
30
0.0
70
128
71
86
72
89
73
90
0
VERTEX
10
0.0
20
0.0
30
0.0
70
128
71
87
72
88
73
91
0
VERTEX
10
0.0
20
0.0
30
0.0
70
128
71
91
72
88
73
92
0
VERTEX
10
0.0
20
0.0
30
0.0
70
128
71
91
72
92
73
89
0
VERTEX
10
0.0
20
0.0
30
0.0
70
128
71
89
72
92
73
90
0
VERTEX
10
0.0
20
0.0
30
0.0
70
128
71
88
72
86
73
92
0
VERTEX
10
0.0
20
0.0
30
0.0
70
128
71
92
72
86
73
90
0
VERTEX
10
0.0
20
0.0
30
0.0
70
128
71
85
72
87
73
91
0
VERTEX
10
0.0
20
0.0
30
0.0
70
128
71
85
72
91
73
89
0
VERTEX
10
0.0
20
0.0
30
0.0
70
128
71
93
72
94
73
95
0
VERTEX
10
0.0
20
0.0
30
0.0
70
128
71
95
72
94
73
96
0
VERTEX
10
0.0
20
0.0
30
0.0
70
128
71
94
72
93
73
97
0
VERTEX
10
0.0
20
0.0
30
0.0
70
128
71
94
72
97
73
98
0
VERTEX
10
0.0
20
0.0
30
0.0
70
128
71
95
72
96
73
99
0
VERTEX
10
0.0
20
0.0
30
0.0
70
128
71
99
72
96
73
100
0
VERTEX
10
0.0
20
0.0
30
0.0
70
128
71
99
72
100
73
97
0
VERTEX
10
0.0
20
0.0
30
0.0
70
128
71
97
72
100
73
98
0
VERTEX
10
0.0
20
0.0
30
0.0
70
128
71
96
72
94
73
100
0
VERTEX
10
0.0
20
0.0
30
0.0
70
128
71
100
72
94
73
98
0
VERTEX
10
0.0
20
0.0
30
0.0
70
128
71
93
72
95
73
99
0
VERTEX
10
0.0
20
0.0
30
0.0
70
128
71
93
72
99
73
97
0
VERTEX
10
0.0
20
0.0
30
0.0
70
128
71
101
72
102
73
103
0
VERTEX
10
0.0
20
0.0
30
0.0
70
128
71
103
72
102
73
104
0
VERTEX
10
0.0
20
0.0
30
0.0
70
128
71
102
72
101
73
105
0
VERTEX
10
0.0
20
0.0
30
0.0
70
128
71
102
72
105
73
106
0
VERTEX
10
0.0
20
0.0
30
0.0
70
128
71
103
72
104
73
107
0
VERTEX
10
0.0
20
0.0
30
0.0
70
128
71
107
72
104
73
108
0
VERTEX
10
0.0
20
0.0
30
0.0
70
128
71
107
72
108
73
105
0
VERTEX
10
0.0
20
0.0
30
0.0
70
128
71
105
72
108
73
106
0
VERTEX
10
0.0
20
0.0
30
0.0
70
128
71
104
72
102
73
108
0
VERTEX
10
0.0
20
0.0
30
0.0
70
128
71
108
72
102
73
106
0
VERTEX
10
0.0
20
0.0
30
0.0
70
128
71
101
72
103
73
107
0
VERTEX
10
0.0
20
0.0
30
0.0
70
128
71
101
72
107
73
105
0
VERTEX
10
0.0
20
0.0
30
0.0
70
128
71
109
72
110
73
111
0
VERTEX
10
0.0
20
0.0
30
0.0
70
128
71
111
72
110
73
112
0
VERTEX
10
0.0
20
0.0
30
0.0
70
128
71
110
72
109
73
113
0
VERTEX
10
0.0
20
0.0
30
0.0
70
128
71
110
72
113
73
114
0
VERTEX
10
0.0
20
0.0
30
0.0
70
128
71
111
72
112
73
115
0
VERTEX
10
0.0
20
0.0
30
0.0
70
128
71
115
72
112
73
116
0
VERTEX
10
0.0
20
0.0
30
0.0
70
128
71
115
72
116
73
113
0
VERTEX
10
0.0
20
0.0
30
0.0
70
128
71
113
72
116
73
114
0
VERTEX
10
0.0
20
0.0
30
0.0
70
128
71
112
72
110
73
116
0
VERTEX
10
0.0
20
0.0
30
0.0
70
128
71
116
72
110
73
114
0
VERTEX
10
0.0
20
0.0
30
0.0
70
128
71
109
72
111
73
115
0
VERTEX
10
0.0
20
0.0
30
0.0
70
128
71
109
72
115
73
113
0
VERTEX
10
0.0
20
0.0
30
0.0
70
128
71
117
72
118
73
119
0
VERTEX
10
0.0
20
0.0
30
0.0
70
128
71
119
72
118
73
120
0
VERTEX
10
0.0
20
0.0
30
0.0
70
128
71
118
72
117
73
121
0
VERTEX
10
0.0
20
0.0
30
0.0
70
128
71
118
72
121
73
122
0
VERTEX
10
0.0
20
0.0
30
0.0
70
128
71
119
72
120
73
123
0
VERTEX
10
0.0
20
0.0
30
0.0
70
128
71
123
72
120
73
124
0
VERTEX
10
0.0
20
0.0
30
0.0
70
128
71
123
72
124
73
121
0
VERTEX
10
0.0
20
0.0
30
0.0
70
128
71
121
72
124
73
122
0
VERTEX
10
0.0
20
0.0
30
0.0
70
128
71
120
72
118
73
124
0
VERTEX
10
0.0
20
0.0
30
0.0
70
128
71
124
72
118
73
122
0
VERTEX
10
0.0
20
0.0
30
0.0
70
128
71
117
72
119
73
123
0
VERTEX
10
0.0
20
0.0
30
0.0
70
128
71
117
72
123
73
121
0
VERTEX
10
0.0
20
0.0
30
0.0
70
128
71
125
72
126
73
127
0
VERTEX
10
0.0
20
0.0
30
0.0
70
128
71
127
72
126
73
128
0
VERTEX
10
0.0
20
0.0
30
0.0
70
128
71
126
72
125
73
129
0
VERTEX
10
0.0
20
0.0
30
0.0
70
128
71
126
72
129
73
130
0
VERTEX
10
0.0
20
0.0
30
0.0
70
128
71
127
72
128
73
131
0
VERTEX
10
0.0
20
0.0
30
0.0
70
128
71
131
72
128
73
132
0
VERTEX
10
0.0
20
0.0
30
0.0
70
128
71
131
72
132
73
129
0
VERTEX
10
0.0
20
0.0
30
0.0
70
128
71
129
72
132
73
130
0
VERTEX
10
0.0
20
0.0
30
0.0
70
128
71
128
72
126
73
132
0
VERTEX
10
0.0
20
0.0
30
0.0
70
128
71
132
72
126
73
130
0
VERTEX
10
0.0
20
0.0
30
0.0
70
128
71
125
72
127
73
131
0
VERTEX
10
0.0
20
0.0
30
0.0
70
128
71
125
72
131
73
129
0
VERTEX
10
0.0
20
0.0
30
0.0
70
128
71
133
72
134
73
135
0
VERTEX
10
0.0
20
0.0
30
0.0
70
128
71
135
72
134
73
136
0
VERTEX
10
0.0
20
0.0
30
0.0
70
128
71
134
72
133
73
137
0
VERTEX
10
0.0
20
0.0
30
0.0
70
128
71
134
72
137
73
138
0
VERTEX
10
0.0
20
0.0
30
0.0
70
128
71
135
72
136
73
139
0
VERTEX
10
0.0
20
0.0
30
0.0
70
128
71
139
72
136
73
140
0
VERTEX
10
0.0
20
0.0
30
0.0
70
128
71
139
72
140
73
137
0
VERTEX
10
0.0
20
0.0
30
0.0
70
128
71
137
72
140
73
138
0
VERTEX
10
0.0
20
0.0
30
0.0
70
128
71
136
72
134
73
140
0
VERTEX
10
0.0
20
0.0
30
0.0
70
128
71
140
72
134
73
138
0
VERTEX
10
0.0
20
0.0
30
0.0
70
128
71
133
72
135
73
139
0
VERTEX
10
0.0
20
0.0
30
0.0
70
128
71
133
72
139
73
137
0
VERTEX
10
0.0
20
0.0
30
0.0
70
128
71
141
72
142
73
143
0
VERTEX
10
0.0
20
0.0
30
0.0
70
128
71
143
72
142
73
144
0
VERTEX
10
0.0
20
0.0
30
0.0
70
128
71
142
72
141
73
145
0
VERTEX
10
0.0
20
0.0
30
0.0
70
128
71
142
72
145
73
146
0
VERTEX
10
0.0
20
0.0
30
0.0
70
128
71
143
72
144
73
147
0
VERTEX
10
0.0
20
0.0
30
0.0
70
128
71
147
72
144
73
148
0
VERTEX
10
0.0
20
0.0
30
0.0
70
128
71
147
72
148
73
145
0
VERTEX
10
0.0
20
0.0
30
0.0
70
128
71
145
72
148
73
146
0
VERTEX
10
0.0
20
0.0
30
0.0
70
128
71
144
72
142
73
148
0
VERTEX
10
0.0
20
0.0
30
0.0
70
128
71
148
72
142
73
146
0
VERTEX
10
0.0
20
0.0
30
0.0
70
128
71
141
72
143
73
147
0
VERTEX
10
0.0
20
0.0
30
0.0
70
128
71
141
72
147
73
145
0
VERTEX
10
0.0
20
0.0
30
0.0
70
128
71
149
72
150
73
151
0
VERTEX
10
0.0
20
0.0
30
0.0
70
128
71
151
72
150
73
152
0
VERTEX
10
0.0
20
0.0
30
0.0
70
128
71
150
72
149
73
153
0
VERTEX
10
0.0
20
0.0
30
0.0
70
128
71
150
72
153
73
154
0
VERTEX
10
0.0
20
0.0
30
0.0
70
128
71
151
72
152
73
155
0
VERTEX
10
0.0
20
0.0
30
0.0
70
128
71
155
72
152
73
156
0
VERTEX
10
0.0
20
0.0
30
0.0
70
128
71
155
72
156
73
153
0
VERTEX
10
0.0
20
0.0
30
0.0
70
128
71
153
72
156
73
154
0
VERTEX
10
0.0
20
0.0
30
0.0
70
128
71
152
72
150
73
156
0
VERTEX
10
0.0
20
0.0
30
0.0
70
128
71
156
72
150
73
154
0
VERTEX
10
0.0
20
0.0
30
0.0
70
128
71
149
72
151
73
155
0
VERTEX
10
0.0
20
0.0
30
0.0
70
128
71
149
72
155
73
153
0
VERTEX
10
0.0
20
0.0
30
0.0
70
128
71
157
72
158
73
159
0
VERTEX
10
0.0
20
0.0
30
0.0
70
128
71
159
72
158
73
160
0
VERTEX
10
0.0
20
0.0
30
0.0
70
128
71
158
72
157
73
161
0
VERTEX
10
0.0
20
0.0
30
0.0
70
128
71
158
72
161
73
162
0
VERTEX
10
0.0
20
0.0
30
0.0
70
128
71
159
72
160
73
163
0
VERTEX
10
0.0
20
0.0
30
0.0
70
128
71
163
72
160
73
164
0
VERTEX
10
0.0
20
0.0
30
0.0
70
128
71
163
72
164
73
161
0
VERTEX
10
0.0
20
0.0
30
0.0
70
128
71
161
72
164
73
162
0
VERTEX
10
0.0
20
0.0
30
0.0
70
128
71
160
72
158
73
164
0
VERTEX
10
0.0
20
0.0
30
0.0
70
128
71
164
72
158
73
162
0
VERTEX
10
0.0
20
0.0
30
0.0
70
128
71
157
72
159
73
163
0
VERTEX
10
0.0
20
0.0
30
0.0
70
128
71
157
72
163
73
161
0
VERTEX
10
0.0
20
0.0
30
0.0
70
128
71
165
72
166
73
167
0
VERTEX
10
0.0
20
0.0
30
0.0
70
128
71
167
72
166
73
168
0
VERTEX
10
0.0
20
0.0
30
0.0
70
128
71
166
72
165
73
169
0
VERTEX
10
0.0
20
0.0
30
0.0
70
128
71
166
72
169
73
170
0
VERTEX
10
0.0
20
0.0
30
0.0
70
128
71
167
72
168
73
171
0
VERTEX
10
0.0
20
0.0
30
0.0
70
128
71
171
72
168
73
172
0
VERTEX
10
0.0
20
0.0
30
0.0
70
128
71
171
72
172
73
169
0
VERTEX
10
0.0
20
0.0
30
0.0
70
128
71
169
72
172
73
170
0
VERTEX
10
0.0
20
0.0
30
0.0
70
128
71
168
72
166
73
172
0
VERTEX
10
0.0
20
0.0
30
0.0
70
128
71
172
72
166
73
170
0
VERTEX
10
0.0
20
0.0
30
0.0
70
128
71
165
72
167
73
171
0
VERTEX
10
0.0
20
0.0
30
0.0
70
128
71
165
72
171
73
169
0
VERTEX
10
0.0
20
0.0
30
0.0
70
128
71
173
72
174
73
175
0
VERTEX
10
0.0
20
0.0
30
0.0
70
128
71
175
72
174
73
176
0
VERTEX
10
0.0
20
0.0
30
0.0
70
128
71
174
72
173
73
177
0
VERTEX
10
0.0
20
0.0
30
0.0
70
128
71
174
72
177
73
178
0
VERTEX
10
0.0
20
0.0
30
0.0
70
128
71
175
72
176
73
179
0
VERTEX
10
0.0
20
0.0
30
0.0
70
128
71
179
72
176
73
180
0
VERTEX
10
0.0
20
0.0
30
0.0
70
128
71
179
72
180
73
177
0
VERTEX
10
0.0
20
0.0
30
0.0
70
128
71
177
72
180
73
178
0
VERTEX
10
0.0
20
0.0
30
0.0
70
128
71
176
72
174
73
180
0
VERTEX
10
0.0
20
0.0
30
0.0
70
128
71
180
72
174
73
178
0
VERTEX
10
0.0
20
0.0
30
0.0
70
128
71
173
72
175
73
179
0
VERTEX
10
0.0
20
0.0
30
0.0
70
128
71
173
72
179
73
177
0
VERTEX
10
0.0
20
0.0
30
0.0
70
128
71
181
72
182
73
183
0
VERTEX
10
0.0
20
0.0
30
0.0
70
128
71
183
72
182
73
184
0
VERTEX
10
0.0
20
0.0
30
0.0
70
128
71
182
72
181
73
185
0
VERTEX
10
0.0
20
0.0
30
0.0
70
128
71
182
72
185
73
186
0
VERTEX
10
0.0
20
0.0
30
0.0
70
128
71
183
72
184
73
187
0
VERTEX
10
0.0
20
0.0
30
0.0
70
128
71
187
72
184
73
188
0
VERTEX
10
0.0
20
0.0
30
0.0
70
128
71
187
72
188
73
185
0
VERTEX
10
0.0
20
0.0
30
0.0
70
128
71
185
72
188
73
186
0
VERTEX
10
0.0
20
0.0
30
0.0
70
128
71
184
72
182
73
188
0
VERTEX
10
0.0
20
0.0
30
0.0
70
128
71
188
72
182
73
186
0
VERTEX
10
0.0
20
0.0
30
0.0
70
128
71
181
72
183
73
187
0
VERTEX
10
0.0
20
0.0
30
0.0
70
128
71
181
72
187
73
185
0
VERTEX
10
0.0
20
0.0
30
0.0
70
128
71
189
72
190
73
191
0
VERTEX
10
0.0
20
0.0
30
0.0
70
128
71
191
72
190
73
192
0
VERTEX
10
0.0
20
0.0
30
0.0
70
128
71
190
72
189
73
193
0
VERTEX
10
0.0
20
0.0
30
0.0
70
128
71
190
72
193
73
194
0
VERTEX
10
0.0
20
0.0
30
0.0
70
128
71
191
72
192
73
195
0
VERTEX
10
0.0
20
0.0
30
0.0
70
128
71
195
72
192
73
196
0
VERTEX
10
0.0
20
0.0
30
0.0
70
128
71
195
72
196
73
193
0
VERTEX
10
0.0
20
0.0
30
0.0
70
128
71
193
72
196
73
194
0
VERTEX
10
0.0
20
0.0
30
0.0
70
128
71
192
72
190
73
196
0
VERTEX
10
0.0
20
0.0
30
0.0
70
128
71
196
72
190
73
194
0
VERTEX
10
0.0
20
0.0
30
0.0
70
128
71
189
72
191
73
195
0
VERTEX
10
0.0
20
0.0
30
0.0
70
128
71
189
72
195
73
193
0
VERTEX
10
0.0
20
0.0
30
0.0
70
128
71
197
72
198
73
199
0
VERTEX
10
0.0
20
0.0
30
0.0
70
128
71
199
72
198
73
200
0
VERTEX
10
0.0
20
0.0
30
0.0
70
128
71
198
72
197
73
201
0
VERTEX
10
0.0
20
0.0
30
0.0
70
128
71
198
72
201
73
202
0
VERTEX
10
0.0
20
0.0
30
0.0
70
128
71
199
72
200
73
203
0
VERTEX
10
0.0
20
0.0
30
0.0
70
128
71
203
72
200
73
204
0
VERTEX
10
0.0
20
0.0
30
0.0
70
128
71
203
72
204
73
201
0
VERTEX
10
0.0
20
0.0
30
0.0
70
128
71
201
72
204
73
202
0
VERTEX
10
0.0
20
0.0
30
0.0
70
128
71
200
72
198
73
204
0
VERTEX
10
0.0
20
0.0
30
0.0
70
128
71
204
72
198
73
202
0
VERTEX
10
0.0
20
0.0
30
0.0
70
128
71
197
72
199
73
203
0
VERTEX
10
0.0
20
0.0
30
0.0
70
128
71
197
72
203
73
201
0
VERTEX
10
0.0
20
0.0
30
0.0
70
128
71
205
72
206
73
207
0
VERTEX
10
0.0
20
0.0
30
0.0
70
128
71
207
72
206
73
208
0
VERTEX
10
0.0
20
0.0
30
0.0
70
128
71
206
72
205
73
209
0
VERTEX
10
0.0
20
0.0
30
0.0
70
128
71
206
72
209
73
210
0
VERTEX
10
0.0
20
0.0
30
0.0
70
128
71
207
72
208
73
211
0
VERTEX
10
0.0
20
0.0
30
0.0
70
128
71
211
72
208
73
212
0
VERTEX
10
0.0
20
0.0
30
0.0
70
128
71
211
72
212
73
209
0
VERTEX
10
0.0
20
0.0
30
0.0
70
128
71
209
72
212
73
210
0
VERTEX
10
0.0
20
0.0
30
0.0
70
128
71
208
72
206
73
212
0
VERTEX
10
0.0
20
0.0
30
0.0
70
128
71
212
72
206
73
210
0
VERTEX
10
0.0
20
0.0
30
0.0
70
128
71
205
72
207
73
211
0
VERTEX
10
0.0
20
0.0
30
0.0
70
128
71
205
72
211
73
209
0
VERTEX
10
0.0
20
0.0
30
0.0
70
128
71
213
72
214
73
215
0
VERTEX
10
0.0
20
0.0
30
0.0
70
128
71
215
72
214
73
216
0
VERTEX
10
0.0
20
0.0
30
0.0
70
128
71
214
72
213
73
217
0
VERTEX
10
0.0
20
0.0
30
0.0
70
128
71
214
72
217
73
218
0
VERTEX
10
0.0
20
0.0
30
0.0
70
128
71
215
72
216
73
219
0
VERTEX
10
0.0
20
0.0
30
0.0
70
128
71
219
72
216
73
220
0
VERTEX
10
0.0
20
0.0
30
0.0
70
128
71
219
72
220
73
217
0
VERTEX
10
0.0
20
0.0
30
0.0
70
128
71
217
72
220
73
218
0
VERTEX
10
0.0
20
0.0
30
0.0
70
128
71
216
72
214
73
220
0
VERTEX
10
0.0
20
0.0
30
0.0
70
128
71
220
72
214
73
218
0
VERTEX
10
0.0
20
0.0
30
0.0
70
128
71
213
72
215
73
219
0
VERTEX
10
0.0
20
0.0
30
0.0
70
128
71
213
72
219
73
217
0
VERTEX
10
0.0
20
0.0
30
0.0
70
128
71
221
72
222
73
223
0
VERTEX
10
0.0
20
0.0
30
0.0
70
128
71
223
72
222
73
224
0
VERTEX
10
0.0
20
0.0
30
0.0
70
128
71
222
72
221
73
225
0
VERTEX
10
0.0
20
0.0
30
0.0
70
128
71
222
72
225
73
226
0
VERTEX
10
0.0
20
0.0
30
0.0
70
128
71
223
72
224
73
227
0
VERTEX
10
0.0
20
0.0
30
0.0
70
128
71
227
72
224
73
228
0
VERTEX
10
0.0
20
0.0
30
0.0
70
128
71
227
72
228
73
225
0
VERTEX
10
0.0
20
0.0
30
0.0
70
128
71
225
72
228
73
226
0
VERTEX
10
0.0
20
0.0
30
0.0
70
128
71
224
72
222
73
228
0
VERTEX
10
0.0
20
0.0
30
0.0
70
128
71
228
72
222
73
226
0
VERTEX
10
0.0
20
0.0
30
0.0
70
128
71
221
72
223
73
227
0
VERTEX
10
0.0
20
0.0
30
0.0
70
128
71
221
72
227
73
225
0
VERTEX
10
0.0
20
0.0
30
0.0
70
128
71
229
72
230
73
231
0
VERTEX
10
0.0
20
0.0
30
0.0
70
128
71
231
72
230
73
232
0
VERTEX
10
0.0
20
0.0
30
0.0
70
128
71
230
72
229
73
233
0
VERTEX
10
0.0
20
0.0
30
0.0
70
128
71
230
72
233
73
234
0
VERTEX
10
0.0
20
0.0
30
0.0
70
128
71
231
72
232
73
235
0
VERTEX
10
0.0
20
0.0
30
0.0
70
128
71
235
72
232
73
236
0
VERTEX
10
0.0
20
0.0
30
0.0
70
128
71
235
72
236
73
233
0
VERTEX
10
0.0
20
0.0
30
0.0
70
128
71
233
72
236
73
234
0
VERTEX
10
0.0
20
0.0
30
0.0
70
128
71
232
72
230
73
236
0
VERTEX
10
0.0
20
0.0
30
0.0
70
128
71
236
72
230
73
234
0
VERTEX
10
0.0
20
0.0
30
0.0
70
128
71
229
72
231
73
235
0
VERTEX
10
0.0
20
0.0
30
0.0
70
128
71
229
72
235
73
233
0
VERTEX
10
0.0
20
0.0
30
0.0
70
128
71
237
72
238
73
239
0
VERTEX
10
0.0
20
0.0
30
0.0
70
128
71
239
72
238
73
240
0
VERTEX
10
0.0
20
0.0
30
0.0
70
128
71
238
72
237
73
241
0
VERTEX
10
0.0
20
0.0
30
0.0
70
128
71
238
72
241
73
242
0
VERTEX
10
0.0
20
0.0
30
0.0
70
128
71
239
72
240
73
243
0
VERTEX
10
0.0
20
0.0
30
0.0
70
128
71
243
72
240
73
244
0
VERTEX
10
0.0
20
0.0
30
0.0
70
128
71
243
72
244
73
241
0
VERTEX
10
0.0
20
0.0
30
0.0
70
128
71
241
72
244
73
242
0
VERTEX
10
0.0
20
0.0
30
0.0
70
128
71
240
72
238
73
244
0
VERTEX
10
0.0
20
0.0
30
0.0
70
128
71
244
72
238
73
242
0
VERTEX
10
0.0
20
0.0
30
0.0
70
128
71
237
72
239
73
243
0
VERTEX
10
0.0
20
0.0
30
0.0
70
128
71
237
72
243
73
241
0
SEQEND
0
ENDBLK
0
BLOCK
2
Wall3
70
64
10
0.0
20
0.0
30
0.0
3
Wall3
0
POLYLINE
66
1
70
64
0
VERTEX
10
1.096400
20
-0.024358
30
0.339972
70
192
0
VERTEX
10
1.046400
20
-0.024359
30
0.339972
70
192
0
VERTEX
10
1.096400
20
-0.011418
30
0.388269
70
192
0
VERTEX
10
1.046400
20
-0.011418
30
0.388269
70
192
0
VERTEX
10
1.096400
20
-1.038581
30
0.611732
70
192
0
VERTEX
10
1.046401
20
-1.038581
30
0.611732
70
192
0
VERTEX
10
1.096400
20
-1.025640
30
0.660028
70
192
0
VERTEX
10
1.046401
20
-1.025640
30
0.660028
70
192
0
VERTEX
10
2.500001
20
-0.024357
30
0.339972
70
192
0
VERTEX
10
-2.500001
20
-0.024361
30
0.339972
70
192
0
VERTEX
10
2.500002
20
-0.011416
30
0.388268
70
192
0
VERTEX
10
-2.500002
20
-0.011420
30
0.388268
70
192
0
VERTEX
10
2.500001
20
-0.072654
30
0.352913
70
192
0
VERTEX
10
-2.500003
20
-0.072658
30
0.352913
70
192
0
VERTEX
10
2.500001
20
-0.059713
30
0.401209
70
192
0
VERTEX
10
-2.500002
20
-0.059717
30
0.401209
70
192
0
VERTEX
10
2.525001
20
-0.024358
30
0.339972
70
192
0
VERTEX
10
2.475000
20
-0.024358
30
0.339972
70
192
0
VERTEX
10
2.525001
20
-0.011417
30
0.388268
70
192
0
VERTEX
10
2.475001
20
-0.011417
30
0.388268
70
192
0
VERTEX
10
2.525002
20
-1.038580
30
0.611733
70
192
0
VERTEX
10
2.475002
20
-1.038580
30
0.611732
70
192
0
VERTEX
10
2.525002
20
-1.025639
30
0.660028
70
192
0
VERTEX
10
2.475000
20
-1.025639
30
0.660028
70
192
0
VERTEX
10
2.500001
20
-0.343113
30
0.425382
70
192
0
VERTEX
10
-2.500001
20
-0.343117
30
0.425382
70
192
0
VERTEX
10
2.500002
20
-0.330172
30
0.473678
70
192
0
VERTEX
10
-2.500001
20
-0.330176
30
0.473678
70
192
0
VERTEX
10
2.500002
20
-0.391409
30
0.438323
70
192
0
VERTEX
10
-2.500003
20
-0.391413
30
0.438323
70
192
0
VERTEX
10
2.500002
20
-0.378468
30
0.486619
70
192
0
VERTEX
10
-2.500002
20
-0.378473
30
0.486619
70
192
0
VERTEX
10
2.500002
20
-0.661869
30
0.510792
70
192
0
VERTEX
10
-2.500001
20
-0.661873
30
0.510792
70
192
0
VERTEX
10
2.500002
20
-0.648928
30
0.559090
70
192
0
VERTEX
10
-2.500002
20
-0.648932
30
0.559089
70
192
0
VERTEX
10
2.500001
20
-0.710165
30
0.523733
70
192
0
VERTEX
10
-2.500002
20
-0.710169
30
0.523733
70
192
0
VERTEX
10
2.500002
20
-0.697224
30
0.572030
70
192
0
VERTEX
10
-2.500001
20
-0.697228
30
0.572030
70
192
0
VERTEX
10
2.500003
20
-0.990284
30
0.598791
70
192
0
VERTEX
10
-2.500000
20
-0.990287
30
0.598791
70
192
0
VERTEX
10
2.500002
20
-0.977343
30
0.647088
70
192
0
VERTEX
10
-2.500000
20
-0.977348
30
0.647087
70
192
0
VERTEX
10
2.500002
20
-1.038580
30
0.611732
70
192
0
VERTEX
10
-2.500002
20
-1.038584
30
0.611732
70
192
0
VERTEX
10
2.500002
20
-1.025639
30
0.660028
70
192
0
VERTEX
10
-2.500001
20
-1.025643
30
0.660028
70
192
0
VERTEX
10
-2.450002
20
-0.024361
30
0.339972
70
192
0
VERTEX
10
-2.450002
20
-0.011421
30
0.388268
70
192
0
VERTEX
10
-2.450001
20
-1.038584
30
0.611732
70
192
0
VERTEX
10
-2.450001
20
-1.025643
30
0.660028
70
192
0
VERTEX
10
-1.760701
20
-0.024361
30
0.339972
70
192
0
VERTEX
10
-1.810701
20
-0.024361
30
0.339972
70
192
0
VERTEX
10
-1.760701
20
-0.011420
30
0.388268
70
192
0
VERTEX
10
-1.810701
20
-0.011420
30
0.388268
70
192
0
VERTEX
10
-1.760700
20
-1.038583
30
0.611732
70
192
0
VERTEX
10
-1.810700
20
-1.038583
30
0.611732
70
192
0
VERTEX
10
-1.760700
20
-1.025642
30
0.660028
70
192
0
VERTEX
10
-1.810701
20
-1.025642
30
0.660028
70
192
0
VERTEX
10
-1.046401
20
-0.024360
30
0.339972
70
192
0
VERTEX
10
-1.096400
20
-0.024360
30
0.339972
70
192
0
VERTEX
10
-1.046400
20
-0.011419
30
0.388268
70
192
0
VERTEX
10
-1.096401
20
-0.011419
30
0.388268
70
192
0
VERTEX
10
-1.046400
20
-1.038583
30
0.611732
70
192
0
VERTEX
10
-1.096400
20
-1.038583
30
0.611732
70
192
0
VERTEX
10
-1.046400
20
-1.025642
30
0.660028
70
192
0
VERTEX
10
-1.096400
20
-1.025642
30
0.660028
70
192
0
VERTEX
10
-0.332100
20
-0.024359
30
0.339972
70
192
0
VERTEX
10
-0.382100
20
-0.024359
30
0.339972
70
192
0
VERTEX
10
-0.332100
20
-0.011418
30
0.388268
70
192
0
VERTEX
10
-0.382100
20
-0.011418
30
0.388268
70
192
0
VERTEX
10
-0.332100
20
-1.038582
30
0.611732
70
192
0
VERTEX
10
-0.382100
20
-1.038581
30
0.611732
70
192
0
VERTEX
10
-0.332100
20
-1.025641
30
0.660028
70
192
0
VERTEX
10
-0.382100
20
-1.025640
30
0.660028
70
192
0
VERTEX
10
0.382100
20
-0.024359
30
0.339972
70
192
0
VERTEX
10
0.332100
20
-0.024359
30
0.339972
70
192
0
VERTEX
10
0.382100
20
-0.011418
30
0.388268
70
192
0
VERTEX
10
0.332100
20
-0.011418
30
0.388268
70
192
0
VERTEX
10
0.382100
20
-1.038582
30
0.611732
70
192
0
VERTEX
10
0.332100
20
-1.038582
30
0.611732
70
192
0
VERTEX
10
0.382100
20
-1.025641
30
0.660028
70
192
0
VERTEX
10
0.332100
20
-1.025641
30
0.660028
70
192
0
VERTEX
10
1.810701
20
-0.024358
30
0.339972
70
192
0
VERTEX
10
1.760701
20
-0.024358
30
0.339972
70
192
0
VERTEX
10
1.810701
20
-0.011417
30
0.388268
70
192
0
VERTEX
10
1.760700
20
-0.011418
30
0.388268
70
192
0
VERTEX
10
1.810701
20
-1.038581
30
0.611732
70
192
0
VERTEX
10
1.760702
20
-1.038581
30
0.611732
70
192
0
VERTEX
10
1.810702
20
-1.025640
30
0.660028
70
192
0
VERTEX
10
1.760702
20
-1.025640
30
0.660028
70
192
0
VERTEX
10
0.250000
20
-0.719827
30
0.526321
70
192
0
VERTEX
10
-0.250000
20
-0.719827
30
0.526321
70
192
0
VERTEX
10
0.250000
20
-0.706886
30
0.574618
70
192
0
VERTEX
10
-0.250000
20
-0.706886
30
0.574618
70
192
0
VERTEX
10
0.250000
20
-0.913012
30
0.578085
70
192
0
VERTEX
10
-0.250000
20
-0.913012
30
0.578085
70
192
0
VERTEX
10
0.250000
20
-0.900071
30
0.626381
70
192
0
VERTEX
10
-0.250000
20
-0.900071
30
0.626381
70
192
0
VERTEX
10
2.375000
20
-0.719824
30
0.526321
70
192
0
VERTEX
10
1.875000
20
-0.719825
30
0.526321
70
192
0
VERTEX
10
2.375000
20
-0.706883
30
0.574617
70
192
0
VERTEX
10
1.875001
20
-0.706884
30
0.574617
70
192
0
VERTEX
10
2.375002
20
-0.913009
30
0.578086
70
192
0
VERTEX
10
1.875002
20
-0.913010
30
0.578085
70
192
0
VERTEX
10
2.375002
20
-0.900068
30
0.626382
70
192
0
VERTEX
10
1.875001
20
-0.900069
30
0.626381
70
192
0
VERTEX
10
1.650001
20
-0.719825
30
0.526321
70
192
0
VERTEX
10
1.150002
20
-0.719825
30
0.526321
70
192
0
VERTEX
10
1.650001
20
-0.706884
30
0.574618
70
192
0
VERTEX
10
1.150001
20
-0.706884
30
0.574618
70
192
0
VERTEX
10
1.650002
20
-0.913010
30
0.578085
70
192
0
VERTEX
10
1.150001
20
-0.913010
30
0.578085
70
192
0
VERTEX
10
1.650002
20
-0.900069
30
0.626381
70
192
0
VERTEX
10
1.150001
20
-0.900069
30
0.626381
70
192
0
VERTEX
10
0.950000
20
-0.719825
30
0.526322
70
192
0
VERTEX
10
0.450000
20
-0.719826
30
0.526322
70
192
0
VERTEX
10
0.950000
20
-0.706884
30
0.574618
70
192
0
VERTEX
10
0.450000
20
-0.706885
30
0.574618
70
192
0
VERTEX
10
0.950001
20
-0.913010
30
0.578085
70
192
0
VERTEX
10
0.450000
20
-0.913011
30
0.578085
70
192
0
VERTEX
10
0.950000
20
-0.900069
30
0.626382
70
192
0
VERTEX
10
0.450000
20
-0.900070
30
0.626382
70
192
0
VERTEX
10
-1.875000
20
-0.719828
30
0.526322
70
192
0
VERTEX
10
-2.375000
20
-0.719828
30
0.526322
70
192
0
VERTEX
10
-1.875000
20
-0.706886
30
0.574618
70
192
0
VERTEX
10
-2.375000
20
-0.706887
30
0.574618
70
192
0
VERTEX
10
-1.875000
20
-0.913012
30
0.578085
70
192
0
VERTEX
10
-2.375001
20
-0.913013
30
0.578086
70
192
0
VERTEX
10
-1.875000
20
-0.900072
30
0.626382
70
192
0
VERTEX
10
-2.375000
20
-0.900072
30
0.626382
70
192
0
VERTEX
10
-1.175000
20
-0.719827
30
0.526322
70
192
0
VERTEX
10
-1.675000
20
-0.719827
30
0.526321
70
192
0
VERTEX
10
-1.175000
20
-0.706886
30
0.574618
70
192
0
VERTEX
10
-1.675000
20
-0.706886
30
0.574618
70
192
0
VERTEX
10
-1.175000
20
-0.913012
30
0.578085
70
192
0
VERTEX
10
-1.675000
20
-0.913012
30
0.578085
70
192
0
VERTEX
10
-1.175000
20
-0.900072
30
0.626382
70
192
0
VERTEX
10
-1.675000
20
-0.900072
30
0.626382
70
192
0
VERTEX
10
-0.475000
20
-0.719826
30
0.526321
70
192
0
VERTEX
10
-0.975000
20
-0.719827
30
0.526321
70
192
0
VERTEX
10
-0.475000
20
-0.706885
30
0.574618
70
192
0
VERTEX
10
-0.975000
20
-0.706886
30
0.574618
70
192
0
VERTEX
10
-0.475000
20
-0.913012
30
0.578085
70
192
0
VERTEX
10
-0.975000
20
-0.913013
30
0.578085
70
192
0
VERTEX
10
-0.475000
20
-0.900071
30
0.626381
70
192
0
VERTEX
10
-0.975000
20
-0.900072
30
0.626381
70
192
0
VERTEX
10
0.250000
20
-0.410730
30
0.443499
70
192
0
VERTEX
10
-0.250000
20
-0.410729
30
0.443499
70
192
0
VERTEX
10
0.250000
20
-0.397789
30
0.491796
70
192
0
VERTEX
10
-0.250000
20
-0.397789
30
0.491796
70
192
0
VERTEX
10
0.250000
20
-0.603915
30
0.495263
70
192
0
VERTEX
10
-0.250000
20
-0.603915
30
0.495263
70
192
0
VERTEX
10
0.250000
20
-0.590974
30
0.543559
70
192
0
VERTEX
10
-0.250000
20
-0.590974
30
0.543559
70
192
0
VERTEX
10
1.650000
20
-0.410729
30
0.443500
70
192
0
VERTEX
10
1.150000
20
-0.410729
30
0.443500
70
192
0
VERTEX
10
1.650000
20
-0.397788
30
0.491796
70
192
0
VERTEX
10
1.150000
20
-0.397788
30
0.491796
70
192
0
VERTEX
10
1.650000
20
-0.603914
30
0.495264
70
192
0
VERTEX
10
1.150000
20
-0.603914
30
0.495264
70
192
0
VERTEX
10
1.650000
20
-0.590974
30
0.543560
70
192
0
VERTEX
10
1.150000
20
-0.590974
30
0.543560
70
192
0
VERTEX
10
-0.475000
20
-0.410730
30
0.443499
70
192
0
VERTEX
10
-0.975000
20
-0.410731
30
0.443499
70
192
0
VERTEX
10
-0.475000
20
-0.397789
30
0.491795
70
192
0
VERTEX
10
-0.975000
20
-0.397790
30
0.491795
70
192
0
VERTEX
10
-0.475000
20
-0.603915
30
0.495263
70
192
0
VERTEX
10
-0.975000
20
-0.603916
30
0.495263
70
192
0
VERTEX
10
-0.475000
20
-0.590974
30
0.543559
70
192
0
VERTEX
10
-0.975000
20
-0.590975
30
0.543559
70
192
0
VERTEX
10
-1.174999
20
-0.410731
30
0.443499
70
192
0
VERTEX
10
-1.674999
20
-0.410731
30
0.443499
70
192
0
VERTEX
10
-1.174999
20
-0.397790
30
0.491795
70
192
0
VERTEX
10
-1.674999
20
-0.397790
30
0.491795
70
192
0
VERTEX
10
-1.174999
20
-0.603916
30
0.495263
70
192
0
VERTEX
10
-1.674999
20
-0.603916
30
0.495263
70
192
0
VERTEX
10
-1.174999
20
-0.590975
30
0.543559
70
192
0
VERTEX
10
-1.674999
20
-0.590975
30
0.543559
70
192
0
VERTEX
10
-1.875000
20
-0.410730
30
0.443500
70
192
0
VERTEX
10
-2.375000
20
-0.410731
30
0.443499
70
192
0
VERTEX
10
-1.875000
20
-0.397790
30
0.491796
70
192
0
VERTEX
10
-2.375000
20
-0.397790
30
0.491796
70
192
0
VERTEX
10
-1.875000
20
-0.603916
30
0.495263
70
192
0
VERTEX
10
-2.375001
20
-0.603917
30
0.495263
70
192
0
VERTEX
10
-1.875000
20
-0.590975
30
0.543560
70
192
0
VERTEX
10
-2.375000
20
-0.590976
30
0.543560
70
192
0
VERTEX
10
0.950000
20
-0.410729
30
0.443500
70
192
0
VERTEX
10
0.450000
20
-0.410730
30
0.443500
70
192
0
VERTEX
10
0.950000
20
-0.397788
30
0.491796
70
192
0
VERTEX
10
0.450000
20
-0.397789
30
0.491796
70
192
0
VERTEX
10
0.950000
20
-0.603914
30
0.495263
70
192
0
VERTEX
10
0.450000
20
-0.603915
30
0.495263
70
192
0
VERTEX
10
0.950000
20
-0.590973
30
0.543560
70
192
0
VERTEX
10
0.450000
20
-0.590974
30
0.543560
70
192
0
VERTEX
10
0.250000
20
-0.082315
30
0.355501
70
192
0
VERTEX
10
-0.250000
20
-0.082315
30
0.355501
70
192
0
VERTEX
10
0.250000
20
-0.069374
30
0.403797
70
192
0
VERTEX
10
-0.250000
20
-0.069374
30
0.403797
70
192
0
VERTEX
10
0.250000
20
-0.275500
30
0.407265
70
192
0
VERTEX
10
-0.250000
20
-0.275500
30
0.407265
70
192
0
VERTEX
10
0.250000
20
-0.262559
30
0.455561
70
192
0
VERTEX
10
-0.250000
20
-0.262559
30
0.455561
70
192
0
VERTEX
10
-0.475000
20
-0.082315
30
0.355501
70
192
0
VERTEX
10
-0.975001
20
-0.082316
30
0.355501
70
192
0
VERTEX
10
-0.475000
20
-0.069374
30
0.403797
70
192
0
VERTEX
10
-0.975000
20
-0.069375
30
0.403797
70
192
0
VERTEX
10
-0.475000
20
-0.275500
30
0.407265
70
192
0
VERTEX
10
-0.975000
20
-0.275501
30
0.407265
70
192
0
VERTEX
10
-0.475000
20
-0.262560
30
0.455561
70
192
0
VERTEX
10
-0.975000
20
-0.262560
30
0.455561
70
192
0
VERTEX
10
-1.175000
20
-0.082316
30
0.355501
70
192
0
VERTEX
10
-1.675000
20
-0.082316
30
0.355501
70
192
0
VERTEX
10
-1.175001
20
-0.069375
30
0.403797
70
192
0
VERTEX
10
-1.675000
20
-0.069375
30
0.403797
70
192
0
VERTEX
10
-1.175000
20
-0.275501
30
0.407265
70
192
0
VERTEX
10
-1.675000
20
-0.275501
30
0.407265
70
192
0
VERTEX
10
-1.175001
20
-0.262560
30
0.455561
70
192
0
VERTEX
10
-1.675000
20
-0.262560
30
0.455561
70
192
0
VERTEX
10
-1.875001
20
-0.082316
30
0.355501
70
192
0
VERTEX
10
-2.375001
20
-0.082317
30
0.355501
70
192
0
VERTEX
10
-1.875001
20
-0.069375
30
0.403797
70
192
0
VERTEX
10
-2.375002
20
-0.069376
30
0.403797
70
192
0
VERTEX
10
-1.875000
20
-0.275501
30
0.407264
70
192
0
VERTEX
10
-2.375001
20
-0.275502
30
0.407264
70
192
0
VERTEX
10
-1.875000
20
-0.262560
30
0.455561
70
192
0
VERTEX
10
-2.375001
20
-0.262561
30
0.455561
70
192
0
VERTEX
10
0.950000
20
-0.082314
30
0.355501
70
192
0
VERTEX
10
0.450000
20
-0.082315
30
0.355501
70
192
0
VERTEX
10
0.950000
20
-0.069373
30
0.403797
70
192
0
VERTEX
10
0.450000
20
-0.069374
30
0.403798
70
192
0
VERTEX
10
0.950000
20
-0.275499
30
0.407265
70
192
0
VERTEX
10
0.450000
20
-0.275500
30
0.407265
70
192
0
VERTEX
10
0.950000
20
-0.262558
30
0.455561
70
192
0
VERTEX
10
0.450000
20
-0.262559
30
0.455561
70
192
0
VERTEX
10
2.375000
20
-0.082312
30
0.355501
70
192
0
VERTEX
10
1.875000
20
-0.082313
30
0.355501
70
192
0
VERTEX
10
2.375001
20
-0.069372
30
0.403797
70
192
0
VERTEX
10
1.875000
20
-0.069373
30
0.403797
70
192
0
VERTEX
10
2.375001
20
-0.275498
30
0.407265
70
192
0
VERTEX
10
1.875001
20
-0.275499
30
0.407265
70
192
0
VERTEX
10
2.375001
20
-0.262557
30
0.455561
70
192
0
VERTEX
10
1.875000
20
-0.262558
30
0.455561
70
192
0
VERTEX
10
0.0
20
0.0
30
0.0
70
128
71
1
72
2
73
3
0
VERTEX
10
0.0
20
0.0
30
0.0
70
128
71
3
72
2
73
4
0
VERTEX
10
0.0
20
0.0
30
0.0
70
128
71
2
72
1
73
5
0
VERTEX
10
0.0
20
0.0
30
0.0
70
128
71
2
72
5
73
6
0
VERTEX
10
0.0
20
0.0
30
0.0
70
128
71
3
72
4
73
7
0
VERTEX
10
0.0
20
0.0
30
0.0
70
128
71
7
72
4
73
8
0
VERTEX
10
0.0
20
0.0
30
0.0
70
128
71
7
72
8
73
5
0
VERTEX
10
0.0
20
0.0
30
0.0
70
128
71
5
72
8
73
6
0
VERTEX
10
0.0
20
0.0
30
0.0
70
128
71
4
72
2
73
8
0
VERTEX
10
0.0
20
0.0
30
0.0
70
128
71
8
72
2
73
6
0
VERTEX
10
0.0
20
0.0
30
0.0
70
128
71
1
72
3
73
7
0
VERTEX
10
0.0
20
0.0
30
0.0
70
128
71
1
72
7
73
5
0
VERTEX
10
0.0
20
0.0
30
0.0
70
128
71
9
72
10
73
11
0
VERTEX
10
0.0
20
0.0
30
0.0
70
128
71
11
72
10
73
12
0
VERTEX
10
0.0
20
0.0
30
0.0
70
128
71
10
72
9
73
13
0
VERTEX
10
0.0
20
0.0
30
0.0
70
128
71
10
72
13
73
14
0
VERTEX
10
0.0
20
0.0
30
0.0
70
128
71
11
72
12
73
15
0
VERTEX
10
0.0
20
0.0
30
0.0
70
128
71
15
72
12
73
16
0
VERTEX
10
0.0
20
0.0
30
0.0
70
128
71
15
72
16
73
13
0
VERTEX
10
0.0
20
0.0
30
0.0
70
128
71
13
72
16
73
14
0
VERTEX
10
0.0
20
0.0
30
0.0
70
128
71
12
72
10
73
16
0
VERTEX
10
0.0
20
0.0
30
0.0
70
128
71
16
72
10
73
14
0
VERTEX
10
0.0
20
0.0
30
0.0
70
128
71
9
72
11
73
15
0
VERTEX
10
0.0
20
0.0
30
0.0
70
128
71
9
72
15
73
13
0
VERTEX
10
0.0
20
0.0
30
0.0
70
128
71
17
72
18
73
19
0
VERTEX
10
0.0
20
0.0
30
0.0
70
128
71
19
72
18
73
20
0
VERTEX
10
0.0
20
0.0
30
0.0
70
128
71
18
72
17
73
21
0
VERTEX
10
0.0
20
0.0
30
0.0
70
128
71
18
72
21
73
22
0
VERTEX
10
0.0
20
0.0
30
0.0
70
128
71
19
72
20
73
23
0
VERTEX
10
0.0
20
0.0
30
0.0
70
128
71
23
72
20
73
24
0
VERTEX
10
0.0
20
0.0
30
0.0
70
128
71
23
72
24
73
21
0
VERTEX
10
0.0
20
0.0
30
0.0
70
128
71
21
72
24
73
22
0
VERTEX
10
0.0
20
0.0
30
0.0
70
128
71
20
72
18
73
24
0
VERTEX
10
0.0
20
0.0
30
0.0
70
128
71
24
72
18
73
22
0
VERTEX
10
0.0
20
0.0
30
0.0
70
128
71
17
72
19
73
23
0
VERTEX
10
0.0
20
0.0
30
0.0
70
128
71
17
72
23
73
21
0
VERTEX
10
0.0
20
0.0
30
0.0
70
128
71
25
72
26
73
27
0
VERTEX
10
0.0
20
0.0
30
0.0
70
128
71
27
72
26
73
28
0
VERTEX
10
0.0
20
0.0
30
0.0
70
128
71
26
72
25
73
29
0
VERTEX
10
0.0
20
0.0
30
0.0
70
128
71
26
72
29
73
30
0
VERTEX
10
0.0
20
0.0
30
0.0
70
128
71
27
72
28
73
31
0
VERTEX
10
0.0
20
0.0
30
0.0
70
128
71
31
72
28
73
32
0
VERTEX
10
0.0
20
0.0
30
0.0
70
128
71
31
72
32
73
29
0
VERTEX
10
0.0
20
0.0
30
0.0
70
128
71
29
72
32
73
30
0
VERTEX
10
0.0
20
0.0
30
0.0
70
128
71
28
72
26
73
32
0
VERTEX
10
0.0
20
0.0
30
0.0
70
128
71
32
72
26
73
30
0
VERTEX
10
0.0
20
0.0
30
0.0
70
128
71
25
72
27
73
31
0
VERTEX
10
0.0
20
0.0
30
0.0
70
128
71
25
72
31
73
29
0
VERTEX
10
0.0
20
0.0
30
0.0
70
128
71
33
72
34
73
35
0
VERTEX
10
0.0
20
0.0
30
0.0
70
128
71
35
72
34
73
36
0
VERTEX
10
0.0
20
0.0
30
0.0
70
128
71
34
72
33
73
37
0
VERTEX
10
0.0
20
0.0
30
0.0
70
128
71
34
72
37
73
38
0
VERTEX
10
0.0
20
0.0
30
0.0
70
128
71
35
72
36
73
39
0
VERTEX
10
0.0
20
0.0
30
0.0
70
128
71
39
72
36
73
40
0
VERTEX
10
0.0
20
0.0
30
0.0
70
128
71
39
72
40
73
37
0
VERTEX
10
0.0
20
0.0
30
0.0
70
128
71
37
72
40
73
38
0
VERTEX
10
0.0
20
0.0
30
0.0
70
128
71
36
72
34
73
40
0
VERTEX
10
0.0
20
0.0
30
0.0
70
128
71
40
72
34
73
38
0
VERTEX
10
0.0
20
0.0
30
0.0
70
128
71
33
72
35
73
39
0
VERTEX
10
0.0
20
0.0
30
0.0
70
128
71
33
72
39
73
37
0
VERTEX
10
0.0
20
0.0
30
0.0
70
128
71
41
72
42
73
43
0
VERTEX
10
0.0
20
0.0
30
0.0
70
128
71
43
72
42
73
44
0
VERTEX
10
0.0
20
0.0
30
0.0
70
128
71
42
72
41
73
45
0
VERTEX
10
0.0
20
0.0
30
0.0
70
128
71
42
72
45
73
46
0
VERTEX
10
0.0
20
0.0
30
0.0
70
128
71
43
72
44
73
47
0
VERTEX
10
0.0
20
0.0
30
0.0
70
128
71
47
72
44
73
48
0
VERTEX
10
0.0
20
0.0
30
0.0
70
128
71
47
72
48
73
45
0
VERTEX
10
0.0
20
0.0
30
0.0
70
128
71
45
72
48
73
46
0
VERTEX
10
0.0
20
0.0
30
0.0
70
128
71
44
72
42
73
48
0
VERTEX
10
0.0
20
0.0
30
0.0
70
128
71
48
72
42
73
46
0
VERTEX
10
0.0
20
0.0
30
0.0
70
128
71
41
72
43
73
47
0
VERTEX
10
0.0
20
0.0
30
0.0
70
128
71
41
72
47
73
45
0
VERTEX
10
0.0
20
0.0
30
0.0
70
128
71
49
72
10
73
50
0
VERTEX
10
0.0
20
0.0
30
0.0
70
128
71
50
72
10
73
12
0
VERTEX
10
0.0
20
0.0
30
0.0
70
128
71
10
72
49
73
51
0
VERTEX
10
0.0
20
0.0
30
0.0
70
128
71
10
72
51
73
46
0
VERTEX
10
0.0
20
0.0
30
0.0
70
128
71
50
72
12
73
52
0
VERTEX
10
0.0
20
0.0
30
0.0
70
128
71
52
72
12
73
48
0
VERTEX
10
0.0
20
0.0
30
0.0
70
128
71
52
72
48
73
51
0
VERTEX
10
0.0
20
0.0
30
0.0
70
128
71
51
72
48
73
46
0
VERTEX
10
0.0
20
0.0
30
0.0
70
128
71
12
72
10
73
48
0
VERTEX
10
0.0
20
0.0
30
0.0
70
128
71
48
72
10
73
46
0
VERTEX
10
0.0
20
0.0
30
0.0
70
128
71
49
72
50
73
52
0
VERTEX
10
0.0
20
0.0
30
0.0
70
128
71
49
72
52
73
51
0
VERTEX
10
0.0
20
0.0
30
0.0
70
128
71
53
72
54
73
55
0
VERTEX
10
0.0
20
0.0
30
0.0
70
128
71
55
72
54
73
56
0
VERTEX
10
0.0
20
0.0
30
0.0
70
128
71
54
72
53
73
57
0
VERTEX
10
0.0
20
0.0
30
0.0
70
128
71
54
72
57
73
58
0
VERTEX
10
0.0
20
0.0
30
0.0
70
128
71
55
72
56
73
59
0
VERTEX
10
0.0
20
0.0
30
0.0
70
128
71
59
72
56
73
60
0
VERTEX
10
0.0
20
0.0
30
0.0
70
128
71
59
72
60
73
57
0
VERTEX
10
0.0
20
0.0
30
0.0
70
128
71
57
72
60
73
58
0
VERTEX
10
0.0
20
0.0
30
0.0
70
128
71
56
72
54
73
60
0
VERTEX
10
0.0
20
0.0
30
0.0
70
128
71
60
72
54
73
58
0
VERTEX
10
0.0
20
0.0
30
0.0
70
128
71
53
72
55
73
59
0
VERTEX
10
0.0
20
0.0
30
0.0
70
128
71
53
72
59
73
57
0
VERTEX
10
0.0
20
0.0
30
0.0
70
128
71
61
72
62
73
63
0
VERTEX
10
0.0
20
0.0
30
0.0
70
128
71
63
72
62
73
64
0
VERTEX
10
0.0
20
0.0
30
0.0
70
128
71
62
72
61
73
65
0
VERTEX
10
0.0
20
0.0
30
0.0
70
128
71
62
72
65
73
66
0
VERTEX
10
0.0
20
0.0
30
0.0
70
128
71
63
72
64
73
67
0
VERTEX
10
0.0
20
0.0
30
0.0
70
128
71
67
72
64
73
68
0
VERTEX
10
0.0
20
0.0
30
0.0
70
128
71
67
72
68
73
65
0
VERTEX
10
0.0
20
0.0
30
0.0
70
128
71
65
72
68
73
66
0
VERTEX
10
0.0
20
0.0
30
0.0
70
128
71
64
72
62
73
68
0
VERTEX
10
0.0
20
0.0
30
0.0
70
128
71
68
72
62
73
66
0
VERTEX
10
0.0
20
0.0
30
0.0
70
128
71
61
72
63
73
67
0
VERTEX
10
0.0
20
0.0
30
0.0
70
128
71
61
72
67
73
65
0
VERTEX
10
0.0
20
0.0
30
0.0
70
128
71
69
72
70
73
71
0
VERTEX
10
0.0
20
0.0
30
0.0
70
128
71
71
72
70
73
72
0
VERTEX
10
0.0
20
0.0
30
0.0
70
128
71
70
72
69
73
73
0
VERTEX
10
0.0
20
0.0
30
0.0
70
128
71
70
72
73
73
74
0
VERTEX
10
0.0
20
0.0
30
0.0
70
128
71
71
72
72
73
75
0
VERTEX
10
0.0
20
0.0
30
0.0
70
128
71
75
72
72
73
76
0
VERTEX
10
0.0
20
0.0
30
0.0
70
128
71
75
72
76
73
73
0
VERTEX
10
0.0
20
0.0
30
0.0
70
128
71
73
72
76
73
74
0
VERTEX
10
0.0
20
0.0
30
0.0
70
128
71
72
72
70
73
76
0
VERTEX
10
0.0
20
0.0
30
0.0
70
128
71
76
72
70
73
74
0
VERTEX
10
0.0
20
0.0
30
0.0
70
128
71
69
72
71
73
75
0
VERTEX
10
0.0
20
0.0
30
0.0
70
128
71
69
72
75
73
73
0
VERTEX
10
0.0
20
0.0
30
0.0
70
128
71
77
72
78
73
79
0
VERTEX
10
0.0
20
0.0
30
0.0
70
128
71
79
72
78
73
80
0
VERTEX
10
0.0
20
0.0
30
0.0
70
128
71
78
72
77
73
81
0
VERTEX
10
0.0
20
0.0
30
0.0
70
128
71
78
72
81
73
82
0
VERTEX
10
0.0
20
0.0
30
0.0
70
128
71
79
72
80
73
83
0
VERTEX
10
0.0
20
0.0
30
0.0
70
128
71
83
72
80
73
84
0
VERTEX
10
0.0
20
0.0
30
0.0
70
128
71
83
72
84
73
81
0
VERTEX
10
0.0
20
0.0
30
0.0
70
128
71
81
72
84
73
82
0
VERTEX
10
0.0
20
0.0
30
0.0
70
128
71
80
72
78
73
84
0
VERTEX
10
0.0
20
0.0
30
0.0
70
128
71
84
72
78
73
82
0
VERTEX
10
0.0
20
0.0
30
0.0
70
128
71
77
72
79
73
83
0
VERTEX
10
0.0
20
0.0
30
0.0
70
128
71
77
72
83
73
81
0
VERTEX
10
0.0
20
0.0
30
0.0
70
128
71
85
72
86
73
87
0
VERTEX
10
0.0
20
0.0
30
0.0
70
128
71
87
72
86
73
88
0
VERTEX
10
0.0
20
0.0
30
0.0
70
128
71
86
72
85
73
89
0
VERTEX
10
0.0
20
0.0
30
0.0
70
128
71
86
72
89
73
90
0
VERTEX
10
0.0
20
0.0
30
0.0
70
128
71
87
72
88
73
91
0
VERTEX
10
0.0
20
0.0
30
0.0
70
128
71
91
72
88
73
92
0
VERTEX
10
0.0
20
0.0
30
0.0
70
128
71
91
72
92
73
89
0
VERTEX
10
0.0
20
0.0
30
0.0
70
128
71
89
72
92
73
90
0
VERTEX
10
0.0
20
0.0
30
0.0
70
128
71
88
72
86
73
92
0
VERTEX
10
0.0
20
0.0
30
0.0
70
128
71
92
72
86
73
90
0
VERTEX
10
0.0
20
0.0
30
0.0
70
128
71
85
72
87
73
91
0
VERTEX
10
0.0
20
0.0
30
0.0
70
128
71
85
72
91
73
89
0
VERTEX
10
0.0
20
0.0
30
0.0
70
128
71
93
72
94
73
95
0
VERTEX
10
0.0
20
0.0
30
0.0
70
128
71
95
72
94
73
96
0
VERTEX
10
0.0
20
0.0
30
0.0
70
128
71
94
72
93
73
97
0
VERTEX
10
0.0
20
0.0
30
0.0
70
128
71
94
72
97
73
98
0
VERTEX
10
0.0
20
0.0
30
0.0
70
128
71
95
72
96
73
99
0
VERTEX
10
0.0
20
0.0
30
0.0
70
128
71
99
72
96
73
100
0
VERTEX
10
0.0
20
0.0
30
0.0
70
128
71
99
72
100
73
97
0
VERTEX
10
0.0
20
0.0
30
0.0
70
128
71
97
72
100
73
98
0
VERTEX
10
0.0
20
0.0
30
0.0
70
128
71
96
72
94
73
100
0
VERTEX
10
0.0
20
0.0
30
0.0
70
128
71
100
72
94
73
98
0
VERTEX
10
0.0
20
0.0
30
0.0
70
128
71
93
72
95
73
99
0
VERTEX
10
0.0
20
0.0
30
0.0
70
128
71
93
72
99
73
97
0
VERTEX
10
0.0
20
0.0
30
0.0
70
128
71
101
72
102
73
103
0
VERTEX
10
0.0
20
0.0
30
0.0
70
128
71
103
72
102
73
104
0
VERTEX
10
0.0
20
0.0
30
0.0
70
128
71
102
72
101
73
105
0
VERTEX
10
0.0
20
0.0
30
0.0
70
128
71
102
72
105
73
106
0
VERTEX
10
0.0
20
0.0
30
0.0
70
128
71
103
72
104
73
107
0
VERTEX
10
0.0
20
0.0
30
0.0
70
128
71
107
72
104
73
108
0
VERTEX
10
0.0
20
0.0
30
0.0
70
128
71
107
72
108
73
105
0
VERTEX
10
0.0
20
0.0
30
0.0
70
128
71
105
72
108
73
106
0
VERTEX
10
0.0
20
0.0
30
0.0
70
128
71
104
72
102
73
108
0
VERTEX
10
0.0
20
0.0
30
0.0
70
128
71
108
72
102
73
106
0
VERTEX
10
0.0
20
0.0
30
0.0
70
128
71
101
72
103
73
107
0
VERTEX
10
0.0
20
0.0
30
0.0
70
128
71
101
72
107
73
105
0
VERTEX
10
0.0
20
0.0
30
0.0
70
128
71
109
72
110
73
111
0
VERTEX
10
0.0
20
0.0
30
0.0
70
128
71
111
72
110
73
112
0
VERTEX
10
0.0
20
0.0
30
0.0
70
128
71
110
72
109
73
113
0
VERTEX
10
0.0
20
0.0
30
0.0
70
128
71
110
72
113
73
114
0
VERTEX
10
0.0
20
0.0
30
0.0
70
128
71
111
72
112
73
115
0
VERTEX
10
0.0
20
0.0
30
0.0
70
128
71
115
72
112
73
116
0
VERTEX
10
0.0
20
0.0
30
0.0
70
128
71
115
72
116
73
113
0
VERTEX
10
0.0
20
0.0
30
0.0
70
128
71
113
72
116
73
114
0
VERTEX
10
0.0
20
0.0
30
0.0
70
128
71
112
72
110
73
116
0
VERTEX
10
0.0
20
0.0
30
0.0
70
128
71
116
72
110
73
114
0
VERTEX
10
0.0
20
0.0
30
0.0
70
128
71
109
72
111
73
115
0
VERTEX
10
0.0
20
0.0
30
0.0
70
128
71
109
72
115
73
113
0
VERTEX
10
0.0
20
0.0
30
0.0
70
128
71
117
72
118
73
119
0
VERTEX
10
0.0
20
0.0
30
0.0
70
128
71
119
72
118
73
120
0
VERTEX
10
0.0
20
0.0
30
0.0
70
128
71
118
72
117
73
121
0
VERTEX
10
0.0
20
0.0
30
0.0
70
128
71
118
72
121
73
122
0
VERTEX
10
0.0
20
0.0
30
0.0
70
128
71
119
72
120
73
123
0
VERTEX
10
0.0
20
0.0
30
0.0
70
128
71
123
72
120
73
124
0
VERTEX
10
0.0
20
0.0
30
0.0
70
128
71
123
72
124
73
121
0
VERTEX
10
0.0
20
0.0
30
0.0
70
128
71
121
72
124
73
122
0
VERTEX
10
0.0
20
0.0
30
0.0
70
128
71
120
72
118
73
124
0
VERTEX
10
0.0
20
0.0
30
0.0
70
128
71
124
72
118
73
122
0
VERTEX
10
0.0
20
0.0
30
0.0
70
128
71
117
72
119
73
123
0
VERTEX
10
0.0
20
0.0
30
0.0
70
128
71
117
72
123
73
121
0
VERTEX
10
0.0
20
0.0
30
0.0
70
128
71
125
72
126
73
127
0
VERTEX
10
0.0
20
0.0
30
0.0
70
128
71
127
72
126
73
128
0
VERTEX
10
0.0
20
0.0
30
0.0
70
128
71
126
72
125
73
129
0
VERTEX
10
0.0
20
0.0
30
0.0
70
128
71
126
72
129
73
130
0
VERTEX
10
0.0
20
0.0
30
0.0
70
128
71
127
72
128
73
131
0
VERTEX
10
0.0
20
0.0
30
0.0
70
128
71
131
72
128
73
132
0
VERTEX
10
0.0
20
0.0
30
0.0
70
128
71
131
72
132
73
129
0
VERTEX
10
0.0
20
0.0
30
0.0
70
128
71
129
72
132
73
130
0
VERTEX
10
0.0
20
0.0
30
0.0
70
128
71
128
72
126
73
132
0
VERTEX
10
0.0
20
0.0
30
0.0
70
128
71
132
72
126
73
130
0
VERTEX
10
0.0
20
0.0
30
0.0
70
128
71
125
72
127
73
131
0
VERTEX
10
0.0
20
0.0
30
0.0
70
128
71
125
72
131
73
129
0
VERTEX
10
0.0
20
0.0
30
0.0
70
128
71
133
72
134
73
135
0
VERTEX
10
0.0
20
0.0
30
0.0
70
128
71
135
72
134
73
136
0
VERTEX
10
0.0
20
0.0
30
0.0
70
128
71
134
72
133
73
137
0
VERTEX
10
0.0
20
0.0
30
0.0
70
128
71
134
72
137
73
138
0
VERTEX
10
0.0
20
0.0
30
0.0
70
128
71
135
72
136
73
139
0
VERTEX
10
0.0
20
0.0
30
0.0
70
128
71
139
72
136
73
140
0
VERTEX
10
0.0
20
0.0
30
0.0
70
128
71
139
72
140
73
137
0
VERTEX
10
0.0
20
0.0
30
0.0
70
128
71
137
72
140
73
138
0
VERTEX
10
0.0
20
0.0
30
0.0
70
128
71
136
72
134
73
140
0
VERTEX
10
0.0
20
0.0
30
0.0
70
128
71
140
72
134
73
138
0
VERTEX
10
0.0
20
0.0
30
0.0
70
128
71
133
72
135
73
139
0
VERTEX
10
0.0
20
0.0
30
0.0
70
128
71
133
72
139
73
137
0
VERTEX
10
0.0
20
0.0
30
0.0
70
128
71
141
72
142
73
143
0
VERTEX
10
0.0
20
0.0
30
0.0
70
128
71
143
72
142
73
144
0
VERTEX
10
0.0
20
0.0
30
0.0
70
128
71
142
72
141
73
145
0
VERTEX
10
0.0
20
0.0
30
0.0
70
128
71
142
72
145
73
146
0
VERTEX
10
0.0
20
0.0
30
0.0
70
128
71
143
72
144
73
147
0
VERTEX
10
0.0
20
0.0
30
0.0
70
128
71
147
72
144
73
148
0
VERTEX
10
0.0
20
0.0
30
0.0
70
128
71
147
72
148
73
145
0
VERTEX
10
0.0
20
0.0
30
0.0
70
128
71
145
72
148
73
146
0
VERTEX
10
0.0
20
0.0
30
0.0
70
128
71
144
72
142
73
148
0
VERTEX
10
0.0
20
0.0
30
0.0
70
128
71
148
72
142
73
146
0
VERTEX
10
0.0
20
0.0
30
0.0
70
128
71
141
72
143
73
147
0
VERTEX
10
0.0
20
0.0
30
0.0
70
128
71
141
72
147
73
145
0
VERTEX
10
0.0
20
0.0
30
0.0
70
128
71
149
72
150
73
151
0
VERTEX
10
0.0
20
0.0
30
0.0
70
128
71
151
72
150
73
152
0
VERTEX
10
0.0
20
0.0
30
0.0
70
128
71
150
72
149
73
153
0
VERTEX
10
0.0
20
0.0
30
0.0
70
128
71
150
72
153
73
154
0
VERTEX
10
0.0
20
0.0
30
0.0
70
128
71
151
72
152
73
155
0
VERTEX
10
0.0
20
0.0
30
0.0
70
128
71
155
72
152
73
156
0
VERTEX
10
0.0
20
0.0
30
0.0
70
128
71
155
72
156
73
153
0
VERTEX
10
0.0
20
0.0
30
0.0
70
128
71
153
72
156
73
154
0
VERTEX
10
0.0
20
0.0
30
0.0
70
128
71
152
72
150
73
156
0
VERTEX
10
0.0
20
0.0
30
0.0
70
128
71
156
72
150
73
154
0
VERTEX
10
0.0
20
0.0
30
0.0
70
128
71
149
72
151
73
155
0
VERTEX
10
0.0
20
0.0
30
0.0
70
128
71
149
72
155
73
153
0
VERTEX
10
0.0
20
0.0
30
0.0
70
128
71
157
72
158
73
159
0
VERTEX
10
0.0
20
0.0
30
0.0
70
128
71
159
72
158
73
160
0
VERTEX
10
0.0
20
0.0
30
0.0
70
128
71
158
72
157
73
161
0
VERTEX
10
0.0
20
0.0
30
0.0
70
128
71
158
72
161
73
162
0
VERTEX
10
0.0
20
0.0
30
0.0
70
128
71
159
72
160
73
163
0
VERTEX
10
0.0
20
0.0
30
0.0
70
128
71
163
72
160
73
164
0
VERTEX
10
0.0
20
0.0
30
0.0
70
128
71
163
72
164
73
161
0
VERTEX
10
0.0
20
0.0
30
0.0
70
128
71
161
72
164
73
162
0
VERTEX
10
0.0
20
0.0
30
0.0
70
128
71
160
72
158
73
164
0
VERTEX
10
0.0
20
0.0
30
0.0
70
128
71
164
72
158
73
162
0
VERTEX
10
0.0
20
0.0
30
0.0
70
128
71
157
72
159
73
163
0
VERTEX
10
0.0
20
0.0
30
0.0
70
128
71
157
72
163
73
161
0
VERTEX
10
0.0
20
0.0
30
0.0
70
128
71
165
72
166
73
167
0
VERTEX
10
0.0
20
0.0
30
0.0
70
128
71
167
72
166
73
168
0
VERTEX
10
0.0
20
0.0
30
0.0
70
128
71
166
72
165
73
169
0
VERTEX
10
0.0
20
0.0
30
0.0
70
128
71
166
72
169
73
170
0
VERTEX
10
0.0
20
0.0
30
0.0
70
128
71
167
72
168
73
171
0
VERTEX
10
0.0
20
0.0
30
0.0
70
128
71
171
72
168
73
172
0
VERTEX
10
0.0
20
0.0
30
0.0
70
128
71
171
72
172
73
169
0
VERTEX
10
0.0
20
0.0
30
0.0
70
128
71
169
72
172
73
170
0
VERTEX
10
0.0
20
0.0
30
0.0
70
128
71
168
72
166
73
172
0
VERTEX
10
0.0
20
0.0
30
0.0
70
128
71
172
72
166
73
170
0
VERTEX
10
0.0
20
0.0
30
0.0
70
128
71
165
72
167
73
171
0
VERTEX
10
0.0
20
0.0
30
0.0
70
128
71
165
72
171
73
169
0
VERTEX
10
0.0
20
0.0
30
0.0
70
128
71
173
72
174
73
175
0
VERTEX
10
0.0
20
0.0
30
0.0
70
128
71
175
72
174
73
176
0
VERTEX
10
0.0
20
0.0
30
0.0
70
128
71
174
72
173
73
177
0
VERTEX
10
0.0
20
0.0
30
0.0
70
128
71
174
72
177
73
178
0
VERTEX
10
0.0
20
0.0
30
0.0
70
128
71
175
72
176
73
179
0
VERTEX
10
0.0
20
0.0
30
0.0
70
128
71
179
72
176
73
180
0
VERTEX
10
0.0
20
0.0
30
0.0
70
128
71
179
72
180
73
177
0
VERTEX
10
0.0
20
0.0
30
0.0
70
128
71
177
72
180
73
178
0
VERTEX
10
0.0
20
0.0
30
0.0
70
128
71
176
72
174
73
180
0
VERTEX
10
0.0
20
0.0
30
0.0
70
128
71
180
72
174
73
178
0
VERTEX
10
0.0
20
0.0
30
0.0
70
128
71
173
72
175
73
179
0
VERTEX
10
0.0
20
0.0
30
0.0
70
128
71
173
72
179
73
177
0
VERTEX
10
0.0
20
0.0
30
0.0
70
128
71
181
72
182
73
183
0
VERTEX
10
0.0
20
0.0
30
0.0
70
128
71
183
72
182
73
184
0
VERTEX
10
0.0
20
0.0
30
0.0
70
128
71
182
72
181
73
185
0
VERTEX
10
0.0
20
0.0
30
0.0
70
128
71
182
72
185
73
186
0
VERTEX
10
0.0
20
0.0
30
0.0
70
128
71
183
72
184
73
187
0
VERTEX
10
0.0
20
0.0
30
0.0
70
128
71
187
72
184
73
188
0
VERTEX
10
0.0
20
0.0
30
0.0
70
128
71
187
72
188
73
185
0
VERTEX
10
0.0
20
0.0
30
0.0
70
128
71
185
72
188
73
186
0
VERTEX
10
0.0
20
0.0
30
0.0
70
128
71
184
72
182
73
188
0
VERTEX
10
0.0
20
0.0
30
0.0
70
128
71
188
72
182
73
186
0
VERTEX
10
0.0
20
0.0
30
0.0
70
128
71
181
72
183
73
187
0
VERTEX
10
0.0
20
0.0
30
0.0
70
128
71
181
72
187
73
185
0
VERTEX
10
0.0
20
0.0
30
0.0
70
128
71
189
72
190
73
191
0
VERTEX
10
0.0
20
0.0
30
0.0
70
128
71
191
72
190
73
192
0
VERTEX
10
0.0
20
0.0
30
0.0
70
128
71
190
72
189
73
193
0
VERTEX
10
0.0
20
0.0
30
0.0
70
128
71
190
72
193
73
194
0
VERTEX
10
0.0
20
0.0
30
0.0
70
128
71
191
72
192
73
195
0
VERTEX
10
0.0
20
0.0
30
0.0
70
128
71
195
72
192
73
196
0
VERTEX
10
0.0
20
0.0
30
0.0
70
128
71
195
72
196
73
193
0
VERTEX
10
0.0
20
0.0
30
0.0
70
128
71
193
72
196
73
194
0
VERTEX
10
0.0
20
0.0
30
0.0
70
128
71
192
72
190
73
196
0
VERTEX
10
0.0
20
0.0
30
0.0
70
128
71
196
72
190
73
194
0
VERTEX
10
0.0
20
0.0
30
0.0
70
128
71
189
72
191
73
195
0
VERTEX
10
0.0
20
0.0
30
0.0
70
128
71
189
72
195
73
193
0
VERTEX
10
0.0
20
0.0
30
0.0
70
128
71
197
72
198
73
199
0
VERTEX
10
0.0
20
0.0
30
0.0
70
128
71
199
72
198
73
200
0
VERTEX
10
0.0
20
0.0
30
0.0
70
128
71
198
72
197
73
201
0
VERTEX
10
0.0
20
0.0
30
0.0
70
128
71
198
72
201
73
202
0
VERTEX
10
0.0
20
0.0
30
0.0
70
128
71
199
72
200
73
203
0
VERTEX
10
0.0
20
0.0
30
0.0
70
128
71
203
72
200
73
204
0
VERTEX
10
0.0
20
0.0
30
0.0
70
128
71
203
72
204
73
201
0
VERTEX
10
0.0
20
0.0
30
0.0
70
128
71
201
72
204
73
202
0
VERTEX
10
0.0
20
0.0
30
0.0
70
128
71
200
72
198
73
204
0
VERTEX
10
0.0
20
0.0
30
0.0
70
128
71
204
72
198
73
202
0
VERTEX
10
0.0
20
0.0
30
0.0
70
128
71
197
72
199
73
203
0
VERTEX
10
0.0
20
0.0
30
0.0
70
128
71
197
72
203
73
201
0
VERTEX
10
0.0
20
0.0
30
0.0
70
128
71
205
72
206
73
207
0
VERTEX
10
0.0
20
0.0
30
0.0
70
128
71
207
72
206
73
208
0
VERTEX
10
0.0
20
0.0
30
0.0
70
128
71
206
72
205
73
209
0
VERTEX
10
0.0
20
0.0
30
0.0
70
128
71
206
72
209
73
210
0
VERTEX
10
0.0
20
0.0
30
0.0
70
128
71
207
72
208
73
211
0
VERTEX
10
0.0
20
0.0
30
0.0
70
128
71
211
72
208
73
212
0
VERTEX
10
0.0
20
0.0
30
0.0
70
128
71
211
72
212
73
209
0
VERTEX
10
0.0
20
0.0
30
0.0
70
128
71
209
72
212
73
210
0
VERTEX
10
0.0
20
0.0
30
0.0
70
128
71
208
72
206
73
212
0
VERTEX
10
0.0
20
0.0
30
0.0
70
128
71
212
72
206
73
210
0
VERTEX
10
0.0
20
0.0
30
0.0
70
128
71
205
72
207
73
211
0
VERTEX
10
0.0
20
0.0
30
0.0
70
128
71
205
72
211
73
209
0
VERTEX
10
0.0
20
0.0
30
0.0
70
128
71
213
72
214
73
215
0
VERTEX
10
0.0
20
0.0
30
0.0
70
128
71
215
72
214
73
216
0
VERTEX
10
0.0
20
0.0
30
0.0
70
128
71
214
72
213
73
217
0
VERTEX
10
0.0
20
0.0
30
0.0
70
128
71
214
72
217
73
218
0
VERTEX
10
0.0
20
0.0
30
0.0
70
128
71
215
72
216
73
219
0
VERTEX
10
0.0
20
0.0
30
0.0
70
128
71
219
72
216
73
220
0
VERTEX
10
0.0
20
0.0
30
0.0
70
128
71
219
72
220
73
217
0
VERTEX
10
0.0
20
0.0
30
0.0
70
128
71
217
72
220
73
218
0
VERTEX
10
0.0
20
0.0
30
0.0
70
128
71
216
72
214
73
220
0
VERTEX
10
0.0
20
0.0
30
0.0
70
128
71
220
72
214
73
218
0
VERTEX
10
0.0
20
0.0
30
0.0
70
128
71
213
72
215
73
219
0
VERTEX
10
0.0
20
0.0
30
0.0
70
128
71
213
72
219
73
217
0
VERTEX
10
0.0
20
0.0
30
0.0
70
128
71
221
72
222
73
223
0
VERTEX
10
0.0
20
0.0
30
0.0
70
128
71
223
72
222
73
224
0
VERTEX
10
0.0
20
0.0
30
0.0
70
128
71
222
72
221
73
225
0
VERTEX
10
0.0
20
0.0
30
0.0
70
128
71
222
72
225
73
226
0
VERTEX
10
0.0
20
0.0
30
0.0
70
128
71
223
72
224
73
227
0
VERTEX
10
0.0
20
0.0
30
0.0
70
128
71
227
72
224
73
228
0
VERTEX
10
0.0
20
0.0
30
0.0
70
128
71
227
72
228
73
225
0
VERTEX
10
0.0
20
0.0
30
0.0
70
128
71
225
72
228
73
226
0
VERTEX
10
0.0
20
0.0
30
0.0
70
128
71
224
72
222
73
228
0
VERTEX
10
0.0
20
0.0
30
0.0
70
128
71
228
72
222
73
226
0
VERTEX
10
0.0
20
0.0
30
0.0
70
128
71
221
72
223
73
227
0
VERTEX
10
0.0
20
0.0
30
0.0
70
128
71
221
72
227
73
225
0
VERTEX
10
0.0
20
0.0
30
0.0
70
128
71
229
72
230
73
231
0
VERTEX
10
0.0
20
0.0
30
0.0
70
128
71
231
72
230
73
232
0
VERTEX
10
0.0
20
0.0
30
0.0
70
128
71
230
72
229
73
233
0
VERTEX
10
0.0
20
0.0
30
0.0
70
128
71
230
72
233
73
234
0
VERTEX
10
0.0
20
0.0
30
0.0
70
128
71
231
72
232
73
235
0
VERTEX
10
0.0
20
0.0
30
0.0
70
128
71
235
72
232
73
236
0
VERTEX
10
0.0
20
0.0
30
0.0
70
128
71
235
72
236
73
233
0
VERTEX
10
0.0
20
0.0
30
0.0
70
128
71
233
72
236
73
234
0
VERTEX
10
0.0
20
0.0
30
0.0
70
128
71
232
72
230
73
236
0
VERTEX
10
0.0
20
0.0
30
0.0
70
128
71
236
72
230
73
234
0
VERTEX
10
0.0
20
0.0
30
0.0
70
128
71
229
72
231
73
235
0
VERTEX
10
0.0
20
0.0
30
0.0
70
128
71
229
72
235
73
233
0
VERTEX
10
0.0
20
0.0
30
0.0
70
128
71
237
72
238
73
239
0
VERTEX
10
0.0
20
0.0
30
0.0
70
128
71
239
72
238
73
240
0
VERTEX
10
0.0
20
0.0
30
0.0
70
128
71
238
72
237
73
241
0
VERTEX
10
0.0
20
0.0
30
0.0
70
128
71
238
72
241
73
242
0
VERTEX
10
0.0
20
0.0
30
0.0
70
128
71
239
72
240
73
243
0
VERTEX
10
0.0
20
0.0
30
0.0
70
128
71
243
72
240
73
244
0
VERTEX
10
0.0
20
0.0
30
0.0
70
128
71
243
72
244
73
241
0
VERTEX
10
0.0
20
0.0
30
0.0
70
128
71
241
72
244
73
242
0
VERTEX
10
0.0
20
0.0
30
0.0
70
128
71
240
72
238
73
244
0
VERTEX
10
0.0
20
0.0
30
0.0
70
128
71
244
72
238
73
242
0
VERTEX
10
0.0
20
0.0
30
0.0
70
128
71
237
72
239
73
243
0
VERTEX
10
0.0
20
0.0
30
0.0
70
128
71
237
72
243
73
241
0
SEQEND
0
ENDBLK
0
BLOCK
2
Wall4
70
64
10
0.0
20
0.0
30
0.0
3
Wall4
0
POLYLINE
66
1
70
64
0
VERTEX
10
0.250000
20
-0.397558
30
1.497086
70
192
0
VERTEX
10
-0.250000
20
-0.397558
30
1.497086
70
192
0
VERTEX
10
0.250000
20
-0.406240
30
1.546327
70
192
0
VERTEX
10
-0.250000
20
-0.406240
30
1.546327
70
192
0
VERTEX
10
0.250000
20
-0.594519
30
1.462357
70
192
0
VERTEX
10
-0.250000
20
-0.594519
30
1.462357
70
192
0
VERTEX
10
0.250000
20
-0.603202
30
1.511597
70
192
0
VERTEX
10
-0.250000
20
-0.603202
30
1.511597
70
192
0
VERTEX
10
2.375001
20
-0.397559
30
1.497087
70
192
0
VERTEX
10
1.875000
20
-0.397559
30
1.497086
70
192
0
VERTEX
10
2.375001
20
-0.406241
30
1.546327
70
192
0
VERTEX
10
1.875000
20
-0.406241
30
1.546327
70
192
0
VERTEX
10
2.375000
20
-0.594520
30
1.462357
70
192
0
VERTEX
10
1.875000
20
-0.594520
30
1.462356
70
192
0
VERTEX
10
2.375000
20
-0.603202
30
1.511598
70
192
0
VERTEX
10
1.875000
20
-0.603203
30
1.511598
70
192
0
VERTEX
10
1.650002
20
-0.397559
30
1.497087
70
192
0
VERTEX
10
1.150001
20
-0.397559
30
1.497086
70
192
0
VERTEX
10
1.650001
20
-0.406241
30
1.546326
70
192
0
VERTEX
10
1.150001
20
-0.406240
30
1.546326
70
192
0
VERTEX
10
1.650001
20
-0.594520
30
1.462356
70
192
0
VERTEX
10
1.150001
20
-0.594520
30
1.462356
70
192
0
VERTEX
10
1.650002
20
-0.603203
30
1.511597
70
192
0
VERTEX
10
1.150001
20
-0.603203
30
1.511598
70
192
0
VERTEX
10
0.950000
20
-0.397559
30
1.497086
70
192
0
VERTEX
10
0.450000
20
-0.397558
30
1.497086
70
192
0
VERTEX
10
0.950000
20
-0.406241
30
1.546327
70
192
0
VERTEX
10
0.450000
20
-0.406240
30
1.546327
70
192
0
VERTEX
10
0.950000
20
-0.594519
30
1.462357
70
192
0
VERTEX
10
0.450000
20
-0.594519
30
1.462357
70
192
0
VERTEX
10
0.950000
20
-0.603202
30
1.511597
70
192
0
VERTEX
10
0.450000
20
-0.603202
30
1.511597
70
192
0
VERTEX
10
-1.875000
20
-0.397557
30
1.497085
70
192
0
VERTEX
10
-2.374999
20
-0.397557
30
1.497085
70
192
0
VERTEX
10
-1.875000
20
-0.406239
30
1.546326
70
192
0
VERTEX
10
-2.374999
20
-0.406239
30
1.546326
70
192
0
VERTEX
10
-1.875000
20
-0.594518
30
1.462356
70
192
0
VERTEX
10
-2.375000
20
-0.594518
30
1.462356
70
192
0
VERTEX
10
-1.874999
20
-0.603201
30
1.511596
70
192
0
VERTEX
10
-2.375000
20
-0.603200
30
1.511596
70
192
0
VERTEX
10
-1.174999
20
-0.397557
30
1.497086
70
192
0
VERTEX
10
-1.675000
20
-0.397556
30
1.497085
70
192
0
VERTEX
10
-1.175000
20
-0.406239
30
1.546327
70
192
0
VERTEX
10
-1.675000
20
-0.406239
30
1.546326
70
192
0
VERTEX
10
-1.175000
20
-0.594518
30
1.462357
70
192
0
VERTEX
10
-1.675000
20
-0.594518
30
1.462356
70
192
0
VERTEX
10
-1.175000
20
-0.603201
30
1.511597
70
192
0
VERTEX
10
-1.675000
20
-0.603201
30
1.511596
70
192
0
VERTEX
10
-0.475000
20
-0.397558
30
1.497086
70
192
0
VERTEX
10
-0.975000
20
-0.397557
30
1.497085
70
192
0
VERTEX
10
-0.475000
20
-0.406240
30
1.546326
70
192
0
VERTEX
10
-0.975000
20
-0.406239
30
1.546327
70
192
0
VERTEX
10
-0.475000
20
-0.594519
30
1.462356
70
192
0
VERTEX
10
-0.975000
20
-0.594519
30
1.462356
70
192
0
VERTEX
10
-0.475000
20
-0.603202
30
1.511597
70
192
0
VERTEX
10
-0.975000
20
-0.603201
30
1.511597
70
192
0
VERTEX
10
-0.475000
20
-0.062723
30
1.556126
70
192
0
VERTEX
10
-0.975000
20
-0.062722
30
1.556125
70
192
0
VERTEX
10
-0.475000
20
-0.071405
30
1.605367
70
192
0
VERTEX
10
-0.975000
20
-0.071405
30
1.605366
70
192
0
VERTEX
10
-0.475000
20
-0.259685
30
1.521397
70
192
0
VERTEX
10
-0.975000
20
-0.259684
30
1.521397
70
192
0
VERTEX
10
-0.475000
20
-0.268367
30
1.570637
70
192
0
VERTEX
10
-0.975000
20
-0.268366
30
1.570637
70
192
0
VERTEX
10
1.650001
20
-0.712697
30
1.441519
70
192
0
VERTEX
10
1.150001
20
-0.712697
30
1.441519
70
192
0
VERTEX
10
1.650001
20
-0.721380
30
1.490759
70
192
0
VERTEX
10
1.150001
20
-0.721380
30
1.490760
70
192
0
VERTEX
10
1.650001
20
-0.909659
30
1.406790
70
192
0
VERTEX
10
1.150001
20
-0.909659
30
1.406789
70
192
0
VERTEX
10
1.650001
20
-0.918341
30
1.456031
70
192
0
VERTEX
10
1.150001
20
-0.918341
30
1.456030
70
192
0
VERTEX
10
-1.174999
20
-0.062723
30
1.556126
70
192
0
VERTEX
10
-1.674999
20
-0.062722
30
1.556125
70
192
0
VERTEX
10
-1.174999
20
-0.071405
30
1.605365
70
192
0
VERTEX
10
-1.675000
20
-0.071405
30
1.605365
70
192
0
VERTEX
10
-1.175000
20
-0.259684
30
1.521397
70
192
0
VERTEX
10
-1.675000
20
-0.259684
30
1.521396
70
192
0
VERTEX
10
-1.174999
20
-0.268366
30
1.570636
70
192
0
VERTEX
10
-1.675000
20
-0.268366
30
1.570636
70
192
0
VERTEX
10
2.375001
20
-0.712697
30
1.441519
70
192
0
VERTEX
10
1.875001
20
-0.712697
30
1.441519
70
192
0
VERTEX
10
2.375000
20
-0.721380
30
1.490759
70
192
0
VERTEX
10
1.875000
20
-0.721380
30
1.490759
70
192
0
VERTEX
10
2.375001
20
-0.909659
30
1.406789
70
192
0
VERTEX
10
1.875000
20
-0.909659
30
1.406789
70
192
0
VERTEX
10
2.375000
20
-0.918341
30
1.456029
70
192
0
VERTEX
10
1.875000
20
-0.918341
30
1.456029
70
192
0
VERTEX
10
-1.875000
20
-0.062722
30
1.556126
70
192
0
VERTEX
10
-2.375000
20
-0.062722
30
1.556126
70
192
0
VERTEX
10
-1.875000
20
-0.071404
30
1.605366
70
192
0
VERTEX
10
-2.375000
20
-0.071404
30
1.605366
70
192
0
VERTEX
10
-1.875000
20
-0.259684
30
1.521396
70
192
0
VERTEX
10
-2.375000
20
-0.259684
30
1.521396
70
192
0
VERTEX
10
-1.875000
20
-0.268366
30
1.570636
70
192
0
VERTEX
10
-2.375000
20
-0.268366
30
1.570637
70
192
0
VERTEX
10
-0.475000
20
-0.712697
30
1.441518
70
192
0
VERTEX
10
-0.975000
20
-0.712696
30
1.441517
70
192
0
VERTEX
10
-0.475000
20
-0.721379
30
1.490758
70
192
0
VERTEX
10
-0.975000
20
-0.721378
30
1.490759
70
192
0
VERTEX
10
-0.475000
20
-0.909658
30
1.406789
70
192
0
VERTEX
10
-0.975000
20
-0.909658
30
1.406787
70
192
0
VERTEX
10
-0.475000
20
-0.918341
30
1.456029
70
192
0
VERTEX
10
-0.975000
20
-0.918341
30
1.456029
70
192
0
VERTEX
10
1.650000
20
-0.062724
30
1.556126
70
192
0
VERTEX
10
1.150000
20
-0.062724
30
1.556126
70
192
0
VERTEX
10
1.650001
20
-0.071406
30
1.605367
70
192
0
VERTEX
10
1.150000
20
-0.071406
30
1.605366
70
192
0
VERTEX
10
1.650000
20
-0.259686
30
1.521398
70
192
0
VERTEX
10
1.150000
20
-0.259685
30
1.521397
70
192
0
VERTEX
10
1.650000
20
-0.268368
30
1.570637
70
192
0
VERTEX
10
1.150000
20
-0.268367
30
1.570637
70
192
0
VERTEX
10
2.375001
20
-0.062724
30
1.556126
70
192
0
VERTEX
10
1.875000
20
-0.062724
30
1.556126
70
192
0
VERTEX
10
2.375001
20
-0.071406
30
1.605367
70
192
0
VERTEX
10
1.875000
20
-0.071406
30
1.605366
70
192
0
VERTEX
10
2.375002
20
-0.259685
30
1.521397
70
192
0
VERTEX
10
1.875000
20
-0.259685
30
1.521396
70
192
0
VERTEX
10
2.375001
20
-0.268368
30
1.570637
70
192
0
VERTEX
10
1.875001
20
-0.268368
30
1.570637
70
192
0
VERTEX
10
-1.175000
20
-0.712696
30
1.441519
70
192
0
VERTEX
10
-1.675000
20
-0.712696
30
1.441519
70
192
0
VERTEX
10
-1.175000
20
-0.721378
30
1.490760
70
192
0
VERTEX
10
-1.675000
20
-0.721378
30
1.490760
70
192
0
VERTEX
10
-1.175000
20
-0.909658
30
1.406790
70
192
0
VERTEX
10
-1.675000
20
-0.909657
30
1.406790
70
192
0
VERTEX
10
-1.175000
20
-0.918340
30
1.456030
70
192
0
VERTEX
10
-1.675000
20
-0.918340
30
1.456029
70
192
0
VERTEX
10
-1.875000
20
-0.712696
30
1.441518
70
192
0
VERTEX
10
-2.374999
20
-0.712696
30
1.441518
70
192
0
VERTEX
10
-1.875000
20
-0.721378
30
1.490759
70
192
0
VERTEX
10
-2.374999
20
-0.721378
30
1.490759
70
192
0
VERTEX
10
-1.875001
20
-0.909657
30
1.406788
70
192
0
VERTEX
10
-2.375000
20
-0.909657
30
1.406788
70
192
0
VERTEX
10
-1.875000
20
-0.918340
30
1.456029
70
192
0
VERTEX
10
-2.375000
20
-0.918340
30
1.456029
70
192
0
VERTEX
10
0.950000
20
-0.712697
30
1.441519
70
192
0
VERTEX
10
0.450000
20
-0.712696
30
1.441519
70
192
0
VERTEX
10
0.950000
20
-0.721380
30
1.490759
70
192
0
VERTEX
10
0.450000
20
-0.721379
30
1.490759
70
192
0
VERTEX
10
0.950000
20
-0.909658
30
1.406789
70
192
0
VERTEX
10
0.450000
20
-0.909658
30
1.406789
70
192
0
VERTEX
10
0.950000
20
-0.918340
30
1.456030
70
192
0
VERTEX
10
0.450000
20
-0.918340
30
1.456030
70
192
0
VERTEX
10
0.250000
20
-0.062723
30
1.556126
70
192
0
VERTEX
10
-0.250000
20
-0.062723
30
1.556126
70
192
0
VERTEX
10
0.250000
20
-0.071406
30
1.605367
70
192
0
VERTEX
10
-0.250000
20
-0.071406
30
1.605367
70
192
0
VERTEX
10
0.250000
20
-0.259685
30
1.521397
70
192
0
VERTEX
10
-0.250000
20
-0.259685
30
1.521397
70
192
0
VERTEX
10
0.250000
20
-0.268367
30
1.570637
70
192
0
VERTEX
10
-0.250000
20
-0.268367
30
1.570637
70
192
0
VERTEX
10
2.500001
20
-0.003635
30
1.566546
70
192
0
VERTEX
10
-2.500000
20
-0.003633
30
1.566544
70
192
0
VERTEX
10
2.500000
20
-0.012318
30
1.615786
70
192
0
VERTEX
10
-2.500000
20
-0.012316
30
1.615785
70
192
0
VERTEX
10
2.500000
20
-0.052877
30
1.557863
70
192
0
VERTEX
10
-2.499999
20
-0.052873
30
1.557862
70
192
0
VERTEX
10
2.500001
20
-0.061558
30
1.607104
70
192
0
VERTEX
10
-2.500000
20
-0.061556
30
1.607102
70
192
0
VERTEX
10
2.500001
20
-0.653609
30
1.451938
70
192
0
VERTEX
10
-2.500000
20
-0.653607
30
1.451937
70
192
0
VERTEX
10
2.500001
20
-0.662291
30
1.501179
70
192
0
VERTEX
10
-2.500000
20
-0.662289
30
1.501177
70
192
0
VERTEX
10
2.500001
20
-0.702849
30
1.443256
70
192
0
VERTEX
10
-2.500000
20
-0.702847
30
1.443254
70
192
0
VERTEX
10
2.500001
20
-0.711532
30
1.492496
70
192
0
VERTEX
10
-2.500000
20
-0.711529
30
1.492494
70
192
0
VERTEX
10
2.500000
20
-0.988444
30
1.392898
70
192
0
VERTEX
10
-2.500000
20
-0.988442
30
1.392896
70
192
0
VERTEX
10
2.500001
20
-0.997126
30
1.442138
70
192
0
VERTEX
10
-2.499999
20
-0.997124
30
1.442137
70
192
0
VERTEX
10
2.500001
20
-1.037684
30
1.384216
70
192
0
VERTEX
10
-2.500001
20
-1.037682
30
1.384215
70
192
0
VERTEX
10
2.500000
20
-1.046367
30
1.433456
70
192
0
VERTEX
10
-2.500000
20
-1.046365
30
1.433454
70
192
0
VERTEX
10
2.500000
20
-0.328622
30
1.509241
70
192
0
VERTEX
10
-2.500000
20
-0.328620
30
1.509240
70
192
0
VERTEX
10
2.500001
20
-0.337305
30
1.558481
70
192
0
VERTEX
10
-2.500000
20
-0.337303
30
1.558480
70
192
0
VERTEX
10
2.500001
20
-0.377863
30
1.500558
70
192
0
VERTEX
10
-2.500000
20
-0.377861
30
1.500558
70
192
0
VERTEX
10
2.500001
20
-0.386545
30
1.549800
70
192
0
VERTEX
10
-2.500000
20
-0.386543
30
1.549798
70
192
0
VERTEX
10
-1.760700
20
-0.003634
30
1.566545
70
192
0
VERTEX
10
-1.810700
20
-0.003634
30
1.566545
70
192
0
VERTEX
10
-1.760700
20
-0.012316
30
1.615785
70
192
0
VERTEX
10
-1.810700
20
-0.012316
30
1.615785
70
192
0
VERTEX
10
-1.760701
20
-1.037682
30
1.384215
70
192
0
VERTEX
10
-1.810700
20
-1.037682
30
1.384214
70
192
0
VERTEX
10
-1.760701
20
-1.046364
30
1.433454
70
192
0
VERTEX
10
-1.810701
20
-1.046364
30
1.433455
70
192
0
VERTEX
10
2.525001
20
-0.003636
30
1.566545
70
192
0
VERTEX
10
2.475000
20
-0.003636
30
1.566545
70
192
0
VERTEX
10
2.525000
20
-0.012318
30
1.615786
70
192
0
VERTEX
10
2.474999
20
-0.012319
30
1.615787
70
192
0
VERTEX
10
2.524999
20
-1.037684
30
1.384216
70
192
0
VERTEX
10
2.475000
20
-1.037684
30
1.384215
70
192
0
VERTEX
10
2.524999
20
-1.046367
30
1.433456
70
192
0
VERTEX
10
2.475001
20
-1.046367
30
1.433456
70
192
0
VERTEX
10
-2.450000
20
-0.003633
30
1.566544
70
192
0
VERTEX
10
-2.450001
20
-0.012316
30
1.615785
70
192
0
VERTEX
10
-2.450002
20
-1.037682
30
1.384214
70
192
0
VERTEX
10
-2.450002
20
-1.046364
30
1.433454
70
192
0
VERTEX
10
1.810701
20
-0.003636
30
1.566546
70
192
0
VERTEX
10
1.760700
20
-0.003636
30
1.566546
70
192
0
VERTEX
10
1.810701
20
-0.012318
30
1.615786
70
192
0
VERTEX
10
1.760700
20
-0.012318
30
1.615787
70
192
0
VERTEX
10
1.810701
20
-1.037684
30
1.384215
70
192
0
VERTEX
10
1.760700
20
-1.037684
30
1.384216
70
192
0
VERTEX
10
1.810700
20
-1.046367
30
1.433455
70
192
0
VERTEX
10
1.760700
20
-1.046366
30
1.433455
70
192
0
VERTEX
10
1.096400
20
-0.003636
30
1.566545
70
192
0
VERTEX
10
1.046400
20
-0.003635
30
1.566545
70
192
0
VERTEX
10
1.096400
20
-0.012318
30
1.615786
70
192
0
VERTEX
10
1.046401
20
-0.012318
30
1.615786
70
192
0
VERTEX
10
1.096400
20
-1.037683
30
1.384215
70
192
0
VERTEX
10
1.046400
20
-1.037683
30
1.384215
70
192
0
VERTEX
10
1.096400
20
-1.046365
30
1.433455
70
192
0
VERTEX
10
1.046400
20
-1.046366
30
1.433455
70
192
0
VERTEX
10
0.382100
20
-0.003635
30
1.566545
70
192
0
VERTEX
10
0.332100
20
-0.003635
30
1.566545
70
192
0
VERTEX
10
0.382100
20
-0.012317
30
1.615786
70
192
0
VERTEX
10
0.332100
20
-0.012317
30
1.615786
70
192
0
VERTEX
10
0.382100
20
-1.037683
30
1.384215
70
192
0
VERTEX
10
0.332100
20
-1.037683
30
1.384215
70
192
0
VERTEX
10
0.382100
20
-1.046365
30
1.433455
70
192
0
VERTEX
10
0.332100
20
-1.046365
30
1.433455
70
192
0
VERTEX
10
-0.332100
20
-0.003634
30
1.566545
70
192
0
VERTEX
10
-0.382100
20
-0.003634
30
1.566545
70
192
0
VERTEX
10
-0.332100
20
-0.012317
30
1.615786
70
192
0
VERTEX
10
-0.382100
20
-0.012317
30
1.615786
70
192
0
VERTEX
10
-0.332100
20
-1.037683
30
1.384215
70
192
0
VERTEX
10
-0.382100
20
-1.037683
30
1.384215
70
192
0
VERTEX
10
-0.332100
20
-1.046365
30
1.433455
70
192
0
VERTEX
10
-0.382100
20
-1.046365
30
1.433455
70
192
0
VERTEX
10
-1.046400
20
-0.003634
30
1.566545
70
192
0
VERTEX
10
-1.096400
20
-0.003634
30
1.566545
70
192
0
VERTEX
10
-1.046400
20
-0.012317
30
1.615785
70
192
0
VERTEX
10
-1.096400
20
-0.012316
30
1.615785
70
192
0
VERTEX
10
-1.046400
20
-1.037683
30
1.384215
70
192
0
VERTEX
10
-1.096400
20
-1.037683
30
1.384215
70
192
0
VERTEX
10
-1.046400
20
-1.046365
30
1.433455
70
192
0
VERTEX
10
-1.096400
20
-1.046365
30
1.433455
70
192
0
VERTEX
10
0.0
20
0.0
30
0.0
70
128
71
1
72
2
73
3
0
VERTEX
10
0.0
20
0.0
30
0.0
70
128
71
3
72
2
73
4
0
VERTEX
10
0.0
20
0.0
30
0.0
70
128
71
2
72
1
73
5
0
VERTEX
10
0.0
20
0.0
30
0.0
70
128
71
2
72
5
73
6
0
VERTEX
10
0.0
20
0.0
30
0.0
70
128
71
3
72
4
73
7
0
VERTEX
10
0.0
20
0.0
30
0.0
70
128
71
7
72
4
73
8
0
VERTEX
10
0.0
20
0.0
30
0.0
70
128
71
7
72
8
73
5
0
VERTEX
10
0.0
20
0.0
30
0.0
70
128
71
5
72
8
73
6
0
VERTEX
10
0.0
20
0.0
30
0.0
70
128
71
4
72
2
73
8
0
VERTEX
10
0.0
20
0.0
30
0.0
70
128
71
8
72
2
73
6
0
VERTEX
10
0.0
20
0.0
30
0.0
70
128
71
1
72
3
73
7
0
VERTEX
10
0.0
20
0.0
30
0.0
70
128
71
1
72
7
73
5
0
VERTEX
10
0.0
20
0.0
30
0.0
70
128
71
9
72
10
73
11
0
VERTEX
10
0.0
20
0.0
30
0.0
70
128
71
11
72
10
73
12
0
VERTEX
10
0.0
20
0.0
30
0.0
70
128
71
10
72
9
73
13
0
VERTEX
10
0.0
20
0.0
30
0.0
70
128
71
10
72
13
73
14
0
VERTEX
10
0.0
20
0.0
30
0.0
70
128
71
11
72
12
73
15
0
VERTEX
10
0.0
20
0.0
30
0.0
70
128
71
15
72
12
73
16
0
VERTEX
10
0.0
20
0.0
30
0.0
70
128
71
15
72
16
73
13
0
VERTEX
10
0.0
20
0.0
30
0.0
70
128
71
13
72
16
73
14
0
VERTEX
10
0.0
20
0.0
30
0.0
70
128
71
12
72
10
73
16
0
VERTEX
10
0.0
20
0.0
30
0.0
70
128
71
16
72
10
73
14
0
VERTEX
10
0.0
20
0.0
30
0.0
70
128
71
9
72
11
73
15
0
VERTEX
10
0.0
20
0.0
30
0.0
70
128
71
9
72
15
73
13
0
VERTEX
10
0.0
20
0.0
30
0.0
70
128
71
17
72
18
73
19
0
VERTEX
10
0.0
20
0.0
30
0.0
70
128
71
19
72
18
73
20
0
VERTEX
10
0.0
20
0.0
30
0.0
70
128
71
18
72
17
73
21
0
VERTEX
10
0.0
20
0.0
30
0.0
70
128
71
18
72
21
73
22
0
VERTEX
10
0.0
20
0.0
30
0.0
70
128
71
19
72
20
73
23
0
VERTEX
10
0.0
20
0.0
30
0.0
70
128
71
23
72
20
73
24
0
VERTEX
10
0.0
20
0.0
30
0.0
70
128
71
23
72
24
73
21
0
VERTEX
10
0.0
20
0.0
30
0.0
70
128
71
21
72
24
73
22
0
VERTEX
10
0.0
20
0.0
30
0.0
70
128
71
20
72
18
73
24
0
VERTEX
10
0.0
20
0.0
30
0.0
70
128
71
24
72
18
73
22
0
VERTEX
10
0.0
20
0.0
30
0.0
70
128
71
17
72
19
73
23
0
VERTEX
10
0.0
20
0.0
30
0.0
70
128
71
17
72
23
73
21
0
VERTEX
10
0.0
20
0.0
30
0.0
70
128
71
25
72
26
73
27
0
VERTEX
10
0.0
20
0.0
30
0.0
70
128
71
27
72
26
73
28
0
VERTEX
10
0.0
20
0.0
30
0.0
70
128
71
26
72
25
73
29
0
VERTEX
10
0.0
20
0.0
30
0.0
70
128
71
26
72
29
73
30
0
VERTEX
10
0.0
20
0.0
30
0.0
70
128
71
27
72
28
73
31
0
VERTEX
10
0.0
20
0.0
30
0.0
70
128
71
31
72
28
73
32
0
VERTEX
10
0.0
20
0.0
30
0.0
70
128
71
31
72
32
73
29
0
VERTEX
10
0.0
20
0.0
30
0.0
70
128
71
29
72
32
73
30
0
VERTEX
10
0.0
20
0.0
30
0.0
70
128
71
28
72
26
73
32
0
VERTEX
10
0.0
20
0.0
30
0.0
70
128
71
32
72
26
73
30
0
VERTEX
10
0.0
20
0.0
30
0.0
70
128
71
25
72
27
73
31
0
VERTEX
10
0.0
20
0.0
30
0.0
70
128
71
25
72
31
73
29
0
VERTEX
10
0.0
20
0.0
30
0.0
70
128
71
33
72
34
73
35
0
VERTEX
10
0.0
20
0.0
30
0.0
70
128
71
35
72
34
73
36
0
VERTEX
10
0.0
20
0.0
30
0.0
70
128
71
34
72
33
73
37
0
VERTEX
10
0.0
20
0.0
30
0.0
70
128
71
34
72
37
73
38
0
VERTEX
10
0.0
20
0.0
30
0.0
70
128
71
35
72
36
73
39
0
VERTEX
10
0.0
20
0.0
30
0.0
70
128
71
39
72
36
73
40
0
VERTEX
10
0.0
20
0.0
30
0.0
70
128
71
39
72
40
73
37
0
VERTEX
10
0.0
20
0.0
30
0.0
70
128
71
37
72
40
73
38
0
VERTEX
10
0.0
20
0.0
30
0.0
70
128
71
36
72
34
73
40
0
VERTEX
10
0.0
20
0.0
30
0.0
70
128
71
40
72
34
73
38
0
VERTEX
10
0.0
20
0.0
30
0.0
70
128
71
33
72
35
73
39
0
VERTEX
10
0.0
20
0.0
30
0.0
70
128
71
33
72
39
73
37
0
VERTEX
10
0.0
20
0.0
30
0.0
70
128
71
41
72
42
73
43
0
VERTEX
10
0.0
20
0.0
30
0.0
70
128
71
43
72
42
73
44
0
VERTEX
10
0.0
20
0.0
30
0.0
70
128
71
42
72
41
73
45
0
VERTEX
10
0.0
20
0.0
30
0.0
70
128
71
42
72
45
73
46
0
VERTEX
10
0.0
20
0.0
30
0.0
70
128
71
43
72
44
73
47
0
VERTEX
10
0.0
20
0.0
30
0.0
70
128
71
47
72
44
73
48
0
VERTEX
10
0.0
20
0.0
30
0.0
70
128
71
47
72
48
73
45
0
VERTEX
10
0.0
20
0.0
30
0.0
70
128
71
45
72
48
73
46
0
VERTEX
10
0.0
20
0.0
30
0.0
70
128
71
44
72
42
73
48
0
VERTEX
10
0.0
20
0.0
30
0.0
70
128
71
48
72
42
73
46
0
VERTEX
10
0.0
20
0.0
30
0.0
70
128
71
41
72
43
73
47
0
VERTEX
10
0.0
20
0.0
30
0.0
70
128
71
41
72
47
73
45
0
VERTEX
10
0.0
20
0.0
30
0.0
70
128
71
49
72
50
73
51
0
VERTEX
10
0.0
20
0.0
30
0.0
70
128
71
51
72
50
73
52
0
VERTEX
10
0.0
20
0.0
30
0.0
70
128
71
50
72
49
73
53
0
VERTEX
10
0.0
20
0.0
30
0.0
70
128
71
50
72
53
73
54
0
VERTEX
10
0.0
20
0.0
30
0.0
70
128
71
51
72
52
73
55
0
VERTEX
10
0.0
20
0.0
30
0.0
70
128
71
55
72
52
73
56
0
VERTEX
10
0.0
20
0.0
30
0.0
70
128
71
55
72
56
73
53
0
VERTEX
10
0.0
20
0.0
30
0.0
70
128
71
53
72
56
73
54
0
VERTEX
10
0.0
20
0.0
30
0.0
70
128
71
52
72
50
73
56
0
VERTEX
10
0.0
20
0.0
30
0.0
70
128
71
56
72
50
73
54
0
VERTEX
10
0.0
20
0.0
30
0.0
70
128
71
49
72
51
73
55
0
VERTEX
10
0.0
20
0.0
30
0.0
70
128
71
49
72
55
73
53
0
VERTEX
10
0.0
20
0.0
30
0.0
70
128
71
57
72
58
73
59
0
VERTEX
10
0.0
20
0.0
30
0.0
70
128
71
59
72
58
73
60
0
VERTEX
10
0.0
20
0.0
30
0.0
70
128
71
58
72
57
73
61
0
VERTEX
10
0.0
20
0.0
30
0.0
70
128
71
58
72
61
73
62
0
VERTEX
10
0.0
20
0.0
30
0.0
70
128
71
59
72
60
73
63
0
VERTEX
10
0.0
20
0.0
30
0.0
70
128
71
63
72
60
73
64
0
VERTEX
10
0.0
20
0.0
30
0.0
70
128
71
63
72
64
73
61
0
VERTEX
10
0.0
20
0.0
30
0.0
70
128
71
61
72
64
73
62
0
VERTEX
10
0.0
20
0.0
30
0.0
70
128
71
60
72
58
73
64
0
VERTEX
10
0.0
20
0.0
30
0.0
70
128
71
64
72
58
73
62
0
VERTEX
10
0.0
20
0.0
30
0.0
70
128
71
57
72
59
73
63
0
VERTEX
10
0.0
20
0.0
30
0.0
70
128
71
57
72
63
73
61
0
VERTEX
10
0.0
20
0.0
30
0.0
70
128
71
65
72
66
73
67
0
VERTEX
10
0.0
20
0.0
30
0.0
70
128
71
67
72
66
73
68
0
VERTEX
10
0.0
20
0.0
30
0.0
70
128
71
66
72
65
73
69
0
VERTEX
10
0.0
20
0.0
30
0.0
70
128
71
66
72
69
73
70
0
VERTEX
10
0.0
20
0.0
30
0.0
70
128
71
67
72
68
73
71
0
VERTEX
10
0.0
20
0.0
30
0.0
70
128
71
71
72
68
73
72
0
VERTEX
10
0.0
20
0.0
30
0.0
70
128
71
71
72
72
73
69
0
VERTEX
10
0.0
20
0.0
30
0.0
70
128
71
69
72
72
73
70
0
VERTEX
10
0.0
20
0.0
30
0.0
70
128
71
68
72
66
73
72
0
VERTEX
10
0.0
20
0.0
30
0.0
70
128
71
72
72
66
73
70
0
VERTEX
10
0.0
20
0.0
30
0.0
70
128
71
65
72
67
73
71
0
VERTEX
10
0.0
20
0.0
30
0.0
70
128
71
65
72
71
73
69
0
VERTEX
10
0.0
20
0.0
30
0.0
70
128
71
73
72
74
73
75
0
VERTEX
10
0.0
20
0.0
30
0.0
70
128
71
75
72
74
73
76
0
VERTEX
10
0.0
20
0.0
30
0.0
70
128
71
74
72
73
73
77
0
VERTEX
10
0.0
20
0.0
30
0.0
70
128
71
74
72
77
73
78
0
VERTEX
10
0.0
20
0.0
30
0.0
70
128
71
75
72
76
73
79
0
VERTEX
10
0.0
20
0.0
30
0.0
70
128
71
79
72
76
73
80
0
VERTEX
10
0.0
20
0.0
30
0.0
70
128
71
79
72
80
73
77
0
VERTEX
10
0.0
20
0.0
30
0.0
70
128
71
77
72
80
73
78
0
VERTEX
10
0.0
20
0.0
30
0.0
70
128
71
76
72
74
73
80
0
VERTEX
10
0.0
20
0.0
30
0.0
70
128
71
80
72
74
73
78
0
VERTEX
10
0.0
20
0.0
30
0.0
70
128
71
73
72
75
73
79
0
VERTEX
10
0.0
20
0.0
30
0.0
70
128
71
73
72
79
73
77
0
VERTEX
10
0.0
20
0.0
30
0.0
70
128
71
81
72
82
73
83
0
VERTEX
10
0.0
20
0.0
30
0.0
70
128
71
83
72
82
73
84
0
VERTEX
10
0.0
20
0.0
30
0.0
70
128
71
82
72
81
73
85
0
VERTEX
10
0.0
20
0.0
30
0.0
70
128
71
82
72
85
73
86
0
VERTEX
10
0.0
20
0.0
30
0.0
70
128
71
83
72
84
73
87
0
VERTEX
10
0.0
20
0.0
30
0.0
70
128
71
87
72
84
73
88
0
VERTEX
10
0.0
20
0.0
30
0.0
70
128
71
87
72
88
73
85
0
VERTEX
10
0.0
20
0.0
30
0.0
70
128
71
85
72
88
73
86
0
VERTEX
10
0.0
20
0.0
30
0.0
70
128
71
84
72
82
73
88
0
VERTEX
10
0.0
20
0.0
30
0.0
70
128
71
88
72
82
73
86
0
VERTEX
10
0.0
20
0.0
30
0.0
70
128
71
81
72
83
73
87
0
VERTEX
10
0.0
20
0.0
30
0.0
70
128
71
81
72
87
73
85
0
VERTEX
10
0.0
20
0.0
30
0.0
70
128
71
89
72
90
73
91
0
VERTEX
10
0.0
20
0.0
30
0.0
70
128
71
91
72
90
73
92
0
VERTEX
10
0.0
20
0.0
30
0.0
70
128
71
90
72
89
73
93
0
VERTEX
10
0.0
20
0.0
30
0.0
70
128
71
90
72
93
73
94
0
VERTEX
10
0.0
20
0.0
30
0.0
70
128
71
91
72
92
73
95
0
VERTEX
10
0.0
20
0.0
30
0.0
70
128
71
95
72
92
73
96
0
VERTEX
10
0.0
20
0.0
30
0.0
70
128
71
95
72
96
73
93
0
VERTEX
10
0.0
20
0.0
30
0.0
70
128
71
93
72
96
73
94
0
VERTEX
10
0.0
20
0.0
30
0.0
70
128
71
92
72
90
73
96
0
VERTEX
10
0.0
20
0.0
30
0.0
70
128
71
96
72
90
73
94
0
VERTEX
10
0.0
20
0.0
30
0.0
70
128
71
89
72
91
73
95
0
VERTEX
10
0.0
20
0.0
30
0.0
70
128
71
89
72
95
73
93
0
VERTEX
10
0.0
20
0.0
30
0.0
70
128
71
97
72
98
73
99
0
VERTEX
10
0.0
20
0.0
30
0.0
70
128
71
99
72
98
73
100
0
VERTEX
10
0.0
20
0.0
30
0.0
70
128
71
98
72
97
73
101
0
VERTEX
10
0.0
20
0.0
30
0.0
70
128
71
98
72
101
73
102
0
VERTEX
10
0.0
20
0.0
30
0.0
70
128
71
99
72
100
73
103
0
VERTEX
10
0.0
20
0.0
30
0.0
70
128
71
103
72
100
73
104
0
VERTEX
10
0.0
20
0.0
30
0.0
70
128
71
103
72
104
73
101
0
VERTEX
10
0.0
20
0.0
30
0.0
70
128
71
101
72
104
73
102
0
VERTEX
10
0.0
20
0.0
30
0.0
70
128
71
100
72
98
73
104
0
VERTEX
10
0.0
20
0.0
30
0.0
70
128
71
104
72
98
73
102
0
VERTEX
10
0.0
20
0.0
30
0.0
70
128
71
97
72
99
73
103
0
VERTEX
10
0.0
20
0.0
30
0.0
70
128
71
97
72
103
73
101
0
VERTEX
10
0.0
20
0.0
30
0.0
70
128
71
105
72
106
73
107
0
VERTEX
10
0.0
20
0.0
30
0.0
70
128
71
107
72
106
73
108
0
VERTEX
10
0.0
20
0.0
30
0.0
70
128
71
106
72
105
73
109
0
VERTEX
10
0.0
20
0.0
30
0.0
70
128
71
106
72
109
73
110
0
VERTEX
10
0.0
20
0.0
30
0.0
70
128
71
107
72
108
73
111
0
VERTEX
10
0.0
20
0.0
30
0.0
70
128
71
111
72
108
73
112
0
VERTEX
10
0.0
20
0.0
30
0.0
70
128
71
111
72
112
73
109
0
VERTEX
10
0.0
20
0.0
30
0.0
70
128
71
109
72
112
73
110
0
VERTEX
10
0.0
20
0.0
30
0.0
70
128
71
108
72
106
73
112
0
VERTEX
10
0.0
20
0.0
30
0.0
70
128
71
112
72
106
73
110
0
VERTEX
10
0.0
20
0.0
30
0.0
70
128
71
105
72
107
73
111
0
VERTEX
10
0.0
20
0.0
30
0.0
70
128
71
105
72
111
73
109
0
VERTEX
10
0.0
20
0.0
30
0.0
70
128
71
113
72
114
73
115
0
VERTEX
10
0.0
20
0.0
30
0.0
70
128
71
115
72
114
73
116
0
VERTEX
10
0.0
20
0.0
30
0.0
70
128
71
114
72
113
73
117
0
VERTEX
10
0.0
20
0.0
30
0.0
70
128
71
114
72
117
73
118
0
VERTEX
10
0.0
20
0.0
30
0.0
70
128
71
115
72
116
73
119
0
VERTEX
10
0.0
20
0.0
30
0.0
70
128
71
119
72
116
73
120
0
VERTEX
10
0.0
20
0.0
30
0.0
70
128
71
119
72
120
73
117
0
VERTEX
10
0.0
20
0.0
30
0.0
70
128
71
117
72
120
73
118
0
VERTEX
10
0.0
20
0.0
30
0.0
70
128
71
116
72
114
73
120
0
VERTEX
10
0.0
20
0.0
30
0.0
70
128
71
120
72
114
73
118
0
VERTEX
10
0.0
20
0.0
30
0.0
70
128
71
113
72
115
73
119
0
VERTEX
10
0.0
20
0.0
30
0.0
70
128
71
113
72
119
73
117
0
VERTEX
10
0.0
20
0.0
30
0.0
70
128
71
121
72
122
73
123
0
VERTEX
10
0.0
20
0.0
30
0.0
70
128
71
123
72
122
73
124
0
VERTEX
10
0.0
20
0.0
30
0.0
70
128
71
122
72
121
73
125
0
VERTEX
10
0.0
20
0.0
30
0.0
70
128
71
122
72
125
73
126
0
VERTEX
10
0.0
20
0.0
30
0.0
70
128
71
123
72
124
73
127
0
VERTEX
10
0.0
20
0.0
30
0.0
70
128
71
127
72
124
73
128
0
VERTEX
10
0.0
20
0.0
30
0.0
70
128
71
127
72
128
73
125
0
VERTEX
10
0.0
20
0.0
30
0.0
70
128
71
125
72
128
73
126
0
VERTEX
10
0.0
20
0.0
30
0.0
70
128
71
124
72
122
73
128
0
VERTEX
10
0.0
20
0.0
30
0.0
70
128
71
128
72
122
73
126
0
VERTEX
10
0.0
20
0.0
30
0.0
70
128
71
121
72
123
73
127
0
VERTEX
10
0.0
20
0.0
30
0.0
70
128
71
121
72
127
73
125
0
VERTEX
10
0.0
20
0.0
30
0.0
70
128
71
129
72
130
73
131
0
VERTEX
10
0.0
20
0.0
30
0.0
70
128
71
131
72
130
73
132
0
VERTEX
10
0.0
20
0.0
30
0.0
70
128
71
130
72
129
73
133
0
VERTEX
10
0.0
20
0.0
30
0.0
70
128
71
130
72
133
73
134
0
VERTEX
10
0.0
20
0.0
30
0.0
70
128
71
131
72
132
73
135
0
VERTEX
10
0.0
20
0.0
30
0.0
70
128
71
135
72
132
73
136
0
VERTEX
10
0.0
20
0.0
30
0.0
70
128
71
135
72
136
73
133
0
VERTEX
10
0.0
20
0.0
30
0.0
70
128
71
133
72
136
73
134
0
VERTEX
10
0.0
20
0.0
30
0.0
70
128
71
132
72
130
73
136
0
VERTEX
10
0.0
20
0.0
30
0.0
70
128
71
136
72
130
73
134
0
VERTEX
10
0.0
20
0.0
30
0.0
70
128
71
129
72
131
73
135
0
VERTEX
10
0.0
20
0.0
30
0.0
70
128
71
129
72
135
73
133
0
VERTEX
10
0.0
20
0.0
30
0.0
70
128
71
137
72
138
73
139
0
VERTEX
10
0.0
20
0.0
30
0.0
70
128
71
139
72
138
73
140
0
VERTEX
10
0.0
20
0.0
30
0.0
70
128
71
138
72
137
73
141
0
VERTEX
10
0.0
20
0.0
30
0.0
70
128
71
138
72
141
73
142
0
VERTEX
10
0.0
20
0.0
30
0.0
70
128
71
139
72
140
73
143
0
VERTEX
10
0.0
20
0.0
30
0.0
70
128
71
143
72
140
73
144
0
VERTEX
10
0.0
20
0.0
30
0.0
70
128
71
143
72
144
73
141
0
VERTEX
10
0.0
20
0.0
30
0.0
70
128
71
141
72
144
73
142
0
VERTEX
10
0.0
20
0.0
30
0.0
70
128
71
140
72
138
73
144
0
VERTEX
10
0.0
20
0.0
30
0.0
70
128
71
144
72
138
73
142
0
VERTEX
10
0.0
20
0.0
30
0.0
70
128
71
137
72
139
73
143
0
VERTEX
10
0.0
20
0.0
30
0.0
70
128
71
137
72
143
73
141
0
VERTEX
10
0.0
20
0.0
30
0.0
70
128
71
145
72
146
73
147
0
VERTEX
10
0.0
20
0.0
30
0.0
70
128
71
147
72
146
73
148
0
VERTEX
10
0.0
20
0.0
30
0.0
70
128
71
146
72
145
73
149
0
VERTEX
10
0.0
20
0.0
30
0.0
70
128
71
146
72
149
73
150
0
VERTEX
10
0.0
20
0.0
30
0.0
70
128
71
147
72
148
73
151
0
VERTEX
10
0.0
20
0.0
30
0.0
70
128
71
151
72
148
73
152
0
VERTEX
10
0.0
20
0.0
30
0.0
70
128
71
151
72
152
73
149
0
VERTEX
10
0.0
20
0.0
30
0.0
70
128
71
149
72
152
73
150
0
VERTEX
10
0.0
20
0.0
30
0.0
70
128
71
148
72
146
73
152
0
VERTEX
10
0.0
20
0.0
30
0.0
70
128
71
152
72
146
73
150
0
VERTEX
10
0.0
20
0.0
30
0.0
70
128
71
145
72
147
73
151
0
VERTEX
10
0.0
20
0.0
30
0.0
70
128
71
145
72
151
73
149
0
VERTEX
10
0.0
20
0.0
30
0.0
70
128
71
153
72
154
73
155
0
VERTEX
10
0.0
20
0.0
30
0.0
70
128
71
155
72
154
73
156
0
VERTEX
10
0.0
20
0.0
30
0.0
70
128
71
154
72
153
73
157
0
VERTEX
10
0.0
20
0.0
30
0.0
70
128
71
154
72
157
73
158
0
VERTEX
10
0.0
20
0.0
30
0.0
70
128
71
155
72
156
73
159
0
VERTEX
10
0.0
20
0.0
30
0.0
70
128
71
159
72
156
73
160
0
VERTEX
10
0.0
20
0.0
30
0.0
70
128
71
159
72
160
73
157
0
VERTEX
10
0.0
20
0.0
30
0.0
70
128
71
157
72
160
73
158
0
VERTEX
10
0.0
20
0.0
30
0.0
70
128
71
156
72
154
73
160
0
VERTEX
10
0.0
20
0.0
30
0.0
70
128
71
160
72
154
73
158
0
VERTEX
10
0.0
20
0.0
30
0.0
70
128
71
153
72
155
73
159
0
VERTEX
10
0.0
20
0.0
30
0.0
70
128
71
153
72
159
73
157
0
VERTEX
10
0.0
20
0.0
30
0.0
70
128
71
161
72
162
73
163
0
VERTEX
10
0.0
20
0.0
30
0.0
70
128
71
163
72
162
73
164
0
VERTEX
10
0.0
20
0.0
30
0.0
70
128
71
162
72
161
73
165
0
VERTEX
10
0.0
20
0.0
30
0.0
70
128
71
162
72
165
73
166
0
VERTEX
10
0.0
20
0.0
30
0.0
70
128
71
163
72
164
73
167
0
VERTEX
10
0.0
20
0.0
30
0.0
70
128
71
167
72
164
73
168
0
VERTEX
10
0.0
20
0.0
30
0.0
70
128
71
167
72
168
73
165
0
VERTEX
10
0.0
20
0.0
30
0.0
70
128
71
165
72
168
73
166
0
VERTEX
10
0.0
20
0.0
30
0.0
70
128
71
164
72
162
73
168
0
VERTEX
10
0.0
20
0.0
30
0.0
70
128
71
168
72
162
73
166
0
VERTEX
10
0.0
20
0.0
30
0.0
70
128
71
161
72
163
73
167
0
VERTEX
10
0.0
20
0.0
30
0.0
70
128
71
161
72
167
73
165
0
VERTEX
10
0.0
20
0.0
30
0.0
70
128
71
169
72
170
73
171
0
VERTEX
10
0.0
20
0.0
30
0.0
70
128
71
171
72
170
73
172
0
VERTEX
10
0.0
20
0.0
30
0.0
70
128
71
170
72
169
73
173
0
VERTEX
10
0.0
20
0.0
30
0.0
70
128
71
170
72
173
73
174
0
VERTEX
10
0.0
20
0.0
30
0.0
70
128
71
171
72
172
73
175
0
VERTEX
10
0.0
20
0.0
30
0.0
70
128
71
175
72
172
73
176
0
VERTEX
10
0.0
20
0.0
30
0.0
70
128
71
175
72
176
73
173
0
VERTEX
10
0.0
20
0.0
30
0.0
70
128
71
173
72
176
73
174
0
VERTEX
10
0.0
20
0.0
30
0.0
70
128
71
172
72
170
73
176
0
VERTEX
10
0.0
20
0.0
30
0.0
70
128
71
176
72
170
73
174
0
VERTEX
10
0.0
20
0.0
30
0.0
70
128
71
169
72
171
73
175
0
VERTEX
10
0.0
20
0.0
30
0.0
70
128
71
169
72
175
73
173
0
VERTEX
10
0.0
20
0.0
30
0.0
70
128
71
177
72
178
73
179
0
VERTEX
10
0.0
20
0.0
30
0.0
70
128
71
179
72
178
73
180
0
VERTEX
10
0.0
20
0.0
30
0.0
70
128
71
178
72
177
73
181
0
VERTEX
10
0.0
20
0.0
30
0.0
70
128
71
178
72
181
73
182
0
VERTEX
10
0.0
20
0.0
30
0.0
70
128
71
179
72
180
73
183
0
VERTEX
10
0.0
20
0.0
30
0.0
70
128
71
183
72
180
73
184
0
VERTEX
10
0.0
20
0.0
30
0.0
70
128
71
183
72
184
73
181
0
VERTEX
10
0.0
20
0.0
30
0.0
70
128
71
181
72
184
73
182
0
VERTEX
10
0.0
20
0.0
30
0.0
70
128
71
180
72
178
73
184
0
VERTEX
10
0.0
20
0.0
30
0.0
70
128
71
184
72
178
73
182
0
VERTEX
10
0.0
20
0.0
30
0.0
70
128
71
177
72
179
73
183
0
VERTEX
10
0.0
20
0.0
30
0.0
70
128
71
177
72
183
73
181
0
VERTEX
10
0.0
20
0.0
30
0.0
70
128
71
185
72
186
73
187
0
VERTEX
10
0.0
20
0.0
30
0.0
70
128
71
187
72
186
73
188
0
VERTEX
10
0.0
20
0.0
30
0.0
70
128
71
186
72
185
73
189
0
VERTEX
10
0.0
20
0.0
30
0.0
70
128
71
186
72
189
73
190
0
VERTEX
10
0.0
20
0.0
30
0.0
70
128
71
187
72
188
73
191
0
VERTEX
10
0.0
20
0.0
30
0.0
70
128
71
191
72
188
73
192
0
VERTEX
10
0.0
20
0.0
30
0.0
70
128
71
191
72
192
73
189
0
VERTEX
10
0.0
20
0.0
30
0.0
70
128
71
189
72
192
73
190
0
VERTEX
10
0.0
20
0.0
30
0.0
70
128
71
188
72
186
73
192
0
VERTEX
10
0.0
20
0.0
30
0.0
70
128
71
192
72
186
73
190
0
VERTEX
10
0.0
20
0.0
30
0.0
70
128
71
185
72
187
73
191
0
VERTEX
10
0.0
20
0.0
30
0.0
70
128
71
185
72
191
73
189
0
VERTEX
10
0.0
20
0.0
30
0.0
70
128
71
193
72
194
73
195
0
VERTEX
10
0.0
20
0.0
30
0.0
70
128
71
195
72
194
73
196
0
VERTEX
10
0.0
20
0.0
30
0.0
70
128
71
194
72
193
73
197
0
VERTEX
10
0.0
20
0.0
30
0.0
70
128
71
194
72
197
73
198
0
VERTEX
10
0.0
20
0.0
30
0.0
70
128
71
195
72
196
73
199
0
VERTEX
10
0.0
20
0.0
30
0.0
70
128
71
199
72
196
73
200
0
VERTEX
10
0.0
20
0.0
30
0.0
70
128
71
199
72
200
73
197
0
VERTEX
10
0.0
20
0.0
30
0.0
70
128
71
197
72
200
73
198
0
VERTEX
10
0.0
20
0.0
30
0.0
70
128
71
196
72
194
73
200
0
VERTEX
10
0.0
20
0.0
30
0.0
70
128
71
200
72
194
73
198
0
VERTEX
10
0.0
20
0.0
30
0.0
70
128
71
193
72
195
73
199
0
VERTEX
10
0.0
20
0.0
30
0.0
70
128
71
193
72
199
73
197
0
VERTEX
10
0.0
20
0.0
30
0.0
70
128
71
201
72
154
73
202
0
VERTEX
10
0.0
20
0.0
30
0.0
70
128
71
202
72
154
73
156
0
VERTEX
10
0.0
20
0.0
30
0.0
70
128
71
154
72
201
73
203
0
VERTEX
10
0.0
20
0.0
30
0.0
70
128
71
154
72
203
73
174
0
VERTEX
10
0.0
20
0.0
30
0.0
70
128
71
202
72
156
73
204
0
VERTEX
10
0.0
20
0.0
30
0.0
70
128
71
204
72
156
73
176
0
VERTEX
10
0.0
20
0.0
30
0.0
70
128
71
204
72
176
73
203
0
VERTEX
10
0.0
20
0.0
30
0.0
70
128
71
203
72
176
73
174
0
VERTEX
10
0.0
20
0.0
30
0.0
70
128
71
156
72
154
73
176
0
VERTEX
10
0.0
20
0.0
30
0.0
70
128
71
176
72
154
73
174
0
VERTEX
10
0.0
20
0.0
30
0.0
70
128
71
201
72
202
73
204
0
VERTEX
10
0.0
20
0.0
30
0.0
70
128
71
201
72
204
73
203
0
VERTEX
10
0.0
20
0.0
30
0.0
70
128
71
205
72
206
73
207
0
VERTEX
10
0.0
20
0.0
30
0.0
70
128
71
207
72
206
73
208
0
VERTEX
10
0.0
20
0.0
30
0.0
70
128
71
206
72
205
73
209
0
VERTEX
10
0.0
20
0.0
30
0.0
70
128
71
206
72
209
73
210
0
VERTEX
10
0.0
20
0.0
30
0.0
70
128
71
207
72
208
73
211
0
VERTEX
10
0.0
20
0.0
30
0.0
70
128
71
211
72
208
73
212
0
VERTEX
10
0.0
20
0.0
30
0.0
70
128
71
211
72
212
73
209
0
VERTEX
10
0.0
20
0.0
30
0.0
70
128
71
209
72
212
73
210
0
VERTEX
10
0.0
20
0.0
30
0.0
70
128
71
208
72
206
73
212
0
VERTEX
10
0.0
20
0.0
30
0.0
70
128
71
212
72
206
73
210
0
VERTEX
10
0.0
20
0.0
30
0.0
70
128
71
205
72
207
73
211
0
VERTEX
10
0.0
20
0.0
30
0.0
70
128
71
205
72
211
73
209
0
VERTEX
10
0.0
20
0.0
30
0.0
70
128
71
213
72
214
73
215
0
VERTEX
10
0.0
20
0.0
30
0.0
70
128
71
215
72
214
73
216
0
VERTEX
10
0.0
20
0.0
30
0.0
70
128
71
214
72
213
73
217
0
VERTEX
10
0.0
20
0.0
30
0.0
70
128
71
214
72
217
73
218
0
VERTEX
10
0.0
20
0.0
30
0.0
70
128
71
215
72
216
73
219
0
VERTEX
10
0.0
20
0.0
30
0.0
70
128
71
219
72
216
73
220
0
VERTEX
10
0.0
20
0.0
30
0.0
70
128
71
219
72
220
73
217
0
VERTEX
10
0.0
20
0.0
30
0.0
70
128
71
217
72
220
73
218
0
VERTEX
10
0.0
20
0.0
30
0.0
70
128
71
216
72
214
73
220
0
VERTEX
10
0.0
20
0.0
30
0.0
70
128
71
220
72
214
73
218
0
VERTEX
10
0.0
20
0.0
30
0.0
70
128
71
213
72
215
73
219
0
VERTEX
10
0.0
20
0.0
30
0.0
70
128
71
213
72
219
73
217
0
VERTEX
10
0.0
20
0.0
30
0.0
70
128
71
221
72
222
73
223
0
VERTEX
10
0.0
20
0.0
30
0.0
70
128
71
223
72
222
73
224
0
VERTEX
10
0.0
20
0.0
30
0.0
70
128
71
222
72
221
73
225
0
VERTEX
10
0.0
20
0.0
30
0.0
70
128
71
222
72
225
73
226
0
VERTEX
10
0.0
20
0.0
30
0.0
70
128
71
223
72
224
73
227
0
VERTEX
10
0.0
20
0.0
30
0.0
70
128
71
227
72
224
73
228
0
VERTEX
10
0.0
20
0.0
30
0.0
70
128
71
227
72
228
73
225
0
VERTEX
10
0.0
20
0.0
30
0.0
70
128
71
225
72
228
73
226
0
VERTEX
10
0.0
20
0.0
30
0.0
70
128
71
224
72
222
73
228
0
VERTEX
10
0.0
20
0.0
30
0.0
70
128
71
228
72
222
73
226
0
VERTEX
10
0.0
20
0.0
30
0.0
70
128
71
221
72
223
73
227
0
VERTEX
10
0.0
20
0.0
30
0.0
70
128
71
221
72
227
73
225
0
VERTEX
10
0.0
20
0.0
30
0.0
70
128
71
229
72
230
73
231
0
VERTEX
10
0.0
20
0.0
30
0.0
70
128
71
231
72
230
73
232
0
VERTEX
10
0.0
20
0.0
30
0.0
70
128
71
230
72
229
73
233
0
VERTEX
10
0.0
20
0.0
30
0.0
70
128
71
230
72
233
73
234
0
VERTEX
10
0.0
20
0.0
30
0.0
70
128
71
231
72
232
73
235
0
VERTEX
10
0.0
20
0.0
30
0.0
70
128
71
235
72
232
73
236
0
VERTEX
10
0.0
20
0.0
30
0.0
70
128
71
235
72
236
73
233
0
VERTEX
10
0.0
20
0.0
30
0.0
70
128
71
233
72
236
73
234
0
VERTEX
10
0.0
20
0.0
30
0.0
70
128
71
232
72
230
73
236
0
VERTEX
10
0.0
20
0.0
30
0.0
70
128
71
236
72
230
73
234
0
VERTEX
10
0.0
20
0.0
30
0.0
70
128
71
229
72
231
73
235
0
VERTEX
10
0.0
20
0.0
30
0.0
70
128
71
229
72
235
73
233
0
VERTEX
10
0.0
20
0.0
30
0.0
70
128
71
237
72
238
73
239
0
VERTEX
10
0.0
20
0.0
30
0.0
70
128
71
239
72
238
73
240
0
VERTEX
10
0.0
20
0.0
30
0.0
70
128
71
238
72
237
73
241
0
VERTEX
10
0.0
20
0.0
30
0.0
70
128
71
238
72
241
73
242
0
VERTEX
10
0.0
20
0.0
30
0.0
70
128
71
239
72
240
73
243
0
VERTEX
10
0.0
20
0.0
30
0.0
70
128
71
243
72
240
73
244
0
VERTEX
10
0.0
20
0.0
30
0.0
70
128
71
243
72
244
73
241
0
VERTEX
10
0.0
20
0.0
30
0.0
70
128
71
241
72
244
73
242
0
VERTEX
10
0.0
20
0.0
30
0.0
70
128
71
240
72
238
73
244
0
VERTEX
10
0.0
20
0.0
30
0.0
70
128
71
244
72
238
73
242
0
VERTEX
10
0.0
20
0.0
30
0.0
70
128
71
237
72
239
73
243
0
VERTEX
10
0.0
20
0.0
30
0.0
70
128
71
237
72
243
73
241
0
SEQEND
0
ENDBLK
0
ENDSEC
0
SECTION
2
ENTITIES
0
INSERT
2
Wall1
10
0.0
20
0.0
30
0.0
41
1.0
42
1.0
43
1.0
50
0.0
0
INSERT
2
Wall2
10
0.0
20
0.0
30
0.0
41
1.0
42
1.0
43
1.0
50
0.0
0
INSERT
2
Wall3
10
0.0
20
0.0
30
0.0
41
1.0
42
1.0
43
1.0
50
0.0
0
INSERT
2
Wall4
10
0.0
20
0.0
30
0.0
41
1.0
42
1.0
43
1.0
50
0.0
0
ENDSEC
0
EOF
