0
SECTION
2
HEADER
0
ENDSEC
0
SECTION
2
BLOCKS
0
BLOCK
2
Wall1
70
64
10
0.0
20
0.0
30
0.0
3
Wall1
0
POLYLINE
66
1
70
64
0
VERTEX
10
1.096401
20
-1.615785
30
0.012317
70
192
0
VERTEX
10
1.046401
20
-1.615785
30
0.012317
70
192
0
VERTEX
10
1.096401
20
-1.566545
30
0.003635
70
192
0
VERTEX
10
1.046401
20
-1.566545
30
0.003635
70
192
0
VERTEX
10
1.096401
20
-1.433455
30
1.046365
70
192
0
VERTEX
10
1.046401
20
-1.433455
30
1.046365
70
192
0
VERTEX
10
1.096401
20
-1.384214
30
1.037683
70
192
0
VERTEX
10
1.046401
20
-1.384214
30
1.037683
70
192
0
VERTEX
10
2.500001
20
-1.615786
30
0.012317
70
192
0
VERTEX
10
-2.500001
20
-1.615786
30
0.012317
70
192
0
VERTEX
10
2.500001
20
-1.566545
30
0.003635
70
192
0
VERTEX
10
-2.500001
20
-1.566545
30
0.003634
70
192
0
VERTEX
10
2.500001
20
-1.607103
30
0.061557
70
192
0
VERTEX
10
-2.500001
20
-1.607103
30
0.061557
70
192
0
VERTEX
10
2.500001
20
-1.557863
30
0.052875
70
192
0
VERTEX
10
-2.500000
20
-1.557863
30
0.052875
70
192
0
VERTEX
10
2.525001
20
-1.615785
30
0.012317
70
192
0
VERTEX
10
2.475000
20
-1.615785
30
0.012317
70
192
0
VERTEX
10
2.525000
20
-1.566545
30
0.003635
70
192
0
VERTEX
10
2.475000
20
-1.566545
30
0.003635
70
192
0
VERTEX
10
2.525001
20
-1.433455
30
1.046365
70
192
0
VERTEX
10
2.475000
20
-1.433455
30
1.046365
70
192
0
VERTEX
10
2.525000
20
-1.384214
30
1.037683
70
192
0
VERTEX
10
2.475000
20
-1.384214
30
1.037683
70
192
0
VERTEX
10
2.500001
20
-1.558481
30
0.337304
70
192
0
VERTEX
10
-2.500001
20
-1.558481
30
0.337304
70
192
0
VERTEX
10
2.500001
20
-1.509241
30
0.328621
70
192
0
VERTEX
10
-2.500001
20
-1.509241
30
0.328621
70
192
0
VERTEX
10
2.500001
20
-1.549799
30
0.386544
70
192
0
VERTEX
10
-2.500001
20
-1.549799
30
0.386544
70
192
0
VERTEX
10
2.500001
20
-1.500559
30
0.377862
70
192
0
VERTEX
10
-2.500001
20
-1.500558
30
0.377862
70
192
0
VERTEX
10
2.500001
20
-1.501178
30
0.662290
70
192
0
VERTEX
10
-2.500001
20
-1.501178
30
0.662290
70
192
0
VERTEX
10
2.500001
20
-1.451938
30
0.653608
70
192
0
VERTEX
10
-2.500000
20
-1.451937
30
0.653608
70
192
0
VERTEX
10
2.500001
20
-1.492496
30
0.711531
70
192
0
VERTEX
10
-2.500000
20
-1.492496
30
0.711531
70
192
0
VERTEX
10
2.500001
20
-1.443255
30
0.702848
70
192
0
VERTEX
10
-2.500001
20
-1.443255
30
0.702849
70
192
0
VERTEX
10
2.500001
20
-1.442137
30
0.997125
70
192
0
VERTEX
10
-2.500000
20
-1.442138
30
0.997125
70
192
0
VERTEX
10
2.500001
20
-1.392897
30
0.988443
70
192
0
VERTEX
10
-2.500000
20
-1.392897
30
0.988443
70
192
0
VERTEX
10
2.500001
20
-1.433455
30
1.046366
70
192
0
VERTEX
10
-2.500000
20
-1.433455
30
1.046365
70
192
0
VERTEX
10
2.500001
20
-1.384215
30
1.037683
70
192
0
VERTEX
10
-2.500000
20
-1.384215
30
1.037683
70
192
0
VERTEX
10
-2.450001
20
-1.615785
30
0.012317
70
192
0
VERTEX
10
-2.500000
20
-1.615786
30
0.012317
70
192
0
VERTEX
10
-2.450001
20
-1.566545
30
0.003635
70
192
0
VERTEX
10
-2.500000
20
-1.566545
30
0.003635
70
192
0
VERTEX
10
-2.450001
20
-1.433455
30
1.046366
70
192
0
VERTEX
10
-2.500000
20
-1.433455
30
1.046366
70
192
0
VERTEX
10
-2.450001
20
-1.384215
30
1.037683
70
192
0
VERTEX
10
-2.500000
20
-1.384215
30
1.037683
70
192
0
VERTEX
10
-1.760701
20
-1.615785
30
0.012317
70
192
0
VERTEX
10
-1.810701
20
-1.615785
30
0.012317
70
192
0
VERTEX
10
-1.760701
20
-1.566545
30
0.003635
70
192
0
VERTEX
10
-1.810701
20
-1.566545
30
0.003635
70
192
0
VERTEX
10
-1.760701
20
-1.433455
30
1.046365
70
192
0
VERTEX
10
-1.810701
20
-1.433455
30
1.046365
70
192
0
VERTEX
10
-1.760701
20
-1.384214
30
1.037683
70
192
0
VERTEX
10
-1.810701
20
-1.384215
30
1.037683
70
192
0
VERTEX
10
-1.046401
20
-1.615785
30
0.012317
70
192
0
VERTEX
10
-1.096401
20
-1.615785
30
0.012317
70
192
0
VERTEX
10
-1.046401
20
-1.566545
30
0.003635
70
192
0
VERTEX
10
-1.096401
20
-1.566545
30
0.003635
70
192
0
VERTEX
10
-1.046401
20
-1.433455
30
1.046365
70
192
0
VERTEX
10
-1.096401
20
-1.433455
30
1.046365
70
192
0
VERTEX
10
-1.046401
20
-1.384215
30
1.037683
70
192
0
VERTEX
10
-1.096401
20
-1.384215
30
1.037683
70
192
0
VERTEX
10
-0.332100
20
-1.615786
30
0.012317
70
192
0
VERTEX
10
-0.382100
20
-1.615786
30
0.012317
70
192
0
VERTEX
10
-0.332100
20
-1.566545
30
0.003634
70
192
0
VERTEX
10
-0.382100
20
-1.566545
30
0.003634
70
192
0
VERTEX
10
-0.332100
20
-1.433455
30
1.046365
70
192
0
VERTEX
10
-0.382100
20
-1.433455
30
1.046365
70
192
0
VERTEX
10
-0.332100
20
-1.384215
30
1.037683
70
192
0
VERTEX
10
-0.382100
20
-1.384215
30
1.037683
70
192
0
VERTEX
10
0.382100
20
-1.615786
30
0.012317
70
192
0
VERTEX
10
0.332100
20
-1.615786
30
0.012317
70
192
0
VERTEX
10
0.382100
20
-1.566545
30
0.003634
70
192
0
VERTEX
10
0.332100
20
-1.566545
30
0.003634
70
192
0
VERTEX
10
0.382100
20
-1.433455
30
1.046365
70
192
0
VERTEX
10
0.332100
20
-1.433455
30
1.046365
70
192
0
VERTEX
10
0.382100
20
-1.384215
30
1.037683
70
192
0
VERTEX
10
0.332100
20
-1.384215
30
1.037683
70
192
0
VERTEX
10
1.810700
20
-1.615785
30
0.012317
70
192
0
VERTEX
10
1.760701
20
-1.615785
30
0.012317
70
192
0
VERTEX
10
1.810700
20
-1.566545
30
0.003635
70
192
0
VERTEX
10
1.760701
20
-1.566545
30
0.003635
70
192
0
VERTEX
10
1.810701
20
-1.433455
30
1.046365
70
192
0
VERTEX
10
1.760700
20
-1.433455
30
1.046365
70
192
0
VERTEX
10
1.810700
20
-1.384215
30
1.037683
70
192
0
VERTEX
10
1.760700
20
-1.384214
30
1.037683
70
192
0
VERTEX
10
0.250000
20
-1.546326
30
0.406240
70
192
0
VERTEX
10
-0.250000
20
-1.546326
30
0.406240
70
192
0
VERTEX
10
0.250000
20
-1.497086
30
0.397558
70
192
0
VERTEX
10
-0.250000
20
-1.497086
30
0.397558
70
192
0
VERTEX
10
0.250000
20
-1.511596
30
0.603202
70
192
0
VERTEX
10
-0.250000
20
-1.511596
30
0.603202
70
192
0
VERTEX
10
0.250000
20
-1.462356
30
0.594519
70
192
0
VERTEX
10
-0.250000
20
-1.462356
30
0.594519
70
192
0
VERTEX
10
2.375000
20
-1.546326
30
0.406240
70
192
0
VERTEX
10
1.875000
20
-1.546326
30
0.406240
70
192
0
VERTEX
10
2.375001
20
-1.497085
30
0.397558
70
192
0
VERTEX
10
1.875001
20
-1.497085
30
0.397558
70
192
0
VERTEX
10
2.375001
20
-1.511596
30
0.603202
70
192
0
VERTEX
10
1.875000
20
-1.511596
30
0.603202
70
192
0
VERTEX
10
2.375000
20
-1.462356
30
0.594519
70
192
0
VERTEX
10
1.875000
20
-1.462356
30
0.594519
70
192
0
VERTEX
10
1.650001
20
-1.546326
30
0.406240
70
192
0
VERTEX
10
1.150001
20
-1.546326
30
0.406240
70
192
0
VERTEX
10
1.650001
20
-1.497086
30
0.397558
70
192
0
VERTEX
10
1.150001
20
-1.497086
30
0.397558
70
192
0
VERTEX
10
1.650001
20
-1.511597
30
0.603202
70
192
0
VERTEX
10
1.150001
20
-1.511597
30
0.603202
70
192
0
VERTEX
10
1.650001
20
-1.462356
30
0.594519
70
192
0
VERTEX
10
1.150001
20
-1.462356
30
0.594519
70
192
0
VERTEX
10
0.950001
20
-1.546326
30
0.406240
70
192
0
VERTEX
10
0.450001
20
-1.546326
30
0.406240
70
192
0
VERTEX
10
0.950001
20
-1.497086
30
0.397558
70
192
0
VERTEX
10
0.450000
20
-1.497086
30
0.397558
70
192
0
VERTEX
10
0.950001
20
-1.511597
30
0.603202
70
192
0
VERTEX
10
0.450000
20
-1.511597
30
0.603202
70
192
0
VERTEX
10
0.950001
20
-1.462356
30
0.594519
70
192
0
VERTEX
10
0.450001
20
-1.462356
30
0.594519
70
192
0
VERTEX
10
-1.875000
20
-1.546326
30
0.406240
70
192
0
VERTEX
10
-2.375000
20
-1.546327
30
0.406240
70
192
0
VERTEX
10
-1.875000
20
-1.497086
30
0.397558
70
192
0
VERTEX
10
-2.375000
20
-1.497086
30
0.397558
70
192
0
VERTEX
10
-1.875000
20
-1.511597
30
0.603202
70
192
0
VERTEX
10
-2.375000
20
-1.511597
30
0.603202
70
192
0
VERTEX
10
-1.875000
20
-1.462356
30
0.594520
70
192
0
VERTEX
10
-2.375000
20
-1.462356
30
0.594520
70
192
0
VERTEX
10
-1.175000
20
-1.546326
30
0.406240
70
192
0
VERTEX
10
-1.675000
20
-1.546326
30
0.406240
70
192
0
VERTEX
10
-1.175000
20
-1.497086
30
0.397558
70
192
0
VERTEX
10
-1.675000
20
-1.497086
30
0.397558
70
192
0
VERTEX
10
-1.175000
20
-1.511597
30
0.603202
70
192
0
VERTEX
10
-1.675000
20
-1.511597
30
0.603202
70
192
0
VERTEX
10
-1.175000
20
-1.462356
30
0.594519
70
192
0
VERTEX
10
-1.675000
20
-1.462356
30
0.594519
70
192
0
VERTEX
10
-0.475000
20
-1.546326
30
0.406240
70
192
0
VERTEX
10
-0.975001
20
-1.546326
30
0.406240
70
192
0
VERTEX
10
-0.475000
20
-1.497086
30
0.397557
70
192
0
VERTEX
10
-0.975000
20
-1.497085
30
0.397557
70
192
0
VERTEX
10
-0.475000
20
-1.511596
30
0.603201
70
192
0
VERTEX
10
-0.975000
20
-1.511596
30
0.603201
70
192
0
VERTEX
10
-0.475000
20
-1.462356
30
0.594519
70
192
0
VERTEX
10
-0.975000
20
-1.462356
30
0.594519
70
192
0
VERTEX
10
2.375001
20
-1.605366
30
0.071405
70
192
0
VERTEX
10
1.875001
20
-1.605366
30
0.071405
70
192
0
VERTEX
10
2.375001
20
-1.556126
30
0.062723
70
192
0
VERTEX
10
1.875001
20
-1.556126
30
0.062723
70
192
0
VERTEX
10
2.375001
20
-1.570637
30
0.268367
70
192
0
VERTEX
10
1.875001
20
-1.570637
30
0.268367
70
192
0
VERTEX
10
2.375001
20
-1.521396
30
0.259684
70
192
0
VERTEX
10
1.875001
20
-1.521396
30
0.259685
70
192
0
VERTEX
10
0.250000
20
-1.605366
30
0.071406
70
192
0
VERTEX
10
-0.250000
20
-1.605366
30
0.071406
70
192
0
VERTEX
10
0.250000
20
-1.556126
30
0.062723
70
192
0
VERTEX
10
-0.250000
20
-1.556126
30
0.062723
70
192
0
VERTEX
10
0.250000
20
-1.570637
30
0.268367
70
192
0
VERTEX
10
-0.250000
20
-1.570637
30
0.268367
70
192
0
VERTEX
10
0.250000
20
-1.521396
30
0.259685
70
192
0
VERTEX
10
-0.250000
20
-1.521396
30
0.259685
70
192
0
VERTEX
10
-0.475000
20
-1.605366
30
0.071405
70
192
0
VERTEX
10
-0.975000
20
-1.605366
30
0.071405
70
192
0
VERTEX
10
-0.475000
20
-1.556126
30
0.062723
70
192
0
VERTEX
10
-0.975000
20
-1.556126
30
0.062723
70
192
0
VERTEX
10
-0.475000
20
-1.570637
30
0.268367
70
192
0
VERTEX
10
-0.975000
20
-1.570637
30
0.268367
70
192
0
VERTEX
10
-0.475000
20
-1.521396
30
0.259684
70
192
0
VERTEX
10
-0.975000
20
-1.521396
30
0.259685
70
192
0
VERTEX
10
-1.175000
20
-1.605366
30
0.071406
70
192
0
VERTEX
10
-1.675000
20
-1.605366
30
0.071406
70
192
0
VERTEX
10
-1.175000
20
-1.556126
30
0.062723
70
192
0
VERTEX
10
-1.675000
20
-1.556126
30
0.062723
70
192
0
VERTEX
10
-1.175000
20
-1.570637
30
0.268367
70
192
0
VERTEX
10
-1.675000
20
-1.570637
30
0.268367
70
192
0
VERTEX
10
-1.175000
20
-1.521396
30
0.259685
70
192
0
VERTEX
10
-1.675000
20
-1.521396
30
0.259685
70
192
0
VERTEX
10
-1.875000
20
-1.605367
30
0.071406
70
192
0
VERTEX
10
-2.375000
20
-1.605367
30
0.071406
70
192
0
VERTEX
10
-1.875000
20
-1.556126
30
0.062723
70
192
0
VERTEX
10
-2.375000
20
-1.556126
30
0.062723
70
192
0
VERTEX
10
-1.875000
20
-1.570637
30
0.268367
70
192
0
VERTEX
10
-2.375000
20
-1.570637
30
0.268367
70
192
0
VERTEX
10
-1.875000
20
-1.521397
30
0.259685
70
192
0
VERTEX
10
-2.375000
20
-1.521397
30
0.259685
70
192
0
VERTEX
10
1.650001
20
-1.605367
30
0.071405
70
192
0
VERTEX
10
1.150001
20
-1.605367
30
0.071405
70
192
0
VERTEX
10
1.650001
20
-1.556126
30
0.062723
70
192
0
VERTEX
10
1.150001
20
-1.556126
30
0.062723
70
192
0
VERTEX
10
1.650001
20
-1.570637
30
0.268367
70
192
0
VERTEX
10
1.150001
20
-1.570637
30
0.268367
70
192
0
VERTEX
10
1.650001
20
-1.521397
30
0.259684
70
192
0
VERTEX
10
1.150001
20
-1.521397
30
0.259684
70
192
0
VERTEX
10
2.375001
20
-1.490758
30
0.721379
70
192
0
VERTEX
10
1.875001
20
-1.490759
30
0.721379
70
192
0
VERTEX
10
2.375001
20
-1.441518
30
0.712697
70
192
0
VERTEX
10
1.875001
20
-1.441518
30
0.712697
70
192
0
VERTEX
10
2.375001
20
-1.456029
30
0.918341
70
192
0
VERTEX
10
1.875001
20
-1.456029
30
0.918341
70
192
0
VERTEX
10
2.375001
20
-1.406788
30
0.909658
70
192
0
VERTEX
10
1.875001
20
-1.406789
30
0.909658
70
192
0
VERTEX
10
-0.475000
20
-1.490758
30
0.721379
70
192
0
VERTEX
10
-0.975000
20
-1.490758
30
0.721379
70
192
0
VERTEX
10
-0.475000
20
-1.441518
30
0.712697
70
192
0
VERTEX
10
-0.975000
20
-1.441518
30
0.712697
70
192
0
VERTEX
10
-0.475000
20
-1.456029
30
0.918341
70
192
0
VERTEX
10
-0.975000
20
-1.456029
30
0.918341
70
192
0
VERTEX
10
-0.475000
20
-1.406788
30
0.909658
70
192
0
VERTEX
10
-0.975000
20
-1.406788
30
0.909658
70
192
0
VERTEX
10
-1.175000
20
-1.490758
30
0.721379
70
192
0
VERTEX
10
-1.675000
20
-1.490758
30
0.721379
70
192
0
VERTEX
10
-1.175000
20
-1.441518
30
0.712697
70
192
0
VERTEX
10
-1.675000
20
-1.441518
30
0.712697
70
192
0
VERTEX
10
-1.175000
20
-1.456029
30
0.918341
70
192
0
VERTEX
10
-1.675000
20
-1.456029
30
0.918341
70
192
0
VERTEX
10
-1.175000
20
-1.406788
30
0.909658
70
192
0
VERTEX
10
-1.675000
20
-1.406788
30
0.909658
70
192
0
VERTEX
10
-1.875001
20
-1.490759
30
0.721379
70
192
0
VERTEX
10
-2.375000
20
-1.490759
30
0.721379
70
192
0
VERTEX
10
-1.875001
20
-1.441519
30
0.712697
70
192
0
VERTEX
10
-2.375000
20
-1.441518
30
0.712697
70
192
0
VERTEX
10
-1.875001
20
-1.456029
30
0.918341
70
192
0
VERTEX
10
-2.375001
20
-1.456029
30
0.918341
70
192
0
VERTEX
10
-1.875001
20
-1.406789
30
0.909658
70
192
0
VERTEX
10
-2.375001
20
-1.406789
30
0.909658
70
192
0
VERTEX
10
0.950000
20
-1.490758
30
0.721379
70
192
0
VERTEX
10
0.450000
20
-1.490758
30
0.721379
70
192
0
VERTEX
10
0.950000
20
-1.441518
30
0.712697
70
192
0
VERTEX
10
0.450000
20
-1.441518
30
0.712697
70
192
0
VERTEX
10
0.950000
20
-1.456028
30
0.918341
70
192
0
VERTEX
10
0.450000
20
-1.456028
30
0.918341
70
192
0
VERTEX
10
0.950000
20
-1.406788
30
0.909658
70
192
0
VERTEX
10
0.450000
20
-1.406788
30
0.909658
70
192
0
VERTEX
10
1.650001
20
-1.490757
30
0.721379
70
192
0
VERTEX
10
1.150001
20
-1.490757
30
0.721379
70
192
0
VERTEX
10
1.650001
20
-1.441517
30
0.712697
70
192
0
VERTEX
10
1.150001
20
-1.441517
30
0.712697
70
192
0
VERTEX
10
1.650001
20
-1.456028
30
0.918341
70
192
0
VERTEX
10
1.150001
20
-1.456028
30
0.918341
70
192
0
VERTEX
10
1.650001
20
-1.406788
30
0.909658
70
192
0
VERTEX
10
1.150001
20
-1.406787
30
0.909658
70
192
0
VERTEX
10
0.0
20
0.0
30
0.0
70
128
71
1
72
2
73
3
0
VERTEX
10
0.0
20
0.0
30
0.0
70
128
71
3
72
2
73
4
0
VERTEX
10
0.0
20
0.0
30
0.0
70
128
71
2
72
1
73
5
0
VERTEX
10
0.0
20
0.0
30
0.0
70
128
71
2
72
5
73
6
0
VERTEX
10
0.0
20
0.0
30
0.0
70
128
71
3
72
4
73
7
0
VERTEX
10
0.0
20
0.0
30
0.0
70
128
71
7
72
4
73
8
0
VERTEX
10
0.0
20
0.0
30
0.0
70
128
71
7
72
8
73
5
0
VERTEX
10
0.0
20
0.0
30
0.0
70
128
71
5
72
8
73
6
0
VERTEX
10
0.0
20
0.0
30
0.0
70
128
71
4
72
2
73
8
0
VERTEX
10
0.0
20
0.0
30
0.0
70
128
71
8
72
2
73
6
0
VERTEX
10
0.0
20
0.0
30
0.0
70
128
71
1
72
3
73
7
0
VERTEX
10
0.0
20
0.0
30
0.0
70
128
71
1
72
7
73
5
0
VERTEX
10
0.0
20
0.0
30
0.0
70
128
71
9
72
10
73
11
0
VERTEX
10
0.0
20
0.0
30
0.0
70
128
71
11
72
10
73
12
0
VERTEX
10
0.0
20
0.0
30
0.0
70
128
71
10
72
9
73
13
0
VERTEX
10
0.0
20
0.0
30
0.0
70
128
71
10
72
13
73
14
0
VERTEX
10
0.0
20
0.0
30
0.0
70
128
71
11
72
12
73
15
0
VERTEX
10
0.0
20
0.0
30
0.0
70
128
71
15
72
12
73
16
0
VERTEX
10
0.0
20
0.0
30
0.0
70
128
71
15
72
16
73
13
0
VERTEX
10
0.0
20
0.0
30
0.0
70
128
71
13
72
16
73
14
0
VERTEX
10
0.0
20
0.0
30
0.0
70
128
71
12
72
10
73
16
0
VERTEX
10
0.0
20
0.0
30
0.0
70
128
71
16
72
10
73
14
0
VERTEX
10
0.0
20
0.0
30
0.0
70
128
71
9
72
11
73
15
0
VERTEX
10
0.0
20
0.0
30
0.0
70
128
71
9
72
15
73
13
0
VERTEX
10
0.0
20
0.0
30
0.0
70
128
71
17
72
18
73
19
0
VERTEX
10
0.0
20
0.0
30
0.0
70
128
71
19
72
18
73
20
0
VERTEX
10
0.0
20
0.0
30
0.0
70
128
71
18
72
17
73
21
0
VERTEX
10
0.0
20
0.0
30
0.0
70
128
71
18
72
21
73
22
0
VERTEX
10
0.0
20
0.0
30
0.0
70
128
71
19
72
20
73
23
0
VERTEX
10
0.0
20
0.0
30
0.0
70
128
71
23
72
20
73
24
0
VERTEX
10
0.0
20
0.0
30
0.0
70
128
71
23
72
24
73
21
0
VERTEX
10
0.0
20
0.0
30
0.0
70
128
71
21
72
24
73
22
0
VERTEX
10
0.0
20
0.0
30
0.0
70
128
71
20
72
18
73
24
0
VERTEX
10
0.0
20
0.0
30
0.0
70
128
71
24
72
18
73
22
0
VERTEX
10
0.0
20
0.0
30
0.0
70
128
71
17
72
19
73
23
0
VERTEX
10
0.0
20
0.0
30
0.0
70
128
71
17
72
23
73
21
0
VERTEX
10
0.0
20
0.0
30
0.0
70
128
71
25
72
26
73
27
0
VERTEX
10
0.0
20
0.0
30
0.0
70
128
71
27
72
26
73
28
0
VERTEX
10
0.0
20
0.0
30
0.0
70
128
71
26
72
25
73
29
0
VERTEX
10
0.0
20
0.0
30
0.0
70
128
71
26
72
29
73
30
0
VERTEX
10
0.0
20
0.0
30
0.0
70
128
71
27
72
28
73
31
0
VERTEX
10
0.0
20
0.0
30
0.0
70
128
71
31
72
28
73
32
0
VERTEX
10
0.0
20
0.0
30
0.0
70
128
71
31
72
32
73
29
0
VERTEX
10
0.0
20
0.0
30
0.0
70
128
71
29
72
32
73
30
0
VERTEX
10
0.0
20
0.0
30
0.0
70
128
71
28
72
26
73
32
0
VERTEX
10
0.0
20
0.0
30
0.0
70
128
71
32
72
26
73
30
0
VERTEX
10
0.0
20
0.0
30
0.0
70
128
71
25
72
27
73
31
0
VERTEX
10
0.0
20
0.0
30
0.0
70
128
71
25
72
31
73
29
0
VERTEX
10
0.0
20
0.0
30
0.0
70
128
71
33
72
34
73
35
0
VERTEX
10
0.0
20
0.0
30
0.0
70
128
71
35
72
34
73
36
0
VERTEX
10
0.0
20
0.0
30
0.0
70
128
71
34
72
33
73
37
0
VERTEX
10
0.0
20
0.0
30
0.0
70
128
71
34
72
37
73
38
0
VERTEX
10
0.0
20
0.0
30
0.0
70
128
71
35
72
36
73
39
0
VERTEX
10
0.0
20
0.0
30
0.0
70
128
71
39
72
36
73
40
0
VERTEX
10
0.0
20
0.0
30
0.0
70
128
71
39
72
40
73
37
0
VERTEX
10
0.0
20
0.0
30
0.0
70
128
71
37
72
40
73
38
0
VERTEX
10
0.0
20
0.0
30
0.0
70
128
71
36
72
34
73
40
0
VERTEX
10
0.0
20
0.0
30
0.0
70
128
71
40
72
34
73
38
0
VERTEX
10
0.0
20
0.0
30
0.0
70
128
71
33
72
35
73
39
0
VERTEX
10
0.0
20
0.0
30
0.0
70
128
71
33
72
39
73
37
0
VERTEX
10
0.0
20
0.0
30
0.0
70
128
71
41
72
42
73
43
0
VERTEX
10
0.0
20
0.0
30
0.0
70
128
71
43
72
42
73
44
0
VERTEX
10
0.0
20
0.0
30
0.0
70
128
71
42
72
41
73
45
0
VERTEX
10
0.0
20
0.0
30
0.0
70
128
71
42
72
45
73
46
0
VERTEX
10
0.0
20
0.0
30
0.0
70
128
71
43
72
44
73
47
0
VERTEX
10
0.0
20
0.0
30
0.0
70
128
71
47
72
44
73
48
0
VERTEX
10
0.0
20
0.0
30
0.0
70
128
71
47
72
48
73
45
0
VERTEX
10
0.0
20
0.0
30
0.0
70
128
71
45
72
48
73
46
0
VERTEX
10
0.0
20
0.0
30
0.0
70
128
71
44
72
42
73
48
0
VERTEX
10
0.0
20
0.0
30
0.0
70
128
71
48
72
42
73
46
0
VERTEX
10
0.0
20
0.0
30
0.0
70
128
71
41
72
43
73
47
0
VERTEX
10
0.0
20
0.0
30
0.0
70
128
71
41
72
47
73
45
0
VERTEX
10
0.0
20
0.0
30
0.0
70
128
71
49
72
50
73
51
0
VERTEX
10
0.0
20
0.0
30
0.0
70
128
71
51
72
50
73
52
0
VERTEX
10
0.0
20
0.0
30
0.0
70
128
71
50
72
49
73
53
0
VERTEX
10
0.0
20
0.0
30
0.0
70
128
71
50
72
53
73
54
0
VERTEX
10
0.0
20
0.0
30
0.0
70
128
71
51
72
52
73
55
0
VERTEX
10
0.0
20
0.0
30
0.0
70
128
71
55
72
52
73
56
0
VERTEX
10
0.0
20
0.0
30
0.0
70
128
71
55
72
56
73
53
0
VERTEX
10
0.0
20
0.0
30
0.0
70
128
71
53
72
56
73
54
0
VERTEX
10
0.0
20
0.0
30
0.0
70
128
71
52
72
50
73
56
0
VERTEX
10
0.0
20
0.0
30
0.0
70
128
71
56
72
50
73
54
0
VERTEX
10
0.0
20
0.0
30
0.0
70
128
71
49
72
51
73
55
0
VERTEX
10
0.0
20
0.0
30
0.0
70
128
71
49
72
55
73
53
0
VERTEX
10
0.0
20
0.0
30
0.0
70
128
71
57
72
58
73
59
0
VERTEX
10
0.0
20
0.0
30
0.0
70
128
71
59
72
58
73
60
0
VERTEX
10
0.0
20
0.0
30
0.0
70
128
71
58
72
57
73
61
0
VERTEX
10
0.0
20
0.0
30
0.0
70
128
71
58
72
61
73
62
0
VERTEX
10
0.0
20
0.0
30
0.0
70
128
71
59
72
60
73
63
0
VERTEX
10
0.0
20
0.0
30
0.0
70
128
71
63
72
60
73
64
0
VERTEX
10
0.0
20
0.0
30
0.0
70
128
71
63
72
64
73
61
0
VERTEX
10
0.0
20
0.0
30
0.0
70
128
71
61
72
64
73
62
0
VERTEX
10
0.0
20
0.0
30
0.0
70
128
71
60
72
58
73
64
0
VERTEX
10
0.0
20
0.0
30
0.0
70
128
71
64
72
58
73
62
0
VERTEX
10
0.0
20
0.0
30
0.0
70
128
71
57
72
59
73
63
0
VERTEX
10
0.0
20
0.0
30
0.0
70
128
71
57
72
63
73
61
0
VERTEX
10
0.0
20
0.0
30
0.0
70
128
71
65
72
66
73
67
0
VERTEX
10
0.0
20
0.0
30
0.0
70
128
71
67
72
66
73
68
0
VERTEX
10
0.0
20
0.0
30
0.0
70
128
71
66
72
65
73
69
0
VERTEX
10
0.0
20
0.0
30
0.0
70
128
71
66
72
69
73
70
0
VERTEX
10
0.0
20
0.0
30
0.0
70
128
71
67
72
68
73
71
0
VERTEX
10
0.0
20
0.0
30
0.0
70
128
71
71
72
68
73
72
0
VERTEX
10
0.0
20
0.0
30
0.0
70
128
71
71
72
72
73
69
0
VERTEX
10
0.0
20
0.0
30
0.0
70
128
71
69
72
72
73
70
0
VERTEX
10
0.0
20
0.0
30
0.0
70
128
71
68
72
66
73
72
0
VERTEX
10
0.0
20
0.0
30
0.0
70
128
71
72
72
66
73
70
0
VERTEX
10
0.0
20
0.0
30
0.0
70
128
71
65
72
67
73
71
0
VERTEX
10
0.0
20
0.0
30
0.0
70
128
71
65
72
71
73
69
0
VERTEX
10
0.0
20
0.0
30
0.0
70
128
71
73
72
74
73
75
0
VERTEX
10
0.0
20
0.0
30
0.0
70
128
71
75
72
74
73
76
0
VERTEX
10
0.0
20
0.0
30
0.0
70
128
71
74
72
73
73
77
0
VERTEX
10
0.0
20
0.0
30
0.0
70
128
71
74
72
77
73
78
0
VERTEX
10
0.0
20
0.0
30
0.0
70
128
71
75
72
76
73
79
0
VERTEX
10
0.0
20
0.0
30
0.0
70
128
71
79
72
76
73
80
0
VERTEX
10
0.0
20
0.0
30
0.0
70
128
71
79
72
80
73
77
0
VERTEX
10
0.0
20
0.0
30
0.0
70
128
71
77
72
80
73
78
0
VERTEX
10
0.0
20
0.0
30
0.0
70
128
71
76
72
74
73
80
0
VERTEX
10
0.0
20
0.0
30
0.0
70
128
71
80
72
74
73
78
0
VERTEX
10
0.0
20
0.0
30
0.0
70
128
71
73
72
75
73
79
0
VERTEX
10
0.0
20
0.0
30
0.0
70
128
71
73
72
79
73
77
0
VERTEX
10
0.0
20
0.0
30
0.0
70
128
71
81
72
82
73
83
0
VERTEX
10
0.0
20
0.0
30
0.0
70
128
71
83
72
82
73
84
0
VERTEX
10
0.0
20
0.0
30
0.0
70
128
71
82
72
81
73
85
0
VERTEX
10
0.0
20
0.0
30
0.0
70
128
71
82
72
85
73
86
0
VERTEX
10
0.0
20
0.0
30
0.0
70
128
71
83
72
84
73
87
0
VERTEX
10
0.0
20
0.0
30
0.0
70
128
71
87
72
84
73
88
0
VERTEX
10
0.0
20
0.0
30
0.0
70
128
71
87
72
88
73
85
0
VERTEX
10
0.0
20
0.0
30
0.0
70
128
71
85
72
88
73
86
0
VERTEX
10
0.0
20
0.0
30
0.0
70
128
71
84
72
82
73
88
0
VERTEX
10
0.0
20
0.0
30
0.0
70
128
71
88
72
82
73
86
0
VERTEX
10
0.0
20
0.0
30
0.0
70
128
71
81
72
83
73
87
0
VERTEX
10
0.0
20
0.0
30
0.0
70
128
71
81
72
87
73
85
0
VERTEX
10
0.0
20
0.0
30
0.0
70
128
71
89
72
90
73
91
0
VERTEX
10
0.0
20
0.0
30
0.0
70
128
71
91
72
90
73
92
0
VERTEX
10
0.0
20
0.0
30
0.0
70
128
71
90
72
89
73
93
0
VERTEX
10
0.0
20
0.0
30
0.0
70
128
71
90
72
93
73
94
0
VERTEX
10
0.0
20
0.0
30
0.0
70
128
71
91
72
92
73
95
0
VERTEX
10
0.0
20
0.0
30
0.0
70
128
71
95
72
92
73
96
0
VERTEX
10
0.0
20
0.0
30
0.0
70
128
71
95
72
96
73
93
0
VERTEX
10
0.0
20
0.0
30
0.0
70
128
71
93
72
96
73
94
0
VERTEX
10
0.0
20
0.0
30
0.0
70
128
71
92
72
90
73
96
0
VERTEX
10
0.0
20
0.0
30
0.0
70
128
71
96
72
90
73
94
0
VERTEX
10
0.0
20
0.0
30
0.0
70
128
71
89
72
91
73
95
0
VERTEX
10
0.0
20
0.0
30
0.0
70
128
71
89
72
95
73
93
0
VERTEX
10
0.0
20
0.0
30
0.0
70
128
71
97
72
98
73
99
0
VERTEX
10
0.0
20
0.0
30
0.0
70
128
71
99
72
98
73
100
0
VERTEX
10
0.0
20
0.0
30
0.0
70
128
71
98
72
97
73
101
0
VERTEX
10
0.0
20
0.0
30
0.0
70
128
71
98
72
101
73
102
0
VERTEX
10
0.0
20
0.0
30
0.0
70
128
71
99
72
100
73
103
0
VERTEX
10
0.0
20
0.0
30
0.0
70
128
71
103
72
100
73
104
0
VERTEX
10
0.0
20
0.0
30
0.0
70
128
71
103
72
104
73
101
0
VERTEX
10
0.0
20
0.0
30
0.0
70
128
71
101
72
104
73
102
0
VERTEX
10
0.0
20
0.0
30
0.0
70
128
71
100
72
98
73
104
0
VERTEX
10
0.0
20
0.0
30
0.0
70
128
71
104
72
98
73
102
0
VERTEX
10
0.0
20
0.0
30
0.0
70
128
71
97
72
99
73
103
0
VERTEX
10
0.0
20
0.0
30
0.0
70
128
71
97
72
103
73
101
0
VERTEX
10
0.0
20
0.0
30
0.0
70
128
71
105
72
106
73
107
0
VERTEX
10
0.0
20
0.0
30
0.0
70
128
71
107
72
106
73
108
0
VERTEX
10
0.0
20
0.0
30
0.0
70
128
71
106
72
105
73
109
0
VERTEX
10
0.0
20
0.0
30
0.0
70
128
71
106
72
109
73
110
0
VERTEX
10
0.0
20
0.0
30
0.0
70
128
71
107
72
108
73
111
0
VERTEX
10
0.0
20
0.0
30
0.0
70
128
71
111
72
108
73
112
0
VERTEX
10
0.0
20
0.0
30
0.0
70
128
71
111
72
112
73
109
0
VERTEX
10
0.0
20
0.0
30
0.0
70
128
71
109
72
112
73
110
0
VERTEX
10
0.0
20
0.0
30
0.0
70
128
71
108
72
106
73
112
0
VERTEX
10
0.0
20
0.0
30
0.0
70
128
71
112
72
106
73
110
0
VERTEX
10
0.0
20
0.0
30
0.0
70
128
71
105
72
107
73
111
0
VERTEX
10
0.0
20
0.0
30
0.0
70
128
71
105
72
111
73
109
0
VERTEX
10
0.0
20
0.0
30
0.0
70
128
71
113
72
114
73
115
0
VERTEX
10
0.0
20
0.0
30
0.0
70
128
71
115
72
114
73
116
0
VERTEX
10
0.0
20
0.0
30
0.0
70
128
71
114
72
113
73
117
0
VERTEX
10
0.0
20
0.0
30
0.0
70
128
71
114
72
117
73
118
0
VERTEX
10
0.0
20
0.0
30
0.0
70
128
71
115
72
116
73
119
0
VERTEX
10
0.0
20
0.0
30
0.0
70
128
71
119
72
116
73
120
0
VERTEX
10
0.0
20
0.0
30
0.0
70
128
71
119
72
120
73
117
0
VERTEX
10
0.0
20
0.0
30
0.0
70
128
71
117
72
120
73
118
0
VERTEX
10
0.0
20
0.0
30
0.0
70
128
71
116
72
114
73
120
0
VERTEX
10
0.0
20
0.0
30
0.0
70
128
71
120
72
114
73
118
0
VERTEX
10
0.0
20
0.0
30
0.0
70
128
71
113
72
115
73
119
0
VERTEX
10
0.0
20
0.0
30
0.0
70
128
71
113
72
119
73
117
0
VERTEX
10
0.0
20
0.0
30
0.0
70
128
71
121
72
122
73
123
0
VERTEX
10
0.0
20
0.0
30
0.0
70
128
71
123
72
122
73
124
0
VERTEX
10
0.0
20
0.0
30
0.0
70
128
71
122
72
121
73
125
0
VERTEX
10
0.0
20
0.0
30
0.0
70
128
71
122
72
125
73
126
0
VERTEX
10
0.0
20
0.0
30
0.0
70
128
71
123
72
124
73
127
0
VERTEX
10
0.0
20
0.0
30
0.0
70
128
71
127
72
124
73
128
0
VERTEX
10
0.0
20
0.0
30
0.0
70
128
71
127
72
128
73
125
0
VERTEX
10
0.0
20
0.0
30
0.0
70
128
71
125
72
128
73
126
0
VERTEX
10
0.0
20
0.0
30
0.0
70
128
71
124
72
122
73
128
0
VERTEX
10
0.0
20
0.0
30
0.0
70
128
71
128
72
122
73
126
0
VERTEX
10
0.0
20
0.0
30
0.0
70
128
71
121
72
123
73
127
0
VERTEX
10
0.0
20
0.0
30
0.0
70
128
71
121
72
127
73
125
0
VERTEX
10
0.0
20
0.0
30
0.0
70
128
71
129
72
130
73
131
0
VERTEX
10
0.0
20
0.0
30
0.0
70
128
71
131
72
130
73
132
0
VERTEX
10
0.0
20
0.0
30
0.0
70
128
71
130
72
129
73
133
0
VERTEX
10
0.0
20
0.0
30
0.0
70
128
71
130
72
133
73
134
0
VERTEX
10
0.0
20
0.0
30
0.0
70
128
71
131
72
132
73
135
0
VERTEX
10
0.0
20
0.0
30
0.0
70
128
71
135
72
132
73
136
0
VERTEX
10
0.0
20
0.0
30
0.0
70
128
71
135
72
136
73
133
0
VERTEX
10
0.0
20
0.0
30
0.0
70
128
71
133
72
136
73
134
0
VERTEX
10
0.0
20
0.0
30
0.0
70
128
71
132
72
130
73
136
0
VERTEX
10
0.0
20
0.0
30
0.0
70
128
71
136
72
130
73
134
0
VERTEX
10
0.0
20
0.0
30
0.0
70
128
71
129
72
131
73
135
0
VERTEX
10
0.0
20
0.0
30
0.0
70
128
71
129
72
135
73
133
0
VERTEX
10
0.0
20
0.0
30
0.0
70
128
71
137
72
138
73
139
0
VERTEX
10
0.0
20
0.0
30
0.0
70
128
71
139
72
138
73
140
0
VERTEX
10
0.0
20
0.0
30
0.0
70
128
71
138
72
137
73
141
0
VERTEX
10
0.0
20
0.0
30
0.0
70
128
71
138
72
141
73
142
0
VERTEX
10
0.0
20
0.0
30
0.0
70
128
71
139
72
140
73
143
0
VERTEX
10
0.0
20
0.0
30
0.0
70
128
71
143
72
140
73
144
0
VERTEX
10
0.0
20
0.0
30
0.0
70
128
71
143
72
144
73
141
0
VERTEX
10
0.0
20
0.0
30
0.0
70
128
71
141
72
144
73
142
0
VERTEX
10
0.0
20
0.0
30
0.0
70
128
71
140
72
138
73
144
0
VERTEX
10
0.0
20
0.0
30
0.0
70
128
71
144
72
138
73
142
0
VERTEX
10
0.0
20
0.0
30
0.0
70
128
71
137
72
139
73
143
0
VERTEX
10
0.0
20
0.0
30
0.0
70
128
71
137
72
143
73
141
0
VERTEX
10
0.0
20
0.0
30
0.0
70
128
71
145
72
146
73
147
0
VERTEX
10
0.0
20
0.0
30
0.0
70
128
71
147
72
146
73
148
0
VERTEX
10
0.0
20
0.0
30
0.0
70
128
71
146
72
145
73
149
0
VERTEX
10
0.0
20
0.0
30
0.0
70
128
71
146
72
149
73
150
0
VERTEX
10
0.0
20
0.0
30
0.0
70
128
71
147
72
148
73
151
0
VERTEX
10
0.0
20
0.0
30
0.0
70
128
71
151
72
148
73
152
0
VERTEX
10
0.0
20
0.0
30
0.0
70
128
71
151
72
152
73
149
0
VERTEX
10
0.0
20
0.0
30
0.0
70
128
71
149
72
152
73
150
0
VERTEX
10
0.0
20
0.0
30
0.0
70
128
71
148
72
146
73
152
0
VERTEX
10
0.0
20
0.0
30
0.0
70
128
71
152
72
146
73
150
0
VERTEX
10
0.0
20
0.0
30
0.0
70
128
71
145
72
147
73
151
0
VERTEX
10
0.0
20
0.0
30
0.0
70
128
71
145
72
151
73
149
0
VERTEX
10
0.0
20
0.0
30
0.0
70
128
71
153
72
154
73
155
0
VERTEX
10
0.0
20
0.0
30
0.0
70
128
71
155
72
154
73
156
0
VERTEX
10
0.0
20
0.0
30
0.0
70
128
71
154
72
153
73
157
0
VERTEX
10
0.0
20
0.0
30
0.0
70
128
71
154
72
157
73
158
0
VERTEX
10
0.0
20
0.0
30
0.0
70
128
71
155
72
156
73
159
0
VERTEX
10
0.0
20
0.0
30
0.0
70
128
71
159
72
156
73
160
0
VERTEX
10
0.0
20
0.0
30
0.0
70
128
71
159
72
160
73
157
0
VERTEX
10
0.0
20
0.0
30
0.0
70
128
71
157
72
160
73
158
0
VERTEX
10
0.0
20
0.0
30
0.0
70
128
71
156
72
154
73
160
0
VERTEX
10
0.0
20
0.0
30
0.0
70
128
71
160
72
154
73
158
0
VERTEX
10
0.0
20
0.0
30
0.0
70
128
71
153
72
155
73
159
0
VERTEX
10
0.0
20
0.0
30
0.0
70
128
71
153
72
159
73
157
0
VERTEX
10
0.0
20
0.0
30
0.0
70
128
71
161
72
162
73
163
0
VERTEX
10
0.0
20
0.0
30
0.0
70
128
71
163
72
162
73
164
0
VERTEX
10
0.0
20
0.0
30
0.0
70
128
71
162
72
161
73
165
0
VERTEX
10
0.0
20
0.0
30
0.0
70
128
71
162
72
165
73
166
0
VERTEX
10
0.0
20
0.0
30
0.0
70
128
71
163
72
164
73
167
0
VERTEX
10
0.0
20
0.0
30
0.0
70
128
71
167
72
164
73
168
0
VERTEX
10
0.0
20
0.0
30
0.0
70
128
71
167
72
168
73
165
0
VERTEX
10
0.0
20
0.0
30
0.0
70
128
71
165
72
168
73
166
0
VERTEX
10
0.0
20
0.0
30
0.0
70
128
71
164
72
162
73
168
0
VERTEX
10
0.0
20
0.0
30
0.0
70
128
71
168
72
162
73
166
0
VERTEX
10
0.0
20
0.0
30
0.0
70
128
71
161
72
163
73
167
0
VERTEX
10
0.0
20
0.0
30
0.0
70
128
71
161
72
167
73
165
0
VERTEX
10
0.0
20
0.0
30
0.0
70
128
71
169
72
170
73
171
0
VERTEX
10
0.0
20
0.0
30
0.0
70
128
71
171
72
170
73
172
0
VERTEX
10
0.0
20
0.0
30
0.0
70
128
71
170
72
169
73
173
0
VERTEX
10
0.0
20
0.0
30
0.0
70
128
71
170
72
173
73
174
0
VERTEX
10
0.0
20
0.0
30
0.0
70
128
71
171
72
172
73
175
0
VERTEX
10
0.0
20
0.0
30
0.0
70
128
71
175
72
172
73
176
0
VERTEX
10
0.0
20
0.0
30
0.0
70
128
71
175
72
176
73
173
0
VERTEX
10
0.0
20
0.0
30
0.0
70
128
71
173
72
176
73
174
0
VERTEX
10
0.0
20
0.0
30
0.0
70
128
71
172
72
170
73
176
0
VERTEX
10
0.0
20
0.0
30
0.0
70
128
71
176
72
170
73
174
0
VERTEX
10
0.0
20
0.0
30
0.0
70
128
71
169
72
171
73
175
0
VERTEX
10
0.0
20
0.0
30
0.0
70
128
71
169
72
175
73
173
0
VERTEX
10
0.0
20
0.0
30
0.0
70
128
71
177
72
178
73
179
0
VERTEX
10
0.0
20
0.0
30
0.0
70
128
71
179
72
178
73
180
0
VERTEX
10
0.0
20
0.0
30
0.0
70
128
71
178
72
177
73
181
0
VERTEX
10
0.0
20
0.0
30
0.0
70
128
71
178
72
181
73
182
0
VERTEX
10
0.0
20
0.0
30
0.0
70
128
71
179
72
180
73
183
0
VERTEX
10
0.0
20
0.0
30
0.0
70
128
71
183
72
180
73
184
0
VERTEX
10
0.0
20
0.0
30
0.0
70
128
71
183
72
184
73
181
0
VERTEX
10
0.0
20
0.0
30
0.0
70
128
71
181
72
184
73
182
0
VERTEX
10
0.0
20
0.0
30
0.0
70
128
71
180
72
178
73
184
0
VERTEX
10
0.0
20
0.0
30
0.0
70
128
71
184
72
178
73
182
0
VERTEX
10
0.0
20
0.0
30
0.0
70
128
71
177
72
179
73
183
0
VERTEX
10
0.0
20
0.0
30
0.0
70
128
71
177
72
183
73
181
0
VERTEX
10
0.0
20
0.0
30
0.0
70
128
71
185
72
186
73
187
0
VERTEX
10
0.0
20
0.0
30
0.0
70
128
71
187
72
186
73
188
0
VERTEX
10
0.0
20
0.0
30
0.0
70
128
71
186
72
185
73
189
0
VERTEX
10
0.0
20
0.0
30
0.0
70
128
71
186
72
189
73
190
0
VERTEX
10
0.0
20
0.0
30
0.0
70
128
71
187
72
188
73
191
0
VERTEX
10
0.0
20
0.0
30
0.0
70
128
71
191
72
188
73
192
0
VERTEX
10
0.0
20
0.0
30
0.0
70
128
71
191
72
192
73
189
0
VERTEX
10
0.0
20
0.0
30
0.0
70
128
71
189
72
192
73
190
0
VERTEX
10
0.0
20
0.0
30
0.0
70
128
71
188
72
186
73
192
0
VERTEX
10
0.0
20
0.0
30
0.0
70
128
71
192
72
186
73
190
0
VERTEX
10
0.0
20
0.0
30
0.0
70
128
71
185
72
187
73
191
0
VERTEX
10
0.0
20
0.0
30
0.0
70
128
71
185
72
191
73
189
0
VERTEX
10
0.0
20
0.0
30
0.0
70
128
71
193
72
194
73
195
0
VERTEX
10
0.0
20
0.0
30
0.0
70
128
71
195
72
194
73
196
0
VERTEX
10
0.0
20
0.0
30
0.0
70
128
71
194
72
193
73
197
0
VERTEX
10
0.0
20
0.0
30
0.0
70
128
71
194
72
197
73
198
0
VERTEX
10
0.0
20
0.0
30
0.0
70
128
71
195
72
196
73
199
0
VERTEX
10
0.0
20
0.0
30
0.0
70
128
71
199
72
196
73
200
0
VERTEX
10
0.0
20
0.0
30
0.0
70
128
71
199
72
200
73
197
0
VERTEX
10
0.0
20
0.0
30
0.0
70
128
71
197
72
200
73
198
0
VERTEX
10
0.0
20
0.0
30
0.0
70
128
71
196
72
194
73
200
0
VERTEX
10
0.0
20
0.0
30
0.0
70
128
71
200
72
194
73
198
0
VERTEX
10
0.0
20
0.0
30
0.0
70
128
71
193
72
195
73
199
0
VERTEX
10
0.0
20
0.0
30
0.0
70
128
71
193
72
199
73
197
0
VERTEX
10
0.0
20
0.0
30
0.0
70
128
71
201
72
202
73
203
0
VERTEX
10
0.0
20
0.0
30
0.0
70
128
71
203
72
202
73
204
0
VERTEX
10
0.0
20
0.0
30
0.0
70
128
71
202
72
201
73
205
0
VERTEX
10
0.0
20
0.0
30
0.0
70
128
71
202
72
205
73
206
0
VERTEX
10
0.0
20
0.0
30
0.0
70
128
71
203
72
204
73
207
0
VERTEX
10
0.0
20
0.0
30
0.0
70
128
71
207
72
204
73
208
0
VERTEX
10
0.0
20
0.0
30
0.0
70
128
71
207
72
208
73
205
0
VERTEX
10
0.0
20
0.0
30
0.0
70
128
71
205
72
208
73
206
0
VERTEX
10
0.0
20
0.0
30
0.0
70
128
71
204
72
202
73
208
0
VERTEX
10
0.0
20
0.0
30
0.0
70
128
71
208
72
202
73
206
0
VERTEX
10
0.0
20
0.0
30
0.0
70
128
71
201
72
203
73
207
0
VERTEX
10
0.0
20
0.0
30
0.0
70
128
71
201
72
207
73
205
0
VERTEX
10
0.0
20
0.0
30
0.0
70
128
71
209
72
210
73
211
0
VERTEX
10
0.0
20
0.0
30
0.0
70
128
71
211
72
210
73
212
0
VERTEX
10
0.0
20
0.0
30
0.0
70
128
71
210
72
209
73
213
0
VERTEX
10
0.0
20
0.0
30
0.0
70
128
71
210
72
213
73
214
0
VERTEX
10
0.0
20
0.0
30
0.0
70
128
71
211
72
212
73
215
0
VERTEX
10
0.0
20
0.0
30
0.0
70
128
71
215
72
212
73
216
0
VERTEX
10
0.0
20
0.0
30
0.0
70
128
71
215
72
216
73
213
0
VERTEX
10
0.0
20
0.0
30
0.0
70
128
71
213
72
216
73
214
0
VERTEX
10
0.0
20
0.0
30
0.0
70
128
71
212
72
210
73
216
0
VERTEX
10
0.0
20
0.0
30
0.0
70
128
71
216
72
210
73
214
0
VERTEX
10
0.0
20
0.0
30
0.0
70
128
71
209
72
211
73
215
0
VERTEX
10
0.0
20
0.0
30
0.0
70
128
71
209
72
215
73
213
0
VERTEX
10
0.0
20
0.0
30
0.0
70
128
71
217
72
218
73
219
0
VERTEX
10
0.0
20
0.0
30
0.0
70
128
71
219
72
218
73
220
0
VERTEX
10
0.0
20
0.0
30
0.0
70
128
71
218
72
217
73
221
0
VERTEX
10
0.0
20
0.0
30
0.0
70
128
71
218
72
221
73
222
0
VERTEX
10
0.0
20
0.0
30
0.0
70
128
71
219
72
220
73
223
0
VERTEX
10
0.0
20
0.0
30
0.0
70
128
71
223
72
220
73
224
0
VERTEX
10
0.0
20
0.0
30
0.0
70
128
71
223
72
224
73
221
0
VERTEX
10
0.0
20
0.0
30
0.0
70
128
71
221
72
224
73
222
0
VERTEX
10
0.0
20
0.0
30
0.0
70
128
71
220
72
218
73
224
0
VERTEX
10
0.0
20
0.0
30
0.0
70
128
71
224
72
218
73
222
0
VERTEX
10
0.0
20
0.0
30
0.0
70
128
71
217
72
219
73
223
0
VERTEX
10
0.0
20
0.0
30
0.0
70
128
71
217
72
223
73
221
0
VERTEX
10
0.0
20
0.0
30
0.0
70
128
71
225
72
226
73
227
0
VERTEX
10
0.0
20
0.0
30
0.0
70
128
71
227
72
226
73
228
0
VERTEX
10
0.0
20
0.0
30
0.0
70
128
71
226
72
225
73
229
0
VERTEX
10
0.0
20
0.0
30
0.0
70
128
71
226
72
229
73
230
0
VERTEX
10
0.0
20
0.0
30
0.0
70
128
71
227
72
228
73
231
0
VERTEX
10
0.0
20
0.0
30
0.0
70
128
71
231
72
228
73
232
0
VERTEX
10
0.0
20
0.0
30
0.0
70
128
71
231
72
232
73
229
0
VERTEX
10
0.0
20
0.0
30
0.0
70
128
71
229
72
232
73
230
0
VERTEX
10
0.0
20
0.0
30
0.0
70
128
71
228
72
226
73
232
0
VERTEX
10
0.0
20
0.0
30
0.0
70
128
71
232
72
226
73
230
0
VERTEX
10
0.0
20
0.0
30
0.0
70
128
71
225
72
227
73
231
0
VERTEX
10
0.0
20
0.0
30
0.0
70
128
71
225
72
231
73
229
0
VERTEX
10
0.0
20
0.0
30
0.0
70
128
71
233
72
234
73
235
0
VERTEX
10
0.0
20
0.0
30
0.0
70
128
71
235
72
234
73
236
0
VERTEX
10
0.0
20
0.0
30
0.0
70
128
71
234
72
233
73
237
0
VERTEX
10
0.0
20
0.0
30
0.0
70
128
71
234
72
237
73
238
0
VERTEX
10
0.0
20
0.0
30
0.0
70
128
71
235
72
236
73
239
0
VERTEX
10
0.0
20
0.0
30
0.0
70
128
71
239
72
236
73
240
0
VERTEX
10
0.0
20
0.0
30
0.0
70
128
71
239
72
240
73
237
0
VERTEX
10
0.0
20
0.0
30
0.0
70
128
71
237
72
240
73
238
0
VERTEX
10
0.0
20
0.0
30
0.0
70
128
71
236
72
234
73
240
0
VERTEX
10
0.0
20
0.0
30
0.0
70
128
71
240
72
234
73
238
0
VERTEX
10
0.0
20
0.0
30
0.0
70
128
71
233
72
235
73
239
0
VERTEX
10
0.0
20
0.0
30
0.0
70
128
71
233
72
239
73
237
0
VERTEX
10
0.0
20
0.0
30
0.0
70
128
71
241
72
242
73
243
0
VERTEX
10
0.0
20
0.0
30
0.0
70
128
71
243
72
242
73
244
0
VERTEX
10
0.0
20
0.0
30
0.0
70
128
71
242
72
241
73
245
0
VERTEX
10
0.0
20
0.0
30
0.0
70
128
71
242
72
245
73
246
0
VERTEX
10
0.0
20
0.0
30
0.0
70
128
71
243
72
244
73
247
0
VERTEX
10
0.0
20
0.0
30
0.0
70
128
71
247
72
244
73
248
0
VERTEX
10
0.0
20
0.0
30
0.0
70
128
71
247
72
248
73
245
0
VERTEX
10
0.0
20
0.0
30
0.0
70
128
71
245
72
248
73
246
0
VERTEX
10
0.0
20
0.0
30
0.0
70
128
71
244
72
242
73
248
0
VERTEX
10
0.0
20
0.0
30
0.0
70
128
71
248
72
242
73
246
0
VERTEX
10
0.0
20
0.0
30
0.0
70
128
71
241
72
243
73
247
0
VERTEX
10
0.0
20
0.0
30
0.0
70
128
71
241
72
247
73
245
0
SEQEND
0
ENDBLK
0
BLOCK
2
Wall2
70
64
10
0.0
20
0.0
30
0.0
3
Wall2
0
POLYLINE
66
1
70
64
0
VERTEX
10
1.096401
20
-0.433455
30
0.003634
70
192
0
VERTEX
10
1.046401
20
-0.433454
30
0.003635
70
192
0
VERTEX
10
1.096401
20
-0.384214
30
0.012317
70
192
0
VERTEX
10
1.046402
20
-0.384214
30
0.012317
70
192
0
VERTEX
10
1.096401
20
-0.615785
30
1.037683
70
192
0
VERTEX
10
1.046401
20
-0.615785
30
1.037684
70
192
0
VERTEX
10
1.096401
20
-0.566545
30
1.046366
70
192
0
VERTEX
10
1.046401
20
-0.566545
30
1.046366
70
192
0
VERTEX
10
2.500002
20
-0.433455
30
0.003634
70
192
0
VERTEX
10
-2.500003
20
-0.433455
30
0.003634
70
192
0
VERTEX
10
2.500002
20
-0.384214
30
0.012317
70
192
0
VERTEX
10
-2.500002
20
-0.384214
30
0.012317
70
192
0
VERTEX
10
2.500002
20
-0.442137
30
0.052875
70
192
0
VERTEX
10
-2.500002
20
-0.442137
30
0.052875
70
192
0
VERTEX
10
2.500002
20
-0.392897
30
0.061557
70
192
0
VERTEX
10
-2.500002
20
-0.392897
30
0.061557
70
192
0
VERTEX
10
2.525002
20
-0.433455
30
0.003635
70
192
0
VERTEX
10
2.475002
20
-0.433455
30
0.003635
70
192
0
VERTEX
10
2.525002
20
-0.384214
30
0.012317
70
192
0
VERTEX
10
2.475002
20
-0.384214
30
0.012317
70
192
0
VERTEX
10
2.525002
20
-0.615785
30
1.037684
70
192
0
VERTEX
10
2.475002
20
-0.615785
30
1.037684
70
192
0
VERTEX
10
2.525002
20
-0.566545
30
1.046366
70
192
0
VERTEX
10
2.475002
20
-0.566545
30
1.046366
70
192
0
VERTEX
10
2.500002
20
-0.490759
30
0.328621
70
192
0
VERTEX
10
-2.500002
20
-0.490759
30
0.328621
70
192
0
VERTEX
10
2.500002
20
-0.441518
30
0.337303
70
192
0
VERTEX
10
-2.500003
20
-0.441518
30
0.337303
70
192
0
VERTEX
10
2.500002
20
-0.499441
30
0.377861
70
192
0
VERTEX
10
-2.500002
20
-0.499441
30
0.377861
70
192
0
VERTEX
10
2.500002
20
-0.450201
30
0.386544
70
192
0
VERTEX
10
-2.500002
20
-0.450201
30
0.386544
70
192
0
VERTEX
10
2.500003
20
-0.548063
30
0.653608
70
192
0
VERTEX
10
-2.500002
20
-0.548063
30
0.653608
70
192
0
VERTEX
10
2.500003
20
-0.498822
30
0.662290
70
192
0
VERTEX
10
-2.500002
20
-0.498822
30
0.662290
70
192
0
VERTEX
10
2.500003
20
-0.556745
30
0.702849
70
192
0
VERTEX
10
-2.500002
20
-0.556745
30
0.702848
70
192
0
VERTEX
10
2.500003
20
-0.507505
30
0.711531
70
192
0
VERTEX
10
-2.500002
20
-0.507505
30
0.711531
70
192
0
VERTEX
10
2.500003
20
-0.607103
30
0.988443
70
192
0
VERTEX
10
-2.500002
20
-0.607103
30
0.988443
70
192
0
VERTEX
10
2.500003
20
-0.557863
30
0.997126
70
192
0
VERTEX
10
-2.500002
20
-0.557863
30
0.997126
70
192
0
VERTEX
10
2.500003
20
-0.615785
30
1.037684
70
192
0
VERTEX
10
-2.500002
20
-0.615785
30
1.037683
70
192
0
VERTEX
10
2.500003
20
-0.566545
30
1.046366
70
192
0
VERTEX
10
-2.500002
20
-0.566545
30
1.046366
70
192
0
VERTEX
10
-2.450002
20
-0.433455
30
0.003635
70
192
0
VERTEX
10
-2.500002
20
-0.433455
30
0.003635
70
192
0
VERTEX
10
-2.450002
20
-0.384215
30
0.012317
70
192
0
VERTEX
10
-2.500002
20
-0.384214
30
0.012317
70
192
0
VERTEX
10
-2.450002
20
-0.615786
30
1.037683
70
192
0
VERTEX
10
-2.500002
20
-0.615786
30
1.037683
70
192
0
VERTEX
10
-2.450002
20
-0.566545
30
1.046366
70
192
0
VERTEX
10
-2.500002
20
-0.566545
30
1.046366
70
192
0
VERTEX
10
-1.760701
20
-0.433455
30
0.003635
70
192
0
VERTEX
10
-1.810701
20
-0.433455
30
0.003634
70
192
0
VERTEX
10
-1.760701
20
-0.384215
30
0.012317
70
192
0
VERTEX
10
-1.810701
20
-0.384214
30
0.012317
70
192
0
VERTEX
10
-1.760701
20
-0.615786
30
1.037683
70
192
0
VERTEX
10
-1.810701
20
-0.615786
30
1.037683
70
192
0
VERTEX
10
-1.760701
20
-0.566545
30
1.046366
70
192
0
VERTEX
10
-1.810701
20
-0.566545
30
1.046366
70
192
0
VERTEX
10
-1.046401
20
-0.433455
30
0.003634
70
192
0
VERTEX
10
-1.096401
20
-0.433455
30
0.003634
70
192
0
VERTEX
10
-1.046401
20
-0.384214
30
0.012317
70
192
0
VERTEX
10
-1.096401
20
-0.384214
30
0.012317
70
192
0
VERTEX
10
-1.046401
20
-0.615785
30
1.037683
70
192
0
VERTEX
10
-1.096401
20
-0.615785
30
1.037683
70
192
0
VERTEX
10
-1.046401
20
-0.566545
30
1.046366
70
192
0
VERTEX
10
-1.096401
20
-0.566545
30
1.046366
70
192
0
VERTEX
10
-0.332100
20
-0.433455
30
0.003634
70
192
0
VERTEX
10
-0.382100
20
-0.433455
30
0.003634
70
192
0
VERTEX
10
-0.332100
20
-0.384214
30
0.012316
70
192
0
VERTEX
10
-0.382100
20
-0.384214
30
0.012316
70
192
0
VERTEX
10
-0.332100
20
-0.615786
30
1.037683
70
192
0
VERTEX
10
-0.382100
20
-0.615786
30
1.037683
70
192
0
VERTEX
10
-0.332100
20
-0.566545
30
1.046365
70
192
0
VERTEX
10
-0.382100
20
-0.566545
30
1.046365
70
192
0
VERTEX
10
0.382101
20
-0.433455
30
0.003634
70
192
0
VERTEX
10
0.332100
20
-0.433455
30
0.003634
70
192
0
VERTEX
10
0.382100
20
-0.384214
30
0.012316
70
192
0
VERTEX
10
0.332101
20
-0.384214
30
0.012316
70
192
0
VERTEX
10
0.382101
20
-0.615785
30
1.037683
70
192
0
VERTEX
10
0.332101
20
-0.615785
30
1.037683
70
192
0
VERTEX
10
0.382101
20
-0.566545
30
1.046366
70
192
0
VERTEX
10
0.332100
20
-0.566545
30
1.046365
70
192
0
VERTEX
10
1.810702
20
-0.433455
30
0.003634
70
192
0
VERTEX
10
1.760702
20
-0.433455
30
0.003634
70
192
0
VERTEX
10
1.810702
20
-0.384214
30
0.012317
70
192
0
VERTEX
10
1.760702
20
-0.384214
30
0.012317
70
192
0
VERTEX
10
1.810702
20
-0.615786
30
1.037683
70
192
0
VERTEX
10
1.760702
20
-0.615786
30
1.037683
70
192
0
VERTEX
10
1.810702
20
-0.566545
30
1.046366
70
192
0
VERTEX
10
1.760702
20
-0.566545
30
1.046366
70
192
0
VERTEX
10
2.375001
20
-0.558482
30
0.712696
70
192
0
VERTEX
10
1.875000
20
-0.558482
30
0.712696
70
192
0
VERTEX
10
2.375001
20
-0.509241
30
0.721379
70
192
0
VERTEX
10
1.875000
20
-0.509241
30
0.721379
70
192
0
VERTEX
10
2.375001
20
-0.593211
30
0.909658
70
192
0
VERTEX
10
1.875000
20
-0.593211
30
0.909658
70
192
0
VERTEX
10
2.375001
20
-0.543971
30
0.918341
70
192
0
VERTEX
10
1.875000
20
-0.543971
30
0.918341
70
192
0
VERTEX
10
0.250000
20
-0.558482
30
0.712697
70
192
0
VERTEX
10
-0.250000
20
-0.558482
30
0.712697
70
192
0
VERTEX
10
0.250000
20
-0.509241
30
0.721379
70
192
0
VERTEX
10
-0.250000
20
-0.509241
30
0.721379
70
192
0
VERTEX
10
0.250000
20
-0.593211
30
0.909658
70
192
0
VERTEX
10
-0.250000
20
-0.593211
30
0.909659
70
192
0
VERTEX
10
0.250000
20
-0.543971
30
0.918341
70
192
0
VERTEX
10
-0.250000
20
-0.543971
30
0.918341
70
192
0
VERTEX
10
-1.175001
20
-0.558482
30
0.712697
70
192
0
VERTEX
10
-1.675001
20
-0.558482
30
0.712697
70
192
0
VERTEX
10
-1.175001
20
-0.509241
30
0.721379
70
192
0
VERTEX
10
-1.675001
20
-0.509241
30
0.721379
70
192
0
VERTEX
10
-1.175001
20
-0.593211
30
0.909658
70
192
0
VERTEX
10
-1.675001
20
-0.593211
30
0.909658
70
192
0
VERTEX
10
-1.175001
20
-0.543971
30
0.918341
70
192
0
VERTEX
10
-1.675001
20
-0.543971
30
0.918341
70
192
0
VERTEX
10
-1.875002
20
-0.558482
30
0.712697
70
192
0
VERTEX
10
-2.375002
20
-0.558482
30
0.712697
70
192
0
VERTEX
10
-1.875002
20
-0.509241
30
0.721380
70
192
0
VERTEX
10
-2.375002
20
-0.509241
30
0.721379
70
192
0
VERTEX
10
-1.875002
20
-0.593211
30
0.909659
70
192
0
VERTEX
10
-2.375002
20
-0.593211
30
0.909659
70
192
0
VERTEX
10
-1.875002
20
-0.543971
30
0.918341
70
192
0
VERTEX
10
-2.375002
20
-0.543971
30
0.918341
70
192
0
VERTEX
10
0.950000
20
-0.558481
30
0.712697
70
192
0
VERTEX
10
0.450000
20
-0.558481
30
0.712697
70
192
0
VERTEX
10
0.950000
20
-0.509241
30
0.721379
70
192
0
VERTEX
10
0.450000
20
-0.509241
30
0.721379
70
192
0
VERTEX
10
0.950000
20
-0.593211
30
0.909658
70
192
0
VERTEX
10
0.450000
20
-0.593211
30
0.909658
70
192
0
VERTEX
10
0.950000
20
-0.543970
30
0.918341
70
192
0
VERTEX
10
0.450000
20
-0.543970
30
0.918341
70
192
0
VERTEX
10
1.650002
20
-0.558481
30
0.712696
70
192
0
VERTEX
10
1.150002
20
-0.558481
30
0.712696
70
192
0
VERTEX
10
1.650002
20
-0.509241
30
0.721379
70
192
0
VERTEX
10
1.150002
20
-0.509241
30
0.721379
70
192
0
VERTEX
10
1.650002
20
-0.593211
30
0.909658
70
192
0
VERTEX
10
1.150002
20
-0.593211
30
0.909658
70
192
0
VERTEX
10
1.650002
20
-0.543971
30
0.918340
70
192
0
VERTEX
10
1.150002
20
-0.543971
30
0.918340
70
192
0
VERTEX
10
0.250000
20
-0.502914
30
0.397557
70
192
0
VERTEX
10
-0.250000
20
-0.502914
30
0.397557
70
192
0
VERTEX
10
0.250000
20
-0.453674
30
0.406240
70
192
0
VERTEX
10
-0.250000
20
-0.453674
30
0.406240
70
192
0
VERTEX
10
0.250000
20
-0.537644
30
0.594519
70
192
0
VERTEX
10
-0.250000
20
-0.537644
30
0.594519
70
192
0
VERTEX
10
0.250000
20
-0.488403
30
0.603202
70
192
0
VERTEX
10
-0.250000
20
-0.488403
30
0.603202
70
192
0
VERTEX
10
-0.475000
20
-0.502914
30
0.397558
70
192
0
VERTEX
10
-0.975001
20
-0.502914
30
0.397558
70
192
0
VERTEX
10
-0.475000
20
-0.453674
30
0.406240
70
192
0
VERTEX
10
-0.975001
20
-0.453674
30
0.406240
70
192
0
VERTEX
10
-0.475000
20
-0.537644
30
0.594519
70
192
0
VERTEX
10
-0.975001
20
-0.537644
30
0.594519
70
192
0
VERTEX
10
-0.475000
20
-0.488403
30
0.603202
70
192
0
VERTEX
10
-0.975001
20
-0.488403
30
0.603202
70
192
0
VERTEX
10
-1.175001
20
-0.502914
30
0.397558
70
192
0
VERTEX
10
-1.675001
20
-0.502914
30
0.397558
70
192
0
VERTEX
10
-1.175001
20
-0.453674
30
0.406240
70
192
0
VERTEX
10
-1.675001
20
-0.453674
30
0.406240
70
192
0
VERTEX
10
-1.175001
20
-0.537644
30
0.594519
70
192
0
VERTEX
10
-1.675001
20
-0.537644
30
0.594519
70
192
0
VERTEX
10
-1.175001
20
-0.488403
30
0.603202
70
192
0
VERTEX
10
-1.675001
20
-0.488403
30
0.603202
70
192
0
VERTEX
10
-1.875001
20
-0.502914
30
0.397557
70
192
0
VERTEX
10
-2.375002
20
-0.502914
30
0.397557
70
192
0
VERTEX
10
-1.875001
20
-0.453673
30
0.406240
70
192
0
VERTEX
10
-2.375002
20
-0.453673
30
0.406240
70
192
0
VERTEX
10
-1.875001
20
-0.537643
30
0.594519
70
192
0
VERTEX
10
-2.375002
20
-0.537643
30
0.594519
70
192
0
VERTEX
10
-1.875001
20
-0.488403
30
0.603201
70
192
0
VERTEX
10
-2.375002
20
-0.488403
30
0.603201
70
192
0
VERTEX
10
1.650002
20
-0.502914
30
0.397558
70
192
0
VERTEX
10
1.150001
20
-0.502914
30
0.397558
70
192
0
VERTEX
10
1.650002
20
-0.453674
30
0.406240
70
192
0
VERTEX
10
1.150001
20
-0.453674
30
0.406240
70
192
0
VERTEX
10
1.650002
20
-0.537644
30
0.594520
70
192
0
VERTEX
10
1.150001
20
-0.537644
30
0.594520
70
192
0
VERTEX
10
1.650002
20
-0.488403
30
0.603202
70
192
0
VERTEX
10
1.150001
20
-0.488403
30
0.603202
70
192
0
VERTEX
10
2.375002
20
-0.502914
30
0.397559
70
192
0
VERTEX
10
1.875001
20
-0.502914
30
0.397558
70
192
0
VERTEX
10
2.375002
20
-0.453673
30
0.406241
70
192
0
VERTEX
10
1.875001
20
-0.453673
30
0.406241
70
192
0
VERTEX
10
2.375002
20
-0.537643
30
0.594520
70
192
0
VERTEX
10
1.875001
20
-0.537643
30
0.594520
70
192
0
VERTEX
10
2.375002
20
-0.488403
30
0.603203
70
192
0
VERTEX
10
1.875001
20
-0.488403
30
0.603203
70
192
0
VERTEX
10
0.250000
20
-0.443874
30
0.062723
70
192
0
VERTEX
10
-0.250000
20
-0.443874
30
0.062723
70
192
0
VERTEX
10
0.250000
20
-0.394633
30
0.071405
70
192
0
VERTEX
10
-0.250000
20
-0.394633
30
0.071405
70
192
0
VERTEX
10
0.250000
20
-0.478603
30
0.259685
70
192
0
VERTEX
10
-0.250000
20
-0.478603
30
0.259685
70
192
0
VERTEX
10
0.250000
20
-0.429363
30
0.268367
70
192
0
VERTEX
10
-0.250000
20
-0.429363
30
0.268367
70
192
0
VERTEX
10
2.375002
20
-0.443874
30
0.062723
70
192
0
VERTEX
10
1.875002
20
-0.443874
30
0.062723
70
192
0
VERTEX
10
2.375002
20
-0.394633
30
0.071405
70
192
0
VERTEX
10
1.875002
20
-0.394633
30
0.071405
70
192
0
VERTEX
10
2.375002
20
-0.478603
30
0.259684
70
192
0
VERTEX
10
1.875002
20
-0.478603
30
0.259684
70
192
0
VERTEX
10
2.375002
20
-0.429363
30
0.268367
70
192
0
VERTEX
10
1.875002
20
-0.429363
30
0.268367
70
192
0
VERTEX
10
1.650002
20
-0.443874
30
0.062723
70
192
0
VERTEX
10
1.150002
20
-0.443874
30
0.062723
70
192
0
VERTEX
10
1.650002
20
-0.394633
30
0.071405
70
192
0
VERTEX
10
1.150002
20
-0.394633
30
0.071405
70
192
0
VERTEX
10
1.650002
20
-0.478603
30
0.259684
70
192
0
VERTEX
10
1.150002
20
-0.478603
30
0.259684
70
192
0
VERTEX
10
1.650002
20
-0.429363
30
0.268367
70
192
0
VERTEX
10
1.150002
20
-0.429363
30
0.268367
70
192
0
VERTEX
10
0.950001
20
-0.443873
30
0.062723
70
192
0
VERTEX
10
0.450001
20
-0.443873
30
0.062723
70
192
0
VERTEX
10
0.950001
20
-0.394633
30
0.071405
70
192
0
VERTEX
10
0.450001
20
-0.394633
30
0.071405
70
192
0
VERTEX
10
0.950001
20
-0.478603
30
0.259685
70
192
0
VERTEX
10
0.450001
20
-0.478603
30
0.259685
70
192
0
VERTEX
10
0.950001
20
-0.429363
30
0.268367
70
192
0
VERTEX
10
0.450001
20
-0.429363
30
0.268367
70
192
0
VERTEX
10
-1.875001
20
-0.443873
30
0.062722
70
192
0
VERTEX
10
-2.375002
20
-0.443873
30
0.062722
70
192
0
VERTEX
10
-1.875001
20
-0.394633
30
0.071405
70
192
0
VERTEX
10
-2.375002
20
-0.394633
30
0.071405
70
192
0
VERTEX
10
-1.875001
20
-0.478603
30
0.259684
70
192
0
VERTEX
10
-2.375002
20
-0.478603
30
0.259684
70
192
0
VERTEX
10
-1.875001
20
-0.429363
30
0.268366
70
192
0
VERTEX
10
-2.375002
20
-0.429363
30
0.268366
70
192
0
VERTEX
10
-1.175001
20
-0.443874
30
0.062723
70
192
0
VERTEX
10
-1.675001
20
-0.443874
30
0.062723
70
192
0
VERTEX
10
-1.175001
20
-0.394633
30
0.071405
70
192
0
VERTEX
10
-1.675001
20
-0.394634
30
0.071405
70
192
0
VERTEX
10
-1.175001
20
-0.478603
30
0.259685
70
192
0
VERTEX
10
-1.675001
20
-0.478604
30
0.259685
70
192
0
VERTEX
10
-1.175001
20
-0.429363
30
0.268367
70
192
0
VERTEX
10
-1.675001
20
-0.429363
30
0.268367
70
192
0
VERTEX
10
-0.475000
20
-0.443873
30
0.062723
70
192
0
VERTEX
10
-0.975001
20
-0.443874
30
0.062723
70
192
0
VERTEX
10
-0.475000
20
-0.394633
30
0.071405
70
192
0
VERTEX
10
-0.975001
20
-0.394633
30
0.071405
70
192
0
VERTEX
10
-0.475000
20
-0.478603
30
0.259685
70
192
0
VERTEX
10
-0.975001
20
-0.478603
30
0.259685
70
192
0
VERTEX
10
-0.475000
20
-0.429363
30
0.268367
70
192
0
VERTEX
10
-0.975001
20
-0.429363
30
0.268367
70
192
0
VERTEX
10
0.0
20
0.0
30
0.0
70
128
71
1
72
2
73
3
0
VERTEX
10
0.0
20
0.0
30
0.0
70
128
71
3
72
2
73
4
0
VERTEX
10
0.0
20
0.0
30
0.0
70
128
71
2
72
1
73
5
0
VERTEX
10
0.0
20
0.0
30
0.0
70
128
71
2
72
5
73
6
0
VERTEX
10
0.0
20
0.0
30
0.0
70
128
71
3
72
4
73
7
0
VERTEX
10
0.0
20
0.0
30
0.0
70
128
71
7
72
4
73
8
0
VERTEX
10
0.0
20
0.0
30
0.0
70
128
71
7
72
8
73
5
0
VERTEX
10
0.0
20
0.0
30
0.0
70
128
71
5
72
8
73
6
0
VERTEX
10
0.0
20
0.0
30
0.0
70
128
71
4
72
2
73
8
0
VERTEX
10
0.0
20
0.0
30
0.0
70
128
71
8
72
2
73
6
0
VERTEX
10
0.0
20
0.0
30
0.0
70
128
71
1
72
3
73
7
0
VERTEX
10
0.0
20
0.0
30
0.0
70
128
71
1
72
7
73
5
0
VERTEX
10
0.0
20
0.0
30
0.0
70
128
71
9
72
10
73
11
0
VERTEX
10
0.0
20
0.0
30
0.0
70
128
71
11
72
10
73
12
0
VERTEX
10
0.0
20
0.0
30
0.0
70
128
71
10
72
9
73
13
0
VERTEX
10
0.0
20
0.0
30
0.0
70
128
71
10
72
13
73
14
0
VERTEX
10
0.0
20
0.0
30
0.0
70
128
71
11
72
12
73
15
0
VERTEX
10
0.0
20
0.0
30
0.0
70
128
71
15
72
12
73
16
0
VERTEX
10
0.0
20
0.0
30
0.0
70
128
71
15
72
16
73
13
0
VERTEX
10
0.0
20
0.0
30
0.0
70
128
71
13
72
16
73
14
0
VERTEX
10
0.0
20
0.0
30
0.0
70
128
71
12
72
10
73
16
0
VERTEX
10
0.0
20
0.0
30
0.0
70
128
71
16
72
10
73
14
0
VERTEX
10
0.0
20
0.0
30
0.0
70
128
71
9
72
11
73
15
0
VERTEX
10
0.0
20
0.0
30
0.0
70
128
71
9
72
15
73
13
0
VERTEX
10
0.0
20
0.0
30
0.0
70
128
71
17
72
18
73
19
0
VERTEX
10
0.0
20
0.0
30
0.0
70
128
71
19
72
18
73
20
0
VERTEX
10
0.0
20
0.0
30
0.0
70
128
71
18
72
17
73
21
0
VERTEX
10
0.0
20
0.0
30
0.0
70
128
71
18
72
21
73
22
0
VERTEX
10
0.0
20
0.0
30
0.0
70
128
71
19
72
20
73
23
0
VERTEX
10
0.0
20
0.0
30
0.0
70
128
71
23
72
20
73
24
0
VERTEX
10
0.0
20
0.0
30
0.0
70
128
71
23
72
24
73
21
0
VERTEX
10
0.0
20
0.0
30
0.0
70
128
71
21
72
24
73
22
0
VERTEX
10
0.0
20
0.0
30
0.0
70
128
71
20
72
18
73
24
0
VERTEX
10
0.0
20
0.0
30
0.0
70
128
71
24
72
18
73
22
0
VERTEX
10
0.0
20
0.0
30
0.0
70
128
71
17
72
19
73
23
0
VERTEX
10
0.0
20
0.0
30
0.0
70
128
71
17
72
23
73
21
0
VERTEX
10
0.0
20
0.0
30
0.0
70
128
71
25
72
26
73
27
0
VERTEX
10
0.0
20
0.0
30
0.0
70
128
71
27
72
26
73
28
0
VERTEX
10
0.0
20
0.0
30
0.0
70
128
71
26
72
25
73
29
0
VERTEX
10
0.0
20
0.0
30
0.0
70
128
71
26
72
29
73
30
0
VERTEX
10
0.0
20
0.0
30
0.0
70
128
71
27
72
28
73
31
0
VERTEX
10
0.0
20
0.0
30
0.0
70
128
71
31
72
28
73
32
0
VERTEX
10
0.0
20
0.0
30
0.0
70
128
71
31
72
32
73
29
0
VERTEX
10
0.0
20
0.0
30
0.0
70
128
71
29
72
32
73
30
0
VERTEX
10
0.0
20
0.0
30
0.0
70
128
71
28
72
26
73
32
0
VERTEX
10
0.0
20
0.0
30
0.0
70
128
71
32
72
26
73
30
0
VERTEX
10
0.0
20
0.0
30
0.0
70
128
71
25
72
27
73
31
0
VERTEX
10
0.0
20
0.0
30
0.0
70
128
71
25
72
31
73
29
0
VERTEX
10
0.0
20
0.0
30
0.0
70
128
71
33
72
34
73
35
0
VERTEX
10
0.0
20
0.0
30
0.0
70
128
71
35
72
34
73
36
0
VERTEX
10
0.0
20
0.0
30
0.0
70
128
71
34
72
33
73
37
0
VERTEX
10
0.0
20
0.0
30
0.0
70
128
71
34
72
37
73
38
0
VERTEX
10
0.0
20
0.0
30
0.0
70
128
71
35
72
36
73
39
0
VERTEX
10
0.0
20
0.0
30
0.0
70
128
71
39
72
36
73
40
0
VERTEX
10
0.0
20
0.0
30
0.0
70
128
71
39
72
40
73
37
0
VERTEX
10
0.0
20
0.0
30
0.0
70
128
71
37
72
40
73
38
0
VERTEX
10
0.0
20
0.0
30
0.0
70
128
71
36
72
34
73
40
0
VERTEX
10
0.0
20
0.0
30
0.0
70
128
71
40
72
34
73
38
0
VERTEX
10
0.0
20
0.0
30
0.0
70
128
71
33
72
35
73
39
0
VERTEX
10
0.0
20
0.0
30
0.0
70
128
71
33
72
39
73
37
0
VERTEX
10
0.0
20
0.0
30
0.0
70
128
71
41
72
42
73
43
0
VERTEX
10
0.0
20
0.0
30
0.0
70
128
71
43
72
42
73
44
0
VERTEX
10
0.0
20
0.0
30
0.0
70
128
71
42
72
41
73
45
0
VERTEX
10
0.0
20
0.0
30
0.0
70
128
71
42
72
45
73
46
0
VERTEX
10
0.0
20
0.0
30
0.0
70
128
71
43
72
44
73
47
0
VERTEX
10
0.0
20
0.0
30
0.0
70
128
71
47
72
44
73
48
0
VERTEX
10
0.0
20
0.0
30
0.0
70
128
71
47
72
48
73
45
0
VERTEX
10
0.0
20
0.0
30
0.0
70
128
71
45
72
48
73
46
0
VERTEX
10
0.0
20
0.0
30
0.0
70
128
71
44
72
42
73
48
0
VERTEX
10
0.0
20
0.0
30
0.0
70
128
71
48
72
42
73
46
0
VERTEX
10
0.0
20
0.0
30
0.0
70
128
71
41
72
43
73
47
0
VERTEX
10
0.0
20
0.0
30
0.0
70
128
71
41
72
47
73
45
0
VERTEX
10
0.0
20
0.0
30
0.0
70
128
71
49
72
50
73
51
0
VERTEX
10
0.0
20
0.0
30
0.0
70
128
71
51
72
50
73
52
0
VERTEX
10
0.0
20
0.0
30
0.0
70
128
71
50
72
49
73
53
0
VERTEX
10
0.0
20
0.0
30
0.0
70
128
71
50
72
53
73
54
0
VERTEX
10
0.0
20
0.0
30
0.0
70
128
71
51
72
52
73
55
0
VERTEX
10
0.0
20
0.0
30
0.0
70
128
71
55
72
52
73
56
0
VERTEX
10
0.0
20
0.0
30
0.0
70
128
71
55
72
56
73
53
0
VERTEX
10
0.0
20
0.0
30
0.0
70
128
71
53
72
56
73
54
0
VERTEX
10
0.0
20
0.0
30
0.0
70
128
71
52
72
50
73
56
0
VERTEX
10
0.0
20
0.0
30
0.0
70
128
71
56
72
50
73
54
0
VERTEX
10
0.0
20
0.0
30
0.0
70
128
71
49
72
51
73
55
0
VERTEX
10
0.0
20
0.0
30
0.0
70
128
71
49
72
55
73
53
0
VERTEX
10
0.0
20
0.0
30
0.0
70
128
71
57
72
58
73
59
0
VERTEX
10
0.0
20
0.0
30
0.0
70
128
71
59
72
58
73
60
0
VERTEX
10
0.0
20
0.0
30
0.0
70
128
71
58
72
57
73
61
0
VERTEX
10
0.0
20
0.0
30
0.0
70
128
71
58
72
61
73
62
0
VERTEX
10
0.0
20
0.0
30
0.0
70
128
71
59
72
60
73
63
0
VERTEX
10
0.0
20
0.0
30
0.0
70
128
71
63
72
60
73
64
0
VERTEX
10
0.0
20
0.0
30
0.0
70
128
71
63
72
64
73
61
0
VERTEX
10
0.0
20
0.0
30
0.0
70
128
71
61
72
64
73
62
0
VERTEX
10
0.0
20
0.0
30
0.0
70
128
71
60
72
58
73
64
0
VERTEX
10
0.0
20
0.0
30
0.0
70
128
71
64
72
58
73
62
0
VERTEX
10
0.0
20
0.0
30
0.0
70
128
71
57
72
59
73
63
0
VERTEX
10
0.0
20
0.0
30
0.0
70
128
71
57
72
63
73
61
0
VERTEX
10
0.0
20
0.0
30
0.0
70
128
71
65
72
66
73
67
0
VERTEX
10
0.0
20
0.0
30
0.0
70
128
71
67
72
66
73
68
0
VERTEX
10
0.0
20
0.0
30
0.0
70
128
71
66
72
65
73
69
0
VERTEX
10
0.0
20
0.0
30
0.0
70
128
71
66
72
69
73
70
0
VERTEX
10
0.0
20
0.0
30
0.0
70
128
71
67
72
68
73
71
0
VERTEX
10
0.0
20
0.0
30
0.0
70
128
71
71
72
68
73
72
0
VERTEX
10
0.0
20
0.0
30
0.0
70
128
71
71
72
72
73
69
0
VERTEX
10
0.0
20
0.0
30
0.0
70
128
71
69
72
72
73
70
0
VERTEX
10
0.0
20
0.0
30
0.0
70
128
71
68
72
66
73
72
0
VERTEX
10
0.0
20
0.0
30
0.0
70
128
71
72
72
66
73
70
0
VERTEX
10
0.0
20
0.0
30
0.0
70
128
71
65
72
67
73
71
0
VERTEX
10
0.0
20
0.0
30
0.0
70
128
71
65
72
71
73
69
0
VERTEX
10
0.0
20
0.0
30
0.0
70
128
71
73
72
74
73
75
0
VERTEX
10
0.0
20
0.0
30
0.0
70
128
71
75
72
74
73
76
0
VERTEX
10
0.0
20
0.0
30
0.0
70
128
71
74
72
73
73
77
0
VERTEX
10
0.0
20
0.0
30
0.0
70
128
71
74
72
77
73
78
0
VERTEX
10
0.0
20
0.0
30
0.0
70
128
71
75
72
76
73
79
0
VERTEX
10
0.0
20
0.0
30
0.0
70
128
71
79
72
76
73
80
0
VERTEX
10
0.0
20
0.0
30
0.0
70
128
71
79
72
80
73
77
0
VERTEX
10
0.0
20
0.0
30
0.0
70
128
71
77
72
80
73
78
0
VERTEX
10
0.0
20
0.0
30
0.0
70
128
71
76
72
74
73
80
0
VERTEX
10
0.0
20
0.0
30
0.0
70
128
71
80
72
74
73
78
0
VERTEX
10
0.0
20
0.0
30
0.0
70
128
71
73
72
75
73
79
0
VERTEX
10
0.0
20
0.0
30
0.0
70
128
71
73
72
79
73
77
0
VERTEX
10
0.0
20
0.0
30
0.0
70
128
71
81
72
82
73
83
0
VERTEX
10
0.0
20
0.0
30
0.0
70
128
71
83
72
82
73
84
0
VERTEX
10
0.0
20
0.0
30
0.0
70
128
71
82
72
81
73
85
0
VERTEX
10
0.0
20
0.0
30
0.0
70
128
71
82
72
85
73
86
0
VERTEX
10
0.0
20
0.0
30
0.0
70
128
71
83
72
84
73
87
0
VERTEX
10
0.0
20
0.0
30
0.0
70
128
71
87
72
84
73
88
0
VERTEX
10
0.0
20
0.0
30
0.0
70
128
71
87
72
88
73
85
0
VERTEX
10
0.0
20
0.0
30
0.0
70
128
71
85
72
88
73
86
0
VERTEX
10
0.0
20
0.0
30
0.0
70
128
71
84
72
82
73
88
0
VERTEX
10
0.0
20
0.0
30
0.0
70
128
71
88
72
82
73
86
0
VERTEX
10
0.0
20
0.0
30
0.0
70
128
71
81
72
83
73
87
0
VERTEX
10
0.0
20
0.0
30
0.0
70
128
71
81
72
87
73
85
0
VERTEX
10
0.0
20
0.0
30
0.0
70
128
71
89
72
90
73
91
0
VERTEX
10
0.0
20
0.0
30
0.0
70
128
71
91
72
90
73
92
0
VERTEX
10
0.0
20
0.0
30
0.0
70
128
71
90
72
89
73
93
0
VERTEX
10
0.0
20
0.0
30
0.0
70
128
71
90
72
93
73
94
0
VERTEX
10
0.0
20
0.0
30
0.0
70
128
71
91
72
92
73
95
0
VERTEX
10
0.0
20
0.0
30
0.0
70
128
71
95
72
92
73
96
0
VERTEX
10
0.0
20
0.0
30
0.0
70
128
71
95
72
96
73
93
0
VERTEX
10
0.0
20
0.0
30
0.0
70
128
71
93
72
96
73
94
0
VERTEX
10
0.0
20
0.0
30
0.0
70
128
71
92
72
90
73
96
0
VERTEX
10
0.0
20
0.0
30
0.0
70
128
71
96
72
90
73
94
0
VERTEX
10
0.0
20
0.0
30
0.0
70
128
71
89
72
91
73
95
0
VERTEX
10
0.0
20
0.0
30
0.0
70
128
71
89
72
95
73
93
0
VERTEX
10
0.0
20
0.0
30
0.0
70
128
71
97
72
98
73
99
0
VERTEX
10
0.0
20
0.0
30
0.0
70
128
71
99
72
98
73
100
0
VERTEX
10
0.0
20
0.0
30
0.0
70
128
71
98
72
97
73
101
0
VERTEX
10
0.0
20
0.0
30
0.0
70
128
71
98
72
101
73
102
0
VERTEX
10
0.0
20
0.0
30
0.0
70
128
71
99
72
100
73
103
0
VERTEX
10
0.0
20
0.0
30
0.0
70
128
71
103
72
100
73
104
0
VERTEX
10
0.0
20
0.0
30
0.0
70
128
71
103
72
104
73
101
0
VERTEX
10
0.0
20
0.0
30
0.0
70
128
71
101
72
104
73
102
0
VERTEX
10
0.0
20
0.0
30
0.0
70
128
71
100
72
98
73
104
0
VERTEX
10
0.0
20
0.0
30
0.0
70
128
71
104
72
98
73
102
0
VERTEX
10
0.0
20
0.0
30
0.0
70
128
71
97
72
99
73
103
0
VERTEX
10
0.0
20
0.0
30
0.0
70
128
71
97
72
103
73
101
0
VERTEX
10
0.0
20
0.0
30
0.0
70
128
71
105
72
106
73
107
0
VERTEX
10
0.0
20
0.0
30
0.0
70
128
71
107
72
106
73
108
0
VERTEX
10
0.0
20
0.0
30
0.0
70
128
71
106
72
105
73
109
0
VERTEX
10
0.0
20
0.0
30
0.0
70
128
71
106
72
109
73
110
0
VERTEX
10
0.0
20
0.0
30
0.0
70
128
71
107
72
108
73
111
0
VERTEX
10
0.0
20
0.0
30
0.0
70
128
71
111
72
108
73
112
0
VERTEX
10
0.0
20
0.0
30
0.0
70
128
71
111
72
112
73
109
0
VERTEX
10
0.0
20
0.0
30
0.0
70
128
71
109
72
112
73
110
0
VERTEX
10
0.0
20
0.0
30
0.0
70
128
71
108
72
106
73
112
0
VERTEX
10
0.0
20
0.0
30
0.0
70
128
71
112
72
106
73
110
0
VERTEX
10
0.0
20
0.0
30
0.0
70
128
71
105
72
107
73
111
0
VERTEX
10
0.0
20
0.0
30
0.0
70
128
71
105
72
111
73
109
0
VERTEX
10
0.0
20
0.0
30
0.0
70
128
71
113
72
114
73
115
0
VERTEX
10
0.0
20
0.0
30
0.0
70
128
71
115
72
114
73
116
0
VERTEX
10
0.0
20
0.0
30
0.0
70
128
71
114
72
113
73
117
0
VERTEX
10
0.0
20
0.0
30
0.0
70
128
71
114
72
117
73
118
0
VERTEX
10
0.0
20
0.0
30
0.0
70
128
71
115
72
116
73
119
0
VERTEX
10
0.0
20
0.0
30
0.0
70
128
71
119
72
116
73
120
0
VERTEX
10
0.0
20
0.0
30
0.0
70
128
71
119
72
120
73
117
0
VERTEX
10
0.0
20
0.0
30
0.0
70
128
71
117
72
120
73
118
0
VERTEX
10
0.0
20
0.0
30
0.0
70
128
71
116
72
114
73
120
0
VERTEX
10
0.0
20
0.0
30
0.0
70
128
71
120
72
114
73
118
0
VERTEX
10
0.0
20
0.0
30
0.0
70
128
71
113
72
115
73
119
0
VERTEX
10
0.0
20
0.0
30
0.0
70
128
71
113
72
119
73
117
0
VERTEX
10
0.0
20
0.0
30
0.0
70
128
71
121
72
122
73
123
0
VERTEX
10
0.0
20
0.0
30
0.0
70
128
71
123
72
122
73
124
0
VERTEX
10
0.0
20
0.0
30
0.0
70
128
71
122
72
121
73
125
0
VERTEX
10
0.0
20
0.0
30
0.0
70
128
71
122
72
125
73
126
0
VERTEX
10
0.0
20
0.0
30
0.0
70
128
71
123
72
124
73
127
0
VERTEX
10
0.0
20
0.0
30
0.0
70
128
71
127
72
124
73
128
0
VERTEX
10
0.0
20
0.0
30
0.0
70
128
71
127
72
128
73
125
0
VERTEX
10
0.0
20
0.0
30
0.0
70
128
71
125
72
128
73
126
0
VERTEX
10
0.0
20
0.0
30
0.0
70
128
71
124
72
122
73
128
0
VERTEX
10
0.0
20
0.0
30
0.0
70
128
71
128
72
122
73
126
0
VERTEX
10
0.0
20
0.0
30
0.0
70
128
71
121
72
123
73
127
0
VERTEX
10
0.0
20
0.0
30
0.0
70
128
71
121
72
127
73
125
0
VERTEX
10
0.0
20
0.0
30
0.0
70
128
71
129
72
130
73
131
0
VERTEX
10
0.0
20
0.0
30
0.0
70
128
71
131
72
130
73
132
0
VERTEX
10
0.0
20
0.0
30
0.0
70
128
71
130
72
129
73
133
0
VERTEX
10
0.0
20
0.0
30
0.0
70
128
71
130
72
133
73
134
0
VERTEX
10
0.0
20
0.0
30
0.0
70
128
71
131
72
132
73
135
0
VERTEX
10
0.0
20
0.0
30
0.0
70
128
71
135
72
132
73
136
0
VERTEX
10
0.0
20
0.0
30
0.0
70
128
71
135
72
136
73
133
0
VERTEX
10
0.0
20
0.0
30
0.0
70
128
71
133
72
136
73
134
0
VERTEX
10
0.0
20
0.0
30
0.0
70
128
71
132
72
130
73
136
0
VERTEX
10
0.0
20
0.0
30
0.0
70
128
71
136
72
130
73
134
0
VERTEX
10
0.0
20
0.0
30
0.0
70
128
71
129
72
131
73
135
0
VERTEX
10
0.0
20
0.0
30
0.0
70
128
71
129
72
135
73
133
0
VERTEX
10
0.0
20
0.0
30
0.0
70
128
71
137
72
138
73
139
0
VERTEX
10
0.0
20
0.0
30
0.0
70
128
71
139
72
138
73
140
0
VERTEX
10
0.0
20
0.0
30
0.0
70
128
71
138
72
137
73
141
0
VERTEX
10
0.0
20
0.0
30
0.0
70
128
71
138
72
141
73
142
0
VERTEX
10
0.0
20
0.0
30
0.0
70
128
71
139
72
140
73
143
0
VERTEX
10
0.0
20
0.0
30
0.0
70
128
71
143
72
140
73
144
0
VERTEX
10
0.0
20
0.0
30
0.0
70
128
71
143
72
144
73
141
0
VERTEX
10
0.0
20
0.0
30
0.0
70
128
71
141
72
144
73
142
0
VERTEX
10
0.0
20
0.0
30
0.0
70
128
71
140
72
138
73
144
0
VERTEX
10
0.0
20
0.0
30
0.0
70
128
71
144
72
138
73
142
0
VERTEX
10
0.0
20
0.0
30
0.0
70
128
71
137
72
139
73
143
0
VERTEX
10
0.0
20
0.0
30
0.0
70
128
71
137
72
143
73
141
0
VERTEX
10
0.0
20
0.0
30
0.0
70
128
71
145
72
146
73
147
0
VERTEX
10
0.0
20
0.0
30
0.0
70
128
71
147
72
146
73
148
0
VERTEX
10
0.0
20
0.0
30
0.0
70
128
71
146
72
145
73
149
0
VERTEX
10
0.0
20
0.0
30
0.0
70
128
71
146
72
149
73
150
0
VERTEX
10
0.0
20
0.0
30
0.0
70
128
71
147
72
148
73
151
0
VERTEX
10
0.0
20
0.0
30
0.0
70
128
71
151
72
148
73
152
0
VERTEX
10
0.0
20
0.0
30
0.0
70
128
71
151
72
152
73
149
0
VERTEX
10
0.0
20
0.0
30
0.0
70
128
71
149
72
152
73
150
0
VERTEX
10
0.0
20
0.0
30
0.0
70
128
71
148
72
146
73
152
0
VERTEX
10
0.0
20
0.0
30
0.0
70
128
71
152
72
146
73
150
0
VERTEX
10
0.0
20
0.0
30
0.0
70
128
71
145
72
147
73
151
0
VERTEX
10
0.0
20
0.0
30
0.0
70
128
71
145
72
151
73
149
0
VERTEX
10
0.0
20
0.0
30
0.0
70
128
71
153
72
154
73
155
0
VERTEX
10
0.0
20
0.0
30
0.0
70
128
71
155
72
154
73
156
0
VERTEX
10
0.0
20
0.0
30
0.0
70
128
71
154
72
153
73
157
0
VERTEX
10
0.0
20
0.0
30
0.0
70
128
71
154
72
157
73
158
0
VERTEX
10
0.0
20
0.0
30
0.0
70
128
71
155
72
156
73
159
0
VERTEX
10
0.0
20
0.0
30
0.0
70
128
71
159
72
156
73
160
0
VERTEX
10
0.0
20
0.0
30
0.0
70
128
71
159
72
160
73
157
0
VERTEX
10
0.0
20
0.0
30
0.0
70
128
71
157
72
160
73
158
0
VERTEX
10
0.0
20
0.0
30
0.0
70
128
71
156
72
154
73
160
0
VERTEX
10
0.0
20
0.0
30
0.0
70
128
71
160
72
154
73
158
0
VERTEX
10
0.0
20
0.0
30
0.0
70
128
71
153
72
155
73
159
0
VERTEX
10
0.0
20
0.0
30
0.0
70
128
71
153
72
159
73
157
0
VERTEX
10
0.0
20
0.0
30
0.0
70
128
71
161
72
162
73
163
0
VERTEX
10
0.0
20
0.0
30
0.0
70
128
71
163
72
162
73
164
0
VERTEX
10
0.0
20
0.0
30
0.0
70
128
71
162
72
161
73
165
0
VERTEX
10
0.0
20
0.0
30
0.0
70
128
71
162
72
165
73
166
0
VERTEX
10
0.0
20
0.0
30
0.0
70
128
71
163
72
164
73
167
0
VERTEX
10
0.0
20
0.0
30
0.0
70
128
71
167
72
164
73
168
0
VERTEX
10
0.0
20
0.0
30
0.0
70
128
71
167
72
168
73
165
0
VERTEX
10
0.0
20
0.0
30
0.0
70
128
71
165
72
168
73
166
0
VERTEX
10
0.0
20
0.0
30
0.0
70
128
71
164
72
162
73
168
0
VERTEX
10
0.0
20
0.0
30
0.0
70
128
71
168
72
162
73
166
0
VERTEX
10
0.0
20
0.0
30
0.0
70
128
71
161
72
163
73
167
0
VERTEX
10
0.0
20
0.0
30
0.0
70
128
71
161
72
167
73
165
0
VERTEX
10
0.0
20
0.0
30
0.0
70
128
71
169
72
170
73
171
0
VERTEX
10
0.0
20
0.0
30
0.0
70
128
71
171
72
170
73
172
0
VERTEX
10
0.0
20
0.0
30
0.0
70
128
71
170
72
169
73
173
0
VERTEX
10
0.0
20
0.0
30
0.0
70
128
71
170
72
173
73
174
0
VERTEX
10
0.0
20
0.0
30
0.0
70
128
71
171
72
172
73
175
0
VERTEX
10
0.0
20
0.0
30
0.0
70
128
71
175
72
172
73
176
0
VERTEX
10
0.0
20
0.0
30
0.0
70
128
71
175
72
176
73
173
0
VERTEX
10
0.0
20
0.0
30
0.0
70
128
71
173
72
176
73
174
0
VERTEX
10
0.0
20
0.0
30
0.0
70
128
71
172
72
170
73
176
0
VERTEX
10
0.0
20
0.0
30
0.0
70
128
71
176
72
170
73
174
0
VERTEX
10
0.0
20
0.0
30
0.0
70
128
71
169
72
171
73
175
0
VERTEX
10
0.0
20
0.0
30
0.0
70
128
71
169
72
175
73
173
0
VERTEX
10
0.0
20
0.0
30
0.0
70
128
71
177
72
178
73
179
0
VERTEX
10
0.0
20
0.0
30
0.0
70
128
71
179
72
178
73
180
0
VERTEX
10
0.0
20
0.0
30
0.0
70
128
71
178
72
177
73
181
0
VERTEX
10
0.0
20
0.0
30
0.0
70
128
71
178
72
181
73
182
0
VERTEX
10
0.0
20
0.0
30
0.0
70
128
71
179
72
180
73
183
0
VERTEX
10
0.0
20
0.0
30
0.0
70
128
71
183
72
180
73
184
0
VERTEX
10
0.0
20
0.0
30
0.0
70
128
71
183
72
184
73
181
0
VERTEX
10
0.0
20
0.0
30
0.0
70
128
71
181
72
184
73
182
0
VERTEX
10
0.0
20
0.0
30
0.0
70
128
71
180
72
178
73
184
0
VERTEX
10
0.0
20
0.0
30
0.0
70
128
71
184
72
178
73
182
0
VERTEX
10
0.0
20
0.0
30
0.0
70
128
71
177
72
179
73
183
0
VERTEX
10
0.0
20
0.0
30
0.0
70
128
71
177
72
183
73
181
0
VERTEX
10
0.0
20
0.0
30
0.0
70
128
71
185
72
186
73
187
0
VERTEX
10
0.0
20
0.0
30
0.0
70
128
71
187
72
186
73
188
0
VERTEX
10
0.0
20
0.0
30
0.0
70
128
71
186
72
185
73
189
0
VERTEX
10
0.0
20
0.0
30
0.0
70
128
71
186
72
189
73
190
0
VERTEX
10
0.0
20
0.0
30
0.0
70
128
71
187
72
188
73
191
0
VERTEX
10
0.0
20
0.0
30
0.0
70
128
71
191
72
188
73
192
0
VERTEX
10
0.0
20
0.0
30
0.0
70
128
71
191
72
192
73
189
0
VERTEX
10
0.0
20
0.0
30
0.0
70
128
71
189
72
192
73
190
0
VERTEX
10
0.0
20
0.0
30
0.0
70
128
71
188
72
186
73
192
0
VERTEX
10
0.0
20
0.0
30
0.0
70
128
71
192
72
186
73
190
0
VERTEX
10
0.0
20
0.0
30
0.0
70
128
71
185
72
187
73
191
0
VERTEX
10
0.0
20
0.0
30
0.0
70
128
71
185
72
191
73
189
0
VERTEX
10
0.0
20
0.0
30
0.0
70
128
71
193
72
194
73
195
0
VERTEX
10
0.0
20
0.0
30
0.0
70
128
71
195
72
194
73
196
0
VERTEX
10
0.0
20
0.0
30
0.0
70
128
71
194
72
193
73
197
0
VERTEX
10
0.0
20
0.0
30
0.0
70
128
71
194
72
197
73
198
0
VERTEX
10
0.0
20
0.0
30
0.0
70
128
71
195
72
196
73
199
0
VERTEX
10
0.0
20
0.0
30
0.0
70
128
71
199
72
196
73
200
0
VERTEX
10
0.0
20
0.0
30
0.0
70
128
71
199
72
200
73
197
0
VERTEX
10
0.0
20
0.0
30
0.0
70
128
71
197
72
200
73
198
0
VERTEX
10
0.0
20
0.0
30
0.0
70
128
71
196
72
194
73
200
0
VERTEX
10
0.0
20
0.0
30
0.0
70
128
71
200
72
194
73
198
0
VERTEX
10
0.0
20
0.0
30
0.0
70
128
71
193
72
195
73
199
0
VERTEX
10
0.0
20
0.0
30
0.0
70
128
71
193
72
199
73
197
0
VERTEX
10
0.0
20
0.0
30
0.0
70
128
71
201
72
202
73
203
0
VERTEX
10
0.0
20
0.0
30
0.0
70
128
71
203
72
202
73
204
0
VERTEX
10
0.0
20
0.0
30
0.0
70
128
71
202
72
201
73
205
0
VERTEX
10
0.0
20
0.0
30
0.0
70
128
71
202
72
205
73
206
0
VERTEX
10
0.0
20
0.0
30
0.0
70
128
71
203
72
204
73
207
0
VERTEX
10
0.0
20
0.0
30
0.0
70
128
71
207
72
204
73
208
0
VERTEX
10
0.0
20
0.0
30
0.0
70
128
71
207
72
208
73
205
0
VERTEX
10
0.0
20
0.0
30
0.0
70
128
71
205
72
208
73
206
0
VERTEX
10
0.0
20
0.0
30
0.0
70
128
71
204
72
202
73
208
0
VERTEX
10
0.0
20
0.0
30
0.0
70
128
71
208
72
202
73
206
0
VERTEX
10
0.0
20
0.0
30
0.0
70
128
71
201
72
203
73
207
0
VERTEX
10
0.0
20
0.0
30
0.0
70
128
71
201
72
207
73
205
0
VERTEX
10
0.0
20
0.0
30
0.0
70
128
71
209
72
210
73
211
0
VERTEX
10
0.0
20
0.0
30
0.0
70
128
71
211
72
210
73
212
0
VERTEX
10
0.0
20
0.0
30
0.0
70
128
71
210
72
209
73
213
0
VERTEX
10
0.0
20
0.0
30
0.0
70
128
71
210
72
213
73
214
0
VERTEX
10
0.0
20
0.0
30
0.0
70
128
71
211
72
212
73
215
0
VERTEX
10
0.0
20
0.0
30
0.0
70
128
71
215
72
212
73
216
0
VERTEX
10
0.0
20
0.0
30
0.0
70
128
71
215
72
216
73
213
0
VERTEX
10
0.0
20
0.0
30
0.0
70
128
71
213
72
216
73
214
0
VERTEX
10
0.0
20
0.0
30
0.0
70
128
71
212
72
210
73
216
0
VERTEX
10
0.0
20
0.0
30
0.0
70
128
71
216
72
210
73
214
0
VERTEX
10
0.0
20
0.0
30
0.0
70
128
71
209
72
211
73
215
0
VERTEX
10
0.0
20
0.0
30
0.0
70
128
71
209
72
215
73
213
0
VERTEX
10
0.0
20
0.0
30
0.0
70
128
71
217
72
218
73
219
0
VERTEX
10
0.0
20
0.0
30
0.0
70
128
71
219
72
218
73
220
0
VERTEX
10
0.0
20
0.0
30
0.0
70
128
71
218
72
217
73
221
0
VERTEX
10
0.0
20
0.0
30
0.0
70
128
71
218
72
221
73
222
0
VERTEX
10
0.0
20
0.0
30
0.0
70
128
71
219
72
220
73
223
0
VERTEX
10
0.0
20
0.0
30
0.0
70
128
71
223
72
220
73
224
0
VERTEX
10
0.0
20
0.0
30
0.0
70
128
71
223
72
224
73
221
0
VERTEX
10
0.0
20
0.0
30
0.0
70
128
71
221
72
224
73
222
0
VERTEX
10
0.0
20
0.0
30
0.0
70
128
71
220
72
218
73
224
0
VERTEX
10
0.0
20
0.0
30
0.0
70
128
71
224
72
218
73
222
0
VERTEX
10
0.0
20
0.0
30
0.0
70
128
71
217
72
219
73
223
0
VERTEX
10
0.0
20
0.0
30
0.0
70
128
71
217
72
223
73
221
0
VERTEX
10
0.0
20
0.0
30
0.0
70
128
71
225
72
226
73
227
0
VERTEX
10
0.0
20
0.0
30
0.0
70
128
71
227
72
226
73
228
0
VERTEX
10
0.0
20
0.0
30
0.0
70
128
71
226
72
225
73
229
0
VERTEX
10
0.0
20
0.0
30
0.0
70
128
71
226
72
229
73
230
0
VERTEX
10
0.0
20
0.0
30
0.0
70
128
71
227
72
228
73
231
0
VERTEX
10
0.0
20
0.0
30
0.0
70
128
71
231
72
228
73
232
0
VERTEX
10
0.0
20
0.0
30
0.0
70
128
71
231
72
232
73
229
0
VERTEX
10
0.0
20
0.0
30
0.0
70
128
71
229
72
232
73
230
0
VERTEX
10
0.0
20
0.0
30
0.0
70
128
71
228
72
226
73
232
0
VERTEX
10
0.0
20
0.0
30
0.0
70
128
71
232
72
226
73
230
0
VERTEX
10
0.0
20
0.0
30
0.0
70
128
71
225
72
227
73
231
0
VERTEX
10
0.0
20
0.0
30
0.0
70
128
71
225
72
231
73
229
0
VERTEX
10
0.0
20
0.0
30
0.0
70
128
71
233
72
234
73
235
0
VERTEX
10
0.0
20
0.0
30
0.0
70
128
71
235
72
234
73
236
0
VERTEX
10
0.0
20
0.0
30
0.0
70
128
71
234
72
233
73
237
0
VERTEX
10
0.0
20
0.0
30
0.0
70
128
71
234
72
237
73
238
0
VERTEX
10
0.0
20
0.0
30
0.0
70
128
71
235
72
236
73
239
0
VERTEX
10
0.0
20
0.0
30
0.0
70
128
71
239
72
236
73
240
0
VERTEX
10
0.0
20
0.0
30
0.0
70
128
71
239
72
240
73
237
0
VERTEX
10
0.0
20
0.0
30
0.0
70
128
71
237
72
240
73
238
0
VERTEX
10
0.0
20
0.0
30
0.0
70
128
71
236
72
234
73
240
0
VERTEX
10
0.0
20
0.0
30
0.0
70
128
71
240
72
234
73
238
0
VERTEX
10
0.0
20
0.0
30
0.0
70
128
71
233
72
235
73
239
0
VERTEX
10
0.0
20
0.0
30
0.0
70
128
71
233
72
239
73
237
0
VERTEX
10
0.0
20
0.0
30
0.0
70
128
71
241
72
242
73
243
0
VERTEX
10
0.0
20
0.0
30
0.0
70
128
71
243
72
242
73
244
0
VERTEX
10
0.0
20
0.0
30
0.0
70
128
71
242
72
241
73
245
0
VERTEX
10
0.0
20
0.0
30
0.0
70
128
71
242
72
245
73
246
0
VERTEX
10
0.0
20
0.0
30
0.0
70
128
71
243
72
244
73
247
0
VERTEX
10
0.0
20
0.0
30
0.0
70
128
71
247
72
244
73
248
0
VERTEX
10
0.0
20
0.0
30
0.0
70
128
71
247
72
248
73
245
0
VERTEX
10
0.0
20
0.0
30
0.0
70
128
71
245
72
248
73
246
0
VERTEX
10
0.0
20
0.0
30
0.0
70
128
71
244
72
242
73
248
0
VERTEX
10
0.0
20
0.0
30
0.0
70
128
71
248
72
242
73
246
0
VERTEX
10
0.0
20
0.0
30
0.0
70
128
71
241
72
243
73
247
0
VERTEX
10
0.0
20
0.0
30
0.0
70
128
71
241
72
247
73
245
0
SEQEND
0
ENDBLK
0
BLOCK
2
Wall3
70
64
10
0.0
20
0.0
30
0.0
3
Wall3
0
POLYLINE
66
1
70
64
0
VERTEX
10
1.096400
20
0.339972
30
0.024359
70
192
0
VERTEX
10
1.046400
20
0.339972
30
0.024360
70
192
0
VERTEX
10
1.096400
20
0.388269
30
0.011419
70
192
0
VERTEX
10
1.046400
20
0.388269
30
0.011419
70
192
0
VERTEX
10
1.096400
20
0.611732
30
1.038582
70
192
0
VERTEX
10
1.046400
20
0.611732
30
1.038582
70
192
0
VERTEX
10
1.096400
20
0.660028
30
1.025641
70
192
0
VERTEX
10
1.046400
20
0.660028
30
1.025641
70
192
0
VERTEX
10
2.500001
20
0.339972
30
0.024359
70
192
0
VERTEX
10
-2.500001
20
0.339972
30
0.024359
70
192
0
VERTEX
10
2.500001
20
0.388268
30
0.011418
70
192
0
VERTEX
10
-2.500001
20
0.388268
30
0.011418
70
192
0
VERTEX
10
2.500001
20
0.352913
30
0.072656
70
192
0
VERTEX
10
-2.500001
20
0.352913
30
0.072656
70
192
0
VERTEX
10
2.500001
20
0.401209
30
0.059715
70
192
0
VERTEX
10
-2.500000
20
0.401209
30
0.059715
70
192
0
VERTEX
10
2.525000
20
0.339972
30
0.024360
70
192
0
VERTEX
10
2.475000
20
0.339972
30
0.024360
70
192
0
VERTEX
10
2.525000
20
0.388268
30
0.011419
70
192
0
VERTEX
10
2.475000
20
0.388268
30
0.011419
70
192
0
VERTEX
10
2.525000
20
0.611732
30
1.038582
70
192
0
VERTEX
10
2.475000
20
0.611732
30
1.038582
70
192
0
VERTEX
10
2.525000
20
0.660028
30
1.025641
70
192
0
VERTEX
10
2.475000
20
0.660028
30
1.025641
70
192
0
VERTEX
10
2.500001
20
0.425382
30
0.343115
70
192
0
VERTEX
10
-2.500000
20
0.425382
30
0.343115
70
192
0
VERTEX
10
2.500001
20
0.473678
30
0.330174
70
192
0
VERTEX
10
-2.500001
20
0.473678
30
0.330174
70
192
0
VERTEX
10
2.500001
20
0.438323
30
0.391411
70
192
0
VERTEX
10
-2.500001
20
0.438323
30
0.391411
70
192
0
VERTEX
10
2.500001
20
0.486619
30
0.378470
70
192
0
VERTEX
10
-2.500001
20
0.486619
30
0.378471
70
192
0
VERTEX
10
2.500001
20
0.510792
30
0.661871
70
192
0
VERTEX
10
-2.500001
20
0.510792
30
0.661871
70
192
0
VERTEX
10
2.500001
20
0.559089
30
0.648930
70
192
0
VERTEX
10
-2.500001
20
0.559089
30
0.648930
70
192
0
VERTEX
10
2.500001
20
0.523733
30
0.710167
70
192
0
VERTEX
10
-2.500001
20
0.523733
30
0.710167
70
192
0
VERTEX
10
2.500000
20
0.572030
30
0.697226
70
192
0
VERTEX
10
-2.500001
20
0.572030
30
0.697226
70
192
0
VERTEX
10
2.500001
20
0.598791
30
0.990286
70
192
0
VERTEX
10
-2.500000
20
0.598791
30
0.990285
70
192
0
VERTEX
10
2.500000
20
0.647087
30
0.977345
70
192
0
VERTEX
10
-2.500000
20
0.647087
30
0.977345
70
192
0
VERTEX
10
2.500000
20
0.611732
30
1.038582
70
192
0
VERTEX
10
-2.500001
20
0.611732
30
1.038582
70
192
0
VERTEX
10
2.500001
20
0.660028
30
1.025641
70
192
0
VERTEX
10
-2.500001
20
0.660028
30
1.025641
70
192
0
VERTEX
10
-2.450001
20
0.339972
30
0.024359
70
192
0
VERTEX
10
-2.500000
20
0.339972
30
0.024360
70
192
0
VERTEX
10
-2.450001
20
0.388268
30
0.011419
70
192
0
VERTEX
10
-2.500000
20
0.388268
30
0.011419
70
192
0
VERTEX
10
-2.450001
20
0.611732
30
1.038582
70
192
0
VERTEX
10
-2.500000
20
0.611732
30
1.038582
70
192
0
VERTEX
10
-2.450001
20
0.660028
30
1.025641
70
192
0
VERTEX
10
-2.500001
20
0.660028
30
1.025641
70
192
0
VERTEX
10
-1.760700
20
0.339972
30
0.024360
70
192
0
VERTEX
10
-1.810700
20
0.339972
30
0.024360
70
192
0
VERTEX
10
-1.760700
20
0.388268
30
0.011419
70
192
0
VERTEX
10
-1.810700
20
0.388268
30
0.011419
70
192
0
VERTEX
10
-1.760700
20
0.611732
30
1.038582
70
192
0
VERTEX
10
-1.810700
20
0.611732
30
1.038582
70
192
0
VERTEX
10
-1.760700
20
0.660028
30
1.025641
70
192
0
VERTEX
10
-1.810700
20
0.660028
30
1.025641
70
192
0
VERTEX
10
-1.046400
20
0.339972
30
0.024359
70
192
0
VERTEX
10
-1.096400
20
0.339972
30
0.024359
70
192
0
VERTEX
10
-1.046400
20
0.388268
30
0.011418
70
192
0
VERTEX
10
-1.096400
20
0.388268
30
0.011418
70
192
0
VERTEX
10
-1.046400
20
0.611732
30
1.038582
70
192
0
VERTEX
10
-1.096400
20
0.611732
30
1.038582
70
192
0
VERTEX
10
-1.046400
20
0.660028
30
1.025641
70
192
0
VERTEX
10
-1.096400
20
0.660028
30
1.025641
70
192
0
VERTEX
10
-0.332100
20
0.339972
30
0.024359
70
192
0
VERTEX
10
-0.382100
20
0.339972
30
0.024359
70
192
0
VERTEX
10
-0.332100
20
0.388268
30
0.011418
70
192
0
VERTEX
10
-0.382100
20
0.388268
30
0.011418
70
192
0
VERTEX
10
-0.332100
20
0.611732
30
1.038582
70
192
0
VERTEX
10
-0.382100
20
0.611732
30
1.038581
70
192
0
VERTEX
10
-0.332100
20
0.660028
30
1.025641
70
192
0
VERTEX
10
-0.382100
20
0.660028
30
1.025640
70
192
0
VERTEX
10
0.382100
20
0.339972
30
0.024359
70
192
0
VERTEX
10
0.332100
20
0.339972
30
0.024359
70
192
0
VERTEX
10
0.382100
20
0.388268
30
0.011418
70
192
0
VERTEX
10
0.332100
20
0.388268
30
0.011418
70
192
0
VERTEX
10
0.382100
20
0.611732
30
1.038582
70
192
0
VERTEX
10
0.332100
20
0.611732
30
1.038582
70
192
0
VERTEX
10
0.382100
20
0.660028
30
1.025641
70
192
0
VERTEX
10
0.332100
20
0.660028
30
1.025641
70
192
0
VERTEX
10
1.810701
20
0.339972
30
0.024359
70
192
0
VERTEX
10
1.760701
20
0.339972
30
0.024359
70
192
0
VERTEX
10
1.810700
20
0.388268
30
0.011418
70
192
0
VERTEX
10
1.760700
20
0.388268
30
0.011419
70
192
0
VERTEX
10
1.810700
20
0.611732
30
1.038582
70
192
0
VERTEX
10
1.760701
20
0.611732
30
1.038582
70
192
0
VERTEX
10
1.810701
20
0.660028
30
1.025641
70
192
0
VERTEX
10
1.760701
20
0.660028
30
1.025641
70
192
0
VERTEX
10
0.250000
20
0.526321
30
0.719827
70
192
0
VERTEX
10
-0.250000
20
0.526321
30
0.719827
70
192
0
VERTEX
10
0.250000
20
0.574618
30
0.706886
70
192
0
VERTEX
10
-0.250000
20
0.574618
30
0.706886
70
192
0
VERTEX
10
0.250000
20
0.578085
30
0.913012
70
192
0
VERTEX
10
-0.250000
20
0.578085
30
0.913012
70
192
0
VERTEX
10
0.250000
20
0.626381
30
0.900071
70
192
0
VERTEX
10
-0.250000
20
0.626381
30
0.900071
70
192
0
VERTEX
10
2.375000
20
0.526321
30
0.719826
70
192
0
VERTEX
10
1.875000
20
0.526321
30
0.719826
70
192
0
VERTEX
10
2.375000
20
0.574617
30
0.706885
70
192
0
VERTEX
10
1.875000
20
0.574617
30
0.706885
70
192
0
VERTEX
10
2.375000
20
0.578085
30
0.913011
70
192
0
VERTEX
10
1.875000
20
0.578085
30
0.913011
70
192
0
VERTEX
10
2.375000
20
0.626381
30
0.900070
70
192
0
VERTEX
10
1.875000
20
0.626381
30
0.900070
70
192
0
VERTEX
10
1.650001
20
0.526321
30
0.719826
70
192
0
VERTEX
10
1.150001
20
0.526321
30
0.719826
70
192
0
VERTEX
10
1.650001
20
0.574618
30
0.706885
70
192
0
VERTEX
10
1.150001
20
0.574618
30
0.706885
70
192
0
VERTEX
10
1.650001
20
0.578085
30
0.913011
70
192
0
VERTEX
10
1.150001
20
0.578085
30
0.913011
70
192
0
VERTEX
10
1.650001
20
0.626381
30
0.900070
70
192
0
VERTEX
10
1.150001
20
0.626381
30
0.900070
70
192
0
VERTEX
10
0.950000
20
0.526322
30
0.719826
70
192
0
VERTEX
10
0.450000
20
0.526322
30
0.719826
70
192
0
VERTEX
10
0.950000
20
0.574618
30
0.706885
70
192
0
VERTEX
10
0.450000
20
0.574618
30
0.706885
70
192
0
VERTEX
10
0.950000
20
0.578085
30
0.913011
70
192
0
VERTEX
10
0.450000
20
0.578085
30
0.913011
70
192
0
VERTEX
10
0.950000
20
0.626382
30
0.900070
70
192
0
VERTEX
10
0.450000
20
0.626382
30
0.900070
70
192
0
VERTEX
10
-1.875000
20
0.526322
30
0.719826
70
192
0
VERTEX
10
-2.375000
20
0.526322
30
0.719826
70
192
0
VERTEX
10
-1.875000
20
0.574618
30
0.706885
70
192
0
VERTEX
10
-2.375000
20
0.574618
30
0.706885
70
192
0
VERTEX
10
-1.875000
20
0.578085
30
0.913011
70
192
0
VERTEX
10
-2.375000
20
0.578086
30
0.913011
70
192
0
VERTEX
10
-1.875000
20
0.626382
30
0.900070
70
192
0
VERTEX
10
-2.375000
20
0.626382
30
0.900070
70
192
0
VERTEX
10
-1.175000
20
0.526322
30
0.719826
70
192
0
VERTEX
10
-1.675000
20
0.526321
30
0.719826
70
192
0
VERTEX
10
-1.175000
20
0.574618
30
0.706885
70
192
0
VERTEX
10
-1.675000
20
0.574618
30
0.706885
70
192
0
VERTEX
10
-1.175000
20
0.578085
30
0.913011
70
192
0
VERTEX
10
-1.675000
20
0.578085
30
0.913011
70
192
0
VERTEX
10
-1.175000
20
0.626382
30
0.900071
70
192
0
VERTEX
10
-1.675000
20
0.626382
30
0.900071
70
192
0
VERTEX
10
-0.475000
20
0.526321
30
0.719826
70
192
0
VERTEX
10
-0.975000
20
0.526321
30
0.719826
70
192
0
VERTEX
10
-0.475000
20
0.574618
30
0.706885
70
192
0
VERTEX
10
-0.975000
20
0.574618
30
0.706885
70
192
0
VERTEX
10
-0.475000
20
0.578085
30
0.913011
70
192
0
VERTEX
10
-0.975000
20
0.578085
30
0.913012
70
192
0
VERTEX
10
-0.475000
20
0.626381
30
0.900071
70
192
0
VERTEX
10
-0.975000
20
0.626381
30
0.900071
70
192
0
VERTEX
10
0.250000
20
0.443499
30
0.410730
70
192
0
VERTEX
10
-0.250000
20
0.443499
30
0.410729
70
192
0
VERTEX
10
0.250000
20
0.491796
30
0.397789
70
192
0
VERTEX
10
-0.250000
20
0.491796
30
0.397789
70
192
0
VERTEX
10
0.250000
20
0.495263
30
0.603915
70
192
0
VERTEX
10
-0.250000
20
0.495263
30
0.603915
70
192
0
VERTEX
10
0.250000
20
0.543559
30
0.590974
70
192
0
VERTEX
10
-0.250000
20
0.543559
30
0.590974
70
192
0
VERTEX
10
1.650000
20
0.443500
30
0.410730
70
192
0
VERTEX
10
1.150000
20
0.443500
30
0.410730
70
192
0
VERTEX
10
1.650000
20
0.491796
30
0.397789
70
192
0
VERTEX
10
1.150000
20
0.491796
30
0.397789
70
192
0
VERTEX
10
1.650000
20
0.495264
30
0.603915
70
192
0
VERTEX
10
1.150000
20
0.495264
30
0.603915
70
192
0
VERTEX
10
1.650000
20
0.543560
30
0.590975
70
192
0
VERTEX
10
1.150000
20
0.543560
30
0.590975
70
192
0
VERTEX
10
-0.475000
20
0.443499
30
0.410730
70
192
0
VERTEX
10
-0.975000
20
0.443499
30
0.410730
70
192
0
VERTEX
10
-0.475000
20
0.491795
30
0.397789
70
192
0
VERTEX
10
-0.975000
20
0.491795
30
0.397789
70
192
0
VERTEX
10
-0.475000
20
0.495263
30
0.603915
70
192
0
VERTEX
10
-0.975000
20
0.495263
30
0.603915
70
192
0
VERTEX
10
-0.475000
20
0.543559
30
0.590974
70
192
0
VERTEX
10
-0.975000
20
0.543559
30
0.590974
70
192
0
VERTEX
10
-1.174999
20
0.443499
30
0.410730
70
192
0
VERTEX
10
-1.674999
20
0.443499
30
0.410730
70
192
0
VERTEX
10
-1.174999
20
0.491795
30
0.397789
70
192
0
VERTEX
10
-1.674999
20
0.491795
30
0.397789
70
192
0
VERTEX
10
-1.174999
20
0.495263
30
0.603915
70
192
0
VERTEX
10
-1.674999
20
0.495263
30
0.603915
70
192
0
VERTEX
10
-1.174999
20
0.543559
30
0.590974
70
192
0
VERTEX
10
-1.674999
20
0.543559
30
0.590974
70
192
0
VERTEX
10
-1.875000
20
0.443500
30
0.410729
70
192
0
VERTEX
10
-2.375000
20
0.443499
30
0.410729
70
192
0
VERTEX
10
-1.875000
20
0.491796
30
0.397788
70
192
0
VERTEX
10
-2.375000
20
0.491796
30
0.397788
70
192
0
VERTEX
10
-1.875000
20
0.495263
30
0.603915
70
192
0
VERTEX
10
-2.375000
20
0.495263
30
0.603915
70
192
0
VERTEX
10
-1.875000
20
0.543560
30
0.590974
70
192
0
VERTEX
10
-2.375000
20
0.543560
30
0.590974
70
192
0
VERTEX
10
0.950000
20
0.443500
30
0.410730
70
192
0
VERTEX
10
0.450000
20
0.443500
30
0.410730
70
192
0
VERTEX
10
0.950000
20
0.491796
30
0.397789
70
192
0
VERTEX
10
0.450000
20
0.491796
30
0.397789
70
192
0
VERTEX
10
0.950000
20
0.495263
30
0.603915
70
192
0
VERTEX
10
0.450000
20
0.495263
30
0.603915
70
192
0
VERTEX
10
0.950000
20
0.543560
30
0.590974
70
192
0
VERTEX
10
0.450000
20
0.543560
30
0.590974
70
192
0
VERTEX
10
0.250000
20
0.355501
30
0.082315
70
192
0
VERTEX
10
-0.250000
20
0.355501
30
0.082315
70
192
0
VERTEX
10
0.250000
20
0.403797
30
0.069374
70
192
0
VERTEX
10
-0.250000
20
0.403797
30
0.069374
70
192
0
VERTEX
10
0.250000
20
0.407265
30
0.275500
70
192
0
VERTEX
10
-0.250000
20
0.407265
30
0.275500
70
192
0
VERTEX
10
0.250000
20
0.455561
30
0.262559
70
192
0
VERTEX
10
-0.250000
20
0.455561
30
0.262559
70
192
0
VERTEX
10
-0.475000
20
0.355501
30
0.082315
70
192
0
VERTEX
10
-0.975000
20
0.355501
30
0.082315
70
192
0
VERTEX
10
-0.475000
20
0.403797
30
0.069374
70
192
0
VERTEX
10
-0.975000
20
0.403797
30
0.069374
70
192
0
VERTEX
10
-0.475000
20
0.407265
30
0.275500
70
192
0
VERTEX
10
-0.975000
20
0.407265
30
0.275500
70
192
0
VERTEX
10
-0.475000
20
0.455561
30
0.262559
70
192
0
VERTEX
10
-0.975000
20
0.455561
30
0.262559
70
192
0
VERTEX
10
-1.175000
20
0.355501
30
0.082315
70
192
0
VERTEX
10
-1.675000
20
0.355501
30
0.082315
70
192
0
VERTEX
10
-1.175000
20
0.403797
30
0.069374
70
192
0
VERTEX
10
-1.675000
20
0.403797
30
0.069374
70
192
0
VERTEX
10
-1.175000
20
0.407265
30
0.275500
70
192
0
VERTEX
10
-1.675000
20
0.407265
30
0.275500
70
192
0
VERTEX
10
-1.175000
20
0.455561
30
0.262559
70
192
0
VERTEX
10
-1.675000
20
0.455561
30
0.262559
70
192
0
VERTEX
10
-1.875000
20
0.355501
30
0.082315
70
192
0
VERTEX
10
-2.375000
20
0.355501
30
0.082315
70
192
0
VERTEX
10
-1.875000
20
0.403797
30
0.069374
70
192
0
VERTEX
10
-2.375000
20
0.403797
30
0.069374
70
192
0
VERTEX
10
-1.875000
20
0.407264
30
0.275500
70
192
0
VERTEX
10
-2.375000
20
0.407264
30
0.275500
70
192
0
VERTEX
10
-1.875000
20
0.455561
30
0.262559
70
192
0
VERTEX
10
-2.375001
20
0.455561
30
0.262559
70
192
0
VERTEX
10
0.950000
20
0.355501
30
0.082315
70
192
0
VERTEX
10
0.450000
20
0.355501
30
0.082315
70
192
0
VERTEX
10
0.950000
20
0.403797
30
0.069374
70
192
0
VERTEX
10
0.450000
20
0.403798
30
0.069374
70
192
0
VERTEX
10
0.950000
20
0.407265
30
0.275500
70
192
0
VERTEX
10
0.450000
20
0.407265
30
0.275500
70
192
0
VERTEX
10
0.950000
20
0.455561
30
0.262559
70
192
0
VERTEX
10
0.450000
20
0.455561
30
0.262559
70
192
0
VERTEX
10
2.375000
20
0.355501
30
0.082314
70
192
0
VERTEX
10
1.875000
20
0.355501
30
0.082314
70
192
0
VERTEX
10
2.375000
20
0.403797
30
0.069374
70
192
0
VERTEX
10
1.875000
20
0.403797
30
0.069374
70
192
0
VERTEX
10
2.375000
20
0.407265
30
0.275500
70
192
0
VERTEX
10
1.875000
20
0.407265
30
0.275500
70
192
0
VERTEX
10
2.375000
20
0.455561
30
0.262559
70
192
0
VERTEX
10
1.875000
20
0.455561
30
0.262559
70
192
0
VERTEX
10
0.0
20
0.0
30
0.0
70
128
71
1
72
2
73
3
0
VERTEX
10
0.0
20
0.0
30
0.0
70
128
71
3
72
2
73
4
0
VERTEX
10
0.0
20
0.0
30
0.0
70
128
71
2
72
1
73
5
0
VERTEX
10
0.0
20
0.0
30
0.0
70
128
71
2
72
5
73
6
0
VERTEX
10
0.0
20
0.0
30
0.0
70
128
71
3
72
4
73
7
0
VERTEX
10
0.0
20
0.0
30
0.0
70
128
71
7
72
4
73
8
0
VERTEX
10
0.0
20
0.0
30
0.0
70
128
71
7
72
8
73
5
0
VERTEX
10
0.0
20
0.0
30
0.0
70
128
71
5
72
8
73
6
0
VERTEX
10
0.0
20
0.0
30
0.0
70
128
71
4
72
2
73
8
0
VERTEX
10
0.0
20
0.0
30
0.0
70
128
71
8
72
2
73
6
0
VERTEX
10
0.0
20
0.0
30
0.0
70
128
71
1
72
3
73
7
0
VERTEX
10
0.0
20
0.0
30
0.0
70
128
71
1
72
7
73
5
0
VERTEX
10
0.0
20
0.0
30
0.0
70
128
71
9
72
10
73
11
0
VERTEX
10
0.0
20
0.0
30
0.0
70
128
71
11
72
10
73
12
0
VERTEX
10
0.0
20
0.0
30
0.0
70
128
71
10
72
9
73
13
0
VERTEX
10
0.0
20
0.0
30
0.0
70
128
71
10
72
13
73
14
0
VERTEX
10
0.0
20
0.0
30
0.0
70
128
71
11
72
12
73
15
0
VERTEX
10
0.0
20
0.0
30
0.0
70
128
71
15
72
12
73
16
0
VERTEX
10
0.0
20
0.0
30
0.0
70
128
71
15
72
16
73
13
0
VERTEX
10
0.0
20
0.0
30
0.0
70
128
71
13
72
16
73
14
0
VERTEX
10
0.0
20
0.0
30
0.0
70
128
71
12
72
10
73
16
0
VERTEX
10
0.0
20
0.0
30
0.0
70
128
71
16
72
10
73
14
0
VERTEX
10
0.0
20
0.0
30
0.0
70
128
71
9
72
11
73
15
0
VERTEX
10
0.0
20
0.0
30
0.0
70
128
71
9
72
15
73
13
0
VERTEX
10
0.0
20
0.0
30
0.0
70
128
71
17
72
18
73
19
0
VERTEX
10
0.0
20
0.0
30
0.0
70
128
71
19
72
18
73
20
0
VERTEX
10
0.0
20
0.0
30
0.0
70
128
71
18
72
17
73
21
0
VERTEX
10
0.0
20
0.0
30
0.0
70
128
71
18
72
21
73
22
0
VERTEX
10
0.0
20
0.0
30
0.0
70
128
71
19
72
20
73
23
0
VERTEX
10
0.0
20
0.0
30
0.0
70
128
71
23
72
20
73
24
0
VERTEX
10
0.0
20
0.0
30
0.0
70
128
71
23
72
24
73
21
0
VERTEX
10
0.0
20
0.0
30
0.0
70
128
71
21
72
24
73
22
0
VERTEX
10
0.0
20
0.0
30
0.0
70
128
71
20
72
18
73
24
0
VERTEX
10
0.0
20
0.0
30
0.0
70
128
71
24
72
18
73
22
0
VERTEX
10
0.0
20
0.0
30
0.0
70
128
71
17
72
19
73
23
0
VERTEX
10
0.0
20
0.0
30
0.0
70
128
71
17
72
23
73
21
0
VERTEX
10
0.0
20
0.0
30
0.0
70
128
71
25
72
26
73
27
0
VERTEX
10
0.0
20
0.0
30
0.0
70
128
71
27
72
26
73
28
0
VERTEX
10
0.0
20
0.0
30
0.0
70
128
71
26
72
25
73
29
0
VERTEX
10
0.0
20
0.0
30
0.0
70
128
71
26
72
29
73
30
0
VERTEX
10
0.0
20
0.0
30
0.0
70
128
71
27
72
28
73
31
0
VERTEX
10
0.0
20
0.0
30
0.0
70
128
71
31
72
28
73
32
0
VERTEX
10
0.0
20
0.0
30
0.0
70
128
71
31
72
32
73
29
0
VERTEX
10
0.0
20
0.0
30
0.0
70
128
71
29
72
32
73
30
0
VERTEX
10
0.0
20
0.0
30
0.0
70
128
71
28
72
26
73
32
0
VERTEX
10
0.0
20
0.0
30
0.0
70
128
71
32
72
26
73
30
0
VERTEX
10
0.0
20
0.0
30
0.0
70
128
71
25
72
27
73
31
0
VERTEX
10
0.0
20
0.0
30
0.0
70
128
71
25
72
31
73
29
0
VERTEX
10
0.0
20
0.0
30
0.0
70
128
71
33
72
34
73
35
0
VERTEX
10
0.0
20
0.0
30
0.0
70
128
71
35
72
34
73
36
0
VERTEX
10
0.0
20
0.0
30
0.0
70
128
71
34
72
33
73
37
0
VERTEX
10
0.0
20
0.0
30
0.0
70
128
71
34
72
37
73
38
0
VERTEX
10
0.0
20
0.0
30
0.0
70
128
71
35
72
36
73
39
0
VERTEX
10
0.0
20
0.0
30
0.0
70
128
71
39
72
36
73
40
0
VERTEX
10
0.0
20
0.0
30
0.0
70
128
71
39
72
40
73
37
0
VERTEX
10
0.0
20
0.0
30
0.0
70
128
71
37
72
40
73
38
0
VERTEX
10
0.0
20
0.0
30
0.0
70
128
71
36
72
34
73
40
0
VERTEX
10
0.0
20
0.0
30
0.0
70
128
71
40
72
34
73
38
0
VERTEX
10
0.0
20
0.0
30
0.0
70
128
71
33
72
35
73
39
0
VERTEX
10
0.0
20
0.0
30
0.0
70
128
71
33
72
39
73
37
0
VERTEX
10
0.0
20
0.0
30
0.0
70
128
71
41
72
42
73
43
0
VERTEX
10
0.0
20
0.0
30
0.0
70
128
71
43
72
42
73
44
0
VERTEX
10
0.0
20
0.0
30
0.0
70
128
71
42
72
41
73
45
0
VERTEX
10
0.0
20
0.0
30
0.0
70
128
71
42
72
45
73
46
0
VERTEX
10
0.0
20
0.0
30
0.0
70
128
71
43
72
44
73
47
0
VERTEX
10
0.0
20
0.0
30
0.0
70
128
71
47
72
44
73
48
0
VERTEX
10
0.0
20
0.0
30
0.0
70
128
71
47
72
48
73
45
0
VERTEX
10
0.0
20
0.0
30
0.0
70
128
71
45
72
48
73
46
0
VERTEX
10
0.0
20
0.0
30
0.0
70
128
71
44
72
42
73
48
0
VERTEX
10
0.0
20
0.0
30
0.0
70
128
71
48
72
42
73
46
0
VERTEX
10
0.0
20
0.0
30
0.0
70
128
71
41
72
43
73
47
0
VERTEX
10
0.0
20
0.0
30
0.0
70
128
71
41
72
47
73
45
0
VERTEX
10
0.0
20
0.0
30
0.0
70
128
71
49
72
50
73
51
0
VERTEX
10
0.0
20
0.0
30
0.0
70
128
71
51
72
50
73
52
0
VERTEX
10
0.0
20
0.0
30
0.0
70
128
71
50
72
49
73
53
0
VERTEX
10
0.0
20
0.0
30
0.0
70
128
71
50
72
53
73
54
0
VERTEX
10
0.0
20
0.0
30
0.0
70
128
71
51
72
52
73
55
0
VERTEX
10
0.0
20
0.0
30
0.0
70
128
71
55
72
52
73
56
0
VERTEX
10
0.0
20
0.0
30
0.0
70
128
71
55
72
56
73
53
0
VERTEX
10
0.0
20
0.0
30
0.0
70
128
71
53
72
56
73
54
0
VERTEX
10
0.0
20
0.0
30
0.0
70
128
71
52
72
50
73
56
0
VERTEX
10
0.0
20
0.0
30
0.0
70
128
71
56
72
50
73
54
0
VERTEX
10
0.0
20
0.0
30
0.0
70
128
71
49
72
51
73
55
0
VERTEX
10
0.0
20
0.0
30
0.0
70
128
71
49
72
55
73
53
0
VERTEX
10
0.0
20
0.0
30
0.0
70
128
71
57
72
58
73
59
0
VERTEX
10
0.0
20
0.0
30
0.0
70
128
71
59
72
58
73
60
0
VERTEX
10
0.0
20
0.0
30
0.0
70
128
71
58
72
57
73
61
0
VERTEX
10
0.0
20
0.0
30
0.0
70
128
71
58
72
61
73
62
0
VERTEX
10
0.0
20
0.0
30
0.0
70
128
71
59
72
60
73
63
0
VERTEX
10
0.0
20
0.0
30
0.0
70
128
71
63
72
60
73
64
0
VERTEX
10
0.0
20
0.0
30
0.0
70
128
71
63
72
64
73
61
0
VERTEX
10
0.0
20
0.0
30
0.0
70
128
71
61
72
64
73
62
0
VERTEX
10
0.0
20
0.0
30
0.0
70
128
71
60
72
58
73
64
0
VERTEX
10
0.0
20
0.0
30
0.0
70
128
71
64
72
58
73
62
0
VERTEX
10
0.0
20
0.0
30
0.0
70
128
71
57
72
59
73
63
0
VERTEX
10
0.0
20
0.0
30
0.0
70
128
71
57
72
63
73
61
0
VERTEX
10
0.0
20
0.0
30
0.0
70
128
71
65
72
66
73
67
0
VERTEX
10
0.0
20
0.0
30
0.0
70
128
71
67
72
66
73
68
0
VERTEX
10
0.0
20
0.0
30
0.0
70
128
71
66
72
65
73
69
0
VERTEX
10
0.0
20
0.0
30
0.0
70
128
71
66
72
69
73
70
0
VERTEX
10
0.0
20
0.0
30
0.0
70
128
71
67
72
68
73
71
0
VERTEX
10
0.0
20
0.0
30
0.0
70
128
71
71
72
68
73
72
0
VERTEX
10
0.0
20
0.0
30
0.0
70
128
71
71
72
72
73
69
0
VERTEX
10
0.0
20
0.0
30
0.0
70
128
71
69
72
72
73
70
0
VERTEX
10
0.0
20
0.0
30
0.0
70
128
71
68
72
66
73
72
0
VERTEX
10
0.0
20
0.0
30
0.0
70
128
71
72
72
66
73
70
0
VERTEX
10
0.0
20
0.0
30
0.0
70
128
71
65
72
67
73
71
0
VERTEX
10
0.0
20
0.0
30
0.0
70
128
71
65
72
71
73
69
0
VERTEX
10
0.0
20
0.0
30
0.0
70
128
71
73
72
74
73
75
0
VERTEX
10
0.0
20
0.0
30
0.0
70
128
71
75
72
74
73
76
0
VERTEX
10
0.0
20
0.0
30
0.0
70
128
71
74
72
73
73
77
0
VERTEX
10
0.0
20
0.0
30
0.0
70
128
71
74
72
77
73
78
0
VERTEX
10
0.0
20
0.0
30
0.0
70
128
71
75
72
76
73
79
0
VERTEX
10
0.0
20
0.0
30
0.0
70
128
71
79
72
76
73
80
0
VERTEX
10
0.0
20
0.0
30
0.0
70
128
71
79
72
80
73
77
0
VERTEX
10
0.0
20
0.0
30
0.0
70
128
71
77
72
80
73
78
0
VERTEX
10
0.0
20
0.0
30
0.0
70
128
71
76
72
74
73
80
0
VERTEX
10
0.0
20
0.0
30
0.0
70
128
71
80
72
74
73
78
0
VERTEX
10
0.0
20
0.0
30
0.0
70
128
71
73
72
75
73
79
0
VERTEX
10
0.0
20
0.0
30
0.0
70
128
71
73
72
79
73
77
0
VERTEX
10
0.0
20
0.0
30
0.0
70
128
71
81
72
82
73
83
0
VERTEX
10
0.0
20
0.0
30
0.0
70
128
71
83
72
82
73
84
0
VERTEX
10
0.0
20
0.0
30
0.0
70
128
71
82
72
81
73
85
0
VERTEX
10
0.0
20
0.0
30
0.0
70
128
71
82
72
85
73
86
0
VERTEX
10
0.0
20
0.0
30
0.0
70
128
71
83
72
84
73
87
0
VERTEX
10
0.0
20
0.0
30
0.0
70
128
71
87
72
84
73
88
0
VERTEX
10
0.0
20
0.0
30
0.0
70
128
71
87
72
88
73
85
0
VERTEX
10
0.0
20
0.0
30
0.0
70
128
71
85
72
88
73
86
0
VERTEX
10
0.0
20
0.0
30
0.0
70
128
71
84
72
82
73
88
0
VERTEX
10
0.0
20
0.0
30
0.0
70
128
71
88
72
82
73
86
0
VERTEX
10
0.0
20
0.0
30
0.0
70
128
71
81
72
83
73
87
0
VERTEX
10
0.0
20
0.0
30
0.0
70
128
71
81
72
87
73
85
0
VERTEX
10
0.0
20
0.0
30
0.0
70
128
71
89
72
90
73
91
0
VERTEX
10
0.0
20
0.0
30
0.0
70
128
71
91
72
90
73
92
0
VERTEX
10
0.0
20
0.0
30
0.0
70
128
71
90
72
89
73
93
0
VERTEX
10
0.0
20
0.0
30
0.0
70
128
71
90
72
93
73
94
0
VERTEX
10
0.0
20
0.0
30
0.0
70
128
71
91
72
92
73
95
0
VERTEX
10
0.0
20
0.0
30
0.0
70
128
71
95
72
92
73
96
0
VERTEX
10
0.0
20
0.0
30
0.0
70
128
71
95
72
96
73
93
0
VERTEX
10
0.0
20
0.0
30
0.0
70
128
71
93
72
96
73
94
0
VERTEX
10
0.0
20
0.0
30
0.0
70
128
71
92
72
90
73
96
0
VERTEX
10
0.0
20
0.0
30
0.0
70
128
71
96
72
90
73
94
0
VERTEX
10
0.0
20
0.0
30
0.0
70
128
71
89
72
91
73
95
0
VERTEX
10
0.0
20
0.0
30
0.0
70
128
71
89
72
95
73
93
0
VERTEX
10
0.0
20
0.0
30
0.0
70
128
71
97
72
98
73
99
0
VERTEX
10
0.0
20
0.0
30
0.0
70
128
71
99
72
98
73
100
0
VERTEX
10
0.0
20
0.0
30
0.0
70
128
71
98
72
97
73
101
0
VERTEX
10
0.0
20
0.0
30
0.0
70
128
71
98
72
101
73
102
0
VERTEX
10
0.0
20
0.0
30
0.0
70
128
71
99
72
100
73
103
0
VERTEX
10
0.0
20
0.0
30
0.0
70
128
71
103
72
100
73
104
0
VERTEX
10
0.0
20
0.0
30
0.0
70
128
71
103
72
104
73
101
0
VERTEX
10
0.0
20
0.0
30
0.0
70
128
71
101
72
104
73
102
0
VERTEX
10
0.0
20
0.0
30
0.0
70
128
71
100
72
98
73
104
0
VERTEX
10
0.0
20
0.0
30
0.0
70
128
71
104
72
98
73
102
0
VERTEX
10
0.0
20
0.0
30
0.0
70
128
71
97
72
99
73
103
0
VERTEX
10
0.0
20
0.0
30
0.0
70
128
71
97
72
103
73
101
0
VERTEX
10
0.0
20
0.0
30
0.0
70
128
71
105
72
106
73
107
0
VERTEX
10
0.0
20
0.0
30
0.0
70
128
71
107
72
106
73
108
0
VERTEX
10
0.0
20
0.0
30
0.0
70
128
71
106
72
105
73
109
0
VERTEX
10
0.0
20
0.0
30
0.0
70
128
71
106
72
109
73
110
0
VERTEX
10
0.0
20
0.0
30
0.0
70
128
71
107
72
108
73
111
0
VERTEX
10
0.0
20
0.0
30
0.0
70
128
71
111
72
108
73
112
0
VERTEX
10
0.0
20
0.0
30
0.0
70
128
71
111
72
112
73
109
0
VERTEX
10
0.0
20
0.0
30
0.0
70
128
71
109
72
112
73
110
0
VERTEX
10
0.0
20
0.0
30
0.0
70
128
71
108
72
106
73
112
0
VERTEX
10
0.0
20
0.0
30
0.0
70
128
71
112
72
106
73
110
0
VERTEX
10
0.0
20
0.0
30
0.0
70
128
71
105
72
107
73
111
0
VERTEX
10
0.0
20
0.0
30
0.0
70
128
71
105
72
111
73
109
0
VERTEX
10
0.0
20
0.0
30
0.0
70
128
71
113
72
114
73
115
0
VERTEX
10
0.0
20
0.0
30
0.0
70
128
71
115
72
114
73
116
0
VERTEX
10
0.0
20
0.0
30
0.0
70
128
71
114
72
113
73
117
0
VERTEX
10
0.0
20
0.0
30
0.0
70
128
71
114
72
117
73
118
0
VERTEX
10
0.0
20
0.0
30
0.0
70
128
71
115
72
116
73
119
0
VERTEX
10
0.0
20
0.0
30
0.0
70
128
71
119
72
116
73
120
0
VERTEX
10
0.0
20
0.0
30
0.0
70
128
71
119
72
120
73
117
0
VERTEX
10
0.0
20
0.0
30
0.0
70
128
71
117
72
120
73
118
0
VERTEX
10
0.0
20
0.0
30
0.0
70
128
71
116
72
114
73
120
0
VERTEX
10
0.0
20
0.0
30
0.0
70
128
71
120
72
114
73
118
0
VERTEX
10
0.0
20
0.0
30
0.0
70
128
71
113
72
115
73
119
0
VERTEX
10
0.0
20
0.0
30
0.0
70
128
71
113
72
119
73
117
0
VERTEX
10
0.0
20
0.0
30
0.0
70
128
71
121
72
122
73
123
0
VERTEX
10
0.0
20
0.0
30
0.0
70
128
71
123
72
122
73
124
0
VERTEX
10
0.0
20
0.0
30
0.0
70
128
71
122
72
121
73
125
0
VERTEX
10
0.0
20
0.0
30
0.0
70
128
71
122
72
125
73
126
0
VERTEX
10
0.0
20
0.0
30
0.0
70
128
71
123
72
124
73
127
0
VERTEX
10
0.0
20
0.0
30
0.0
70
128
71
127
72
124
73
128
0
VERTEX
10
0.0
20
0.0
30
0.0
70
128
71
127
72
128
73
125
0
VERTEX
10
0.0
20
0.0
30
0.0
70
128
71
125
72
128
73
126
0
VERTEX
10
0.0
20
0.0
30
0.0
70
128
71
124
72
122
73
128
0
VERTEX
10
0.0
20
0.0
30
0.0
70
128
71
128
72
122
73
126
0
VERTEX
10
0.0
20
0.0
30
0.0
70
128
71
121
72
123
73
127
0
VERTEX
10
0.0
20
0.0
30
0.0
70
128
71
121
72
127
73
125
0
VERTEX
10
0.0
20
0.0
30
0.0
70
128
71
129
72
130
73
131
0
VERTEX
10
0.0
20
0.0
30
0.0
70
128
71
131
72
130
73
132
0
VERTEX
10
0.0
20
0.0
30
0.0
70
128
71
130
72
129
73
133
0
VERTEX
10
0.0
20
0.0
30
0.0
70
128
71
130
72
133
73
134
0
VERTEX
10
0.0
20
0.0
30
0.0
70
128
71
131
72
132
73
135
0
VERTEX
10
0.0
20
0.0
30
0.0
70
128
71
135
72
132
73
136
0
VERTEX
10
0.0
20
0.0
30
0.0
70
128
71
135
72
136
73
133
0
VERTEX
10
0.0
20
0.0
30
0.0
70
128
71
133
72
136
73
134
0
VERTEX
10
0.0
20
0.0
30
0.0
70
128
71
132
72
130
73
136
0
VERTEX
10
0.0
20
0.0
30
0.0
70
128
71
136
72
130
73
134
0
VERTEX
10
0.0
20
0.0
30
0.0
70
128
71
129
72
131
73
135
0
VERTEX
10
0.0
20
0.0
30
0.0
70
128
71
129
72
135
73
133
0
VERTEX
10
0.0
20
0.0
30
0.0
70
128
71
137
72
138
73
139
0
VERTEX
10
0.0
20
0.0
30
0.0
70
128
71
139
72
138
73
140
0
VERTEX
10
0.0
20
0.0
30
0.0
70
128
71
138
72
137
73
141
0
VERTEX
10
0.0
20
0.0
30
0.0
70
128
71
138
72
141
73
142
0
VERTEX
10
0.0
20
0.0
30
0.0
70
128
71
139
72
140
73
143
0
VERTEX
10
0.0
20
0.0
30
0.0
70
128
71
143
72
140
73
144
0
VERTEX
10
0.0
20
0.0
30
0.0
70
128
71
143
72
144
73
141
0
VERTEX
10
0.0
20
0.0
30
0.0
70
128
71
141
72
144
73
142
0
VERTEX
10
0.0
20
0.0
30
0.0
70
128
71
140
72
138
73
144
0
VERTEX
10
0.0
20
0.0
30
0.0
70
128
71
144
72
138
73
142
0
VERTEX
10
0.0
20
0.0
30
0.0
70
128
71
137
72
139
73
143
0
VERTEX
10
0.0
20
0.0
30
0.0
70
128
71
137
72
143
73
141
0
VERTEX
10
0.0
20
0.0
30
0.0
70
128
71
145
72
146
73
147
0
VERTEX
10
0.0
20
0.0
30
0.0
70
128
71
147
72
146
73
148
0
VERTEX
10
0.0
20
0.0
30
0.0
70
128
71
146
72
145
73
149
0
VERTEX
10
0.0
20
0.0
30
0.0
70
128
71
146
72
149
73
150
0
VERTEX
10
0.0
20
0.0
30
0.0
70
128
71
147
72
148
73
151
0
VERTEX
10
0.0
20
0.0
30
0.0
70
128
71
151
72
148
73
152
0
VERTEX
10
0.0
20
0.0
30
0.0
70
128
71
151
72
152
73
149
0
VERTEX
10
0.0
20
0.0
30
0.0
70
128
71
149
72
152
73
150
0
VERTEX
10
0.0
20
0.0
30
0.0
70
128
71
148
72
146
73
152
0
VERTEX
10
0.0
20
0.0
30
0.0
70
128
71
152
72
146
73
150
0
VERTEX
10
0.0
20
0.0
30
0.0
70
128
71
145
72
147
73
151
0
VERTEX
10
0.0
20
0.0
30
0.0
70
128
71
145
72
151
73
149
0
VERTEX
10
0.0
20
0.0
30
0.0
70
128
71
153
72
154
73
155
0
VERTEX
10
0.0
20
0.0
30
0.0
70
128
71
155
72
154
73
156
0
VERTEX
10
0.0
20
0.0
30
0.0
70
128
71
154
72
153
73
157
0
VERTEX
10
0.0
20
0.0
30
0.0
70
128
71
154
72
157
73
158
0
VERTEX
10
0.0
20
0.0
30
0.0
70
128
71
155
72
156
73
159
0
VERTEX
10
0.0
20
0.0
30
0.0
70
128
71
159
72
156
73
160
0
VERTEX
10
0.0
20
0.0
30
0.0
70
128
71
159
72
160
73
157
0
VERTEX
10
0.0
20
0.0
30
0.0
70
128
71
157
72
160
73
158
0
VERTEX
10
0.0
20
0.0
30
0.0
70
128
71
156
72
154
73
160
0
VERTEX
10
0.0
20
0.0
30
0.0
70
128
71
160
72
154
73
158
0
VERTEX
10
0.0
20
0.0
30
0.0
70
128
71
153
72
155
73
159
0
VERTEX
10
0.0
20
0.0
30
0.0
70
128
71
153
72
159
73
157
0
VERTEX
10
0.0
20
0.0
30
0.0
70
128
71
161
72
162
73
163
0
VERTEX
10
0.0
20
0.0
30
0.0
70
128
71
163
72
162
73
164
0
VERTEX
10
0.0
20
0.0
30
0.0
70
128
71
162
72
161
73
165
0
VERTEX
10
0.0
20
0.0
30
0.0
70
128
71
162
72
165
73
166
0
VERTEX
10
0.0
20
0.0
30
0.0
70
128
71
163
72
164
73
167
0
VERTEX
10
0.0
20
0.0
30
0.0
70
128
71
167
72
164
73
168
0
VERTEX
10
0.0
20
0.0
30
0.0
70
128
71
167
72
168
73
165
0
VERTEX
10
0.0
20
0.0
30
0.0
70
128
71
165
72
168
73
166
0
VERTEX
10
0.0
20
0.0
30
0.0
70
128
71
164
72
162
73
168
0
VERTEX
10
0.0
20
0.0
30
0.0
70
128
71
168
72
162
73
166
0
VERTEX
10
0.0
20
0.0
30
0.0
70
128
71
161
72
163
73
167
0
VERTEX
10
0.0
20
0.0
30
0.0
70
128
71
161
72
167
73
165
0
VERTEX
10
0.0
20
0.0
30
0.0
70
128
71
169
72
170
73
171
0
VERTEX
10
0.0
20
0.0
30
0.0
70
128
71
171
72
170
73
172
0
VERTEX
10
0.0
20
0.0
30
0.0
70
128
71
170
72
169
73
173
0
VERTEX
10
0.0
20
0.0
30
0.0
70
128
71
170
72
173
73
174
0
VERTEX
10
0.0
20
0.0
30
0.0
70
128
71
171
72
172
73
175
0
VERTEX
10
0.0
20
0.0
30
0.0
70
128
71
175
72
172
73
176
0
VERTEX
10
0.0
20
0.0
30
0.0
70
128
71
175
72
176
73
173
0
VERTEX
10
0.0
20
0.0
30
0.0
70
128
71
173
72
176
73
174
0
VERTEX
10
0.0
20
0.0
30
0.0
70
128
71
172
72
170
73
176
0
VERTEX
10
0.0
20
0.0
30
0.0
70
128
71
176
72
170
73
174
0
VERTEX
10
0.0
20
0.0
30
0.0
70
128
71
169
72
171
73
175
0
VERTEX
10
0.0
20
0.0
30
0.0
70
128
71
169
72
175
73
173
0
VERTEX
10
0.0
20
0.0
30
0.0
70
128
71
177
72
178
73
179
0
VERTEX
10
0.0
20
0.0
30
0.0
70
128
71
179
72
178
73
180
0
VERTEX
10
0.0
20
0.0
30
0.0
70
128
71
178
72
177
73
181
0
VERTEX
10
0.0
20
0.0
30
0.0
70
128
71
178
72
181
73
182
0
VERTEX
10
0.0
20
0.0
30
0.0
70
128
71
179
72
180
73
183
0
VERTEX
10
0.0
20
0.0
30
0.0
70
128
71
183
72
180
73
184
0
VERTEX
10
0.0
20
0.0
30
0.0
70
128
71
183
72
184
73
181
0
VERTEX
10
0.0
20
0.0
30
0.0
70
128
71
181
72
184
73
182
0
VERTEX
10
0.0
20
0.0
30
0.0
70
128
71
180
72
178
73
184
0
VERTEX
10
0.0
20
0.0
30
0.0
70
128
71
184
72
178
73
182
0
VERTEX
10
0.0
20
0.0
30
0.0
70
128
71
177
72
179
73
183
0
VERTEX
10
0.0
20
0.0
30
0.0
70
128
71
177
72
183
73
181
0
VERTEX
10
0.0
20
0.0
30
0.0
70
128
71
185
72
186
73
187
0
VERTEX
10
0.0
20
0.0
30
0.0
70
128
71
187
72
186
73
188
0
VERTEX
10
0.0
20
0.0
30
0.0
70
128
71
186
72
185
73
189
0
VERTEX
10
0.0
20
0.0
30
0.0
70
128
71
186
72
189
73
190
0
VERTEX
10
0.0
20
0.0
30
0.0
70
128
71
187
72
188
73
191
0
VERTEX
10
0.0
20
0.0
30
0.0
70
128
71
191
72
188
73
192
0
VERTEX
10
0.0
20
0.0
30
0.0
70
128
71
191
72
192
73
189
0
VERTEX
10
0.0
20
0.0
30
0.0
70
128
71
189
72
192
73
190
0
VERTEX
10
0.0
20
0.0
30
0.0
70
128
71
188
72
186
73
192
0
VERTEX
10
0.0
20
0.0
30
0.0
70
128
71
192
72
186
73
190
0
VERTEX
10
0.0
20
0.0
30
0.0
70
128
71
185
72
187
73
191
0
VERTEX
10
0.0
20
0.0
30
0.0
70
128
71
185
72
191
73
189
0
VERTEX
10
0.0
20
0.0
30
0.0
70
128
71
193
72
194
73
195
0
VERTEX
10
0.0
20
0.0
30
0.0
70
128
71
195
72
194
73
196
0
VERTEX
10
0.0
20
0.0
30
0.0
70
128
71
194
72
193
73
197
0
VERTEX
10
0.0
20
0.0
30
0.0
70
128
71
194
72
197
73
198
0
VERTEX
10
0.0
20
0.0
30
0.0
70
128
71
195
72
196
73
199
0
VERTEX
10
0.0
20
0.0
30
0.0
70
128
71
199
72
196
73
200
0
VERTEX
10
0.0
20
0.0
30
0.0
70
128
71
199
72
200
73
197
0
VERTEX
10
0.0
20
0.0
30
0.0
70
128
71
197
72
200
73
198
0
VERTEX
10
0.0
20
0.0
30
0.0
70
128
71
196
72
194
73
200
0
VERTEX
10
0.0
20
0.0
30
0.0
70
128
71
200
72
194
73
198
0
VERTEX
10
0.0
20
0.0
30
0.0
70
128
71
193
72
195
73
199
0
VERTEX
10
0.0
20
0.0
30
0.0
70
128
71
193
72
199
73
197
0
VERTEX
10
0.0
20
0.0
30
0.0
70
128
71
201
72
202
73
203
0
VERTEX
10
0.0
20
0.0
30
0.0
70
128
71
203
72
202
73
204
0
VERTEX
10
0.0
20
0.0
30
0.0
70
128
71
202
72
201
73
205
0
VERTEX
10
0.0
20
0.0
30
0.0
70
128
71
202
72
205
73
206
0
VERTEX
10
0.0
20
0.0
30
0.0
70
128
71
203
72
204
73
207
0
VERTEX
10
0.0
20
0.0
30
0.0
70
128
71
207
72
204
73
208
0
VERTEX
10
0.0
20
0.0
30
0.0
70
128
71
207
72
208
73
205
0
VERTEX
10
0.0
20
0.0
30
0.0
70
128
71
205
72
208
73
206
0
VERTEX
10
0.0
20
0.0
30
0.0
70
128
71
204
72
202
73
208
0
VERTEX
10
0.0
20
0.0
30
0.0
70
128
71
208
72
202
73
206
0
VERTEX
10
0.0
20
0.0
30
0.0
70
128
71
201
72
203
73
207
0
VERTEX
10
0.0
20
0.0
30
0.0
70
128
71
201
72
207
73
205
0
VERTEX
10
0.0
20
0.0
30
0.0
70
128
71
209
72
210
73
211
0
VERTEX
10
0.0
20
0.0
30
0.0
70
128
71
211
72
210
73
212
0
VERTEX
10
0.0
20
0.0
30
0.0
70
128
71
210
72
209
73
213
0
VERTEX
10
0.0
20
0.0
30
0.0
70
128
71
210
72
213
73
214
0
VERTEX
10
0.0
20
0.0
30
0.0
70
128
71
211
72
212
73
215
0
VERTEX
10
0.0
20
0.0
30
0.0
70
128
71
215
72
212
73
216
0
VERTEX
10
0.0
20
0.0
30
0.0
70
128
71
215
72
216
73
213
0
VERTEX
10
0.0
20
0.0
30
0.0
70
128
71
213
72
216
73
214
0
VERTEX
10
0.0
20
0.0
30
0.0
70
128
71
212
72
210
73
216
0
VERTEX
10
0.0
20
0.0
30
0.0
70
128
71
216
72
210
73
214
0
VERTEX
10
0.0
20
0.0
30
0.0
70
128
71
209
72
211
73
215
0
VERTEX
10
0.0
20
0.0
30
0.0
70
128
71
209
72
215
73
213
0
VERTEX
10
0.0
20
0.0
30
0.0
70
128
71
217
72
218
73
219
0
VERTEX
10
0.0
20
0.0
30
0.0
70
128
71
219
72
218
73
220
0
VERTEX
10
0.0
20
0.0
30
0.0
70
128
71
218
72
217
73
221
0
VERTEX
10
0.0
20
0.0
30
0.0
70
128
71
218
72
221
73
222
0
VERTEX
10
0.0
20
0.0
30
0.0
70
128
71
219
72
220
73
223
0
VERTEX
10
0.0
20
0.0
30
0.0
70
128
71
223
72
220
73
224
0
VERTEX
10
0.0
20
0.0
30
0.0
70
128
71
223
72
224
73
221
0
VERTEX
10
0.0
20
0.0
30
0.0
70
128
71
221
72
224
73
222
0
VERTEX
10
0.0
20
0.0
30
0.0
70
128
71
220
72
218
73
224
0
VERTEX
10
0.0
20
0.0
30
0.0
70
128
71
224
72
218
73
222
0
VERTEX
10
0.0
20
0.0
30
0.0
70
128
71
217
72
219
73
223
0
VERTEX
10
0.0
20
0.0
30
0.0
70
128
71
217
72
223
73
221
0
VERTEX
10
0.0
20
0.0
30
0.0
70
128
71
225
72
226
73
227
0
VERTEX
10
0.0
20
0.0
30
0.0
70
128
71
227
72
226
73
228
0
VERTEX
10
0.0
20
0.0
30
0.0
70
128
71
226
72
225
73
229
0
VERTEX
10
0.0
20
0.0
30
0.0
70
128
71
226
72
229
73
230
0
VERTEX
10
0.0
20
0.0
30
0.0
70
128
71
227
72
228
73
231
0
VERTEX
10
0.0
20
0.0
30
0.0
70
128
71
231
72
228
73
232
0
VERTEX
10
0.0
20
0.0
30
0.0
70
128
71
231
72
232
73
229
0
VERTEX
10
0.0
20
0.0
30
0.0
70
128
71
229
72
232
73
230
0
VERTEX
10
0.0
20
0.0
30
0.0
70
128
71
228
72
226
73
232
0
VERTEX
10
0.0
20
0.0
30
0.0
70
128
71
232
72
226
73
230
0
VERTEX
10
0.0
20
0.0
30
0.0
70
128
71
225
72
227
73
231
0
VERTEX
10
0.0
20
0.0
30
0.0
70
128
71
225
72
231
73
229
0
VERTEX
10
0.0
20
0.0
30
0.0
70
128
71
233
72
234
73
235
0
VERTEX
10
0.0
20
0.0
30
0.0
70
128
71
235
72
234
73
236
0
VERTEX
10
0.0
20
0.0
30
0.0
70
128
71
234
72
233
73
237
0
VERTEX
10
0.0
20
0.0
30
0.0
70
128
71
234
72
237
73
238
0
VERTEX
10
0.0
20
0.0
30
0.0
70
128
71
235
72
236
73
239
0
VERTEX
10
0.0
20
0.0
30
0.0
70
128
71
239
72
236
73
240
0
VERTEX
10
0.0
20
0.0
30
0.0
70
128
71
239
72
240
73
237
0
VERTEX
10
0.0
20
0.0
30
0.0
70
128
71
237
72
240
73
238
0
VERTEX
10
0.0
20
0.0
30
0.0
70
128
71
236
72
234
73
240
0
VERTEX
10
0.0
20
0.0
30
0.0
70
128
71
240
72
234
73
238
0
VERTEX
10
0.0
20
0.0
30
0.0
70
128
71
233
72
235
73
239
0
VERTEX
10
0.0
20
0.0
30
0.0
70
128
71
233
72
239
73
237
0
VERTEX
10
0.0
20
0.0
30
0.0
70
128
71
241
72
242
73
243
0
VERTEX
10
0.0
20
0.0
30
0.0
70
128
71
243
72
242
73
244
0
VERTEX
10
0.0
20
0.0
30
0.0
70
128
71
242
72
241
73
245
0
VERTEX
10
0.0
20
0.0
30
0.0
70
128
71
242
72
245
73
246
0
VERTEX
10
0.0
20
0.0
30
0.0
70
128
71
243
72
244
73
247
0
VERTEX
10
0.0
20
0.0
30
0.0
70
128
71
247
72
244
73
248
0
VERTEX
10
0.0
20
0.0
30
0.0
70
128
71
247
72
248
73
245
0
VERTEX
10
0.0
20
0.0
30
0.0
70
128
71
245
72
248
73
246
0
VERTEX
10
0.0
20
0.0
30
0.0
70
128
71
244
72
242
73
248
0
VERTEX
10
0.0
20
0.0
30
0.0
70
128
71
248
72
242
73
246
0
VERTEX
10
0.0
20
0.0
30
0.0
70
128
71
241
72
243
73
247
0
VERTEX
10
0.0
20
0.0
30
0.0
70
128
71
241
72
247
73
245
0
SEQEND
0
ENDBLK
0
BLOCK
2
Wall4
70
64
10
0.0
20
0.0
30
0.0
3
Wall4
0
POLYLINE
66
1
70
64
0
VERTEX
10
0.250000
20
1.497086
30
0.397558
70
192
0
VERTEX
10
-0.250000
20
1.497086
30
0.397558
70
192
0
VERTEX
10
0.250000
20
1.546327
30
0.406240
70
192
0
VERTEX
10
-0.250000
20
1.546327
30
0.406240
70
192
0
VERTEX
10
0.250000
20
1.462357
30
0.594519
70
192
0
VERTEX
10
-0.250000
20
1.462357
30
0.594519
70
192
0
VERTEX
10
0.250000
20
1.511597
30
0.603202
70
192
0
VERTEX
10
-0.250000
20
1.511597
30
0.603202
70
192
0
VERTEX
10
2.375001
20
1.497086
30
0.397558
70
192
0
VERTEX
10
1.875000
20
1.497086
30
0.397558
70
192
0
VERTEX
10
2.375000
20
1.546326
30
0.406240
70
192
0
VERTEX
10
1.875000
20
1.546326
30
0.406240
70
192
0
VERTEX
10
2.375000
20
1.462356
30
0.594519
70
192
0
VERTEX
10
1.875000
20
1.462356
30
0.594519
70
192
0
VERTEX
10
2.375000
20
1.511597
30
0.603201
70
192
0
VERTEX
10
1.875000
20
1.511597
30
0.603202
70
192
0
VERTEX
10
1.650001
20
1.497086
30
0.397558
70
192
0
VERTEX
10
1.150001
20
1.497086
30
0.397558
70
192
0
VERTEX
10
1.650001
20
1.546326
30
0.406240
70
192
0
VERTEX
10
1.150001
20
1.546326
30
0.406240
70
192
0
VERTEX
10
1.650001
20
1.462356
30
0.594519
70
192
0
VERTEX
10
1.150001
20
1.462356
30
0.594519
70
192
0
VERTEX
10
1.650001
20
1.511597
30
0.603202
70
192
0
VERTEX
10
1.150001
20
1.511597
30
0.603202
70
192
0
VERTEX
10
0.950000
20
1.497086
30
0.397558
70
192
0
VERTEX
10
0.450000
20
1.497086
30
0.397558
70
192
0
VERTEX
10
0.950000
20
1.546327
30
0.406240
70
192
0
VERTEX
10
0.450000
20
1.546327
30
0.406240
70
192
0
VERTEX
10
0.950000
20
1.462357
30
0.594519
70
192
0
VERTEX
10
0.450000
20
1.462357
30
0.594519
70
192
0
VERTEX
10
0.950000
20
1.511597
30
0.603202
70
192
0
VERTEX
10
0.450000
20
1.511597
30
0.603202
70
192
0
VERTEX
10
-1.875000
20
1.497086
30
0.397558
70
192
0
VERTEX
10
-2.374999
20
1.497086
30
0.397558
70
192
0
VERTEX
10
-1.875000
20
1.546327
30
0.406240
70
192
0
VERTEX
10
-2.374999
20
1.546327
30
0.406240
70
192
0
VERTEX
10
-1.875000
20
1.462357
30
0.594519
70
192
0
VERTEX
10
-2.375000
20
1.462357
30
0.594519
70
192
0
VERTEX
10
-1.874999
20
1.511597
30
0.603202
70
192
0
VERTEX
10
-2.375000
20
1.511597
30
0.603201
70
192
0
VERTEX
10
-1.174999
20
1.497086
30
0.397558
70
192
0
VERTEX
10
-1.675000
20
1.497086
30
0.397557
70
192
0
VERTEX
10
-1.175000
20
1.546327
30
0.406240
70
192
0
VERTEX
10
-1.675000
20
1.546327
30
0.406240
70
192
0
VERTEX
10
-1.175000
20
1.462357
30
0.594519
70
192
0
VERTEX
10
-1.675000
20
1.462357
30
0.594519
70
192
0
VERTEX
10
-1.175000
20
1.511597
30
0.603202
70
192
0
VERTEX
10
-1.675000
20
1.511597
30
0.603202
70
192
0
VERTEX
10
-0.475000
20
1.497086
30
0.397558
70
192
0
VERTEX
10
-0.975000
20
1.497086
30
0.397558
70
192
0
VERTEX
10
-0.475000
20
1.546326
30
0.406240
70
192
0
VERTEX
10
-0.975000
20
1.546327
30
0.406240
70
192
0
VERTEX
10
-0.475000
20
1.462356
30
0.594519
70
192
0
VERTEX
10
-0.975000
20
1.462356
30
0.594519
70
192
0
VERTEX
10
-0.475000
20
1.511597
30
0.603202
70
192
0
VERTEX
10
-0.975000
20
1.511597
30
0.603202
70
192
0
VERTEX
10
-0.475000
20
1.556126
30
0.062723
70
192
0
VERTEX
10
-0.975000
20
1.556126
30
0.062723
70
192
0
VERTEX
10
-0.475000
20
1.605367
30
0.071405
70
192
0
VERTEX
10
-0.975000
20
1.605367
30
0.071405
70
192
0
VERTEX
10
-0.475000
20
1.521397
30
0.259685
70
192
0
VERTEX
10
-0.975000
20
1.521397
30
0.259685
70
192
0
VERTEX
10
-0.475000
20
1.570637
30
0.268367
70
192
0
VERTEX
10
-0.975000
20
1.570637
30
0.268367
70
192
0
VERTEX
10
1.650001
20
1.441519
30
0.712696
70
192
0
VERTEX
10
1.150001
20
1.441519
30
0.712696
70
192
0
VERTEX
10
1.650001
20
1.490759
30
0.721379
70
192
0
VERTEX
10
1.150001
20
1.490760
30
0.721379
70
192
0
VERTEX
10
1.650001
20
1.406790
30
0.909658
70
192
0
VERTEX
10
1.150001
20
1.406789
30
0.909658
70
192
0
VERTEX
10
1.650001
20
1.456030
30
0.918340
70
192
0
VERTEX
10
1.150001
20
1.456030
30
0.918340
70
192
0
VERTEX
10
-1.174999
20
1.556126
30
0.062724
70
192
0
VERTEX
10
-1.674999
20
1.556126
30
0.062723
70
192
0
VERTEX
10
-1.174999
20
1.605366
30
0.071406
70
192
0
VERTEX
10
-1.675000
20
1.605366
30
0.071406
70
192
0
VERTEX
10
-1.175000
20
1.521397
30
0.259685
70
192
0
VERTEX
10
-1.675000
20
1.521397
30
0.259685
70
192
0
VERTEX
10
-1.174999
20
1.570637
30
0.268367
70
192
0
VERTEX
10
-1.675000
20
1.570637
30
0.268367
70
192
0
VERTEX
10
2.375001
20
1.441518
30
0.712696
70
192
0
VERTEX
10
1.875001
20
1.441519
30
0.712696
70
192
0
VERTEX
10
2.375001
20
1.490759
30
0.721379
70
192
0
VERTEX
10
1.875000
20
1.490759
30
0.721379
70
192
0
VERTEX
10
2.375001
20
1.406789
30
0.909658
70
192
0
VERTEX
10
1.875000
20
1.406789
30
0.909658
70
192
0
VERTEX
10
2.375000
20
1.456029
30
0.918340
70
192
0
VERTEX
10
1.875000
20
1.456029
30
0.918340
70
192
0
VERTEX
10
-1.875000
20
1.556127
30
0.062723
70
192
0
VERTEX
10
-2.375000
20
1.556127
30
0.062723
70
192
0
VERTEX
10
-1.875000
20
1.605367
30
0.071405
70
192
0
VERTEX
10
-2.375000
20
1.605367
30
0.071405
70
192
0
VERTEX
10
-1.875000
20
1.521397
30
0.259685
70
192
0
VERTEX
10
-2.375000
20
1.521397
30
0.259685
70
192
0
VERTEX
10
-1.875000
20
1.570637
30
0.268367
70
192
0
VERTEX
10
-2.375000
20
1.570638
30
0.268367
70
192
0
VERTEX
10
-0.475000
20
1.441518
30
0.712697
70
192
0
VERTEX
10
-0.975000
20
1.441518
30
0.712697
70
192
0
VERTEX
10
-0.475000
20
1.490758
30
0.721379
70
192
0
VERTEX
10
-0.975000
20
1.490759
30
0.721379
70
192
0
VERTEX
10
-0.475000
20
1.406789
30
0.909658
70
192
0
VERTEX
10
-0.975000
20
1.406788
30
0.909658
70
192
0
VERTEX
10
-0.475000
20
1.456029
30
0.918341
70
192
0
VERTEX
10
-0.975000
20
1.456029
30
0.918341
70
192
0
VERTEX
10
1.650000
20
1.556126
30
0.062723
70
192
0
VERTEX
10
1.150000
20
1.556126
30
0.062723
70
192
0
VERTEX
10
1.650000
20
1.605367
30
0.071405
70
192
0
VERTEX
10
1.150000
20
1.605366
30
0.071405
70
192
0
VERTEX
10
1.650000
20
1.521397
30
0.259685
70
192
0
VERTEX
10
1.150000
20
1.521397
30
0.259684
70
192
0
VERTEX
10
1.650000
20
1.570637
30
0.268367
70
192
0
VERTEX
10
1.150000
20
1.570637
30
0.268367
70
192
0
VERTEX
10
2.375001
20
1.556126
30
0.062723
70
192
0
VERTEX
10
1.875000
20
1.556126
30
0.062723
70
192
0
VERTEX
10
2.375001
20
1.605366
30
0.071405
70
192
0
VERTEX
10
1.875000
20
1.605366
30
0.071405
70
192
0
VERTEX
10
2.375001
20
1.521396
30
0.259684
70
192
0
VERTEX
10
1.875000
20
1.521396
30
0.259684
70
192
0
VERTEX
10
2.375001
20
1.570636
30
0.268367
70
192
0
VERTEX
10
1.875000
20
1.570636
30
0.268367
70
192
0
VERTEX
10
-1.175000
20
1.441519
30
0.712697
70
192
0
VERTEX
10
-1.675000
20
1.441519
30
0.712697
70
192
0
VERTEX
10
-1.175000
20
1.490760
30
0.721379
70
192
0
VERTEX
10
-1.675000
20
1.490760
30
0.721379
70
192
0
VERTEX
10
-1.175000
20
1.406790
30
0.909658
70
192
0
VERTEX
10
-1.675000
20
1.406790
30
0.909658
70
192
0
VERTEX
10
-1.175000
20
1.456030
30
0.918341
70
192
0
VERTEX
10
-1.675000
20
1.456030
30
0.918341
70
192
0
VERTEX
10
-1.875000
20
1.441519
30
0.712697
70
192
0
VERTEX
10
-2.374999
20
1.441519
30
0.712697
70
192
0
VERTEX
10
-1.875000
20
1.490760
30
0.721379
70
192
0
VERTEX
10
-2.374999
20
1.490760
30
0.721379
70
192
0
VERTEX
10
-1.875000
20
1.406789
30
0.909658
70
192
0
VERTEX
10
-2.375000
20
1.406789
30
0.909658
70
192
0
VERTEX
10
-1.874999
20
1.456030
30
0.918341
70
192
0
VERTEX
10
-2.375000
20
1.456030
30
0.918341
70
192
0
VERTEX
10
0.950000
20
1.441519
30
0.712696
70
192
0
VERTEX
10
0.450000
20
1.441519
30
0.712696
70
192
0
VERTEX
10
0.950000
20
1.490759
30
0.721379
70
192
0
VERTEX
10
0.450000
20
1.490759
30
0.721379
70
192
0
VERTEX
10
0.950000
20
1.406789
30
0.909658
70
192
0
VERTEX
10
0.450000
20
1.406789
30
0.909658
70
192
0
VERTEX
10
0.950000
20
1.456030
30
0.918340
70
192
0
VERTEX
10
0.450000
20
1.456030
30
0.918340
70
192
0
VERTEX
10
0.250000
20
1.556126
30
0.062723
70
192
0
VERTEX
10
-0.250000
20
1.556126
30
0.062723
70
192
0
VERTEX
10
0.250000
20
1.605367
30
0.071406
70
192
0
VERTEX
10
-0.250000
20
1.605367
30
0.071406
70
192
0
VERTEX
10
0.250000
20
1.521397
30
0.259685
70
192
0
VERTEX
10
-0.250000
20
1.521397
30
0.259685
70
192
0
VERTEX
10
0.250000
20
1.570637
30
0.268367
70
192
0
VERTEX
10
-0.250000
20
1.570637
30
0.268367
70
192
0
VERTEX
10
2.500000
20
1.566545
30
0.003634
70
192
0
VERTEX
10
-2.500000
20
1.566545
30
0.003634
70
192
0
VERTEX
10
2.500000
20
1.615786
30
0.012317
70
192
0
VERTEX
10
-2.500000
20
1.615786
30
0.012317
70
192
0
VERTEX
10
2.500000
20
1.557863
30
0.052875
70
192
0
VERTEX
10
-2.500000
20
1.557863
30
0.052875
70
192
0
VERTEX
10
2.500001
20
1.607103
30
0.061557
70
192
0
VERTEX
10
-2.500000
20
1.607103
30
0.061557
70
192
0
VERTEX
10
2.500001
20
1.451937
30
0.653608
70
192
0
VERTEX
10
-2.500000
20
1.451937
30
0.653608
70
192
0
VERTEX
10
2.500001
20
1.501178
30
0.662290
70
192
0
VERTEX
10
-2.500000
20
1.501178
30
0.662290
70
192
0
VERTEX
10
2.500001
20
1.443255
30
0.702848
70
192
0
VERTEX
10
-2.500000
20
1.443255
30
0.702848
70
192
0
VERTEX
10
2.500001
20
1.492495
30
0.711531
70
192
0
VERTEX
10
-2.500000
20
1.492495
30
0.711531
70
192
0
VERTEX
10
2.500000
20
1.392897
30
0.988443
70
192
0
VERTEX
10
-2.500000
20
1.392897
30
0.988443
70
192
0
VERTEX
10
2.500001
20
1.442137
30
0.997125
70
192
0
VERTEX
10
-2.500000
20
1.442138
30
0.997125
70
192
0
VERTEX
10
2.500001
20
1.384215
30
1.037683
70
192
0
VERTEX
10
-2.500000
20
1.384215
30
1.037683
70
192
0
VERTEX
10
2.500000
20
1.433455
30
1.046366
70
192
0
VERTEX
10
-2.500000
20
1.433455
30
1.046366
70
192
0
VERTEX
10
2.500000
20
1.509241
30
0.328621
70
192
0
VERTEX
10
-2.500000
20
1.509241
30
0.328621
70
192
0
VERTEX
10
2.500001
20
1.558481
30
0.337304
70
192
0
VERTEX
10
-2.500000
20
1.558481
30
0.337304
70
192
0
VERTEX
10
2.500001
20
1.500558
30
0.377862
70
192
0
VERTEX
10
-2.500000
20
1.500558
30
0.377862
70
192
0
VERTEX
10
2.500000
20
1.549799
30
0.386544
70
192
0
VERTEX
10
-2.500000
20
1.549799
30
0.386544
70
192
0
VERTEX
10
-1.760700
20
1.566545
30
0.003635
70
192
0
VERTEX
10
-1.810700
20
1.566545
30
0.003635
70
192
0
VERTEX
10
-1.760700
20
1.615786
30
0.012317
70
192
0
VERTEX
10
-1.810700
20
1.615786
30
0.012317
70
192
0
VERTEX
10
-1.760700
20
1.384215
30
1.037683
70
192
0
VERTEX
10
-1.810700
20
1.384215
30
1.037683
70
192
0
VERTEX
10
-1.760700
20
1.433455
30
1.046365
70
192
0
VERTEX
10
-1.810700
20
1.433455
30
1.046365
70
192
0
VERTEX
10
2.525000
20
1.566545
30
0.003635
70
192
0
VERTEX
10
2.475000
20
1.566545
30
0.003635
70
192
0
VERTEX
10
2.524999
20
1.615786
30
0.012317
70
192
0
VERTEX
10
2.475000
20
1.615786
30
0.012318
70
192
0
VERTEX
10
2.524999
20
1.384215
30
1.037683
70
192
0
VERTEX
10
2.475000
20
1.384215
30
1.037683
70
192
0
VERTEX
10
2.524999
20
1.433455
30
1.046366
70
192
0
VERTEX
10
2.475000
20
1.433455
30
1.046366
70
192
0
VERTEX
10
-2.450000
20
1.566545
30
0.003634
70
192
0
VERTEX
10
-2.500000
20
1.566545
30
0.003634
70
192
0
VERTEX
10
-2.450001
20
1.615786
30
0.012317
70
192
0
VERTEX
10
-2.500000
20
1.615785
30
0.012317
70
192
0
VERTEX
10
-2.450001
20
1.384215
30
1.037683
70
192
0
VERTEX
10
-2.500000
20
1.384215
30
1.037683
70
192
0
VERTEX
10
-2.450001
20
1.433455
30
1.046365
70
192
0
VERTEX
10
-2.500000
20
1.433455
30
1.046365
70
192
0
VERTEX
10
1.810700
20
1.566546
30
0.003635
70
192
0
VERTEX
10
1.760700
20
1.566546
30
0.003635
70
192
0
VERTEX
10
1.810700
20
1.615786
30
0.012317
70
192
0
VERTEX
10
1.760700
20
1.615786
30
0.012317
70
192
0
VERTEX
10
1.810701
20
1.384215
30
1.037683
70
192
0
VERTEX
10
1.760700
20
1.384215
30
1.037683
70
192
0
VERTEX
10
1.810700
20
1.433455
30
1.046366
70
192
0
VERTEX
10
1.760700
20
1.433455
30
1.046365
70
192
0
VERTEX
10
1.096400
20
1.566545
30
0.003635
70
192
0
VERTEX
10
1.046400
20
1.566545
30
0.003635
70
192
0
VERTEX
10
1.096400
20
1.615786
30
0.012317
70
192
0
VERTEX
10
1.046400
20
1.615786
30
0.012317
70
192
0
VERTEX
10
1.096400
20
1.384215
30
1.037683
70
192
0
VERTEX
10
1.046400
20
1.384215
30
1.037683
70
192
0
VERTEX
10
1.096400
20
1.433455
30
1.046365
70
192
0
VERTEX
10
1.046400
20
1.433455
30
1.046365
70
192
0
VERTEX
10
0.382100
20
1.566545
30
0.003635
70
192
0
VERTEX
10
0.332100
20
1.566545
30
0.003635
70
192
0
VERTEX
10
0.382100
20
1.615786
30
0.012317
70
192
0
VERTEX
10
0.332100
20
1.615786
30
0.012317
70
192
0
VERTEX
10
0.382100
20
1.384215
30
1.037683
70
192
0
VERTEX
10
0.332100
20
1.384215
30
1.037683
70
192
0
VERTEX
10
0.382100
20
1.433455
30
1.046365
70
192
0
VERTEX
10
0.332100
20
1.433455
30
1.046365
70
192
0
VERTEX
10
-0.332100
20
1.566545
30
0.003634
70
192
0
VERTEX
10
-0.382100
20
1.566545
30
0.003634
70
192
0
VERTEX
10
-0.332100
20
1.615786
30
0.012317
70
192
0
VERTEX
10
-0.382100
20
1.615786
30
0.012317
70
192
0
VERTEX
10
-0.332100
20
1.384215
30
1.037683
70
192
0
VERTEX
10
-0.382100
20
1.384215
30
1.037683
70
192
0
VERTEX
10
-0.332100
20
1.433455
30
1.046365
70
192
0
VERTEX
10
-0.382100
20
1.433455
30
1.046365
70
192
0
VERTEX
10
-1.046400
20
1.566545
30
0.003635
70
192
0
VERTEX
10
-1.096400
20
1.566545
30
0.003635
70
192
0
VERTEX
10
-1.046400
20
1.615786
30
0.012317
70
192
0
VERTEX
10
-1.096400
20
1.615786
30
0.012317
70
192
0
VERTEX
10
-1.046400
20
1.384215
30
1.037683
70
192
0
VERTEX
10
-1.096400
20
1.384215
30
1.037683
70
192
0
VERTEX
10
-1.046400
20
1.433455
30
1.046366
70
192
0
VERTEX
10
-1.096400
20
1.433455
30
1.046366
70
192
0
VERTEX
10
0.0
20
0.0
30
0.0
70
128
71
1
72
2
73
3
0
VERTEX
10
0.0
20
0.0
30
0.0
70
128
71
3
72
2
73
4
0
VERTEX
10
0.0
20
0.0
30
0.0
70
128
71
2
72
1
73
5
0
VERTEX
10
0.0
20
0.0
30
0.0
70
128
71
2
72
5
73
6
0
VERTEX
10
0.0
20
0.0
30
0.0
70
128
71
3
72
4
73
7
0
VERTEX
10
0.0
20
0.0
30
0.0
70
128
71
7
72
4
73
8
0
VERTEX
10
0.0
20
0.0
30
0.0
70
128
71
7
72
8
73
5
0
VERTEX
10
0.0
20
0.0
30
0.0
70
128
71
5
72
8
73
6
0
VERTEX
10
0.0
20
0.0
30
0.0
70
128
71
4
72
2
73
8
0
VERTEX
10
0.0
20
0.0
30
0.0
70
128
71
8
72
2
73
6
0
VERTEX
10
0.0
20
0.0
30
0.0
70
128
71
1
72
3
73
7
0
VERTEX
10
0.0
20
0.0
30
0.0
70
128
71
1
72
7
73
5
0
VERTEX
10
0.0
20
0.0
30
0.0
70
128
71
9
72
10
73
11
0
VERTEX
10
0.0
20
0.0
30
0.0
70
128
71
11
72
10
73
12
0
VERTEX
10
0.0
20
0.0
30
0.0
70
128
71
10
72
9
73
13
0
VERTEX
10
0.0
20
0.0
30
0.0
70
128
71
10
72
13
73
14
0
VERTEX
10
0.0
20
0.0
30
0.0
70
128
71
11
72
12
73
15
0
VERTEX
10
0.0
20
0.0
30
0.0
70
128
71
15
72
12
73
16
0
VERTEX
10
0.0
20
0.0
30
0.0
70
128
71
15
72
16
73
13
0
VERTEX
10
0.0
20
0.0
30
0.0
70
128
71
13
72
16
73
14
0
VERTEX
10
0.0
20
0.0
30
0.0
70
128
71
12
72
10
73
16
0
VERTEX
10
0.0
20
0.0
30
0.0
70
128
71
16
72
10
73
14
0
VERTEX
10
0.0
20
0.0
30
0.0
70
128
71
9
72
11
73
15
0
VERTEX
10
0.0
20
0.0
30
0.0
70
128
71
9
72
15
73
13
0
VERTEX
10
0.0
20
0.0
30
0.0
70
128
71
17
72
18
73
19
0
VERTEX
10
0.0
20
0.0
30
0.0
70
128
71
19
72
18
73
20
0
VERTEX
10
0.0
20
0.0
30
0.0
70
128
71
18
72
17
73
21
0
VERTEX
10
0.0
20
0.0
30
0.0
70
128
71
18
72
21
73
22
0
VERTEX
10
0.0
20
0.0
30
0.0
70
128
71
19
72
20
73
23
0
VERTEX
10
0.0
20
0.0
30
0.0
70
128
71
23
72
20
73
24
0
VERTEX
10
0.0
20
0.0
30
0.0
70
128
71
23
72
24
73
21
0
VERTEX
10
0.0
20
0.0
30
0.0
70
128
71
21
72
24
73
22
0
VERTEX
10
0.0
20
0.0
30
0.0
70
128
71
20
72
18
73
24
0
VERTEX
10
0.0
20
0.0
30
0.0
70
128
71
24
72
18
73
22
0
VERTEX
10
0.0
20
0.0
30
0.0
70
128
71
17
72
19
73
23
0
VERTEX
10
0.0
20
0.0
30
0.0
70
128
71
17
72
23
73
21
0
VERTEX
10
0.0
20
0.0
30
0.0
70
128
71
25
72
26
73
27
0
VERTEX
10
0.0
20
0.0
30
0.0
70
128
71
27
72
26
73
28
0
VERTEX
10
0.0
20
0.0
30
0.0
70
128
71
26
72
25
73
29
0
VERTEX
10
0.0
20
0.0
30
0.0
70
128
71
26
72
29
73
30
0
VERTEX
10
0.0
20
0.0
30
0.0
70
128
71
27
72
28
73
31
0
VERTEX
10
0.0
20
0.0
30
0.0
70
128
71
31
72
28
73
32
0
VERTEX
10
0.0
20
0.0
30
0.0
70
128
71
31
72
32
73
29
0
VERTEX
10
0.0
20
0.0
30
0.0
70
128
71
29
72
32
73
30
0
VERTEX
10
0.0
20
0.0
30
0.0
70
128
71
28
72
26
73
32
0
VERTEX
10
0.0
20
0.0
30
0.0
70
128
71
32
72
26
73
30
0
VERTEX
10
0.0
20
0.0
30
0.0
70
128
71
25
72
27
73
31
0
VERTEX
10
0.0
20
0.0
30
0.0
70
128
71
25
72
31
73
29
0
VERTEX
10
0.0
20
0.0
30
0.0
70
128
71
33
72
34
73
35
0
VERTEX
10
0.0
20
0.0
30
0.0
70
128
71
35
72
34
73
36
0
VERTEX
10
0.0
20
0.0
30
0.0
70
128
71
34
72
33
73
37
0
VERTEX
10
0.0
20
0.0
30
0.0
70
128
71
34
72
37
73
38
0
VERTEX
10
0.0
20
0.0
30
0.0
70
128
71
35
72
36
73
39
0
VERTEX
10
0.0
20
0.0
30
0.0
70
128
71
39
72
36
73
40
0
VERTEX
10
0.0
20
0.0
30
0.0
70
128
71
39
72
40
73
37
0
VERTEX
10
0.0
20
0.0
30
0.0
70
128
71
37
72
40
73
38
0
VERTEX
10
0.0
20
0.0
30
0.0
70
128
71
36
72
34
73
40
0
VERTEX
10
0.0
20
0.0
30
0.0
70
128
71
40
72
34
73
38
0
VERTEX
10
0.0
20
0.0
30
0.0
70
128
71
33
72
35
73
39
0
VERTEX
10
0.0
20
0.0
30
0.0
70
128
71
33
72
39
73
37
0
VERTEX
10
0.0
20
0.0
30
0.0
70
128
71
41
72
42
73
43
0
VERTEX
10
0.0
20
0.0
30
0.0
70
128
71
43
72
42
73
44
0
VERTEX
10
0.0
20
0.0
30
0.0
70
128
71
42
72
41
73
45
0
VERTEX
10
0.0
20
0.0
30
0.0
70
128
71
42
72
45
73
46
0
VERTEX
10
0.0
20
0.0
30
0.0
70
128
71
43
72
44
73
47
0
VERTEX
10
0.0
20
0.0
30
0.0
70
128
71
47
72
44
73
48
0
VERTEX
10
0.0
20
0.0
30
0.0
70
128
71
47
72
48
73
45
0
VERTEX
10
0.0
20
0.0
30
0.0
70
128
71
45
72
48
73
46
0
VERTEX
10
0.0
20
0.0
30
0.0
70
128
71
44
72
42
73
48
0
VERTEX
10
0.0
20
0.0
30
0.0
70
128
71
48
72
42
73
46
0
VERTEX
10
0.0
20
0.0
30
0.0
70
128
71
41
72
43
73
47
0
VERTEX
10
0.0
20
0.0
30
0.0
70
128
71
41
72
47
73
45
0
VERTEX
10
0.0
20
0.0
30
0.0
70
128
71
49
72
50
73
51
0
VERTEX
10
0.0
20
0.0
30
0.0
70
128
71
51
72
50
73
52
0
VERTEX
10
0.0
20
0.0
30
0.0
70
128
71
50
72
49
73
53
0
VERTEX
10
0.0
20
0.0
30
0.0
70
128
71
50
72
53
73
54
0
VERTEX
10
0.0
20
0.0
30
0.0
70
128
71
51
72
52
73
55
0
VERTEX
10
0.0
20
0.0
30
0.0
70
128
71
55
72
52
73
56
0
VERTEX
10
0.0
20
0.0
30
0.0
70
128
71
55
72
56
73
53
0
VERTEX
10
0.0
20
0.0
30
0.0
70
128
71
53
72
56
73
54
0
VERTEX
10
0.0
20
0.0
30
0.0
70
128
71
52
72
50
73
56
0
VERTEX
10
0.0
20
0.0
30
0.0
70
128
71
56
72
50
73
54
0
VERTEX
10
0.0
20
0.0
30
0.0
70
128
71
49
72
51
73
55
0
VERTEX
10
0.0
20
0.0
30
0.0
70
128
71
49
72
55
73
53
0
VERTEX
10
0.0
20
0.0
30
0.0
70
128
71
57
72
58
73
59
0
VERTEX
10
0.0
20
0.0
30
0.0
70
128
71
59
72
58
73
60
0
VERTEX
10
0.0
20
0.0
30
0.0
70
128
71
58
72
57
73
61
0
VERTEX
10
0.0
20
0.0
30
0.0
70
128
71
58
72
61
73
62
0
VERTEX
10
0.0
20
0.0
30
0.0
70
128
71
59
72
60
73
63
0
VERTEX
10
0.0
20
0.0
30
0.0
70
128
71
63
72
60
73
64
0
VERTEX
10
0.0
20
0.0
30
0.0
70
128
71
63
72
64
73
61
0
VERTEX
10
0.0
20
0.0
30
0.0
70
128
71
61
72
64
73
62
0
VERTEX
10
0.0
20
0.0
30
0.0
70
128
71
60
72
58
73
64
0
VERTEX
10
0.0
20
0.0
30
0.0
70
128
71
64
72
58
73
62
0
VERTEX
10
0.0
20
0.0
30
0.0
70
128
71
57
72
59
73
63
0
VERTEX
10
0.0
20
0.0
30
0.0
70
128
71
57
72
63
73
61
0
VERTEX
10
0.0
20
0.0
30
0.0
70
128
71
65
72
66
73
67
0
VERTEX
10
0.0
20
0.0
30
0.0
70
128
71
67
72
66
73
68
0
VERTEX
10
0.0
20
0.0
30
0.0
70
128
71
66
72
65
73
69
0
VERTEX
10
0.0
20
0.0
30
0.0
70
128
71
66
72
69
73
70
0
VERTEX
10
0.0
20
0.0
30
0.0
70
128
71
67
72
68
73
71
0
VERTEX
10
0.0
20
0.0
30
0.0
70
128
71
71
72
68
73
72
0
VERTEX
10
0.0
20
0.0
30
0.0
70
128
71
71
72
72
73
69
0
VERTEX
10
0.0
20
0.0
30
0.0
70
128
71
69
72
72
73
70
0
VERTEX
10
0.0
20
0.0
30
0.0
70
128
71
68
72
66
73
72
0
VERTEX
10
0.0
20
0.0
30
0.0
70
128
71
72
72
66
73
70
0
VERTEX
10
0.0
20
0.0
30
0.0
70
128
71
65
72
67
73
71
0
VERTEX
10
0.0
20
0.0
30
0.0
70
128
71
65
72
71
73
69
0
VERTEX
10
0.0
20
0.0
30
0.0
70
128
71
73
72
74
73
75
0
VERTEX
10
0.0
20
0.0
30
0.0
70
128
71
75
72
74
73
76
0
VERTEX
10
0.0
20
0.0
30
0.0
70
128
71
74
72
73
73
77
0
VERTEX
10
0.0
20
0.0
30
0.0
70
128
71
74
72
77
73
78
0
VERTEX
10
0.0
20
0.0
30
0.0
70
128
71
75
72
76
73
79
0
VERTEX
10
0.0
20
0.0
30
0.0
70
128
71
79
72
76
73
80
0
VERTEX
10
0.0
20
0.0
30
0.0
70
128
71
79
72
80
73
77
0
VERTEX
10
0.0
20
0.0
30
0.0
70
128
71
77
72
80
73
78
0
VERTEX
10
0.0
20
0.0
30
0.0
70
128
71
76
72
74
73
80
0
VERTEX
10
0.0
20
0.0
30
0.0
70
128
71
80
72
74
73
78
0
VERTEX
10
0.0
20
0.0
30
0.0
70
128
71
73
72
75
73
79
0
VERTEX
10
0.0
20
0.0
30
0.0
70
128
71
73
72
79
73
77
0
VERTEX
10
0.0
20
0.0
30
0.0
70
128
71
81
72
82
73
83
0
VERTEX
10
0.0
20
0.0
30
0.0
70
128
71
83
72
82
73
84
0
VERTEX
10
0.0
20
0.0
30
0.0
70
128
71
82
72
81
73
85
0
VERTEX
10
0.0
20
0.0
30
0.0
70
128
71
82
72
85
73
86
0
VERTEX
10
0.0
20
0.0
30
0.0
70
128
71
83
72
84
73
87
0
VERTEX
10
0.0
20
0.0
30
0.0
70
128
71
87
72
84
73
88
0
VERTEX
10
0.0
20
0.0
30
0.0
70
128
71
87
72
88
73
85
0
VERTEX
10
0.0
20
0.0
30
0.0
70
128
71
85
72
88
73
86
0
VERTEX
10
0.0
20
0.0
30
0.0
70
128
71
84
72
82
73
88
0
VERTEX
10
0.0
20
0.0
30
0.0
70
128
71
88
72
82
73
86
0
VERTEX
10
0.0
20
0.0
30
0.0
70
128
71
81
72
83
73
87
0
VERTEX
10
0.0
20
0.0
30
0.0
70
128
71
81
72
87
73
85
0
VERTEX
10
0.0
20
0.0
30
0.0
70
128
71
89
72
90
73
91
0
VERTEX
10
0.0
20
0.0
30
0.0
70
128
71
91
72
90
73
92
0
VERTEX
10
0.0
20
0.0
30
0.0
70
128
71
90
72
89
73
93
0
VERTEX
10
0.0
20
0.0
30
0.0
70
128
71
90
72
93
73
94
0
VERTEX
10
0.0
20
0.0
30
0.0
70
128
71
91
72
92
73
95
0
VERTEX
10
0.0
20
0.0
30
0.0
70
128
71
95
72
92
73
96
0
VERTEX
10
0.0
20
0.0
30
0.0
70
128
71
95
72
96
73
93
0
VERTEX
10
0.0
20
0.0
30
0.0
70
128
71
93
72
96
73
94
0
VERTEX
10
0.0
20
0.0
30
0.0
70
128
71
92
72
90
73
96
0
VERTEX
10
0.0
20
0.0
30
0.0
70
128
71
96
72
90
73
94
0
VERTEX
10
0.0
20
0.0
30
0.0
70
128
71
89
72
91
73
95
0
VERTEX
10
0.0
20
0.0
30
0.0
70
128
71
89
72
95
73
93
0
VERTEX
10
0.0
20
0.0
30
0.0
70
128
71
97
72
98
73
99
0
VERTEX
10
0.0
20
0.0
30
0.0
70
128
71
99
72
98
73
100
0
VERTEX
10
0.0
20
0.0
30
0.0
70
128
71
98
72
97
73
101
0
VERTEX
10
0.0
20
0.0
30
0.0
70
128
71
98
72
101
73
102
0
VERTEX
10
0.0
20
0.0
30
0.0
70
128
71
99
72
100
73
103
0
VERTEX
10
0.0
20
0.0
30
0.0
70
128
71
103
72
100
73
104
0
VERTEX
10
0.0
20
0.0
30
0.0
70
128
71
103
72
104
73
101
0
VERTEX
10
0.0
20
0.0
30
0.0
70
128
71
101
72
104
73
102
0
VERTEX
10
0.0
20
0.0
30
0.0
70
128
71
100
72
98
73
104
0
VERTEX
10
0.0
20
0.0
30
0.0
70
128
71
104
72
98
73
102
0
VERTEX
10
0.0
20
0.0
30
0.0
70
128
71
97
72
99
73
103
0
VERTEX
10
0.0
20
0.0
30
0.0
70
128
71
97
72
103
73
101
0
VERTEX
10
0.0
20
0.0
30
0.0
70
128
71
105
72
106
73
107
0
VERTEX
10
0.0
20
0.0
30
0.0
70
128
71
107
72
106
73
108
0
VERTEX
10
0.0
20
0.0
30
0.0
70
128
71
106
72
105
73
109
0
VERTEX
10
0.0
20
0.0
30
0.0
70
128
71
106
72
109
73
110
0
VERTEX
10
0.0
20
0.0
30
0.0
70
128
71
107
72
108
73
111
0
VERTEX
10
0.0
20
0.0
30
0.0
70
128
71
111
72
108
73
112
0
VERTEX
10
0.0
20
0.0
30
0.0
70
128
71
111
72
112
73
109
0
VERTEX
10
0.0
20
0.0
30
0.0
70
128
71
109
72
112
73
110
0
VERTEX
10
0.0
20
0.0
30
0.0
70
128
71
108
72
106
73
112
0
VERTEX
10
0.0
20
0.0
30
0.0
70
128
71
112
72
106
73
110
0
VERTEX
10
0.0
20
0.0
30
0.0
70
128
71
105
72
107
73
111
0
VERTEX
10
0.0
20
0.0
30
0.0
70
128
71
105
72
111
73
109
0
VERTEX
10
0.0
20
0.0
30
0.0
70
128
71
113
72
114
73
115
0
VERTEX
10
0.0
20
0.0
30
0.0
70
128
71
115
72
114
73
116
0
VERTEX
10
0.0
20
0.0
30
0.0
70
128
71
114
72
113
73
117
0
VERTEX
10
0.0
20
0.0
30
0.0
70
128
71
114
72
117
73
118
0
VERTEX
10
0.0
20
0.0
30
0.0
70
128
71
115
72
116
73
119
0
VERTEX
10
0.0
20
0.0
30
0.0
70
128
71
119
72
116
73
120
0
VERTEX
10
0.0
20
0.0
30
0.0
70
128
71
119
72
120
73
117
0
VERTEX
10
0.0
20
0.0
30
0.0
70
128
71
117
72
120
73
118
0
VERTEX
10
0.0
20
0.0
30
0.0
70
128
71
116
72
114
73
120
0
VERTEX
10
0.0
20
0.0
30
0.0
70
128
71
120
72
114
73
118
0
VERTEX
10
0.0
20
0.0
30
0.0
70
128
71
113
72
115
73
119
0
VERTEX
10
0.0
20
0.0
30
0.0
70
128
71
113
72
119
73
117
0
VERTEX
10
0.0
20
0.0
30
0.0
70
128
71
121
72
122
73
123
0
VERTEX
10
0.0
20
0.0
30
0.0
70
128
71
123
72
122
73
124
0
VERTEX
10
0.0
20
0.0
30
0.0
70
128
71
122
72
121
73
125
0
VERTEX
10
0.0
20
0.0
30
0.0
70
128
71
122
72
125
73
126
0
VERTEX
10
0.0
20
0.0
30
0.0
70
128
71
123
72
124
73
127
0
VERTEX
10
0.0
20
0.0
30
0.0
70
128
71
127
72
124
73
128
0
VERTEX
10
0.0
20
0.0
30
0.0
70
128
71
127
72
128
73
125
0
VERTEX
10
0.0
20
0.0
30
0.0
70
128
71
125
72
128
73
126
0
VERTEX
10
0.0
20
0.0
30
0.0
70
128
71
124
72
122
73
128
0
VERTEX
10
0.0
20
0.0
30
0.0
70
128
71
128
72
122
73
126
0
VERTEX
10
0.0
20
0.0
30
0.0
70
128
71
121
72
123
73
127
0
VERTEX
10
0.0
20
0.0
30
0.0
70
128
71
121
72
127
73
125
0
VERTEX
10
0.0
20
0.0
30
0.0
70
128
71
129
72
130
73
131
0
VERTEX
10
0.0
20
0.0
30
0.0
70
128
71
131
72
130
73
132
0
VERTEX
10
0.0
20
0.0
30
0.0
70
128
71
130
72
129
73
133
0
VERTEX
10
0.0
20
0.0
30
0.0
70
128
71
130
72
133
73
134
0
VERTEX
10
0.0
20
0.0
30
0.0
70
128
71
131
72
132
73
135
0
VERTEX
10
0.0
20
0.0
30
0.0
70
128
71
135
72
132
73
136
0
VERTEX
10
0.0
20
0.0
30
0.0
70
128
71
135
72
136
73
133
0
VERTEX
10
0.0
20
0.0
30
0.0
70
128
71
133
72
136
73
134
0
VERTEX
10
0.0
20
0.0
30
0.0
70
128
71
132
72
130
73
136
0
VERTEX
10
0.0
20
0.0
30
0.0
70
128
71
136
72
130
73
134
0
VERTEX
10
0.0
20
0.0
30
0.0
70
128
71
129
72
131
73
135
0
VERTEX
10
0.0
20
0.0
30
0.0
70
128
71
129
72
135
73
133
0
VERTEX
10
0.0
20
0.0
30
0.0
70
128
71
137
72
138
73
139
0
VERTEX
10
0.0
20
0.0
30
0.0
70
128
71
139
72
138
73
140
0
VERTEX
10
0.0
20
0.0
30
0.0
70
128
71
138
72
137
73
141
0
VERTEX
10
0.0
20
0.0
30
0.0
70
128
71
138
72
141
73
142
0
VERTEX
10
0.0
20
0.0
30
0.0
70
128
71
139
72
140
73
143
0
VERTEX
10
0.0
20
0.0
30
0.0
70
128
71
143
72
140
73
144
0
VERTEX
10
0.0
20
0.0
30
0.0
70
128
71
143
72
144
73
141
0
VERTEX
10
0.0
20
0.0
30
0.0
70
128
71
141
72
144
73
142
0
VERTEX
10
0.0
20
0.0
30
0.0
70
128
71
140
72
138
73
144
0
VERTEX
10
0.0
20
0.0
30
0.0
70
128
71
144
72
138
73
142
0
VERTEX
10
0.0
20
0.0
30
0.0
70
128
71
137
72
139
73
143
0
VERTEX
10
0.0
20
0.0
30
0.0
70
128
71
137
72
143
73
141
0
VERTEX
10
0.0
20
0.0
30
0.0
70
128
71
145
72
146
73
147
0
VERTEX
10
0.0
20
0.0
30
0.0
70
128
71
147
72
146
73
148
0
VERTEX
10
0.0
20
0.0
30
0.0
70
128
71
146
72
145
73
149
0
VERTEX
10
0.0
20
0.0
30
0.0
70
128
71
146
72
149
73
150
0
VERTEX
10
0.0
20
0.0
30
0.0
70
128
71
147
72
148
73
151
0
VERTEX
10
0.0
20
0.0
30
0.0
70
128
71
151
72
148
73
152
0
VERTEX
10
0.0
20
0.0
30
0.0
70
128
71
151
72
152
73
149
0
VERTEX
10
0.0
20
0.0
30
0.0
70
128
71
149
72
152
73
150
0
VERTEX
10
0.0
20
0.0
30
0.0
70
128
71
148
72
146
73
152
0
VERTEX
10
0.0
20
0.0
30
0.0
70
128
71
152
72
146
73
150
0
VERTEX
10
0.0
20
0.0
30
0.0
70
128
71
145
72
147
73
151
0
VERTEX
10
0.0
20
0.0
30
0.0
70
128
71
145
72
151
73
149
0
VERTEX
10
0.0
20
0.0
30
0.0
70
128
71
153
72
154
73
155
0
VERTEX
10
0.0
20
0.0
30
0.0
70
128
71
155
72
154
73
156
0
VERTEX
10
0.0
20
0.0
30
0.0
70
128
71
154
72
153
73
157
0
VERTEX
10
0.0
20
0.0
30
0.0
70
128
71
154
72
157
73
158
0
VERTEX
10
0.0
20
0.0
30
0.0
70
128
71
155
72
156
73
159
0
VERTEX
10
0.0
20
0.0
30
0.0
70
128
71
159
72
156
73
160
0
VERTEX
10
0.0
20
0.0
30
0.0
70
128
71
159
72
160
73
157
0
VERTEX
10
0.0
20
0.0
30
0.0
70
128
71
157
72
160
73
158
0
VERTEX
10
0.0
20
0.0
30
0.0
70
128
71
156
72
154
73
160
0
VERTEX
10
0.0
20
0.0
30
0.0
70
128
71
160
72
154
73
158
0
VERTEX
10
0.0
20
0.0
30
0.0
70
128
71
153
72
155
73
159
0
VERTEX
10
0.0
20
0.0
30
0.0
70
128
71
153
72
159
73
157
0
VERTEX
10
0.0
20
0.0
30
0.0
70
128
71
161
72
162
73
163
0
VERTEX
10
0.0
20
0.0
30
0.0
70
128
71
163
72
162
73
164
0
VERTEX
10
0.0
20
0.0
30
0.0
70
128
71
162
72
161
73
165
0
VERTEX
10
0.0
20
0.0
30
0.0
70
128
71
162
72
165
73
166
0
VERTEX
10
0.0
20
0.0
30
0.0
70
128
71
163
72
164
73
167
0
VERTEX
10
0.0
20
0.0
30
0.0
70
128
71
167
72
164
73
168
0
VERTEX
10
0.0
20
0.0
30
0.0
70
128
71
167
72
168
73
165
0
VERTEX
10
0.0
20
0.0
30
0.0
70
128
71
165
72
168
73
166
0
VERTEX
10
0.0
20
0.0
30
0.0
70
128
71
164
72
162
73
168
0
VERTEX
10
0.0
20
0.0
30
0.0
70
128
71
168
72
162
73
166
0
VERTEX
10
0.0
20
0.0
30
0.0
70
128
71
161
72
163
73
167
0
VERTEX
10
0.0
20
0.0
30
0.0
70
128
71
161
72
167
73
165
0
VERTEX
10
0.0
20
0.0
30
0.0
70
128
71
169
72
170
73
171
0
VERTEX
10
0.0
20
0.0
30
0.0
70
128
71
171
72
170
73
172
0
VERTEX
10
0.0
20
0.0
30
0.0
70
128
71
170
72
169
73
173
0
VERTEX
10
0.0
20
0.0
30
0.0
70
128
71
170
72
173
73
174
0
VERTEX
10
0.0
20
0.0
30
0.0
70
128
71
171
72
172
73
175
0
VERTEX
10
0.0
20
0.0
30
0.0
70
128
71
175
72
172
73
176
0
VERTEX
10
0.0
20
0.0
30
0.0
70
128
71
175
72
176
73
173
0
VERTEX
10
0.0
20
0.0
30
0.0
70
128
71
173
72
176
73
174
0
VERTEX
10
0.0
20
0.0
30
0.0
70
128
71
172
72
170
73
176
0
VERTEX
10
0.0
20
0.0
30
0.0
70
128
71
176
72
170
73
174
0
VERTEX
10
0.0
20
0.0
30
0.0
70
128
71
169
72
171
73
175
0
VERTEX
10
0.0
20
0.0
30
0.0
70
128
71
169
72
175
73
173
0
VERTEX
10
0.0
20
0.0
30
0.0
70
128
71
177
72
178
73
179
0
VERTEX
10
0.0
20
0.0
30
0.0
70
128
71
179
72
178
73
180
0
VERTEX
10
0.0
20
0.0
30
0.0
70
128
71
178
72
177
73
181
0
VERTEX
10
0.0
20
0.0
30
0.0
70
128
71
178
72
181
73
182
0
VERTEX
10
0.0
20
0.0
30
0.0
70
128
71
179
72
180
73
183
0
VERTEX
10
0.0
20
0.0
30
0.0
70
128
71
183
72
180
73
184
0
VERTEX
10
0.0
20
0.0
30
0.0
70
128
71
183
72
184
73
181
0
VERTEX
10
0.0
20
0.0
30
0.0
70
128
71
181
72
184
73
182
0
VERTEX
10
0.0
20
0.0
30
0.0
70
128
71
180
72
178
73
184
0
VERTEX
10
0.0
20
0.0
30
0.0
70
128
71
184
72
178
73
182
0
VERTEX
10
0.0
20
0.0
30
0.0
70
128
71
177
72
179
73
183
0
VERTEX
10
0.0
20
0.0
30
0.0
70
128
71
177
72
183
73
181
0
VERTEX
10
0.0
20
0.0
30
0.0
70
128
71
185
72
186
73
187
0
VERTEX
10
0.0
20
0.0
30
0.0
70
128
71
187
72
186
73
188
0
VERTEX
10
0.0
20
0.0
30
0.0
70
128
71
186
72
185
73
189
0
VERTEX
10
0.0
20
0.0
30
0.0
70
128
71
186
72
189
73
190
0
VERTEX
10
0.0
20
0.0
30
0.0
70
128
71
187
72
188
73
191
0
VERTEX
10
0.0
20
0.0
30
0.0
70
128
71
191
72
188
73
192
0
VERTEX
10
0.0
20
0.0
30
0.0
70
128
71
191
72
192
73
189
0
VERTEX
10
0.0
20
0.0
30
0.0
70
128
71
189
72
192
73
190
0
VERTEX
10
0.0
20
0.0
30
0.0
70
128
71
188
72
186
73
192
0
VERTEX
10
0.0
20
0.0
30
0.0
70
128
71
192
72
186
73
190
0
VERTEX
10
0.0
20
0.0
30
0.0
70
128
71
185
72
187
73
191
0
VERTEX
10
0.0
20
0.0
30
0.0
70
128
71
185
72
191
73
189
0
VERTEX
10
0.0
20
0.0
30
0.0
70
128
71
193
72
194
73
195
0
VERTEX
10
0.0
20
0.0
30
0.0
70
128
71
195
72
194
73
196
0
VERTEX
10
0.0
20
0.0
30
0.0
70
128
71
194
72
193
73
197
0
VERTEX
10
0.0
20
0.0
30
0.0
70
128
71
194
72
197
73
198
0
VERTEX
10
0.0
20
0.0
30
0.0
70
128
71
195
72
196
73
199
0
VERTEX
10
0.0
20
0.0
30
0.0
70
128
71
199
72
196
73
200
0
VERTEX
10
0.0
20
0.0
30
0.0
70
128
71
199
72
200
73
197
0
VERTEX
10
0.0
20
0.0
30
0.0
70
128
71
197
72
200
73
198
0
VERTEX
10
0.0
20
0.0
30
0.0
70
128
71
196
72
194
73
200
0
VERTEX
10
0.0
20
0.0
30
0.0
70
128
71
200
72
194
73
198
0
VERTEX
10
0.0
20
0.0
30
0.0
70
128
71
193
72
195
73
199
0
VERTEX
10
0.0
20
0.0
30
0.0
70
128
71
193
72
199
73
197
0
VERTEX
10
0.0
20
0.0
30
0.0
70
128
71
201
72
202
73
203
0
VERTEX
10
0.0
20
0.0
30
0.0
70
128
71
203
72
202
73
204
0
VERTEX
10
0.0
20
0.0
30
0.0
70
128
71
202
72
201
73
205
0
VERTEX
10
0.0
20
0.0
30
0.0
70
128
71
202
72
205
73
206
0
VERTEX
10
0.0
20
0.0
30
0.0
70
128
71
203
72
204
73
207
0
VERTEX
10
0.0
20
0.0
30
0.0
70
128
71
207
72
204
73
208
0
VERTEX
10
0.0
20
0.0
30
0.0
70
128
71
207
72
208
73
205
0
VERTEX
10
0.0
20
0.0
30
0.0
70
128
71
205
72
208
73
206
0
VERTEX
10
0.0
20
0.0
30
0.0
70
128
71
204
72
202
73
208
0
VERTEX
10
0.0
20
0.0
30
0.0
70
128
71
208
72
202
73
206
0
VERTEX
10
0.0
20
0.0
30
0.0
70
128
71
201
72
203
73
207
0
VERTEX
10
0.0
20
0.0
30
0.0
70
128
71
201
72
207
73
205
0
VERTEX
10
0.0
20
0.0
30
0.0
70
128
71
209
72
210
73
211
0
VERTEX
10
0.0
20
0.0
30
0.0
70
128
71
211
72
210
73
212
0
VERTEX
10
0.0
20
0.0
30
0.0
70
128
71
210
72
209
73
213
0
VERTEX
10
0.0
20
0.0
30
0.0
70
128
71
210
72
213
73
214
0
VERTEX
10
0.0
20
0.0
30
0.0
70
128
71
211
72
212
73
215
0
VERTEX
10
0.0
20
0.0
30
0.0
70
128
71
215
72
212
73
216
0
VERTEX
10
0.0
20
0.0
30
0.0
70
128
71
215
72
216
73
213
0
VERTEX
10
0.0
20
0.0
30
0.0
70
128
71
213
72
216
73
214
0
VERTEX
10
0.0
20
0.0
30
0.0
70
128
71
212
72
210
73
216
0
VERTEX
10
0.0
20
0.0
30
0.0
70
128
71
216
72
210
73
214
0
VERTEX
10
0.0
20
0.0
30
0.0
70
128
71
209
72
211
73
215
0
VERTEX
10
0.0
20
0.0
30
0.0
70
128
71
209
72
215
73
213
0
VERTEX
10
0.0
20
0.0
30
0.0
70
128
71
217
72
218
73
219
0
VERTEX
10
0.0
20
0.0
30
0.0
70
128
71
219
72
218
73
220
0
VERTEX
10
0.0
20
0.0
30
0.0
70
128
71
218
72
217
73
221
0
VERTEX
10
0.0
20
0.0
30
0.0
70
128
71
218
72
221
73
222
0
VERTEX
10
0.0
20
0.0
30
0.0
70
128
71
219
72
220
73
223
0
VERTEX
10
0.0
20
0.0
30
0.0
70
128
71
223
72
220
73
224
0
VERTEX
10
0.0
20
0.0
30
0.0
70
128
71
223
72
224
73
221
0
VERTEX
10
0.0
20
0.0
30
0.0
70
128
71
221
72
224
73
222
0
VERTEX
10
0.0
20
0.0
30
0.0
70
128
71
220
72
218
73
224
0
VERTEX
10
0.0
20
0.0
30
0.0
70
128
71
224
72
218
73
222
0
VERTEX
10
0.0
20
0.0
30
0.0
70
128
71
217
72
219
73
223
0
VERTEX
10
0.0
20
0.0
30
0.0
70
128
71
217
72
223
73
221
0
VERTEX
10
0.0
20
0.0
30
0.0
70
128
71
225
72
226
73
227
0
VERTEX
10
0.0
20
0.0
30
0.0
70
128
71
227
72
226
73
228
0
VERTEX
10
0.0
20
0.0
30
0.0
70
128
71
226
72
225
73
229
0
VERTEX
10
0.0
20
0.0
30
0.0
70
128
71
226
72
229
73
230
0
VERTEX
10
0.0
20
0.0
30
0.0
70
128
71
227
72
228
73
231
0
VERTEX
10
0.0
20
0.0
30
0.0
70
128
71
231
72
228
73
232
0
VERTEX
10
0.0
20
0.0
30
0.0
70
128
71
231
72
232
73
229
0
VERTEX
10
0.0
20
0.0
30
0.0
70
128
71
229
72
232
73
230
0
VERTEX
10
0.0
20
0.0
30
0.0
70
128
71
228
72
226
73
232
0
VERTEX
10
0.0
20
0.0
30
0.0
70
128
71
232
72
226
73
230
0
VERTEX
10
0.0
20
0.0
30
0.0
70
128
71
225
72
227
73
231
0
VERTEX
10
0.0
20
0.0
30
0.0
70
128
71
225
72
231
73
229
0
VERTEX
10
0.0
20
0.0
30
0.0
70
128
71
233
72
234
73
235
0
VERTEX
10
0.0
20
0.0
30
0.0
70
128
71
235
72
234
73
236
0
VERTEX
10
0.0
20
0.0
30
0.0
70
128
71
234
72
233
73
237
0
VERTEX
10
0.0
20
0.0
30
0.0
70
128
71
234
72
237
73
238
0
VERTEX
10
0.0
20
0.0
30
0.0
70
128
71
235
72
236
73
239
0
VERTEX
10
0.0
20
0.0
30
0.0
70
128
71
239
72
236
73
240
0
VERTEX
10
0.0
20
0.0
30
0.0
70
128
71
239
72
240
73
237
0
VERTEX
10
0.0
20
0.0
30
0.0
70
128
71
237
72
240
73
238
0
VERTEX
10
0.0
20
0.0
30
0.0
70
128
71
236
72
234
73
240
0
VERTEX
10
0.0
20
0.0
30
0.0
70
128
71
240
72
234
73
238
0
VERTEX
10
0.0
20
0.0
30
0.0
70
128
71
233
72
235
73
239
0
VERTEX
10
0.0
20
0.0
30
0.0
70
128
71
233
72
239
73
237
0
VERTEX
10
0.0
20
0.0
30
0.0
70
128
71
241
72
242
73
243
0
VERTEX
10
0.0
20
0.0
30
0.0
70
128
71
243
72
242
73
244
0
VERTEX
10
0.0
20
0.0
30
0.0
70
128
71
242
72
241
73
245
0
VERTEX
10
0.0
20
0.0
30
0.0
70
128
71
242
72
245
73
246
0
VERTEX
10
0.0
20
0.0
30
0.0
70
128
71
243
72
244
73
247
0
VERTEX
10
0.0
20
0.0
30
0.0
70
128
71
247
72
244
73
248
0
VERTEX
10
0.0
20
0.0
30
0.0
70
128
71
247
72
248
73
245
0
VERTEX
10
0.0
20
0.0
30
0.0
70
128
71
245
72
248
73
246
0
VERTEX
10
0.0
20
0.0
30
0.0
70
128
71
244
72
242
73
248
0
VERTEX
10
0.0
20
0.0
30
0.0
70
128
71
248
72
242
73
246
0
VERTEX
10
0.0
20
0.0
30
0.0
70
128
71
241
72
243
73
247
0
VERTEX
10
0.0
20
0.0
30
0.0
70
128
71
241
72
247
73
245
0
SEQEND
0
ENDBLK
0
BLOCK
2
Plane
70
64
10
0.0
20
0.0
30
0.0
3
Plane
0
POLYLINE
66
1
70
64
0
VERTEX
10
-2.500000
20
-2.500000
30
0.002000
70
192
0
VERTEX
10
2.500000
20
-2.500000
30
0.002000
70
192
0
VERTEX
10
2.500000
20
2.500000
30
0.002000
70
192
0
VERTEX
10
-2.500000
20
2.500000
30
0.002000
70
192
0
VERTEX
10
0.0
20
0.0
30
0.0
70
128
71
1
72
2
73
3
0
VERTEX
10
0.0
20
0.0
30
0.0
70
128
71
1
72
3
73
4
0
SEQEND
0
ENDBLK
0
ENDSEC
0
SECTION
2
ENTITIES
0
INSERT
2
Wall1
10
0.0
20
0.0
30
0.0
41
1.0
42
1.0
43
1.0
50
0.0
0
INSERT
2
Wall2
10
0.0
20
0.0
30
0.0
41
1.0
42
1.0
43
1.0
50
0.0
0
INSERT
2
Wall3
10
0.0
20
0.0
30
0.0
41
1.0
42
1.0
43
1.0
50
0.0
0
INSERT
2
Wall4
10
0.0
20
0.0
30
0.0
41
1.0
42
1.0
43
1.0
50
0.0
0
INSERT
2
Plane
10
0.0
20
0.0
30
0.0
41
1.0
42
1.0
43
1.0
50
0.0
0
ENDSEC
0
EOF
