0
SECTION
2
HEADER
0
ENDSEC
0
SECTION
2
BLOCKS
0
BLOCK
2
blimp_body
70
64
10
0.0
20
0.0
30
0.0
3
blimp_body
0
POLYLINE
66
1
70
64
0
VERTEX
10
0.066421
20
-0.022191
30
-0.023109
70
192
0
VERTEX
10
0.072556
20
-0.011647
30
-0.021788
70
192
0
VERTEX
10
0.071845
20
-0.019075
30
-0.017279
70
192
0
VERTEX
10
-0.044471
20
-0.028212
30
-0.034378
70
192
0
VERTEX
10
0.044473
20
-0.028213
30
-0.034376
70
192
0
VERTEX
10
0.044473
20
-0.034377
30
-0.028212
70
192
0
VERTEX
10
-0.044472
20
-0.039221
30
-0.020965
70
192
0
VERTEX
10
-0.044471
20
-0.034377
30
-0.028214
70
192
0
VERTEX
10
-0.044473
20
-0.039221
30
0.020963
70
192
0
VERTEX
10
-0.035578
20
-0.034378
30
0.028212
70
192
0
VERTEX
10
-0.044473
20
-0.034377
30
0.028212
70
192
0
VERTEX
10
0.044472
20
-0.039221
30
0.020965
70
192
0
VERTEX
10
-0.075876
20
0.000217
30
0.018809
70
192
0
VERTEX
10
-0.072556
20
0.011647
30
0.021788
70
192
0
VERTEX
10
-0.076665
20
0.008022
30
0.015007
70
192
0
VERTEX
10
0.044473
20
-0.004359
30
-0.044257
70
192
0
VERTEX
10
-0.044471
20
-0.012909
30
-0.042558
70
192
0
VERTEX
10
-0.044471
20
-0.004359
30
-0.044259
70
192
0
VERTEX
10
0.067025
20
-0.014824
30
-0.027732
70
192
0
VERTEX
10
0.060286
20
-0.017431
30
-0.032610
70
192
0
VERTEX
10
0.076665
20
-0.008023
30
-0.015007
70
192
0
VERTEX
10
0.078358
20
0.003640
30
-0.011592
70
192
0
VERTEX
10
0.079196
20
-0.004090
30
-0.007650
70
192
0
VERTEX
10
-0.061724
20
0.019498
30
-0.030233
70
192
0
VERTEX
10
-0.061724
20
0.009464
30
-0.034708
70
192
0
VERTEX
10
-0.066322
20
0.012106
30
-0.029767
70
192
0
VERTEX
10
-0.052269
20
-0.026648
30
-0.031451
70
192
0
VERTEX
10
0.044473
20
-0.039221
30
-0.020963
70
192
0
VERTEX
10
0.044473
20
-0.042557
30
-0.012909
70
192
0
VERTEX
10
0.051302
20
-0.032903
30
-0.025453
70
192
0
VERTEX
10
0.058405
20
-0.031113
30
-0.022105
70
192
0
VERTEX
10
0.069740
20
-0.025769
30
-0.012107
70
192
0
VERTEX
10
0.059811
20
-0.024748
30
-0.027893
70
192
0
VERTEX
10
-0.035577
20
0.028213
30
-0.034378
70
192
0
VERTEX
10
0.044473
20
0.034377
30
-0.028211
70
192
0
VERTEX
10
0.044473
20
0.028213
30
-0.034376
70
192
0
VERTEX
10
-0.035577
20
0.034378
30
-0.028214
70
192
0
VERTEX
10
-0.044472
20
0.044258
30
-0.004360
70
192
0
VERTEX
10
0.035578
20
0.044258
30
-0.004358
70
192
0
VERTEX
10
0.044473
20
0.042557
30
-0.012908
70
192
0
VERTEX
10
0.044472
20
0.044258
30
-0.004358
70
192
0
VERTEX
10
0.044472
20
0.044258
30
0.004360
70
192
0
VERTEX
10
0.060284
20
0.017431
30
0.032613
70
192
0
VERTEX
10
0.059810
20
0.009444
30
0.036076
70
192
0
VERTEX
10
0.067024
20
0.014823
30
0.027735
70
192
0
VERTEX
10
0.044471
20
-0.034378
30
0.028214
70
192
0
VERTEX
10
0.044471
20
-0.028213
30
0.034378
70
192
0
VERTEX
10
0.049727
20
-0.031779
30
0.027708
70
192
0
VERTEX
10
0.051300
20
-0.033166
30
0.025113
70
192
0
VERTEX
10
0.044471
20
-0.020964
30
0.039222
70
192
0
VERTEX
10
-0.044473
20
-0.020964
30
0.039220
70
192
0
VERTEX
10
0.052595
20
0.019368
30
0.036237
70
192
0
VERTEX
10
0.052268
20
0.011344
30
0.039630
70
192
0
VERTEX
10
-0.071845
20
0.003771
30
0.025459
70
192
0
VERTEX
10
-0.069741
20
-0.004249
30
0.028152
70
192
0
VERTEX
10
-0.058405
20
0.001095
30
0.038150
70
192
0
VERTEX
10
-0.059811
20
0.009444
30
0.036073
70
192
0
VERTEX
10
-0.066421
20
0.006887
30
0.031289
70
192
0
VERTEX
10
-0.044473
20
0.034377
30
0.028212
70
192
0
VERTEX
10
0.044471
20
0.034377
30
0.028214
70
192
0
VERTEX
10
-0.044473
20
0.039221
30
0.020963
70
192
0
VERTEX
10
-0.051302
20
0.032903
30
0.025454
70
192
0
VERTEX
10
-0.058405
20
0.031113
30
0.022105
70
192
0
VERTEX
10
-0.052270
20
0.026648
30
0.031448
70
192
0
VERTEX
10
-0.079195
20
0.007652
30
-0.004092
70
192
0
VERTEX
10
-0.075875
20
0.011231
30
-0.015094
70
192
0
VERTEX
10
-0.078357
20
0.003640
30
-0.011597
70
192
0
VERTEX
10
-0.066420
20
0.022191
30
0.023109
70
192
0
VERTEX
10
-0.071845
20
0.019075
30
0.017280
70
192
0
VERTEX
10
-0.078357
20
0.011663
30
0.003413
70
192
0
VERTEX
10
-0.079195
20
0.004090
30
0.007650
70
192
0
VERTEX
10
-0.069740
20
0.025769
30
0.012107
70
192
0
VERTEX
10
-0.064631
20
0.028705
30
0.017598
70
192
0
VERTEX
10
0.066421
20
-0.006887
30
-0.031289
70
192
0
VERTEX
10
0.071845
20
-0.003772
30
-0.025459
70
192
0
VERTEX
10
0.052597
20
-0.019368
30
-0.036234
70
192
0
VERTEX
10
0.052270
20
-0.011344
30
-0.039628
70
192
0
VERTEX
10
0.078357
20
-0.011663
30
-0.003413
70
192
0
VERTEX
10
0.079195
20
-0.007652
30
0.004092
70
192
0
VERTEX
10
0.076664
20
-0.015009
30
0.008025
70
192
0
VERTEX
10
0.044473
20
0.020964
30
-0.039220
70
192
0
VERTEX
10
0.053049
20
0.015408
30
-0.037882
70
192
0
VERTEX
10
0.044473
20
0.012910
30
-0.042556
70
192
0
VERTEX
10
-0.044471
20
0.012910
30
-0.042558
70
192
0
VERTEX
10
0.057815
20
0.017252
30
-0.034433
70
192
0
VERTEX
10
0.069741
20
0.004249
30
-0.028152
70
192
0
VERTEX
10
0.073538
20
0.007597
30
-0.021887
70
192
0
VERTEX
10
0.069741
20
0.015119
30
-0.024125
70
192
0
VERTEX
10
0.075875
20
-0.000217
30
-0.018809
70
192
0
VERTEX
10
-0.079195
20
-0.004090
30
-0.007654
70
192
0
VERTEX
10
-0.076664
20
-0.008022
30
-0.015011
70
192
0
VERTEX
10
-0.078357
20
-0.011663
30
-0.003417
70
192
0
VERTEX
10
-0.053047
20
0.015408
30
-0.037885
70
192
0
VERTEX
10
-0.056120
20
0.007297
30
-0.038763
70
192
0
VERTEX
10
-0.052268
20
-0.011344
30
-0.039630
70
192
0
VERTEX
10
-0.051300
20
-0.002885
30
-0.041501
70
192
0
VERTEX
10
0.064631
20
-0.028705
30
-0.017598
70
192
0
VERTEX
10
0.075875
20
-0.015520
30
-0.010629
70
192
0
VERTEX
10
0.056122
20
-0.036283
30
-0.015467
70
192
0
VERTEX
10
0.044472
20
-0.044258
30
0.004360
70
192
0
VERTEX
10
0.053048
20
-0.040847
30
0.002024
70
192
0
VERTEX
10
0.056121
20
-0.039082
30
0.005326
70
192
0
VERTEX
10
0.044472
20
-0.042557
30
0.012910
70
192
0
VERTEX
10
-0.035578
20
-0.042557
30
0.012908
70
192
0
VERTEX
10
-0.044472
20
-0.042557
30
0.012908
70
192
0
VERTEX
10
0.049728
20
-0.040692
30
0.011031
70
192
0
VERTEX
10
-0.044472
20
-0.044258
30
0.004358
70
192
0
VERTEX
10
-0.044472
20
-0.044258
30
-0.004360
70
192
0
VERTEX
10
-0.053048
20
-0.040847
30
0.002022
70
192
0
VERTEX
10
-0.044472
20
-0.042557
30
-0.012911
70
192
0
VERTEX
10
-0.053048
20
-0.040059
30
-0.008237
70
192
0
VERTEX
10
-0.044472
20
0.042557
30
0.012909
70
192
0
VERTEX
10
0.044472
20
0.042557
30
0.012911
70
192
0
VERTEX
10
-0.044472
20
0.044258
30
0.004358
70
192
0
VERTEX
10
0.073536
20
-0.007597
30
0.021891
70
192
0
VERTEX
10
0.075875
20
-0.011231
30
0.015094
70
192
0
VERTEX
10
0.078357
20
-0.003640
30
0.011597
70
192
0
VERTEX
10
0.066419
20
0.006887
30
0.031292
70
192
0
VERTEX
10
0.071844
20
0.003772
30
0.025463
70
192
0
VERTEX
10
0.059810
20
-0.030339
30
0.021683
70
192
0
VERTEX
10
0.060285
20
-0.032611
30
0.017432
70
192
0
VERTEX
10
0.066419
20
-0.024841
30
0.020236
70
192
0
VERTEX
10
-0.044473
20
-0.028213
30
0.034376
70
192
0
VERTEX
10
-0.053049
20
-0.024376
30
0.032837
70
192
0
VERTEX
10
-0.057815
20
-0.017251
30
0.034433
70
192
0
VERTEX
10
0.051300
20
0.002884
30
0.041501
70
192
0
VERTEX
10
0.044471
20
-0.004359
30
0.044259
70
192
0
VERTEX
10
0.044471
20
0.004359
30
0.044259
70
192
0
VERTEX
10
-0.044473
20
-0.004359
30
0.044257
70
192
0
VERTEX
10
0.072554
20
0.011647
30
0.021792
70
192
0
VERTEX
10
-0.059811
20
0.024748
30
0.027893
70
192
0
VERTEX
10
-0.067025
20
0.014824
30
0.027732
70
192
0
VERTEX
10
-0.066324
20
-0.012106
30
0.029763
70
192
0
VERTEX
10
-0.061725
20
-0.009465
30
0.034705
70
192
0
VERTEX
10
-0.051302
20
0.002884
30
0.041498
70
192
0
VERTEX
10
-0.064631
20
-0.001314
30
0.033643
70
192
0
VERTEX
10
0.044472
20
0.039221
30
0.020965
70
192
0
VERTEX
10
0.051300
20
0.032903
30
0.025456
70
192
0
VERTEX
10
0.058404
20
0.031113
30
0.022108
70
192
0
VERTEX
10
-0.044473
20
0.028213
30
0.034376
70
192
0
VERTEX
10
-0.052597
20
0.019368
30
0.036234
70
192
0
VERTEX
10
-0.069739
20
0.004249
30
-0.028156
70
192
0
VERTEX
10
-0.064630
20
0.001314
30
-0.033647
70
192
0
VERTEX
10
-0.078357
20
-0.003641
30
0.011592
70
192
0
VERTEX
10
-0.075875
20
-0.011231
30
0.015090
70
192
0
VERTEX
10
-0.080050
20
0.000000
30
-0.000002
70
192
0
VERTEX
10
0.044473
20
0.039221
30
-0.020963
70
192
0
VERTEX
10
-0.044472
20
0.039221
30
-0.020965
70
192
0
VERTEX
10
0.052270
20
0.034670
30
-0.022295
70
192
0
VERTEX
10
-0.075875
20
0.015520
30
0.010629
70
192
0
VERTEX
10
0.051302
20
-0.002885
30
-0.041498
70
192
0
VERTEX
10
0.058405
20
-0.001095
30
-0.038150
70
192
0
VERTEX
10
0.044473
20
0.004359
30
-0.044257
70
192
0
VERTEX
10
0.056122
20
0.007297
30
-0.038761
70
192
0
VERTEX
10
0.061726
20
0.009465
30
-0.034705
70
192
0
VERTEX
10
0.059811
20
-0.009444
30
-0.036073
70
192
0
VERTEX
10
0.052270
20
-0.026648
30
-0.031448
70
192
0
VERTEX
10
0.044473
20
-0.012909
30
-0.042556
70
192
0
VERTEX
10
0.080050
20
-0.000000
30
0.000002
70
192
0
VERTEX
10
0.051302
20
0.033165
30
-0.025110
70
192
0
VERTEX
10
0.058405
20
0.028154
30
-0.025768
70
192
0
VERTEX
10
0.059811
20
0.030339
30
-0.021680
70
192
0
VERTEX
10
0.066420
20
0.024842
30
-0.020232
70
192
0
VERTEX
10
0.064631
20
0.001314
30
-0.033643
70
192
0
VERTEX
10
0.066324
20
0.012106
30
-0.029763
70
192
0
VERTEX
10
0.071845
20
0.018389
30
-0.018007
70
192
0
VERTEX
10
-0.058404
20
0.028154
30
-0.025771
70
192
0
VERTEX
10
-0.056120
20
0.026140
30
-0.029538
70
192
0
VERTEX
10
-0.044471
20
0.034378
30
-0.028214
70
192
0
VERTEX
10
-0.044471
20
0.028213
30
-0.034378
70
192
0
VERTEX
10
-0.052269
20
0.034670
30
-0.022298
70
192
0
VERTEX
10
-0.057813
20
0.017251
30
-0.034436
70
192
0
VERTEX
10
-0.069739
20
0.015119
30
-0.024128
70
192
0
VERTEX
10
-0.073536
20
0.007597
30
-0.021891
70
192
0
VERTEX
10
-0.064630
20
0.022061
30
-0.025438
70
192
0
VERTEX
10
-0.059810
20
0.030339
30
-0.021683
70
192
0
VERTEX
10
-0.066419
20
0.024841
30
-0.020236
70
192
0
VERTEX
10
-0.075875
20
-0.015520
30
-0.010633
70
192
0
VERTEX
10
-0.075874
20
-0.000217
30
-0.018812
70
192
0
VERTEX
10
-0.072554
20
-0.011647
30
-0.021792
70
192
0
VERTEX
10
-0.064630
20
-0.028705
30
-0.017602
70
192
0
VERTEX
10
-0.061724
20
-0.034116
30
-0.011414
70
192
0
VERTEX
10
-0.066323
20
-0.031474
30
-0.006473
70
192
0
VERTEX
10
-0.061725
20
-0.035969
30
-0.000586
70
192
0
VERTEX
10
-0.058403
20
-0.001095
30
-0.038153
70
192
0
VERTEX
10
-0.044471
20
0.004359
30
-0.044259
70
192
0
VERTEX
10
0.061725
20
-0.034115
30
-0.011411
70
192
0
VERTEX
10
0.053049
20
-0.040059
30
-0.008234
70
192
0
VERTEX
10
0.057814
20
-0.038215
30
-0.004785
70
192
0
VERTEX
10
0.075875
20
-0.018788
30
0.000955
70
192
0
VERTEX
10
-0.073538
20
-0.007597
30
0.021887
70
192
0
VERTEX
10
-0.069741
20
-0.015120
30
0.024125
70
192
0
VERTEX
10
-0.057814
20
-0.038215
30
-0.004788
70
192
0
VERTEX
10
0.051301
20
-0.039306
30
0.013626
70
192
0
VERTEX
10
0.058404
20
-0.028154
30
0.025771
70
192
0
VERTEX
10
0.052596
20
-0.036236
30
0.019369
70
192
0
VERTEX
10
0.052269
20
-0.034670
30
0.022298
70
192
0
VERTEX
10
-0.049729
20
-0.031778
30
0.027705
70
192
0
VERTEX
10
-0.051302
20
-0.033165
30
0.025110
70
192
0
VERTEX
10
0.044471
20
-0.012910
30
0.042558
70
192
0
VERTEX
10
-0.044473
20
-0.012910
30
0.042556
70
192
0
VERTEX
10
-0.061725
20
-0.019498
30
0.030230
70
192
0
VERTEX
10
-0.056122
20
-0.007297
30
0.038761
70
192
0
VERTEX
10
-0.053049
20
-0.015408
30
0.037882
70
192
0
VERTEX
10
-0.071845
20
-0.018389
30
0.018007
70
192
0
VERTEX
10
-0.075875
20
-0.018788
30
0.000951
70
192
0
VERTEX
10
-0.076665
20
-0.015009
30
0.008021
70
192
0
VERTEX
10
-0.072555
20
-0.021790
30
0.011645
70
192
0
VERTEX
10
-0.069740
20
-0.028460
30
-0.000835
70
192
0
VERTEX
10
0.056120
20
-0.007297
30
0.038764
70
192
0
VERTEX
10
0.044471
20
0.012909
30
0.042558
70
192
0
VERTEX
10
0.044471
20
0.020964
30
0.039222
70
192
0
VERTEX
10
0.053048
20
0.040846
30
-0.002021
70
192
0
VERTEX
10
0.053048
20
0.040059
30
0.008237
70
192
0
VERTEX
10
0.059810
20
0.024747
30
0.027896
70
192
0
VERTEX
10
0.075875
20
0.000217
30
0.018813
70
192
0
VERTEX
10
0.069740
20
-0.004249
30
0.028156
70
192
0
VERTEX
10
0.066419
20
0.022190
30
0.023112
70
192
0
VERTEX
10
0.064630
20
0.028705
30
0.017602
70
192
0
VERTEX
10
-0.060286
20
0.017431
30
0.032609
70
192
0
VERTEX
10
-0.044473
20
0.004359
30
0.044257
70
192
0
VERTEX
10
-0.044473
20
0.012909
30
0.042556
70
192
0
VERTEX
10
-0.052270
20
0.011344
30
0.039628
70
192
0
VERTEX
10
-0.044473
20
0.020964
30
0.039220
70
192
0
VERTEX
10
-0.066419
20
-0.006887
30
-0.031292
70
192
0
VERTEX
10
-0.044472
20
0.042557
30
-0.012910
70
192
0
VERTEX
10
0.044473
20
-0.020964
30
-0.039220
70
192
0
VERTEX
10
-0.044471
20
-0.020964
30
-0.039222
70
192
0
VERTEX
10
0.060286
20
0.032611
30
-0.017429
70
192
0
VERTEX
10
0.052270
20
0.037801
30
-0.016439
70
192
0
VERTEX
10
0.064631
20
0.022061
30
-0.025435
70
192
0
VERTEX
10
0.053049
20
0.024375
30
-0.032837
70
192
0
VERTEX
10
0.049729
20
0.031778
30
-0.027706
70
192
0
VERTEX
10
0.075876
20
0.011231
30
-0.015090
70
192
0
VERTEX
10
-0.052596
20
0.036235
30
-0.019369
70
192
0
VERTEX
10
-0.060285
20
0.032611
30
-0.017432
70
192
0
VERTEX
10
-0.051300
20
0.033165
30
-0.025113
70
192
0
VERTEX
10
-0.053047
20
0.024375
30
-0.032840
70
192
0
VERTEX
10
-0.067024
20
0.027733
30
-0.014825
70
192
0
VERTEX
10
-0.073537
20
0.022421
30
0.005842
70
192
0
VERTEX
10
-0.075875
20
0.018788
30
-0.000955
70
192
0
VERTEX
10
-0.071844
20
0.025191
30
-0.005286
70
192
0
VERTEX
10
-0.059810
20
-0.024748
30
-0.027896
70
192
0
VERTEX
10
-0.066419
20
-0.022191
30
-0.023112
70
192
0
VERTEX
10
-0.067023
20
-0.014824
30
-0.027735
70
192
0
VERTEX
10
-0.073537
20
-0.022421
30
-0.005846
70
192
0
VERTEX
10
-0.071844
20
-0.003772
30
-0.025463
70
192
0
VERTEX
10
-0.058404
20
-0.031113
30
-0.022108
70
192
0
VERTEX
10
-0.060284
20
-0.017431
30
-0.032613
70
192
0
VERTEX
10
-0.056121
20
-0.036283
30
-0.015470
70
192
0
VERTEX
10
-0.059809
20
-0.009444
30
-0.036076
70
192
0
VERTEX
10
0.044472
20
-0.044258
30
-0.004358
70
192
0
VERTEX
10
0.058404
20
-0.037068
30
0.009094
70
192
0
VERTEX
10
0.066323
20
-0.031474
30
-0.006469
70
192
0
VERTEX
10
0.067024
20
-0.027733
30
0.014825
70
192
0
VERTEX
10
0.073537
20
-0.022421
30
-0.005842
70
192
0
VERTEX
10
0.069740
20
-0.028461
30
-0.000831
70
192
0
VERTEX
10
0.052269
20
-0.037801
30
0.016441
70
192
0
VERTEX
10
-0.053048
20
0.040059
30
0.008235
70
192
0
VERTEX
10
-0.057814
20
0.038215
30
0.004786
70
192
0
VERTEX
10
-0.066323
20
0.031474
30
0.006469
70
192
0
VERTEX
10
-0.053048
20
0.040847
30
-0.002024
70
192
0
VERTEX
10
0.069740
20
-0.015120
30
0.024128
70
192
0
VERTEX
10
0.066322
20
-0.012106
30
0.029766
70
192
0
VERTEX
10
0.071844
20
-0.018390
30
0.018011
70
192
0
VERTEX
10
0.061724
20
-0.019498
30
0.030233
70
192
0
VERTEX
10
0.057813
20
-0.017252
30
0.034436
70
192
0
VERTEX
10
0.053048
20
-0.024376
30
0.032840
70
192
0
VERTEX
10
-0.056122
20
-0.026140
30
0.029535
70
192
0
VERTEX
10
-0.058405
20
-0.028154
30
0.025768
70
192
0
VERTEX
10
-0.064631
20
-0.022061
30
0.025435
70
192
0
VERTEX
10
-0.079195
20
-0.007652
30
0.004088
70
192
0
VERTEX
10
-0.064631
20
-0.033406
30
0.004209
70
192
0
VERTEX
10
-0.058404
20
-0.037068
30
0.009090
70
192
0
VERTEX
10
0.058403
20
0.001095
30
0.038153
70
192
0
VERTEX
10
0.053048
20
-0.015408
30
0.037885
70
192
0
VERTEX
10
0.061724
20
-0.009465
30
0.034708
70
192
0
VERTEX
10
0.056121
20
0.039082
30
-0.005323
70
192
0
VERTEX
10
0.057814
20
0.038215
30
0.004788
70
192
0
VERTEX
10
0.061725
20
0.035969
30
0.000586
70
192
0
VERTEX
10
0.056121
20
0.036283
30
0.015470
70
192
0
VERTEX
10
0.044471
20
0.028213
30
0.034379
70
192
0
VERTEX
10
0.079195
20
0.004090
30
0.007654
70
192
0
VERTEX
10
0.052597
20
0.036235
30
-0.019367
70
192
0
VERTEX
10
0.059811
20
0.034883
30
-0.013178
70
192
0
VERTEX
10
0.067025
20
0.027733
30
-0.014822
70
192
0
VERTEX
10
0.066420
20
0.030625
30
-0.009411
70
192
0
VERTEX
10
0.061725
20
0.019498
30
-0.030230
70
192
0
VERTEX
10
0.056122
20
0.026140
30
-0.029535
70
192
0
VERTEX
10
0.076665
20
0.015009
30
-0.008021
70
192
0
VERTEX
10
-0.052269
20
0.037801
30
-0.016441
70
192
0
VERTEX
10
-0.051300
20
0.039305
30
-0.013625
70
192
0
VERTEX
10
-0.049727
20
0.031778
30
-0.027708
70
192
0
VERTEX
10
-0.044471
20
0.020964
30
-0.039222
70
192
0
VERTEX
10
-0.072555
20
0.021790
30
-0.011649
70
192
0
VERTEX
10
-0.071844
20
-0.019075
30
-0.017283
70
192
0
VERTEX
10
-0.051300
20
-0.032903
30
-0.025456
70
192
0
VERTEX
10
-0.052595
20
-0.019368
30
-0.036237
70
192
0
VERTEX
10
0.064630
20
-0.033406
30
0.004212
70
192
0
VERTEX
10
0.061725
20
-0.035969
30
-0.000583
70
192
0
VERTEX
10
-0.056121
20
-0.039082
30
0.005323
70
192
0
VERTEX
10
-0.051301
20
-0.039306
30
0.013623
70
192
0
VERTEX
10
-0.056121
20
0.036283
30
0.015467
70
192
0
VERTEX
10
-0.049728
20
0.040693
30
-0.011031
70
192
0
VERTEX
10
0.064630
20
-0.022061
30
0.025439
70
192
0
VERTEX
10
0.056120
20
-0.026140
30
0.029538
70
192
0
VERTEX
10
-0.066420
20
-0.024842
30
0.020233
70
192
0
VERTEX
10
-0.059811
20
-0.030339
30
0.021680
70
192
0
VERTEX
10
-0.060285
20
-0.032611
30
0.017429
70
192
0
VERTEX
10
-0.071845
20
-0.025191
30
0.005283
70
192
0
VERTEX
10
-0.066420
20
-0.030625
30
0.009411
70
192
0
VERTEX
10
-0.059811
20
-0.034883
30
0.013178
70
192
0
VERTEX
10
0.064630
20
-0.001314
30
0.033647
70
192
0
VERTEX
10
0.049729
20
0.040692
30
-0.011028
70
192
0
VERTEX
10
0.051301
20
0.039305
30
-0.013623
70
192
0
VERTEX
10
0.069740
20
0.025769
30
0.012111
70
192
0
VERTEX
10
0.066323
20
0.031474
30
0.006473
70
192
0
VERTEX
10
0.052269
20
0.026647
30
0.031451
70
192
0
VERTEX
10
0.072555
20
0.021790
30
-0.011645
70
192
0
VERTEX
10
0.071845
20
0.025190
30
-0.005283
70
192
0
VERTEX
10
0.071844
20
0.019075
30
0.017284
70
192
0
VERTEX
10
0.075875
20
0.018788
30
-0.000951
70
192
0
VERTEX
10
0.079195
20
0.007651
30
-0.004088
70
192
0
VERTEX
10
-0.076664
20
0.015009
30
-0.008024
70
192
0
VERTEX
10
-0.071844
20
0.018389
30
-0.018011
70
192
0
VERTEX
10
-0.069740
20
-0.025770
30
-0.012111
70
192
0
VERTEX
10
0.059810
20
-0.034883
30
0.013181
70
192
0
VERTEX
10
0.066420
20
-0.030626
30
0.009415
70
192
0
VERTEX
10
0.071844
20
-0.025190
30
0.005287
70
192
0
VERTEX
10
-0.052597
20
-0.036236
30
0.019367
70
192
0
VERTEX
10
-0.052270
20
-0.037801
30
0.016439
70
192
0
VERTEX
10
-0.052270
20
-0.034670
30
0.022295
70
192
0
VERTEX
10
-0.049728
20
-0.040692
30
0.011028
70
192
0
VERTEX
10
-0.061725
20
0.034115
30
0.011411
70
192
0
VERTEX
10
-0.061724
20
0.035969
30
0.000583
70
192
0
VERTEX
10
-0.064630
20
0.033406
30
-0.004212
70
192
0
VERTEX
10
-0.069740
20
0.028460
30
0.000831
70
192
0
VERTEX
10
-0.066420
20
0.030625
30
-0.009415
70
192
0
VERTEX
10
-0.058404
20
0.037068
30
-0.009094
70
192
0
VERTEX
10
-0.067025
20
-0.027733
30
0.014822
70
192
0
VERTEX
10
0.058405
20
0.037068
30
-0.009091
70
192
0
VERTEX
10
0.061724
20
0.034115
30
0.011414
70
192
0
VERTEX
10
0.069740
20
0.028460
30
0.000835
70
192
0
VERTEX
10
0.076664
20
0.008022
30
0.015011
70
192
0
VERTEX
10
0.075875
20
0.015520
30
0.010633
70
192
0
VERTEX
10
0.072555
20
-0.021790
30
0.011649
70
192
0
VERTEX
10
-0.056121
20
0.039082
30
-0.005326
70
192
0
VERTEX
10
-0.059810
20
0.034883
30
-0.013181
70
192
0
VERTEX
10
0.064631
20
0.033406
30
-0.004209
70
192
0
VERTEX
10
0.073537
20
0.022421
30
0.005846
70
192
0
VERTEX
10
0.078357
20
0.011663
30
0.003417
70
192
0
VERTEX
10
0.0
20
0.0
30
0.0
70
128
71
1
72
2
73
3
0
VERTEX
10
0.0
20
0.0
30
0.0
70
128
71
4
72
5
73
6
0
VERTEX
10
0.0
20
0.0
30
0.0
70
128
71
7
72
8
73
6
0
VERTEX
10
0.0
20
0.0
30
0.0
70
128
71
8
72
4
73
6
0
VERTEX
10
0.0
20
0.0
30
0.0
70
128
71
9
72
10
73
11
0
VERTEX
10
0.0
20
0.0
30
0.0
70
128
71
10
72
9
73
12
0
VERTEX
10
0.0
20
0.0
30
0.0
70
128
71
13
72
14
73
15
0
VERTEX
10
0.0
20
0.0
30
0.0
70
128
71
16
72
17
73
18
0
VERTEX
10
0.0
20
0.0
30
0.0
70
128
71
19
72
2
73
1
0
VERTEX
10
0.0
20
0.0
30
0.0
70
128
71
20
72
19
73
1
0
VERTEX
10
0.0
20
0.0
30
0.0
70
128
71
21
72
22
73
23
0
VERTEX
10
0.0
20
0.0
30
0.0
70
128
71
24
72
25
73
26
0
VERTEX
10
0.0
20
0.0
30
0.0
70
128
71
8
72
27
73
4
0
VERTEX
10
0.0
20
0.0
30
0.0
70
128
71
28
72
7
73
6
0
VERTEX
10
0.0
20
0.0
30
0.0
70
128
71
28
72
29
73
7
0
VERTEX
10
0.0
20
0.0
30
0.0
70
128
71
30
72
28
73
6
0
VERTEX
10
0.0
20
0.0
30
0.0
70
128
71
28
72
30
73
31
0
VERTEX
10
0.0
20
0.0
30
0.0
70
128
71
32
72
1
73
3
0
VERTEX
10
0.0
20
0.0
30
0.0
70
128
71
33
72
20
73
1
0
VERTEX
10
0.0
20
0.0
30
0.0
70
128
71
31
72
33
73
1
0
VERTEX
10
0.0
20
0.0
30
0.0
70
128
71
34
72
35
73
36
0
VERTEX
10
0.0
20
0.0
30
0.0
70
128
71
35
72
34
73
37
0
VERTEX
10
0.0
20
0.0
30
0.0
70
128
71
38
72
39
73
40
0
VERTEX
10
0.0
20
0.0
30
0.0
70
128
71
39
72
41
73
40
0
VERTEX
10
0.0
20
0.0
30
0.0
70
128
71
42
72
41
73
39
0
VERTEX
10
0.0
20
0.0
30
0.0
70
128
71
43
72
44
73
45
0
VERTEX
10
0.0
20
0.0
30
0.0
70
128
71
46
72
10
73
12
0
VERTEX
10
0.0
20
0.0
30
0.0
70
128
71
10
72
46
73
47
0
VERTEX
10
0.0
20
0.0
30
0.0
70
128
71
46
72
48
73
47
0
VERTEX
10
0.0
20
0.0
30
0.0
70
128
71
48
72
46
73
49
0
VERTEX
10
0.0
20
0.0
30
0.0
70
128
71
50
72
51
73
47
0
VERTEX
10
0.0
20
0.0
30
0.0
70
128
71
44
72
52
73
53
0
VERTEX
10
0.0
20
0.0
30
0.0
70
128
71
52
72
44
73
43
0
VERTEX
10
0.0
20
0.0
30
0.0
70
128
71
13
72
54
73
14
0
VERTEX
10
0.0
20
0.0
30
0.0
70
128
71
55
72
54
73
13
0
VERTEX
10
0.0
20
0.0
30
0.0
70
128
71
56
72
57
73
58
0
VERTEX
10
0.0
20
0.0
30
0.0
70
128
71
59
72
60
73
61
0
VERTEX
10
0.0
20
0.0
30
0.0
70
128
71
62
72
63
73
64
0
VERTEX
10
0.0
20
0.0
30
0.0
70
128
71
59
72
62
73
64
0
VERTEX
10
0.0
20
0.0
30
0.0
70
128
71
63
72
62
73
61
0
VERTEX
10
0.0
20
0.0
30
0.0
70
128
71
62
72
59
73
61
0
VERTEX
10
0.0
20
0.0
30
0.0
70
128
71
65
72
66
73
67
0
VERTEX
10
0.0
20
0.0
30
0.0
70
128
71
68
72
69
73
14
0
VERTEX
10
0.0
20
0.0
30
0.0
70
128
71
70
72
71
73
15
0
VERTEX
10
0.0
20
0.0
30
0.0
70
128
71
72
72
68
73
73
0
VERTEX
10
0.0
20
0.0
30
0.0
70
128
71
72
72
69
73
68
0
VERTEX
10
0.0
20
0.0
30
0.0
70
128
71
74
72
19
73
20
0
VERTEX
10
0.0
20
0.0
30
0.0
70
128
71
2
72
74
73
75
0
VERTEX
10
0.0
20
0.0
30
0.0
70
128
71
19
72
74
73
2
0
VERTEX
10
0.0
20
0.0
30
0.0
70
128
71
76
72
77
73
20
0
VERTEX
10
0.0
20
0.0
30
0.0
70
128
71
78
72
79
73
80
0
VERTEX
10
0.0
20
0.0
30
0.0
70
128
71
81
72
82
73
83
0
VERTEX
10
0.0
20
0.0
30
0.0
70
128
71
84
72
81
73
83
0
VERTEX
10
0.0
20
0.0
30
0.0
70
128
71
81
72
34
73
36
0
VERTEX
10
0.0
20
0.0
30
0.0
70
128
71
81
72
85
73
82
0
VERTEX
10
0.0
20
0.0
30
0.0
70
128
71
86
72
87
73
75
0
VERTEX
10
0.0
20
0.0
30
0.0
70
128
71
74
72
86
73
75
0
VERTEX
10
0.0
20
0.0
30
0.0
70
128
71
86
72
88
73
87
0
VERTEX
10
0.0
20
0.0
30
0.0
70
128
71
87
72
89
73
75
0
VERTEX
10
0.0
20
0.0
30
0.0
70
128
71
89
72
87
73
22
0
VERTEX
10
0.0
20
0.0
30
0.0
70
128
71
89
72
22
73
21
0
VERTEX
10
0.0
20
0.0
30
0.0
70
128
71
89
72
2
73
75
0
VERTEX
10
0.0
20
0.0
30
0.0
70
128
71
2
72
89
73
21
0
VERTEX
10
0.0
20
0.0
30
0.0
70
128
71
90
72
91
73
92
0
VERTEX
10
0.0
20
0.0
30
0.0
70
128
71
93
72
94
73
25
0
VERTEX
10
0.0
20
0.0
30
0.0
70
128
71
94
72
93
73
84
0
VERTEX
10
0.0
20
0.0
30
0.0
70
128
71
17
72
95
73
18
0
VERTEX
10
0.0
20
0.0
30
0.0
70
128
71
95
72
96
73
18
0
VERTEX
10
0.0
20
0.0
30
0.0
70
128
71
97
72
31
73
1
0
VERTEX
10
0.0
20
0.0
30
0.0
70
128
71
32
72
97
73
1
0
VERTEX
10
0.0
20
0.0
30
0.0
70
128
71
2
72
98
73
3
0
VERTEX
10
0.0
20
0.0
30
0.0
70
128
71
98
72
2
73
21
0
VERTEX
10
0.0
20
0.0
30
0.0
70
128
71
98
72
21
73
23
0
VERTEX
10
0.0
20
0.0
30
0.0
70
128
71
78
72
98
73
23
0
VERTEX
10
0.0
20
0.0
30
0.0
70
128
71
28
72
99
73
29
0
VERTEX
10
0.0
20
0.0
30
0.0
70
128
71
99
72
28
73
31
0
VERTEX
10
0.0
20
0.0
30
0.0
70
128
71
97
72
99
73
31
0
VERTEX
10
0.0
20
0.0
30
0.0
70
128
71
100
72
101
73
102
0
VERTEX
10
0.0
20
0.0
30
0.0
70
128
71
103
72
104
73
100
0
VERTEX
10
0.0
20
0.0
30
0.0
70
128
71
104
72
103
73
12
0
VERTEX
10
0.0
20
0.0
30
0.0
70
128
71
9
72
104
73
12
0
VERTEX
10
0.0
20
0.0
30
0.0
70
128
71
104
72
9
73
105
0
VERTEX
10
0.0
20
0.0
30
0.0
70
128
71
106
72
100
73
102
0
VERTEX
10
0.0
20
0.0
30
0.0
70
128
71
106
72
103
73
100
0
VERTEX
10
0.0
20
0.0
30
0.0
70
128
71
107
72
108
73
100
0
VERTEX
10
0.0
20
0.0
30
0.0
70
128
71
107
72
104
73
105
0
VERTEX
10
0.0
20
0.0
30
0.0
70
128
71
104
72
107
73
100
0
VERTEX
10
0.0
20
0.0
30
0.0
70
128
71
108
72
107
73
109
0
VERTEX
10
0.0
20
0.0
30
0.0
70
128
71
110
72
108
73
111
0
VERTEX
10
0.0
20
0.0
30
0.0
70
128
71
29
72
110
73
7
0
VERTEX
10
0.0
20
0.0
30
0.0
70
128
71
42
72
112
73
113
0
VERTEX
10
0.0
20
0.0
30
0.0
70
128
71
114
72
42
73
39
0
VERTEX
10
0.0
20
0.0
30
0.0
70
128
71
38
72
114
73
39
0
VERTEX
10
0.0
20
0.0
30
0.0
70
128
71
114
72
112
73
42
0
VERTEX
10
0.0
20
0.0
30
0.0
70
128
71
115
72
116
73
117
0
VERTEX
10
0.0
20
0.0
30
0.0
70
128
71
116
72
79
73
117
0
VERTEX
10
0.0
20
0.0
30
0.0
70
128
71
79
72
116
73
80
0
VERTEX
10
0.0
20
0.0
30
0.0
70
128
71
118
72
119
73
45
0
VERTEX
10
0.0
20
0.0
30
0.0
70
128
71
44
72
118
73
45
0
VERTEX
10
0.0
20
0.0
30
0.0
70
128
71
120
72
121
73
122
0
VERTEX
10
0.0
20
0.0
30
0.0
70
128
71
123
72
51
73
124
0
VERTEX
10
0.0
20
0.0
30
0.0
70
128
71
51
72
123
73
47
0
VERTEX
10
0.0
20
0.0
30
0.0
70
128
71
10
72
123
73
11
0
VERTEX
10
0.0
20
0.0
30
0.0
70
128
71
123
72
10
73
47
0
VERTEX
10
0.0
20
0.0
30
0.0
70
128
71
51
72
125
73
124
0
VERTEX
10
0.0
20
0.0
30
0.0
70
128
71
126
72
44
73
53
0
VERTEX
10
0.0
20
0.0
30
0.0
70
128
71
127
72
128
73
129
0
VERTEX
10
0.0
20
0.0
30
0.0
70
128
71
126
72
128
73
127
0
VERTEX
10
0.0
20
0.0
30
0.0
70
128
71
128
72
126
73
53
0
VERTEX
10
0.0
20
0.0
30
0.0
70
128
71
119
72
130
73
45
0
VERTEX
10
0.0
20
0.0
30
0.0
70
128
71
131
72
63
73
73
0
VERTEX
10
0.0
20
0.0
30
0.0
70
128
71
68
72
131
73
73
0
VERTEX
10
0.0
20
0.0
30
0.0
70
128
71
63
72
131
73
64
0
VERTEX
10
0.0
20
0.0
30
0.0
70
128
71
132
72
68
73
14
0
VERTEX
10
0.0
20
0.0
30
0.0
70
128
71
132
72
54
73
58
0
VERTEX
10
0.0
20
0.0
30
0.0
70
128
71
54
72
132
73
14
0
VERTEX
10
0.0
20
0.0
30
0.0
70
128
71
133
72
125
73
134
0
VERTEX
10
0.0
20
0.0
30
0.0
70
128
71
135
72
56
73
129
0
VERTEX
10
0.0
20
0.0
30
0.0
70
128
71
56
72
135
73
57
0
VERTEX
10
0.0
20
0.0
30
0.0
70
128
71
136
72
133
73
134
0
VERTEX
10
0.0
20
0.0
30
0.0
70
128
71
133
72
136
73
55
0
VERTEX
10
0.0
20
0.0
30
0.0
70
128
71
136
72
56
73
58
0
VERTEX
10
0.0
20
0.0
30
0.0
70
128
71
54
72
136
73
58
0
VERTEX
10
0.0
20
0.0
30
0.0
70
128
71
136
72
54
73
55
0
VERTEX
10
0.0
20
0.0
30
0.0
70
128
71
137
72
60
73
138
0
VERTEX
10
0.0
20
0.0
30
0.0
70
128
71
139
72
137
73
138
0
VERTEX
10
0.0
20
0.0
30
0.0
70
128
71
60
72
137
73
61
0
VERTEX
10
0.0
20
0.0
30
0.0
70
128
71
137
72
112
73
61
0
VERTEX
10
0.0
20
0.0
30
0.0
70
128
71
112
72
137
73
113
0
VERTEX
10
0.0
20
0.0
30
0.0
70
128
71
140
72
59
73
64
0
VERTEX
10
0.0
20
0.0
30
0.0
70
128
71
141
72
140
73
64
0
VERTEX
10
0.0
20
0.0
30
0.0
70
128
71
140
72
60
73
59
0
VERTEX
10
0.0
20
0.0
30
0.0
70
128
71
25
72
142
73
26
0
VERTEX
10
0.0
20
0.0
30
0.0
70
128
71
143
72
142
73
25
0
VERTEX
10
0.0
20
0.0
30
0.0
70
128
71
144
72
13
73
15
0
VERTEX
10
0.0
20
0.0
30
0.0
70
128
71
71
72
144
73
15
0
VERTEX
10
0.0
20
0.0
30
0.0
70
128
71
144
72
145
73
13
0
VERTEX
10
0.0
20
0.0
30
0.0
70
128
71
65
72
146
73
70
0
VERTEX
10
0.0
20
0.0
30
0.0
70
128
71
146
72
71
73
70
0
VERTEX
10
0.0
20
0.0
30
0.0
70
128
71
90
72
146
73
67
0
VERTEX
10
0.0
20
0.0
30
0.0
70
128
71
146
72
65
73
67
0
VERTEX
10
0.0
20
0.0
30
0.0
70
128
71
146
72
90
73
92
0
VERTEX
10
0.0
20
0.0
30
0.0
70
128
71
146
72
144
73
71
0
VERTEX
10
0.0
20
0.0
30
0.0
70
128
71
147
72
35
73
37
0
VERTEX
10
0.0
20
0.0
30
0.0
70
128
71
148
72
147
73
37
0
VERTEX
10
0.0
20
0.0
30
0.0
70
128
71
147
72
148
73
40
0
VERTEX
10
0.0
20
0.0
30
0.0
70
128
71
35
72
147
73
149
0
VERTEX
10
0.0
20
0.0
30
0.0
70
128
71
72
72
150
73
69
0
VERTEX
10
0.0
20
0.0
30
0.0
70
128
71
150
72
70
73
15
0
VERTEX
10
0.0
20
0.0
30
0.0
70
128
71
14
72
150
73
15
0
VERTEX
10
0.0
20
0.0
30
0.0
70
128
71
69
72
150
73
14
0
VERTEX
10
0.0
20
0.0
30
0.0
70
128
71
151
72
77
73
16
0
VERTEX
10
0.0
20
0.0
30
0.0
70
128
71
151
72
152
73
77
0
VERTEX
10
0.0
20
0.0
30
0.0
70
128
71
153
72
151
73
16
0
VERTEX
10
0.0
20
0.0
30
0.0
70
128
71
152
72
151
73
153
0
VERTEX
10
0.0
20
0.0
30
0.0
70
128
71
154
72
152
73
153
0
VERTEX
10
0.0
20
0.0
30
0.0
70
128
71
154
72
85
73
155
0
VERTEX
10
0.0
20
0.0
30
0.0
70
128
71
85
72
154
73
82
0
VERTEX
10
0.0
20
0.0
30
0.0
70
128
71
82
72
154
73
83
0
VERTEX
10
0.0
20
0.0
30
0.0
70
128
71
154
72
153
73
83
0
VERTEX
10
0.0
20
0.0
30
0.0
70
128
71
152
72
156
73
77
0
VERTEX
10
0.0
20
0.0
30
0.0
70
128
71
77
72
156
73
20
0
VERTEX
10
0.0
20
0.0
30
0.0
70
128
71
156
72
74
73
20
0
VERTEX
10
0.0
20
0.0
30
0.0
70
128
71
33
72
157
73
20
0
VERTEX
10
0.0
20
0.0
30
0.0
70
128
71
157
72
76
73
20
0
VERTEX
10
0.0
20
0.0
30
0.0
70
128
71
76
72
157
73
5
0
VERTEX
10
0.0
20
0.0
30
0.0
70
128
71
5
72
157
73
6
0
VERTEX
10
0.0
20
0.0
30
0.0
70
128
71
157
72
30
73
6
0
VERTEX
10
0.0
20
0.0
30
0.0
70
128
71
30
72
157
73
31
0
VERTEX
10
0.0
20
0.0
30
0.0
70
128
71
157
72
33
73
31
0
VERTEX
10
0.0
20
0.0
30
0.0
70
128
71
77
72
158
73
16
0
VERTEX
10
0.0
20
0.0
30
0.0
70
128
71
76
72
158
73
77
0
VERTEX
10
0.0
20
0.0
30
0.0
70
128
71
158
72
17
73
16
0
VERTEX
10
0.0
20
0.0
30
0.0
70
128
71
22
72
159
73
23
0
VERTEX
10
0.0
20
0.0
30
0.0
70
128
71
159
72
78
73
23
0
VERTEX
10
0.0
20
0.0
30
0.0
70
128
71
159
72
79
73
78
0
VERTEX
10
0.0
20
0.0
30
0.0
70
128
71
79
72
159
73
117
0
VERTEX
10
0.0
20
0.0
30
0.0
70
128
71
160
72
35
73
149
0
VERTEX
10
0.0
20
0.0
30
0.0
70
128
71
161
72
162
73
163
0
VERTEX
10
0.0
20
0.0
30
0.0
70
128
71
162
72
161
73
149
0
VERTEX
10
0.0
20
0.0
30
0.0
70
128
71
161
72
160
73
149
0
VERTEX
10
0.0
20
0.0
30
0.0
70
128
71
164
72
86
73
74
0
VERTEX
10
0.0
20
0.0
30
0.0
70
128
71
156
72
164
73
74
0
VERTEX
10
0.0
20
0.0
30
0.0
70
128
71
164
72
156
73
152
0
VERTEX
10
0.0
20
0.0
30
0.0
70
128
71
164
72
154
73
155
0
VERTEX
10
0.0
20
0.0
30
0.0
70
128
71
154
72
164
73
152
0
VERTEX
10
0.0
20
0.0
30
0.0
70
128
71
85
72
165
73
155
0
VERTEX
10
0.0
20
0.0
30
0.0
70
128
71
165
72
88
73
86
0
VERTEX
10
0.0
20
0.0
30
0.0
70
128
71
165
72
164
73
155
0
VERTEX
10
0.0
20
0.0
30
0.0
70
128
71
164
72
165
73
86
0
VERTEX
10
0.0
20
0.0
30
0.0
70
128
71
166
72
88
73
163
0
VERTEX
10
0.0
20
0.0
30
0.0
70
128
71
167
72
168
73
24
0
VERTEX
10
0.0
20
0.0
30
0.0
70
128
71
169
72
148
73
37
0
VERTEX
10
0.0
20
0.0
30
0.0
70
128
71
169
72
34
73
170
0
VERTEX
10
0.0
20
0.0
30
0.0
70
128
71
34
72
169
73
37
0
VERTEX
10
0.0
20
0.0
30
0.0
70
128
71
169
72
171
73
148
0
VERTEX
10
0.0
20
0.0
30
0.0
70
128
71
24
72
172
73
25
0
VERTEX
10
0.0
20
0.0
30
0.0
70
128
71
172
72
93
73
25
0
VERTEX
10
0.0
20
0.0
30
0.0
70
128
71
173
72
24
73
26
0
VERTEX
10
0.0
20
0.0
30
0.0
70
128
71
142
72
173
73
26
0
VERTEX
10
0.0
20
0.0
30
0.0
70
128
71
173
72
142
73
174
0
VERTEX
10
0.0
20
0.0
30
0.0
70
128
71
175
72
167
73
24
0
VERTEX
10
0.0
20
0.0
30
0.0
70
128
71
173
72
175
73
24
0
VERTEX
10
0.0
20
0.0
30
0.0
70
128
71
175
72
176
73
167
0
VERTEX
10
0.0
20
0.0
30
0.0
70
128
71
176
72
175
73
177
0
VERTEX
10
0.0
20
0.0
30
0.0
70
128
71
91
72
178
73
92
0
VERTEX
10
0.0
20
0.0
30
0.0
70
128
71
179
72
90
73
67
0
VERTEX
10
0.0
20
0.0
30
0.0
70
128
71
179
72
91
73
90
0
VERTEX
10
0.0
20
0.0
30
0.0
70
128
71
66
72
179
73
67
0
VERTEX
10
0.0
20
0.0
30
0.0
70
128
71
174
72
179
73
66
0
VERTEX
10
0.0
20
0.0
30
0.0
70
128
71
91
72
179
73
180
0
VERTEX
10
0.0
20
0.0
30
0.0
70
128
71
181
72
182
73
183
0
VERTEX
10
0.0
20
0.0
30
0.0
70
128
71
182
72
184
73
183
0
VERTEX
10
0.0
20
0.0
30
0.0
70
128
71
185
72
143
73
25
0
VERTEX
10
0.0
20
0.0
30
0.0
70
128
71
94
72
185
73
25
0
VERTEX
10
0.0
20
0.0
30
0.0
70
128
71
186
72
94
73
84
0
VERTEX
10
0.0
20
0.0
30
0.0
70
128
71
96
72
186
73
18
0
VERTEX
10
0.0
20
0.0
30
0.0
70
128
71
186
72
16
73
18
0
VERTEX
10
0.0
20
0.0
30
0.0
70
128
71
186
72
153
73
16
0
VERTEX
10
0.0
20
0.0
30
0.0
70
128
71
153
72
186
73
83
0
VERTEX
10
0.0
20
0.0
30
0.0
70
128
71
186
72
84
73
83
0
VERTEX
10
0.0
20
0.0
30
0.0
70
128
71
185
72
186
73
96
0
VERTEX
10
0.0
20
0.0
30
0.0
70
128
71
186
72
185
73
94
0
VERTEX
10
0.0
20
0.0
30
0.0
70
128
71
187
72
99
73
97
0
VERTEX
10
0.0
20
0.0
30
0.0
70
128
71
99
72
188
73
29
0
VERTEX
10
0.0
20
0.0
30
0.0
70
128
71
188
72
187
73
189
0
VERTEX
10
0.0
20
0.0
30
0.0
70
128
71
187
72
188
73
99
0
VERTEX
10
0.0
20
0.0
30
0.0
70
128
71
190
72
78
73
80
0
VERTEX
10
0.0
20
0.0
30
0.0
70
128
71
133
72
191
73
192
0
VERTEX
10
0.0
20
0.0
30
0.0
70
128
71
191
72
133
73
55
0
VERTEX
10
0.0
20
0.0
30
0.0
70
128
71
191
72
55
73
13
0
VERTEX
10
0.0
20
0.0
30
0.0
70
128
71
145
72
191
73
13
0
VERTEX
10
0.0
20
0.0
30
0.0
70
128
71
184
72
193
73
109
0
VERTEX
10
0.0
20
0.0
30
0.0
70
128
71
108
72
193
73
111
0
VERTEX
10
0.0
20
0.0
30
0.0
70
128
71
193
72
108
73
109
0
VERTEX
10
0.0
20
0.0
30
0.0
70
128
71
182
72
193
73
184
0
VERTEX
10
0.0
20
0.0
30
0.0
70
128
71
194
72
106
73
102
0
VERTEX
10
0.0
20
0.0
30
0.0
70
128
71
106
72
194
73
103
0
VERTEX
10
0.0
20
0.0
30
0.0
70
128
71
120
72
195
73
49
0
VERTEX
10
0.0
20
0.0
30
0.0
70
128
71
196
72
197
73
12
0
VERTEX
10
0.0
20
0.0
30
0.0
70
128
71
197
72
46
73
12
0
VERTEX
10
0.0
20
0.0
30
0.0
70
128
71
46
72
197
73
49
0
VERTEX
10
0.0
20
0.0
30
0.0
70
128
71
197
72
120
73
49
0
VERTEX
10
0.0
20
0.0
30
0.0
70
128
71
120
72
197
73
121
0
VERTEX
10
0.0
20
0.0
30
0.0
70
128
71
197
72
196
73
121
0
VERTEX
10
0.0
20
0.0
30
0.0
70
128
71
123
72
198
73
11
0
VERTEX
10
0.0
20
0.0
30
0.0
70
128
71
198
72
199
73
11
0
VERTEX
10
0.0
20
0.0
30
0.0
70
128
71
200
72
51
73
50
0
VERTEX
10
0.0
20
0.0
30
0.0
70
128
71
200
72
201
73
51
0
VERTEX
10
0.0
20
0.0
30
0.0
70
128
71
200
72
127
73
129
0
VERTEX
10
0.0
20
0.0
30
0.0
70
128
71
201
72
200
73
129
0
VERTEX
10
0.0
20
0.0
30
0.0
70
128
71
133
72
202
73
125
0
VERTEX
10
0.0
20
0.0
30
0.0
70
128
71
125
72
203
73
134
0
VERTEX
10
0.0
20
0.0
30
0.0
70
128
71
203
72
201
73
129
0
VERTEX
10
0.0
20
0.0
30
0.0
70
128
71
56
72
203
73
129
0
VERTEX
10
0.0
20
0.0
30
0.0
70
128
71
203
72
136
73
134
0
VERTEX
10
0.0
20
0.0
30
0.0
70
128
71
136
72
203
73
56
0
VERTEX
10
0.0
20
0.0
30
0.0
70
128
71
201
72
204
73
51
0
VERTEX
10
0.0
20
0.0
30
0.0
70
128
71
204
72
125
73
51
0
VERTEX
10
0.0
20
0.0
30
0.0
70
128
71
203
72
204
73
201
0
VERTEX
10
0.0
20
0.0
30
0.0
70
128
71
204
72
203
73
125
0
VERTEX
10
0.0
20
0.0
30
0.0
70
128
71
191
72
205
73
192
0
VERTEX
10
0.0
20
0.0
30
0.0
70
128
71
205
72
191
73
145
0
VERTEX
10
0.0
20
0.0
30
0.0
70
128
71
206
72
207
73
92
0
VERTEX
10
0.0
20
0.0
30
0.0
70
128
71
207
72
205
73
145
0
VERTEX
10
0.0
20
0.0
30
0.0
70
128
71
205
72
207
73
208
0
VERTEX
10
0.0
20
0.0
30
0.0
70
128
71
184
72
209
73
183
0
VERTEX
10
0.0
20
0.0
30
0.0
70
128
71
200
72
210
73
127
0
VERTEX
10
0.0
20
0.0
30
0.0
70
128
71
211
72
128
73
53
0
VERTEX
10
0.0
20
0.0
30
0.0
70
128
71
52
72
211
73
53
0
VERTEX
10
0.0
20
0.0
30
0.0
70
128
71
211
72
52
73
212
0
VERTEX
10
0.0
20
0.0
30
0.0
70
128
71
213
72
41
73
42
0
VERTEX
10
0.0
20
0.0
30
0.0
70
128
71
214
72
42
73
113
0
VERTEX
10
0.0
20
0.0
30
0.0
70
128
71
215
72
52
73
43
0
VERTEX
10
0.0
20
0.0
30
0.0
70
128
71
215
72
43
73
45
0
VERTEX
10
0.0
20
0.0
30
0.0
70
128
71
215
72
139
73
138
0
VERTEX
10
0.0
20
0.0
30
0.0
70
128
71
216
72
130
73
119
0
VERTEX
10
0.0
20
0.0
30
0.0
70
128
71
216
72
115
73
117
0
VERTEX
10
0.0
20
0.0
30
0.0
70
128
71
216
72
119
73
217
0
VERTEX
10
0.0
20
0.0
30
0.0
70
128
71
115
72
216
73
217
0
VERTEX
10
0.0
20
0.0
30
0.0
70
128
71
218
72
215
73
45
0
VERTEX
10
0.0
20
0.0
30
0.0
70
128
71
139
72
218
73
219
0
VERTEX
10
0.0
20
0.0
30
0.0
70
128
71
215
72
218
73
139
0
VERTEX
10
0.0
20
0.0
30
0.0
70
128
71
220
72
141
73
64
0
VERTEX
10
0.0
20
0.0
30
0.0
70
128
71
131
72
220
73
64
0
VERTEX
10
0.0
20
0.0
30
0.0
70
128
71
220
72
131
73
68
0
VERTEX
10
0.0
20
0.0
30
0.0
70
128
71
132
72
220
73
68
0
VERTEX
10
0.0
20
0.0
30
0.0
70
128
71
57
72
220
73
58
0
VERTEX
10
0.0
20
0.0
30
0.0
70
128
71
220
72
132
73
58
0
VERTEX
10
0.0
20
0.0
30
0.0
70
128
71
221
72
135
73
129
0
VERTEX
10
0.0
20
0.0
30
0.0
70
128
71
128
72
221
73
129
0
VERTEX
10
0.0
20
0.0
30
0.0
70
128
71
221
72
211
73
222
0
VERTEX
10
0.0
20
0.0
30
0.0
70
128
71
211
72
221
73
128
0
VERTEX
10
0.0
20
0.0
30
0.0
70
128
71
135
72
223
73
57
0
VERTEX
10
0.0
20
0.0
30
0.0
70
128
71
141
72
223
73
222
0
VERTEX
10
0.0
20
0.0
30
0.0
70
128
71
223
72
221
73
222
0
VERTEX
10
0.0
20
0.0
30
0.0
70
128
71
221
72
223
73
135
0
VERTEX
10
0.0
20
0.0
30
0.0
70
128
71
223
72
220
73
57
0
VERTEX
10
0.0
20
0.0
30
0.0
70
128
71
220
72
223
73
141
0
VERTEX
10
0.0
20
0.0
30
0.0
70
128
71
224
72
141
73
222
0
VERTEX
10
0.0
20
0.0
30
0.0
70
128
71
224
72
140
73
141
0
VERTEX
10
0.0
20
0.0
30
0.0
70
128
71
140
72
224
73
212
0
VERTEX
10
0.0
20
0.0
30
0.0
70
128
71
224
72
211
73
212
0
VERTEX
10
0.0
20
0.0
30
0.0
70
128
71
211
72
224
73
222
0
VERTEX
10
0.0
20
0.0
30
0.0
70
128
71
225
72
142
73
143
0
VERTEX
10
0.0
20
0.0
30
0.0
70
128
71
185
72
225
73
143
0
VERTEX
10
0.0
20
0.0
30
0.0
70
128
71
226
72
38
73
40
0
VERTEX
10
0.0
20
0.0
30
0.0
70
128
71
148
72
226
73
40
0
VERTEX
10
0.0
20
0.0
30
0.0
70
128
71
227
72
76
73
5
0
VERTEX
10
0.0
20
0.0
30
0.0
70
128
71
227
72
158
73
76
0
VERTEX
10
0.0
20
0.0
30
0.0
70
128
71
227
72
5
73
4
0
VERTEX
10
0.0
20
0.0
30
0.0
70
128
71
228
72
227
73
4
0
VERTEX
10
0.0
20
0.0
30
0.0
70
128
71
227
72
228
73
17
0
VERTEX
10
0.0
20
0.0
30
0.0
70
128
71
158
72
227
73
17
0
VERTEX
10
0.0
20
0.0
30
0.0
70
128
71
229
72
162
73
149
0
VERTEX
10
0.0
20
0.0
30
0.0
70
128
71
162
72
229
73
163
0
VERTEX
10
0.0
20
0.0
30
0.0
70
128
71
230
72
147
73
40
0
VERTEX
10
0.0
20
0.0
30
0.0
70
128
71
88
72
231
73
163
0
VERTEX
10
0.0
20
0.0
30
0.0
70
128
71
231
72
161
73
163
0
VERTEX
10
0.0
20
0.0
30
0.0
70
128
71
232
72
81
73
36
0
VERTEX
10
0.0
20
0.0
30
0.0
70
128
71
232
72
85
73
81
0
VERTEX
10
0.0
20
0.0
30
0.0
70
128
71
160
72
233
73
35
0
VERTEX
10
0.0
20
0.0
30
0.0
70
128
71
161
72
233
73
160
0
VERTEX
10
0.0
20
0.0
30
0.0
70
128
71
35
72
233
73
36
0
VERTEX
10
0.0
20
0.0
30
0.0
70
128
71
88
72
234
73
87
0
VERTEX
10
0.0
20
0.0
30
0.0
70
128
71
166
72
234
73
88
0
VERTEX
10
0.0
20
0.0
30
0.0
70
128
71
87
72
234
73
22
0
VERTEX
10
0.0
20
0.0
30
0.0
70
128
71
235
72
176
73
236
0
VERTEX
10
0.0
20
0.0
30
0.0
70
128
71
176
72
235
73
171
0
VERTEX
10
0.0
20
0.0
30
0.0
70
128
71
171
72
235
73
148
0
VERTEX
10
0.0
20
0.0
30
0.0
70
128
71
237
72
171
73
169
0
VERTEX
10
0.0
20
0.0
30
0.0
70
128
71
176
72
237
73
167
0
VERTEX
10
0.0
20
0.0
30
0.0
70
128
71
237
72
176
73
171
0
VERTEX
10
0.0
20
0.0
30
0.0
70
128
71
168
72
238
73
24
0
VERTEX
10
0.0
20
0.0
30
0.0
70
128
71
238
72
172
73
24
0
VERTEX
10
0.0
20
0.0
30
0.0
70
128
71
238
72
168
73
170
0
VERTEX
10
0.0
20
0.0
30
0.0
70
128
71
176
72
239
73
236
0
VERTEX
10
0.0
20
0.0
30
0.0
70
128
71
239
72
176
73
177
0
VERTEX
10
0.0
20
0.0
30
0.0
70
128
71
240
72
150
73
72
0
VERTEX
10
0.0
20
0.0
30
0.0
70
128
71
241
72
240
73
242
0
VERTEX
10
0.0
20
0.0
30
0.0
70
128
71
150
72
241
73
70
0
VERTEX
10
0.0
20
0.0
30
0.0
70
128
71
240
72
241
73
150
0
VERTEX
10
0.0
20
0.0
30
0.0
70
128
71
243
72
244
73
245
0
VERTEX
10
0.0
20
0.0
30
0.0
70
128
71
244
72
243
73
181
0
VERTEX
10
0.0
20
0.0
30
0.0
70
128
71
209
72
246
73
183
0
VERTEX
10
0.0
20
0.0
30
0.0
70
128
71
246
72
206
73
92
0
VERTEX
10
0.0
20
0.0
30
0.0
70
128
71
178
72
246
73
92
0
VERTEX
10
0.0
20
0.0
30
0.0
70
128
71
142
72
247
73
174
0
VERTEX
10
0.0
20
0.0
30
0.0
70
128
71
247
72
179
73
174
0
VERTEX
10
0.0
20
0.0
30
0.0
70
128
71
225
72
247
73
142
0
VERTEX
10
0.0
20
0.0
30
0.0
70
128
71
179
72
247
73
180
0
VERTEX
10
0.0
20
0.0
30
0.0
70
128
71
180
72
247
73
245
0
VERTEX
10
0.0
20
0.0
30
0.0
70
128
71
247
72
225
73
245
0
VERTEX
10
0.0
20
0.0
30
0.0
70
128
71
243
72
248
73
181
0
VERTEX
10
0.0
20
0.0
30
0.0
70
128
71
249
72
243
73
245
0
VERTEX
10
0.0
20
0.0
30
0.0
70
128
71
110
72
250
73
7
0
VERTEX
10
0.0
20
0.0
30
0.0
70
128
71
250
72
110
73
111
0
VERTEX
10
0.0
20
0.0
30
0.0
70
128
71
250
72
248
73
7
0
VERTEX
10
0.0
20
0.0
30
0.0
70
128
71
193
72
250
73
111
0
VERTEX
10
0.0
20
0.0
30
0.0
70
128
71
250
72
193
73
182
0
VERTEX
10
0.0
20
0.0
30
0.0
70
128
71
250
72
182
73
181
0
VERTEX
10
0.0
20
0.0
30
0.0
70
128
71
248
72
250
73
181
0
VERTEX
10
0.0
20
0.0
30
0.0
70
128
71
95
72
251
73
96
0
VERTEX
10
0.0
20
0.0
30
0.0
70
128
71
251
72
185
73
96
0
VERTEX
10
0.0
20
0.0
30
0.0
70
128
71
251
72
225
73
185
0
VERTEX
10
0.0
20
0.0
30
0.0
70
128
71
225
72
251
73
245
0
VERTEX
10
0.0
20
0.0
30
0.0
70
128
71
251
72
249
73
245
0
VERTEX
10
0.0
20
0.0
30
0.0
70
128
71
252
72
101
73
100
0
VERTEX
10
0.0
20
0.0
30
0.0
70
128
71
188
72
252
73
29
0
VERTEX
10
0.0
20
0.0
30
0.0
70
128
71
101
72
252
73
189
0
VERTEX
10
0.0
20
0.0
30
0.0
70
128
71
252
72
188
73
189
0
VERTEX
10
0.0
20
0.0
30
0.0
70
128
71
108
72
252
73
100
0
VERTEX
10
0.0
20
0.0
30
0.0
70
128
71
252
72
110
73
29
0
VERTEX
10
0.0
20
0.0
30
0.0
70
128
71
110
72
252
73
108
0
VERTEX
10
0.0
20
0.0
30
0.0
70
128
71
253
72
194
73
102
0
VERTEX
10
0.0
20
0.0
30
0.0
70
128
71
254
72
97
73
32
0
VERTEX
10
0.0
20
0.0
30
0.0
70
128
71
254
72
187
73
97
0
VERTEX
10
0.0
20
0.0
30
0.0
70
128
71
121
72
255
73
122
0
VERTEX
10
0.0
20
0.0
30
0.0
70
128
71
256
72
254
73
32
0
VERTEX
10
0.0
20
0.0
30
0.0
70
128
71
254
72
256
73
257
0
VERTEX
10
0.0
20
0.0
30
0.0
70
128
71
256
72
32
73
3
0
VERTEX
10
0.0
20
0.0
30
0.0
70
128
71
98
72
256
73
3
0
VERTEX
10
0.0
20
0.0
30
0.0
70
128
71
256
72
98
73
78
0
VERTEX
10
0.0
20
0.0
30
0.0
70
128
71
190
72
256
73
78
0
VERTEX
10
0.0
20
0.0
30
0.0
70
128
71
258
72
196
73
12
0
VERTEX
10
0.0
20
0.0
30
0.0
70
128
71
103
72
258
73
12
0
VERTEX
10
0.0
20
0.0
30
0.0
70
128
71
194
72
258
73
103
0
VERTEX
10
0.0
20
0.0
30
0.0
70
128
71
114
72
259
73
112
0
VERTEX
10
0.0
20
0.0
30
0.0
70
128
71
260
72
259
73
114
0
VERTEX
10
0.0
20
0.0
30
0.0
70
128
71
261
72
240
73
72
0
VERTEX
10
0.0
20
0.0
30
0.0
70
128
71
261
72
72
73
73
0
VERTEX
10
0.0
20
0.0
30
0.0
70
128
71
262
72
114
73
38
0
VERTEX
10
0.0
20
0.0
30
0.0
70
128
71
262
72
260
73
114
0
VERTEX
10
0.0
20
0.0
30
0.0
70
128
71
263
72
115
73
217
0
VERTEX
10
0.0
20
0.0
30
0.0
70
128
71
264
72
263
73
217
0
VERTEX
10
0.0
20
0.0
30
0.0
70
128
71
263
72
116
73
115
0
VERTEX
10
0.0
20
0.0
30
0.0
70
128
71
263
72
265
73
116
0
VERTEX
10
0.0
20
0.0
30
0.0
70
128
71
265
72
263
73
122
0
VERTEX
10
0.0
20
0.0
30
0.0
70
128
71
266
72
264
73
267
0
VERTEX
10
0.0
20
0.0
30
0.0
70
128
71
268
72
50
73
47
0
VERTEX
10
0.0
20
0.0
30
0.0
70
128
71
268
72
267
73
50
0
VERTEX
10
0.0
20
0.0
30
0.0
70
128
71
268
72
266
73
267
0
VERTEX
10
0.0
20
0.0
30
0.0
70
128
71
125
72
269
73
124
0
VERTEX
10
0.0
20
0.0
30
0.0
70
128
71
202
72
269
73
125
0
VERTEX
10
0.0
20
0.0
30
0.0
70
128
71
269
72
123
73
124
0
VERTEX
10
0.0
20
0.0
30
0.0
70
128
71
269
72
198
73
123
0
VERTEX
10
0.0
20
0.0
30
0.0
70
128
71
199
72
269
73
270
0
VERTEX
10
0.0
20
0.0
30
0.0
70
128
71
198
72
269
73
199
0
VERTEX
10
0.0
20
0.0
30
0.0
70
128
71
271
72
133
73
192
0
VERTEX
10
0.0
20
0.0
30
0.0
70
128
71
271
72
202
73
133
0
VERTEX
10
0.0
20
0.0
30
0.0
70
128
71
269
72
271
73
270
0
VERTEX
10
0.0
20
0.0
30
0.0
70
128
71
271
72
269
73
202
0
VERTEX
10
0.0
20
0.0
30
0.0
70
128
71
144
72
272
73
145
0
VERTEX
10
0.0
20
0.0
30
0.0
70
128
71
272
72
207
73
145
0
VERTEX
10
0.0
20
0.0
30
0.0
70
128
71
207
72
272
73
92
0
VERTEX
10
0.0
20
0.0
30
0.0
70
128
71
272
72
146
73
92
0
VERTEX
10
0.0
20
0.0
30
0.0
70
128
71
146
72
272
73
144
0
VERTEX
10
0.0
20
0.0
30
0.0
70
128
71
273
72
209
73
184
0
VERTEX
10
0.0
20
0.0
30
0.0
70
128
71
274
72
273
73
184
0
VERTEX
10
0.0
20
0.0
30
0.0
70
128
71
275
72
126
73
127
0
VERTEX
10
0.0
20
0.0
30
0.0
70
128
71
210
72
275
73
127
0
VERTEX
10
0.0
20
0.0
30
0.0
70
128
71
126
72
275
73
44
0
VERTEX
10
0.0
20
0.0
30
0.0
70
128
71
276
72
210
73
200
0
VERTEX
10
0.0
20
0.0
30
0.0
70
128
71
267
72
276
73
50
0
VERTEX
10
0.0
20
0.0
30
0.0
70
128
71
276
72
200
73
50
0
VERTEX
10
0.0
20
0.0
30
0.0
70
128
71
264
72
277
73
267
0
VERTEX
10
0.0
20
0.0
30
0.0
70
128
71
277
72
276
73
267
0
VERTEX
10
0.0
20
0.0
30
0.0
70
128
71
276
72
277
73
210
0
VERTEX
10
0.0
20
0.0
30
0.0
70
128
71
213
72
278
73
41
0
VERTEX
10
0.0
20
0.0
30
0.0
70
128
71
278
72
279
73
280
0
VERTEX
10
0.0
20
0.0
30
0.0
70
128
71
279
72
278
73
213
0
VERTEX
10
0.0
20
0.0
30
0.0
70
128
71
279
72
213
73
42
0
VERTEX
10
0.0
20
0.0
30
0.0
70
128
71
214
72
279
73
42
0
VERTEX
10
0.0
20
0.0
30
0.0
70
128
71
137
72
281
73
113
0
VERTEX
10
0.0
20
0.0
30
0.0
70
128
71
281
72
214
73
113
0
VERTEX
10
0.0
20
0.0
30
0.0
70
128
71
281
72
137
73
139
0
VERTEX
10
0.0
20
0.0
30
0.0
70
128
71
281
72
279
73
214
0
VERTEX
10
0.0
20
0.0
30
0.0
70
128
71
281
72
139
73
219
0
VERTEX
10
0.0
20
0.0
30
0.0
70
128
71
52
72
282
73
212
0
VERTEX
10
0.0
20
0.0
30
0.0
70
128
71
282
72
140
73
212
0
VERTEX
10
0.0
20
0.0
30
0.0
70
128
71
140
72
282
73
60
0
VERTEX
10
0.0
20
0.0
30
0.0
70
128
71
159
72
283
73
117
0
VERTEX
10
0.0
20
0.0
30
0.0
70
128
71
283
72
216
73
117
0
VERTEX
10
0.0
20
0.0
30
0.0
70
128
71
229
72
284
73
285
0
VERTEX
10
0.0
20
0.0
30
0.0
70
128
71
284
72
230
73
285
0
VERTEX
10
0.0
20
0.0
30
0.0
70
128
71
284
72
229
73
149
0
VERTEX
10
0.0
20
0.0
30
0.0
70
128
71
147
72
284
73
149
0
VERTEX
10
0.0
20
0.0
30
0.0
70
128
71
230
72
284
73
147
0
VERTEX
10
0.0
20
0.0
30
0.0
70
128
71
229
72
286
73
163
0
VERTEX
10
0.0
20
0.0
30
0.0
70
128
71
286
72
229
73
285
0
VERTEX
10
0.0
20
0.0
30
0.0
70
128
71
286
72
166
73
163
0
VERTEX
10
0.0
20
0.0
30
0.0
70
128
71
287
72
286
73
285
0
VERTEX
10
0.0
20
0.0
30
0.0
70
128
71
165
72
288
73
88
0
VERTEX
10
0.0
20
0.0
30
0.0
70
128
71
288
72
231
73
88
0
VERTEX
10
0.0
20
0.0
30
0.0
70
128
71
288
72
165
73
85
0
VERTEX
10
0.0
20
0.0
30
0.0
70
128
71
232
72
288
73
85
0
VERTEX
10
0.0
20
0.0
30
0.0
70
128
71
289
72
233
73
161
0
VERTEX
10
0.0
20
0.0
30
0.0
70
128
71
289
72
288
73
232
0
VERTEX
10
0.0
20
0.0
30
0.0
70
128
71
289
72
232
73
36
0
VERTEX
10
0.0
20
0.0
30
0.0
70
128
71
233
72
289
73
36
0
VERTEX
10
0.0
20
0.0
30
0.0
70
128
71
231
72
289
73
161
0
VERTEX
10
0.0
20
0.0
30
0.0
70
128
71
288
72
289
73
231
0
VERTEX
10
0.0
20
0.0
30
0.0
70
128
71
290
72
234
73
166
0
VERTEX
10
0.0
20
0.0
30
0.0
70
128
71
234
72
290
73
22
0
VERTEX
10
0.0
20
0.0
30
0.0
70
128
71
235
72
291
73
148
0
VERTEX
10
0.0
20
0.0
30
0.0
70
128
71
291
72
226
73
148
0
VERTEX
10
0.0
20
0.0
30
0.0
70
128
71
226
72
291
73
292
0
VERTEX
10
0.0
20
0.0
30
0.0
70
128
71
291
72
235
73
236
0
VERTEX
10
0.0
20
0.0
30
0.0
70
128
71
293
72
237
73
169
0
VERTEX
10
0.0
20
0.0
30
0.0
70
128
71
168
72
293
73
170
0
VERTEX
10
0.0
20
0.0
30
0.0
70
128
71
293
72
169
73
170
0
VERTEX
10
0.0
20
0.0
30
0.0
70
128
71
293
72
168
73
167
0
VERTEX
10
0.0
20
0.0
30
0.0
70
128
71
237
72
293
73
167
0
VERTEX
10
0.0
20
0.0
30
0.0
70
128
71
294
72
238
73
170
0
VERTEX
10
0.0
20
0.0
30
0.0
70
128
71
93
72
294
73
84
0
VERTEX
10
0.0
20
0.0
30
0.0
70
128
71
172
72
294
73
93
0
VERTEX
10
0.0
20
0.0
30
0.0
70
128
71
238
72
294
73
172
0
VERTEX
10
0.0
20
0.0
30
0.0
70
128
71
294
72
81
73
84
0
VERTEX
10
0.0
20
0.0
30
0.0
70
128
71
34
72
294
73
170
0
VERTEX
10
0.0
20
0.0
30
0.0
70
128
71
81
72
294
73
34
0
VERTEX
10
0.0
20
0.0
30
0.0
70
128
71
295
72
241
73
242
0
VERTEX
10
0.0
20
0.0
30
0.0
70
128
71
296
72
244
73
181
0
VERTEX
10
0.0
20
0.0
30
0.0
70
128
71
296
72
246
73
178
0
VERTEX
10
0.0
20
0.0
30
0.0
70
128
71
296
72
91
73
180
0
VERTEX
10
0.0
20
0.0
30
0.0
70
128
71
296
72
178
73
91
0
VERTEX
10
0.0
20
0.0
30
0.0
70
128
71
296
72
180
73
245
0
VERTEX
10
0.0
20
0.0
30
0.0
70
128
71
244
72
296
73
245
0
VERTEX
10
0.0
20
0.0
30
0.0
70
128
71
297
72
8
73
7
0
VERTEX
10
0.0
20
0.0
30
0.0
70
128
71
248
72
297
73
7
0
VERTEX
10
0.0
20
0.0
30
0.0
70
128
71
297
72
27
73
8
0
VERTEX
10
0.0
20
0.0
30
0.0
70
128
71
297
72
243
73
27
0
VERTEX
10
0.0
20
0.0
30
0.0
70
128
71
297
72
248
73
243
0
VERTEX
10
0.0
20
0.0
30
0.0
70
128
71
228
72
298
73
17
0
VERTEX
10
0.0
20
0.0
30
0.0
70
128
71
298
72
95
73
17
0
VERTEX
10
0.0
20
0.0
30
0.0
70
128
71
298
72
251
73
95
0
VERTEX
10
0.0
20
0.0
30
0.0
70
128
71
251
72
298
73
249
0
VERTEX
10
0.0
20
0.0
30
0.0
70
128
71
27
72
298
73
4
0
VERTEX
10
0.0
20
0.0
30
0.0
70
128
71
298
72
228
73
4
0
VERTEX
10
0.0
20
0.0
30
0.0
70
128
71
243
72
298
73
27
0
VERTEX
10
0.0
20
0.0
30
0.0
70
128
71
249
72
298
73
243
0
VERTEX
10
0.0
20
0.0
30
0.0
70
128
71
299
72
300
73
257
0
VERTEX
10
0.0
20
0.0
30
0.0
70
128
71
300
72
254
73
257
0
VERTEX
10
0.0
20
0.0
30
0.0
70
128
71
187
72
300
73
189
0
VERTEX
10
0.0
20
0.0
30
0.0
70
128
71
254
72
300
73
187
0
VERTEX
10
0.0
20
0.0
30
0.0
70
128
71
101
72
300
73
102
0
VERTEX
10
0.0
20
0.0
30
0.0
70
128
71
300
72
101
73
189
0
VERTEX
10
0.0
20
0.0
30
0.0
70
128
71
300
72
253
73
102
0
VERTEX
10
0.0
20
0.0
30
0.0
70
128
71
253
72
300
73
299
0
VERTEX
10
0.0
20
0.0
30
0.0
70
128
71
301
72
302
73
274
0
VERTEX
10
0.0
20
0.0
30
0.0
70
128
71
107
72
301
73
109
0
VERTEX
10
0.0
20
0.0
30
0.0
70
128
71
301
72
184
73
109
0
VERTEX
10
0.0
20
0.0
30
0.0
70
128
71
301
72
274
73
184
0
VERTEX
10
0.0
20
0.0
30
0.0
70
128
71
112
72
303
73
61
0
VERTEX
10
0.0
20
0.0
30
0.0
70
128
71
259
72
303
73
112
0
VERTEX
10
0.0
20
0.0
30
0.0
70
128
71
303
72
63
73
61
0
VERTEX
10
0.0
20
0.0
30
0.0
70
128
71
63
72
303
73
73
0
VERTEX
10
0.0
20
0.0
30
0.0
70
128
71
304
72
226
73
292
0
VERTEX
10
0.0
20
0.0
30
0.0
70
128
71
226
72
304
73
38
0
VERTEX
10
0.0
20
0.0
30
0.0
70
128
71
263
72
305
73
122
0
VERTEX
10
0.0
20
0.0
30
0.0
70
128
71
305
72
263
73
264
0
VERTEX
10
0.0
20
0.0
30
0.0
70
128
71
266
72
305
73
264
0
VERTEX
10
0.0
20
0.0
30
0.0
70
128
71
305
72
120
73
122
0
VERTEX
10
0.0
20
0.0
30
0.0
70
128
71
305
72
195
73
120
0
VERTEX
10
0.0
20
0.0
30
0.0
70
128
71
48
72
306
73
47
0
VERTEX
10
0.0
20
0.0
30
0.0
70
128
71
306
72
268
73
47
0
VERTEX
10
0.0
20
0.0
30
0.0
70
128
71
306
72
48
73
49
0
VERTEX
10
0.0
20
0.0
30
0.0
70
128
71
195
72
306
73
49
0
VERTEX
10
0.0
20
0.0
30
0.0
70
128
71
268
72
306
73
266
0
VERTEX
10
0.0
20
0.0
30
0.0
70
128
71
305
72
306
73
195
0
VERTEX
10
0.0
20
0.0
30
0.0
70
128
71
306
72
305
73
266
0
VERTEX
10
0.0
20
0.0
30
0.0
70
128
71
307
72
205
73
208
0
VERTEX
10
0.0
20
0.0
30
0.0
70
128
71
308
72
307
73
309
0
VERTEX
10
0.0
20
0.0
30
0.0
70
128
71
205
72
307
73
192
0
VERTEX
10
0.0
20
0.0
30
0.0
70
128
71
307
72
271
73
192
0
VERTEX
10
0.0
20
0.0
30
0.0
70
128
71
271
72
307
73
270
0
VERTEX
10
0.0
20
0.0
30
0.0
70
128
71
307
72
308
73
270
0
VERTEX
10
0.0
20
0.0
30
0.0
70
128
71
310
72
207
73
206
0
VERTEX
10
0.0
20
0.0
30
0.0
70
128
71
207
72
310
73
208
0
VERTEX
10
0.0
20
0.0
30
0.0
70
128
71
246
72
310
73
206
0
VERTEX
10
0.0
20
0.0
30
0.0
70
128
71
310
72
246
73
209
0
VERTEX
10
0.0
20
0.0
30
0.0
70
128
71
309
72
311
73
312
0
VERTEX
10
0.0
20
0.0
30
0.0
70
128
71
311
72
274
73
312
0
VERTEX
10
0.0
20
0.0
30
0.0
70
128
71
311
72
273
73
274
0
VERTEX
10
0.0
20
0.0
30
0.0
70
128
71
273
72
311
73
209
0
VERTEX
10
0.0
20
0.0
30
0.0
70
128
71
311
72
310
73
209
0
VERTEX
10
0.0
20
0.0
30
0.0
70
128
71
313
72
118
73
44
0
VERTEX
10
0.0
20
0.0
30
0.0
70
128
71
275
72
313
73
44
0
VERTEX
10
0.0
20
0.0
30
0.0
70
128
71
119
72
313
73
217
0
VERTEX
10
0.0
20
0.0
30
0.0
70
128
71
118
72
313
73
119
0
VERTEX
10
0.0
20
0.0
30
0.0
70
128
71
313
72
264
73
217
0
VERTEX
10
0.0
20
0.0
30
0.0
70
128
71
313
72
277
73
264
0
VERTEX
10
0.0
20
0.0
30
0.0
70
128
71
313
72
275
73
210
0
VERTEX
10
0.0
20
0.0
30
0.0
70
128
71
277
72
313
73
210
0
VERTEX
10
0.0
20
0.0
30
0.0
70
128
71
41
72
314
73
40
0
VERTEX
10
0.0
20
0.0
30
0.0
70
128
71
278
72
314
73
41
0
VERTEX
10
0.0
20
0.0
30
0.0
70
128
71
230
72
315
73
285
0
VERTEX
10
0.0
20
0.0
30
0.0
70
128
71
315
72
314
73
278
0
VERTEX
10
0.0
20
0.0
30
0.0
70
128
71
315
72
230
73
40
0
VERTEX
10
0.0
20
0.0
30
0.0
70
128
71
314
72
315
73
40
0
VERTEX
10
0.0
20
0.0
30
0.0
70
128
71
316
72
317
73
219
0
VERTEX
10
0.0
20
0.0
30
0.0
70
128
71
215
72
318
73
52
0
VERTEX
10
0.0
20
0.0
30
0.0
70
128
71
318
72
282
73
52
0
VERTEX
10
0.0
20
0.0
30
0.0
70
128
71
318
72
215
73
138
0
VERTEX
10
0.0
20
0.0
30
0.0
70
128
71
60
72
318
73
138
0
VERTEX
10
0.0
20
0.0
30
0.0
70
128
71
282
72
318
73
60
0
VERTEX
10
0.0
20
0.0
30
0.0
70
128
71
286
72
319
73
166
0
VERTEX
10
0.0
20
0.0
30
0.0
70
128
71
319
72
290
73
166
0
VERTEX
10
0.0
20
0.0
30
0.0
70
128
71
319
72
287
73
320
0
VERTEX
10
0.0
20
0.0
30
0.0
70
128
71
287
72
319
73
286
0
VERTEX
10
0.0
20
0.0
30
0.0
70
128
71
130
72
321
73
45
0
VERTEX
10
0.0
20
0.0
30
0.0
70
128
71
321
72
218
73
45
0
VERTEX
10
0.0
20
0.0
30
0.0
70
128
71
218
72
321
73
219
0
VERTEX
10
0.0
20
0.0
30
0.0
70
128
71
321
72
316
73
219
0
VERTEX
10
0.0
20
0.0
30
0.0
70
128
71
322
72
319
73
320
0
VERTEX
10
0.0
20
0.0
30
0.0
70
128
71
319
72
322
73
290
0
VERTEX
10
0.0
20
0.0
30
0.0
70
128
71
323
72
159
73
22
0
VERTEX
10
0.0
20
0.0
30
0.0
70
128
71
290
72
323
73
22
0
VERTEX
10
0.0
20
0.0
30
0.0
70
128
71
324
72
295
73
66
0
VERTEX
10
0.0
20
0.0
30
0.0
70
128
71
295
72
324
73
241
0
VERTEX
10
0.0
20
0.0
30
0.0
70
128
71
65
72
324
73
66
0
VERTEX
10
0.0
20
0.0
30
0.0
70
128
71
324
72
65
73
70
0
VERTEX
10
0.0
20
0.0
30
0.0
70
128
71
241
72
324
73
70
0
VERTEX
10
0.0
20
0.0
30
0.0
70
128
71
325
72
239
73
177
0
VERTEX
10
0.0
20
0.0
30
0.0
70
128
71
325
72
295
73
239
0
VERTEX
10
0.0
20
0.0
30
0.0
70
128
71
175
72
325
73
177
0
VERTEX
10
0.0
20
0.0
30
0.0
70
128
71
325
72
175
73
173
0
VERTEX
10
0.0
20
0.0
30
0.0
70
128
71
295
72
325
73
66
0
VERTEX
10
0.0
20
0.0
30
0.0
70
128
71
325
72
174
73
66
0
VERTEX
10
0.0
20
0.0
30
0.0
70
128
71
325
72
173
73
174
0
VERTEX
10
0.0
20
0.0
30
0.0
70
128
71
326
72
296
73
181
0
VERTEX
10
0.0
20
0.0
30
0.0
70
128
71
296
72
326
73
246
0
VERTEX
10
0.0
20
0.0
30
0.0
70
128
71
326
72
181
73
183
0
VERTEX
10
0.0
20
0.0
30
0.0
70
128
71
246
72
326
73
183
0
VERTEX
10
0.0
20
0.0
30
0.0
70
128
71
327
72
255
73
121
0
VERTEX
10
0.0
20
0.0
30
0.0
70
128
71
327
72
328
73
255
0
VERTEX
10
0.0
20
0.0
30
0.0
70
128
71
327
72
253
73
299
0
VERTEX
10
0.0
20
0.0
30
0.0
70
128
71
328
72
327
73
299
0
VERTEX
10
0.0
20
0.0
30
0.0
70
128
71
196
72
327
73
121
0
VERTEX
10
0.0
20
0.0
30
0.0
70
128
71
258
72
327
73
196
0
VERTEX
10
0.0
20
0.0
30
0.0
70
128
71
253
72
327
73
194
0
VERTEX
10
0.0
20
0.0
30
0.0
70
128
71
327
72
258
73
194
0
VERTEX
10
0.0
20
0.0
30
0.0
70
128
71
329
72
299
73
257
0
VERTEX
10
0.0
20
0.0
30
0.0
70
128
71
329
72
328
73
299
0
VERTEX
10
0.0
20
0.0
30
0.0
70
128
71
256
72
329
73
257
0
VERTEX
10
0.0
20
0.0
30
0.0
70
128
71
329
72
256
73
190
0
VERTEX
10
0.0
20
0.0
30
0.0
70
128
71
329
72
190
73
80
0
VERTEX
10
0.0
20
0.0
30
0.0
70
128
71
328
72
329
73
255
0
VERTEX
10
0.0
20
0.0
30
0.0
70
128
71
330
72
331
73
9
0
VERTEX
10
0.0
20
0.0
30
0.0
70
128
71
9
72
331
73
105
0
VERTEX
10
0.0
20
0.0
30
0.0
70
128
71
331
72
302
73
105
0
VERTEX
10
0.0
20
0.0
30
0.0
70
128
71
274
72
331
73
312
0
VERTEX
10
0.0
20
0.0
30
0.0
70
128
71
302
72
331
73
274
0
VERTEX
10
0.0
20
0.0
30
0.0
70
128
71
331
72
309
73
312
0
VERTEX
10
0.0
20
0.0
30
0.0
70
128
71
331
72
330
73
309
0
VERTEX
10
0.0
20
0.0
30
0.0
70
128
71
332
72
308
73
309
0
VERTEX
10
0.0
20
0.0
30
0.0
70
128
71
330
72
332
73
309
0
VERTEX
10
0.0
20
0.0
30
0.0
70
128
71
332
72
199
73
270
0
VERTEX
10
0.0
20
0.0
30
0.0
70
128
71
308
72
332
73
270
0
VERTEX
10
0.0
20
0.0
30
0.0
70
128
71
332
72
330
73
9
0
VERTEX
10
0.0
20
0.0
30
0.0
70
128
71
332
72
9
73
11
0
VERTEX
10
0.0
20
0.0
30
0.0
70
128
71
199
72
332
73
11
0
VERTEX
10
0.0
20
0.0
30
0.0
70
128
71
302
72
333
73
105
0
VERTEX
10
0.0
20
0.0
30
0.0
70
128
71
301
72
333
73
302
0
VERTEX
10
0.0
20
0.0
30
0.0
70
128
71
333
72
107
73
105
0
VERTEX
10
0.0
20
0.0
30
0.0
70
128
71
333
72
301
73
107
0
VERTEX
10
0.0
20
0.0
30
0.0
70
128
71
261
72
334
73
260
0
VERTEX
10
0.0
20
0.0
30
0.0
70
128
71
334
72
259
73
260
0
VERTEX
10
0.0
20
0.0
30
0.0
70
128
71
334
72
303
73
259
0
VERTEX
10
0.0
20
0.0
30
0.0
70
128
71
334
72
261
73
73
0
VERTEX
10
0.0
20
0.0
30
0.0
70
128
71
303
72
334
73
73
0
VERTEX
10
0.0
20
0.0
30
0.0
70
128
71
335
72
261
73
260
0
VERTEX
10
0.0
20
0.0
30
0.0
70
128
71
335
72
336
73
261
0
VERTEX
10
0.0
20
0.0
30
0.0
70
128
71
336
72
337
73
261
0
VERTEX
10
0.0
20
0.0
30
0.0
70
128
71
240
72
337
73
242
0
VERTEX
10
0.0
20
0.0
30
0.0
70
128
71
261
72
337
73
240
0
VERTEX
10
0.0
20
0.0
30
0.0
70
128
71
239
72
338
73
236
0
VERTEX
10
0.0
20
0.0
30
0.0
70
128
71
338
72
295
73
242
0
VERTEX
10
0.0
20
0.0
30
0.0
70
128
71
295
72
338
73
239
0
VERTEX
10
0.0
20
0.0
30
0.0
70
128
71
337
72
338
73
242
0
VERTEX
10
0.0
20
0.0
30
0.0
70
128
71
338
72
337
73
336
0
VERTEX
10
0.0
20
0.0
30
0.0
70
128
71
291
72
339
73
292
0
VERTEX
10
0.0
20
0.0
30
0.0
70
128
71
339
72
338
73
336
0
VERTEX
10
0.0
20
0.0
30
0.0
70
128
71
307
72
340
73
309
0
VERTEX
10
0.0
20
0.0
30
0.0
70
128
71
340
72
311
73
309
0
VERTEX
10
0.0
20
0.0
30
0.0
70
128
71
340
72
307
73
208
0
VERTEX
10
0.0
20
0.0
30
0.0
70
128
71
310
72
340
73
208
0
VERTEX
10
0.0
20
0.0
30
0.0
70
128
71
311
72
340
73
310
0
VERTEX
10
0.0
20
0.0
30
0.0
70
128
71
315
72
341
73
285
0
VERTEX
10
0.0
20
0.0
30
0.0
70
128
71
341
72
315
73
278
0
VERTEX
10
0.0
20
0.0
30
0.0
70
128
71
341
72
287
73
285
0
VERTEX
10
0.0
20
0.0
30
0.0
70
128
71
281
72
342
73
279
0
VERTEX
10
0.0
20
0.0
30
0.0
70
128
71
279
72
342
73
280
0
VERTEX
10
0.0
20
0.0
30
0.0
70
128
71
342
72
317
73
280
0
VERTEX
10
0.0
20
0.0
30
0.0
70
128
71
342
72
281
73
219
0
VERTEX
10
0.0
20
0.0
30
0.0
70
128
71
317
72
342
73
219
0
VERTEX
10
0.0
20
0.0
30
0.0
70
128
71
287
72
343
73
320
0
VERTEX
10
0.0
20
0.0
30
0.0
70
128
71
343
72
322
73
320
0
VERTEX
10
0.0
20
0.0
30
0.0
70
128
71
216
72
344
73
130
0
VERTEX
10
0.0
20
0.0
30
0.0
70
128
71
283
72
344
73
216
0
VERTEX
10
0.0
20
0.0
30
0.0
70
128
71
321
72
345
73
316
0
VERTEX
10
0.0
20
0.0
30
0.0
70
128
71
345
72
321
73
130
0
VERTEX
10
0.0
20
0.0
30
0.0
70
128
71
344
72
345
73
130
0
VERTEX
10
0.0
20
0.0
30
0.0
70
128
71
345
72
344
73
283
0
VERTEX
10
0.0
20
0.0
30
0.0
70
128
71
329
72
346
73
255
0
VERTEX
10
0.0
20
0.0
30
0.0
70
128
71
346
72
265
73
122
0
VERTEX
10
0.0
20
0.0
30
0.0
70
128
71
255
72
346
73
122
0
VERTEX
10
0.0
20
0.0
30
0.0
70
128
71
346
72
329
73
80
0
VERTEX
10
0.0
20
0.0
30
0.0
70
128
71
116
72
346
73
80
0
VERTEX
10
0.0
20
0.0
30
0.0
70
128
71
265
72
346
73
116
0
VERTEX
10
0.0
20
0.0
30
0.0
70
128
71
335
72
347
73
336
0
VERTEX
10
0.0
20
0.0
30
0.0
70
128
71
347
72
339
73
336
0
VERTEX
10
0.0
20
0.0
30
0.0
70
128
71
262
72
347
73
260
0
VERTEX
10
0.0
20
0.0
30
0.0
70
128
71
347
72
335
73
260
0
VERTEX
10
0.0
20
0.0
30
0.0
70
128
71
347
72
262
73
38
0
VERTEX
10
0.0
20
0.0
30
0.0
70
128
71
304
72
347
73
38
0
VERTEX
10
0.0
20
0.0
30
0.0
70
128
71
347
72
304
73
292
0
VERTEX
10
0.0
20
0.0
30
0.0
70
128
71
339
72
347
73
292
0
VERTEX
10
0.0
20
0.0
30
0.0
70
128
71
348
72
291
73
236
0
VERTEX
10
0.0
20
0.0
30
0.0
70
128
71
348
72
339
73
291
0
VERTEX
10
0.0
20
0.0
30
0.0
70
128
71
338
72
348
73
236
0
VERTEX
10
0.0
20
0.0
30
0.0
70
128
71
339
72
348
73
338
0
VERTEX
10
0.0
20
0.0
30
0.0
70
128
71
349
72
343
73
287
0
VERTEX
10
0.0
20
0.0
30
0.0
70
128
71
341
72
349
73
287
0
VERTEX
10
0.0
20
0.0
30
0.0
70
128
71
317
72
349
73
280
0
VERTEX
10
0.0
20
0.0
30
0.0
70
128
71
343
72
349
73
317
0
VERTEX
10
0.0
20
0.0
30
0.0
70
128
71
349
72
278
73
280
0
VERTEX
10
0.0
20
0.0
30
0.0
70
128
71
349
72
341
73
278
0
VERTEX
10
0.0
20
0.0
30
0.0
70
128
71
343
72
350
73
322
0
VERTEX
10
0.0
20
0.0
30
0.0
70
128
71
345
72
350
73
316
0
VERTEX
10
0.0
20
0.0
30
0.0
70
128
71
350
72
345
73
322
0
VERTEX
10
0.0
20
0.0
30
0.0
70
128
71
350
72
317
73
316
0
VERTEX
10
0.0
20
0.0
30
0.0
70
128
71
350
72
343
73
317
0
VERTEX
10
0.0
20
0.0
30
0.0
70
128
71
345
72
351
73
322
0
VERTEX
10
0.0
20
0.0
30
0.0
70
128
71
322
72
351
73
290
0
VERTEX
10
0.0
20
0.0
30
0.0
70
128
71
351
72
323
73
290
0
VERTEX
10
0.0
20
0.0
30
0.0
70
128
71
351
72
345
73
283
0
VERTEX
10
0.0
20
0.0
30
0.0
70
128
71
351
72
283
73
159
0
VERTEX
10
0.0
20
0.0
30
0.0
70
128
71
323
72
351
73
159
0
SEQEND
0
ENDBLK
0
ENDSEC
0
SECTION
2
ENTITIES
0
INSERT
2
blimp_body
10
0.0
20
0.0
30
0.0
41
1.0
42
1.0
43
1.0
50
0.0
0
ENDSEC
0
EOF
