0
SECTION
2
HEADER
0
ENDSEC
0
SECTION
2
BLOCKS
0
BLOCK
2
Cylinder
70
64
10
0.0
20
0.0
30
0.0
3
Cylinder
0
POLYLINE
66
1
70
64
0
VERTEX
10
-0.012500
20
0.000000
30
0.000000
70
192
0
VERTEX
10
-0.012500
20
0.000000
30
0.025000
70
192
0
VERTEX
10
-0.012500
20
0.004877
30
0.024520
70
192
0
VERTEX
10
0.012500
20
0.000000
30
0.025000
70
192
0
VERTEX
10
0.012500
20
0.000000
30
0.000000
70
192
0
VERTEX
10
0.012500
20
0.004877
30
0.024520
70
192
0
VERTEX
10
-0.012500
20
0.009567
30
0.023097
70
192
0
VERTEX
10
0.012500
20
0.009567
30
0.023097
70
192
0
VERTEX
10
-0.012500
20
0.013889
30
0.020787
70
192
0
VERTEX
10
0.012500
20
0.013889
30
0.020787
70
192
0
VERTEX
10
-0.012500
20
0.017678
30
0.017678
70
192
0
VERTEX
10
0.012500
20
0.017678
30
0.017678
70
192
0
VERTEX
10
-0.012500
20
0.020787
30
0.013889
70
192
0
VERTEX
10
0.012500
20
0.020787
30
0.013889
70
192
0
VERTEX
10
-0.012500
20
0.023097
30
0.009567
70
192
0
VERTEX
10
0.012500
20
0.023097
30
0.009567
70
192
0
VERTEX
10
-0.012500
20
0.024520
30
0.004877
70
192
0
VERTEX
10
0.012500
20
0.024520
30
0.004877
70
192
0
VERTEX
10
-0.012500
20
0.025000
30
0.000000
70
192
0
VERTEX
10
0.012500
20
0.025000
30
-0.000000
70
192
0
VERTEX
10
-0.012500
20
0.024520
30
-0.004877
70
192
0
VERTEX
10
0.012500
20
0.024520
30
-0.004877
70
192
0
VERTEX
10
-0.012500
20
0.023097
30
-0.009567
70
192
0
VERTEX
10
0.012500
20
0.023097
30
-0.009567
70
192
0
VERTEX
10
-0.012500
20
0.020787
30
-0.013889
70
192
0
VERTEX
10
0.012500
20
0.020787
30
-0.013889
70
192
0
VERTEX
10
-0.012500
20
0.017678
30
-0.017678
70
192
0
VERTEX
10
0.012500
20
0.017678
30
-0.017678
70
192
0
VERTEX
10
-0.012500
20
0.013889
30
-0.020787
70
192
0
VERTEX
10
0.012500
20
0.013889
30
-0.020787
70
192
0
VERTEX
10
-0.012500
20
0.009567
30
-0.023097
70
192
0
VERTEX
10
0.012500
20
0.009567
30
-0.023097
70
192
0
VERTEX
10
-0.012500
20
0.004877
30
-0.024520
70
192
0
VERTEX
10
0.012500
20
0.004877
30
-0.024520
70
192
0
VERTEX
10
-0.012500
20
0.000000
30
-0.025000
70
192
0
VERTEX
10
0.012500
20
0.000000
30
-0.025000
70
192
0
VERTEX
10
-0.012500
20
-0.004877
30
-0.024520
70
192
0
VERTEX
10
0.012500
20
-0.004877
30
-0.024520
70
192
0
VERTEX
10
-0.012500
20
-0.009567
30
-0.023097
70
192
0
VERTEX
10
0.012500
20
-0.009567
30
-0.023097
70
192
0
VERTEX
10
-0.012500
20
-0.013889
30
-0.020787
70
192
0
VERTEX
10
0.012500
20
-0.013889
30
-0.020787
70
192
0
VERTEX
10
-0.012500
20
-0.017678
30
-0.017678
70
192
0
VERTEX
10
0.012500
20
-0.017678
30
-0.017678
70
192
0
VERTEX
10
-0.012500
20
-0.020787
30
-0.013889
70
192
0
VERTEX
10
0.012500
20
-0.020787
30
-0.013889
70
192
0
VERTEX
10
-0.012500
20
-0.023097
30
-0.009567
70
192
0
VERTEX
10
0.012500
20
-0.023097
30
-0.009567
70
192
0
VERTEX
10
-0.012500
20
-0.024520
30
-0.004877
70
192
0
VERTEX
10
0.012500
20
-0.024520
30
-0.004877
70
192
0
VERTEX
10
-0.012500
20
-0.025000
30
0.000000
70
192
0
VERTEX
10
0.012500
20
-0.025000
30
0.000000
70
192
0
VERTEX
10
-0.012500
20
-0.024520
30
0.004877
70
192
0
VERTEX
10
0.012500
20
-0.024520
30
0.004877
70
192
0
VERTEX
10
-0.012500
20
-0.023097
30
0.009567
70
192
0
VERTEX
10
0.012500
20
-0.023097
30
0.009567
70
192
0
VERTEX
10
-0.012500
20
-0.020787
30
0.013889
70
192
0
VERTEX
10
0.012500
20
-0.020787
30
0.013889
70
192
0
VERTEX
10
-0.012500
20
-0.017678
30
0.017678
70
192
0
VERTEX
10
0.012500
20
-0.017678
30
0.017678
70
192
0
VERTEX
10
-0.012500
20
-0.013889
30
0.020787
70
192
0
VERTEX
10
0.012500
20
-0.013889
30
0.020787
70
192
0
VERTEX
10
-0.012500
20
-0.009567
30
0.023097
70
192
0
VERTEX
10
0.012500
20
-0.009567
30
0.023097
70
192
0
VERTEX
10
-0.012500
20
-0.004877
30
0.024520
70
192
0
VERTEX
10
0.012500
20
-0.004877
30
0.024520
70
192
0
VERTEX
10
0.0
20
0.0
30
0.0
70
128
71
1
72
2
73
3
0
VERTEX
10
0.0
20
0.0
30
0.0
70
128
71
4
72
5
73
6
0
VERTEX
10
0.0
20
0.0
30
0.0
70
128
71
2
72
4
73
3
0
VERTEX
10
0.0
20
0.0
30
0.0
70
128
71
4
72
6
73
3
0
VERTEX
10
0.0
20
0.0
30
0.0
70
128
71
1
72
3
73
7
0
VERTEX
10
0.0
20
0.0
30
0.0
70
128
71
6
72
5
73
8
0
VERTEX
10
0.0
20
0.0
30
0.0
70
128
71
3
72
6
73
7
0
VERTEX
10
0.0
20
0.0
30
0.0
70
128
71
6
72
8
73
7
0
VERTEX
10
0.0
20
0.0
30
0.0
70
128
71
1
72
7
73
9
0
VERTEX
10
0.0
20
0.0
30
0.0
70
128
71
8
72
5
73
10
0
VERTEX
10
0.0
20
0.0
30
0.0
70
128
71
7
72
8
73
9
0
VERTEX
10
0.0
20
0.0
30
0.0
70
128
71
8
72
10
73
9
0
VERTEX
10
0.0
20
0.0
30
0.0
70
128
71
1
72
9
73
11
0
VERTEX
10
0.0
20
0.0
30
0.0
70
128
71
10
72
5
73
12
0
VERTEX
10
0.0
20
0.0
30
0.0
70
128
71
9
72
10
73
11
0
VERTEX
10
0.0
20
0.0
30
0.0
70
128
71
10
72
12
73
11
0
VERTEX
10
0.0
20
0.0
30
0.0
70
128
71
1
72
11
73
13
0
VERTEX
10
0.0
20
0.0
30
0.0
70
128
71
12
72
5
73
14
0
VERTEX
10
0.0
20
0.0
30
0.0
70
128
71
11
72
12
73
13
0
VERTEX
10
0.0
20
0.0
30
0.0
70
128
71
12
72
14
73
13
0
VERTEX
10
0.0
20
0.0
30
0.0
70
128
71
1
72
13
73
15
0
VERTEX
10
0.0
20
0.0
30
0.0
70
128
71
14
72
5
73
16
0
VERTEX
10
0.0
20
0.0
30
0.0
70
128
71
13
72
14
73
15
0
VERTEX
10
0.0
20
0.0
30
0.0
70
128
71
14
72
16
73
15
0
VERTEX
10
0.0
20
0.0
30
0.0
70
128
71
1
72
15
73
17
0
VERTEX
10
0.0
20
0.0
30
0.0
70
128
71
16
72
5
73
18
0
VERTEX
10
0.0
20
0.0
30
0.0
70
128
71
15
72
16
73
17
0
VERTEX
10
0.0
20
0.0
30
0.0
70
128
71
16
72
18
73
17
0
VERTEX
10
0.0
20
0.0
30
0.0
70
128
71
1
72
17
73
19
0
VERTEX
10
0.0
20
0.0
30
0.0
70
128
71
18
72
5
73
20
0
VERTEX
10
0.0
20
0.0
30
0.0
70
128
71
17
72
18
73
19
0
VERTEX
10
0.0
20
0.0
30
0.0
70
128
71
18
72
20
73
19
0
VERTEX
10
0.0
20
0.0
30
0.0
70
128
71
1
72
19
73
21
0
VERTEX
10
0.0
20
0.0
30
0.0
70
128
71
20
72
5
73
22
0
VERTEX
10
0.0
20
0.0
30
0.0
70
128
71
19
72
20
73
21
0
VERTEX
10
0.0
20
0.0
30
0.0
70
128
71
20
72
22
73
21
0
VERTEX
10
0.0
20
0.0
30
0.0
70
128
71
1
72
21
73
23
0
VERTEX
10
0.0
20
0.0
30
0.0
70
128
71
22
72
5
73
24
0
VERTEX
10
0.0
20
0.0
30
0.0
70
128
71
21
72
22
73
23
0
VERTEX
10
0.0
20
0.0
30
0.0
70
128
71
22
72
24
73
23
0
VERTEX
10
0.0
20
0.0
30
0.0
70
128
71
1
72
23
73
25
0
VERTEX
10
0.0
20
0.0
30
0.0
70
128
71
24
72
5
73
26
0
VERTEX
10
0.0
20
0.0
30
0.0
70
128
71
23
72
24
73
25
0
VERTEX
10
0.0
20
0.0
30
0.0
70
128
71
24
72
26
73
25
0
VERTEX
10
0.0
20
0.0
30
0.0
70
128
71
1
72
25
73
27
0
VERTEX
10
0.0
20
0.0
30
0.0
70
128
71
26
72
5
73
28
0
VERTEX
10
0.0
20
0.0
30
0.0
70
128
71
25
72
26
73
27
0
VERTEX
10
0.0
20
0.0
30
0.0
70
128
71
26
72
28
73
27
0
VERTEX
10
0.0
20
0.0
30
0.0
70
128
71
1
72
27
73
29
0
VERTEX
10
0.0
20
0.0
30
0.0
70
128
71
28
72
5
73
30
0
VERTEX
10
0.0
20
0.0
30
0.0
70
128
71
27
72
28
73
29
0
VERTEX
10
0.0
20
0.0
30
0.0
70
128
71
28
72
30
73
29
0
VERTEX
10
0.0
20
0.0
30
0.0
70
128
71
1
72
29
73
31
0
VERTEX
10
0.0
20
0.0
30
0.0
70
128
71
30
72
5
73
32
0
VERTEX
10
0.0
20
0.0
30
0.0
70
128
71
29
72
30
73
31
0
VERTEX
10
0.0
20
0.0
30
0.0
70
128
71
30
72
32
73
31
0
VERTEX
10
0.0
20
0.0
30
0.0
70
128
71
1
72
31
73
33
0
VERTEX
10
0.0
20
0.0
30
0.0
70
128
71
32
72
5
73
34
0
VERTEX
10
0.0
20
0.0
30
0.0
70
128
71
31
72
32
73
33
0
VERTEX
10
0.0
20
0.0
30
0.0
70
128
71
32
72
34
73
33
0
VERTEX
10
0.0
20
0.0
30
0.0
70
128
71
1
72
33
73
35
0
VERTEX
10
0.0
20
0.0
30
0.0
70
128
71
34
72
5
73
36
0
VERTEX
10
0.0
20
0.0
30
0.0
70
128
71
33
72
34
73
35
0
VERTEX
10
0.0
20
0.0
30
0.0
70
128
71
34
72
36
73
35
0
VERTEX
10
0.0
20
0.0
30
0.0
70
128
71
1
72
35
73
37
0
VERTEX
10
0.0
20
0.0
30
0.0
70
128
71
36
72
5
73
38
0
VERTEX
10
0.0
20
0.0
30
0.0
70
128
71
35
72
36
73
37
0
VERTEX
10
0.0
20
0.0
30
0.0
70
128
71
36
72
38
73
37
0
VERTEX
10
0.0
20
0.0
30
0.0
70
128
71
1
72
37
73
39
0
VERTEX
10
0.0
20
0.0
30
0.0
70
128
71
38
72
5
73
40
0
VERTEX
10
0.0
20
0.0
30
0.0
70
128
71
37
72
38
73
39
0
VERTEX
10
0.0
20
0.0
30
0.0
70
128
71
38
72
40
73
39
0
VERTEX
10
0.0
20
0.0
30
0.0
70
128
71
1
72
39
73
41
0
VERTEX
10
0.0
20
0.0
30
0.0
70
128
71
40
72
5
73
42
0
VERTEX
10
0.0
20
0.0
30
0.0
70
128
71
39
72
40
73
41
0
VERTEX
10
0.0
20
0.0
30
0.0
70
128
71
40
72
42
73
41
0
VERTEX
10
0.0
20
0.0
30
0.0
70
128
71
1
72
41
73
43
0
VERTEX
10
0.0
20
0.0
30
0.0
70
128
71
42
72
5
73
44
0
VERTEX
10
0.0
20
0.0
30
0.0
70
128
71
41
72
42
73
43
0
VERTEX
10
0.0
20
0.0
30
0.0
70
128
71
42
72
44
73
43
0
VERTEX
10
0.0
20
0.0
30
0.0
70
128
71
1
72
43
73
45
0
VERTEX
10
0.0
20
0.0
30
0.0
70
128
71
44
72
5
73
46
0
VERTEX
10
0.0
20
0.0
30
0.0
70
128
71
43
72
44
73
45
0
VERTEX
10
0.0
20
0.0
30
0.0
70
128
71
44
72
46
73
45
0
VERTEX
10
0.0
20
0.0
30
0.0
70
128
71
1
72
45
73
47
0
VERTEX
10
0.0
20
0.0
30
0.0
70
128
71
46
72
5
73
48
0
VERTEX
10
0.0
20
0.0
30
0.0
70
128
71
45
72
46
73
47
0
VERTEX
10
0.0
20
0.0
30
0.0
70
128
71
46
72
48
73
47
0
VERTEX
10
0.0
20
0.0
30
0.0
70
128
71
1
72
47
73
49
0
VERTEX
10
0.0
20
0.0
30
0.0
70
128
71
48
72
5
73
50
0
VERTEX
10
0.0
20
0.0
30
0.0
70
128
71
47
72
48
73
49
0
VERTEX
10
0.0
20
0.0
30
0.0
70
128
71
48
72
50
73
49
0
VERTEX
10
0.0
20
0.0
30
0.0
70
128
71
1
72
49
73
51
0
VERTEX
10
0.0
20
0.0
30
0.0
70
128
71
50
72
5
73
52
0
VERTEX
10
0.0
20
0.0
30
0.0
70
128
71
49
72
50
73
51
0
VERTEX
10
0.0
20
0.0
30
0.0
70
128
71
50
72
52
73
51
0
VERTEX
10
0.0
20
0.0
30
0.0
70
128
71
1
72
51
73
53
0
VERTEX
10
0.0
20
0.0
30
0.0
70
128
71
52
72
5
73
54
0
VERTEX
10
0.0
20
0.0
30
0.0
70
128
71
51
72
52
73
53
0
VERTEX
10
0.0
20
0.0
30
0.0
70
128
71
52
72
54
73
53
0
VERTEX
10
0.0
20
0.0
30
0.0
70
128
71
1
72
53
73
55
0
VERTEX
10
0.0
20
0.0
30
0.0
70
128
71
54
72
5
73
56
0
VERTEX
10
0.0
20
0.0
30
0.0
70
128
71
53
72
54
73
55
0
VERTEX
10
0.0
20
0.0
30
0.0
70
128
71
54
72
56
73
55
0
VERTEX
10
0.0
20
0.0
30
0.0
70
128
71
1
72
55
73
57
0
VERTEX
10
0.0
20
0.0
30
0.0
70
128
71
56
72
5
73
58
0
VERTEX
10
0.0
20
0.0
30
0.0
70
128
71
55
72
56
73
57
0
VERTEX
10
0.0
20
0.0
30
0.0
70
128
71
56
72
58
73
57
0
VERTEX
10
0.0
20
0.0
30
0.0
70
128
71
1
72
57
73
59
0
VERTEX
10
0.0
20
0.0
30
0.0
70
128
71
58
72
5
73
60
0
VERTEX
10
0.0
20
0.0
30
0.0
70
128
71
57
72
58
73
59
0
VERTEX
10
0.0
20
0.0
30
0.0
70
128
71
58
72
60
73
59
0
VERTEX
10
0.0
20
0.0
30
0.0
70
128
71
1
72
59
73
61
0
VERTEX
10
0.0
20
0.0
30
0.0
70
128
71
60
72
5
73
62
0
VERTEX
10
0.0
20
0.0
30
0.0
70
128
71
59
72
60
73
61
0
VERTEX
10
0.0
20
0.0
30
0.0
70
128
71
60
72
62
73
61
0
VERTEX
10
0.0
20
0.0
30
0.0
70
128
71
1
72
61
73
63
0
VERTEX
10
0.0
20
0.0
30
0.0
70
128
71
62
72
5
73
64
0
VERTEX
10
0.0
20
0.0
30
0.0
70
128
71
61
72
62
73
63
0
VERTEX
10
0.0
20
0.0
30
0.0
70
128
71
62
72
64
73
63
0
VERTEX
10
0.0
20
0.0
30
0.0
70
128
71
1
72
63
73
65
0
VERTEX
10
0.0
20
0.0
30
0.0
70
128
71
64
72
5
73
66
0
VERTEX
10
0.0
20
0.0
30
0.0
70
128
71
63
72
64
73
65
0
VERTEX
10
0.0
20
0.0
30
0.0
70
128
71
64
72
66
73
65
0
VERTEX
10
0.0
20
0.0
30
0.0
70
128
71
1
72
65
73
2
0
VERTEX
10
0.0
20
0.0
30
0.0
70
128
71
66
72
5
73
4
0
VERTEX
10
0.0
20
0.0
30
0.0
70
128
71
65
72
66
73
2
0
VERTEX
10
0.0
20
0.0
30
0.0
70
128
71
66
72
4
73
2
0
SEQEND
0
ENDBLK
0
ENDSEC
0
SECTION
2
ENTITIES
0
INSERT
2
Cylinder
10
0.0
20
0.0
30
0.0
41
1.0
42
1.0
43
1.0
50
0.0
0
ENDSEC
0
EOF
